G04 #@! TF.GenerationSoftware,KiCad,Pcbnew,(6.0.5-0)*
G04 #@! TF.CreationDate,2022-07-06T20:18:43+02:00*
G04 #@! TF.ProjectId,add-on-template,6164642d-6f6e-42d7-9465-6d706c617465,1.0*
G04 #@! TF.SameCoordinates,PX3938700PY2aea540*
G04 #@! TF.FileFunction,Legend,Bot*
G04 #@! TF.FilePolarity,Positive*
%FSLAX46Y46*%
G04 Gerber Fmt 4.6, Leading zero omitted, Abs format (unit mm)*
G04 Created by KiCad (PCBNEW (6.0.5-0)) date 2022-07-06 20:18:43*
%MOMM*%
%LPD*%
G01*
G04 APERTURE LIST*
%ADD10C,1.727200*%
%ADD11C,0.800000*%
%ADD12C,6.400000*%
G04 APERTURE END LIST*
G04 #@! TO.C,kibuzzard-62B83731*
G36*
X62038542Y-41475599D02*
G01*
X55547056Y-41475599D01*
X55409284Y-41468831D01*
X55272838Y-41448591D01*
X55139033Y-41415074D01*
X55009157Y-41368604D01*
X54884462Y-41309627D01*
X54766148Y-41238713D01*
X54655354Y-41156543D01*
X54553148Y-41063908D01*
X54460514Y-40961702D01*
X54378344Y-40850909D01*
X54307429Y-40732595D01*
X54248453Y-40607899D01*
X54201982Y-40478024D01*
X54168466Y-40344219D01*
X54148226Y-40207773D01*
X54141458Y-40070000D01*
X54148226Y-39932227D01*
X54168466Y-39795781D01*
X54201982Y-39661976D01*
X54248453Y-39532101D01*
X54277296Y-39471116D01*
X55547255Y-39471116D01*
X55597261Y-39603275D01*
X55685367Y-39699716D01*
X55763949Y-39731862D01*
X55885392Y-39679475D01*
X56002074Y-39618753D01*
X56152092Y-39598512D01*
X56305683Y-39625302D01*
X56456892Y-39705669D01*
X56575955Y-39853306D01*
X56611674Y-39954807D01*
X56623580Y-40068809D01*
X56611674Y-40182812D01*
X56575955Y-40284313D01*
X56454511Y-40434331D01*
X56306278Y-40512913D01*
X56152092Y-40539106D01*
X56012789Y-40520056D01*
X55918730Y-40481956D01*
X55875867Y-40451000D01*
X55761567Y-40403375D01*
X55684772Y-40436713D01*
X55602024Y-40536725D01*
X55549636Y-40670075D01*
X55581783Y-40753419D01*
X55656792Y-40812950D01*
X55738945Y-40862956D01*
X55899680Y-40924869D01*
X56019040Y-40953444D01*
X56134233Y-40962969D01*
X56247938Y-40955527D01*
X56362833Y-40933203D01*
X56480109Y-40893317D01*
X56600958Y-40833191D01*
X56717341Y-40755205D01*
X56821224Y-40661741D01*
X56910223Y-40546250D01*
X56981958Y-40402184D01*
X57029285Y-40236985D01*
X57045061Y-40058094D01*
X57029583Y-39880988D01*
X56983149Y-39721147D01*
X56912604Y-39583034D01*
X56824795Y-39471116D01*
X57164124Y-39471116D01*
X57214130Y-39603275D01*
X57302236Y-39699716D01*
X57380817Y-39731862D01*
X57502261Y-39679475D01*
X57618942Y-39618753D01*
X57768961Y-39598512D01*
X57922552Y-39625302D01*
X58073761Y-39705669D01*
X58192824Y-39853306D01*
X58228542Y-39954807D01*
X58240449Y-40068809D01*
X58228542Y-40182812D01*
X58192824Y-40284313D01*
X58071380Y-40434331D01*
X57923147Y-40512913D01*
X57768961Y-40539106D01*
X57629658Y-40520056D01*
X57535599Y-40481956D01*
X57492736Y-40451000D01*
X57378436Y-40403375D01*
X57301641Y-40436713D01*
X57218892Y-40536725D01*
X57166505Y-40670075D01*
X57198652Y-40753419D01*
X57273661Y-40812950D01*
X57355814Y-40862956D01*
X57516549Y-40924869D01*
X57635909Y-40953444D01*
X57751102Y-40962969D01*
X57864806Y-40955527D01*
X57979702Y-40933203D01*
X58096978Y-40893317D01*
X58217827Y-40833191D01*
X58334210Y-40755205D01*
X58438092Y-40661741D01*
X58527091Y-40546250D01*
X58598827Y-40402184D01*
X58646154Y-40236985D01*
X58661930Y-40058094D01*
X58646452Y-39880988D01*
X58600017Y-39721147D01*
X58529473Y-39583034D01*
X58441664Y-39471116D01*
X58338377Y-39380330D01*
X58325795Y-39372294D01*
X58757180Y-39372294D01*
X58792899Y-39486594D01*
X59450124Y-40820094D01*
X59529895Y-40904628D01*
X59640624Y-40936775D01*
X59664436Y-40936775D01*
X59777545Y-40904628D01*
X59857317Y-40820094D01*
X60514542Y-39486594D01*
X60550261Y-39372294D01*
X60515138Y-39292522D01*
X60409767Y-39219894D01*
X60289514Y-39179412D01*
X60226411Y-39188937D01*
X60185930Y-39222275D01*
X60146639Y-39285378D01*
X60114790Y-39352053D01*
X60054961Y-39483022D01*
X59978463Y-39651198D01*
X59896608Y-39829494D01*
X59814455Y-40007790D01*
X59737064Y-40175966D01*
X59678426Y-40303065D01*
X59652530Y-40358131D01*
X59176280Y-39315144D01*
X59142942Y-39243706D01*
X59038167Y-39179412D01*
X58897674Y-39219894D01*
X58792303Y-39292522D01*
X58757180Y-39372294D01*
X58325795Y-39372294D01*
X58221399Y-39305619D01*
X58065559Y-39234181D01*
X57909190Y-39191319D01*
X57752292Y-39177031D01*
X57639481Y-39185663D01*
X57524883Y-39211559D01*
X57349861Y-39281806D01*
X57292711Y-39315144D01*
X57226036Y-39358006D01*
X57164124Y-39471116D01*
X56824795Y-39471116D01*
X56721509Y-39380330D01*
X56604530Y-39305619D01*
X56448690Y-39234181D01*
X56292321Y-39191319D01*
X56135424Y-39177031D01*
X56022612Y-39185663D01*
X55908014Y-39211559D01*
X55732992Y-39281806D01*
X55675842Y-39315144D01*
X55609167Y-39358006D01*
X55547255Y-39471116D01*
X54277296Y-39471116D01*
X54307429Y-39407405D01*
X54378344Y-39289091D01*
X54460514Y-39178298D01*
X54553148Y-39076092D01*
X54655354Y-38983457D01*
X54766148Y-38901287D01*
X54884462Y-38830373D01*
X55009157Y-38771396D01*
X55139033Y-38724926D01*
X55272838Y-38691409D01*
X55409284Y-38671169D01*
X55547056Y-38664401D01*
X62038542Y-38664401D01*
X62038542Y-41475599D01*
G37*
G04 #@! TO.C,kibuzzard-62B83747*
G36*
X14520716Y-38671169D02*
G01*
X14657162Y-38691409D01*
X14790967Y-38724926D01*
X14920843Y-38771396D01*
X15045538Y-38830372D01*
X15163852Y-38901287D01*
X15274646Y-38983457D01*
X15376852Y-39076091D01*
X15469486Y-39178297D01*
X15551656Y-39289091D01*
X15622571Y-39407405D01*
X15681548Y-39532101D01*
X15728018Y-39661976D01*
X15761534Y-39795781D01*
X15781774Y-39932227D01*
X15788542Y-40070000D01*
X15781774Y-40207773D01*
X15761534Y-40344219D01*
X15728018Y-40478024D01*
X15681548Y-40607899D01*
X15622571Y-40732595D01*
X15551656Y-40850909D01*
X15469486Y-40961703D01*
X15376852Y-41063909D01*
X15274646Y-41156543D01*
X15163852Y-41238713D01*
X15045538Y-41309628D01*
X14920843Y-41368604D01*
X14790967Y-41415074D01*
X14657162Y-41448591D01*
X14520716Y-41468831D01*
X14382943Y-41475599D01*
X7891458Y-41475599D01*
X7891458Y-39471116D01*
X9379739Y-39471116D01*
X9429745Y-39603275D01*
X9517851Y-39699716D01*
X9596433Y-39731862D01*
X9717876Y-39679475D01*
X9834558Y-39618753D01*
X9984576Y-39598512D01*
X10138167Y-39625302D01*
X10289376Y-39705669D01*
X10408439Y-39853306D01*
X10444158Y-39954807D01*
X10456064Y-40068809D01*
X10444158Y-40182812D01*
X10408439Y-40284313D01*
X10286995Y-40434331D01*
X10138762Y-40512913D01*
X9984576Y-40539106D01*
X9845273Y-40520056D01*
X9751214Y-40481956D01*
X9708351Y-40451000D01*
X9594051Y-40403375D01*
X9517256Y-40436713D01*
X9434508Y-40536725D01*
X9382120Y-40670075D01*
X9414267Y-40753419D01*
X9489276Y-40812950D01*
X9571429Y-40862956D01*
X9732164Y-40924869D01*
X9851524Y-40953444D01*
X9966717Y-40962969D01*
X10080422Y-40955527D01*
X10195317Y-40933203D01*
X10312593Y-40893317D01*
X10433442Y-40833191D01*
X10549826Y-40755205D01*
X10653708Y-40661741D01*
X10742707Y-40546250D01*
X10814442Y-40402184D01*
X10861769Y-40236985D01*
X10877545Y-40058094D01*
X10862067Y-39880988D01*
X10815633Y-39721147D01*
X10745088Y-39583034D01*
X10657279Y-39471116D01*
X10996608Y-39471116D01*
X11046614Y-39603275D01*
X11134720Y-39699716D01*
X11213301Y-39731862D01*
X11334745Y-39679475D01*
X11451426Y-39618753D01*
X11601445Y-39598512D01*
X11755036Y-39625302D01*
X11906245Y-39705669D01*
X12025308Y-39853306D01*
X12061026Y-39954807D01*
X12072933Y-40068809D01*
X12061026Y-40182812D01*
X12025308Y-40284313D01*
X11903864Y-40434331D01*
X11755631Y-40512913D01*
X11601445Y-40539106D01*
X11462142Y-40520056D01*
X11368083Y-40481956D01*
X11325220Y-40451000D01*
X11210920Y-40403375D01*
X11134125Y-40436713D01*
X11051376Y-40536725D01*
X10998989Y-40670075D01*
X11031136Y-40753419D01*
X11106145Y-40812950D01*
X11188298Y-40862956D01*
X11349033Y-40924869D01*
X11468393Y-40953444D01*
X11583586Y-40962969D01*
X11697290Y-40955527D01*
X11812186Y-40933203D01*
X11929462Y-40893317D01*
X12050311Y-40833191D01*
X12166694Y-40755205D01*
X12270576Y-40661741D01*
X12359576Y-40546250D01*
X12431311Y-40402184D01*
X12478638Y-40236985D01*
X12494414Y-40058094D01*
X12478936Y-39880988D01*
X12432501Y-39721147D01*
X12361957Y-39583034D01*
X12274148Y-39471116D01*
X12170861Y-39380330D01*
X12158279Y-39372294D01*
X12589664Y-39372294D01*
X12625383Y-39486594D01*
X13282608Y-40820094D01*
X13362379Y-40904628D01*
X13473108Y-40936775D01*
X13496920Y-40936775D01*
X13610029Y-40904628D01*
X13689801Y-40820094D01*
X14347026Y-39486594D01*
X14382745Y-39372294D01*
X14347622Y-39292522D01*
X14242251Y-39219894D01*
X14121998Y-39179412D01*
X14058895Y-39188937D01*
X14018414Y-39222275D01*
X13979123Y-39285378D01*
X13947274Y-39352053D01*
X13887445Y-39483022D01*
X13810947Y-39651198D01*
X13729092Y-39829494D01*
X13646939Y-40007790D01*
X13569548Y-40175966D01*
X13510910Y-40303065D01*
X13485014Y-40358131D01*
X13008764Y-39315144D01*
X12975426Y-39243706D01*
X12870651Y-39179412D01*
X12730158Y-39219894D01*
X12624787Y-39292522D01*
X12589664Y-39372294D01*
X12158279Y-39372294D01*
X12053883Y-39305619D01*
X11898043Y-39234181D01*
X11741674Y-39191319D01*
X11584776Y-39177031D01*
X11471965Y-39185663D01*
X11357367Y-39211559D01*
X11182345Y-39281806D01*
X11125195Y-39315144D01*
X11058520Y-39358006D01*
X10996608Y-39471116D01*
X10657279Y-39471116D01*
X10553993Y-39380330D01*
X10437014Y-39305619D01*
X10281174Y-39234181D01*
X10124805Y-39191319D01*
X9967908Y-39177031D01*
X9855096Y-39185663D01*
X9740498Y-39211559D01*
X9565476Y-39281806D01*
X9508326Y-39315144D01*
X9441651Y-39358006D01*
X9379739Y-39471116D01*
X7891458Y-39471116D01*
X7891458Y-38664401D01*
X14382943Y-38664401D01*
X14520716Y-38671169D01*
G37*
G04 #@! TO.C,kibuzzard-62B8371F*
G36*
X49266442Y-5502438D02*
G01*
X49035461Y-5502438D01*
X48872345Y-5470588D01*
X48725899Y-5375041D01*
X48622314Y-5231273D01*
X48587786Y-5054763D01*
X48621421Y-4877657D01*
X48722327Y-4732103D01*
X48868476Y-4634770D01*
X49037842Y-4602325D01*
X49266442Y-4602325D01*
X49266442Y-5502438D01*
G37*
G36*
X48027633Y-6455940D02*
G01*
X47890494Y-6435597D01*
X47756009Y-6401910D01*
X47625473Y-6355204D01*
X47500144Y-6295928D01*
X47381229Y-6224653D01*
X47269872Y-6142065D01*
X47167147Y-6048960D01*
X47074042Y-5946234D01*
X46991454Y-5834878D01*
X46920179Y-5715962D01*
X46860903Y-5590633D01*
X46814196Y-5460097D01*
X46780509Y-5325612D01*
X46760167Y-5188473D01*
X46753364Y-5050000D01*
X46753773Y-5041666D01*
X48166305Y-5041666D01*
X48182304Y-5216762D01*
X48230301Y-5378910D01*
X48310296Y-5528110D01*
X48422289Y-5664363D01*
X48557053Y-5777918D01*
X48705360Y-5859030D01*
X48867211Y-5907696D01*
X49042605Y-5923919D01*
X49478374Y-5923919D01*
X49596245Y-5909036D01*
X49659349Y-5864388D01*
X49687031Y-5716750D01*
X49878424Y-5716750D01*
X49881995Y-5800094D01*
X49904617Y-5862006D01*
X49967720Y-5910227D01*
X50090355Y-5926300D01*
X50218942Y-5912013D01*
X50278474Y-5866769D01*
X50446881Y-5642402D01*
X50594915Y-5445552D01*
X50722577Y-5276219D01*
X50829865Y-5134402D01*
X50916781Y-5020102D01*
X50983324Y-4933319D01*
X50983324Y-5716750D01*
X50986895Y-5800094D01*
X51009517Y-5862006D01*
X51072620Y-5910227D01*
X51195255Y-5926300D01*
X51314317Y-5910227D01*
X51376230Y-5862006D01*
X51398852Y-5797713D01*
X51402424Y-5714369D01*
X51402424Y-5597688D01*
X51592924Y-5597688D01*
X51659599Y-5742944D01*
X51772113Y-5833580D01*
X51909630Y-5898320D01*
X52072150Y-5937164D01*
X52259674Y-5950113D01*
X52431272Y-5933369D01*
X52591263Y-5883140D01*
X52739644Y-5799424D01*
X52876417Y-5682222D01*
X52991015Y-5541356D01*
X53072870Y-5386649D01*
X53121984Y-5218101D01*
X53138355Y-5035712D01*
X53121686Y-4854217D01*
X53071680Y-4688348D01*
X52988336Y-4538106D01*
X52871655Y-4403491D01*
X52732352Y-4292539D01*
X52581142Y-4213288D01*
X52418027Y-4165738D01*
X52243005Y-4149887D01*
X52059119Y-4170525D01*
X51882113Y-4232437D01*
X51711986Y-4335625D01*
X51647692Y-4441591D01*
X51702461Y-4576131D01*
X51791163Y-4670786D01*
X51871530Y-4702337D01*
X52016786Y-4636853D01*
X52126324Y-4587740D01*
X52254911Y-4571369D01*
X52425766Y-4603218D01*
X52576380Y-4698766D01*
X52681750Y-4845808D01*
X52716874Y-5032141D01*
X52700999Y-5162580D01*
X52653374Y-5279261D01*
X52573999Y-5382184D01*
X52421599Y-5490234D01*
X52250149Y-5526250D01*
X52125728Y-5515534D01*
X52014405Y-5483388D01*
X52014405Y-5223831D01*
X52202524Y-5223831D01*
X52307299Y-5204781D01*
X52347780Y-5148822D01*
X52357305Y-5048809D01*
X52346589Y-4947606D01*
X52307299Y-4895219D01*
X52192999Y-4873787D01*
X51773899Y-4873787D01*
X51616736Y-4940462D01*
X51592924Y-5073813D01*
X51592924Y-5597688D01*
X51402424Y-5597688D01*
X51402424Y-4385631D01*
X51379802Y-4253472D01*
X51311936Y-4197512D01*
X51195255Y-4183225D01*
X51082145Y-4196322D01*
X51023805Y-4226087D01*
X50969036Y-4288000D01*
X50810815Y-4502908D01*
X50671115Y-4692019D01*
X50549936Y-4855333D01*
X50447278Y-4992850D01*
X50363140Y-5104570D01*
X50297524Y-5190494D01*
X50297524Y-4385631D01*
X50274902Y-4253472D01*
X50207036Y-4197512D01*
X50093927Y-4183225D01*
X49984389Y-4195131D01*
X49922477Y-4223706D01*
X49892711Y-4273712D01*
X49878424Y-4395156D01*
X49878424Y-5716750D01*
X49687031Y-5716750D01*
X49687924Y-5711988D01*
X49687924Y-4388012D01*
X49684352Y-4304669D01*
X49661730Y-4242756D01*
X49598627Y-4194536D01*
X49475992Y-4178462D01*
X49035461Y-4180844D01*
X48868029Y-4196396D01*
X48711016Y-4243054D01*
X48564420Y-4320817D01*
X48428242Y-4429684D01*
X48313645Y-4561248D01*
X48231789Y-4707100D01*
X48182676Y-4867239D01*
X48166305Y-5041666D01*
X46753773Y-5041666D01*
X46760167Y-4911527D01*
X46780509Y-4774388D01*
X46814196Y-4639903D01*
X46860903Y-4509367D01*
X46920179Y-4384038D01*
X46991454Y-4265122D01*
X47074042Y-4153766D01*
X47167147Y-4051040D01*
X47269872Y-3957935D01*
X47381229Y-3875347D01*
X47500144Y-3804072D01*
X47625473Y-3744796D01*
X47756009Y-3698090D01*
X47890494Y-3664403D01*
X48027633Y-3644060D01*
X48166106Y-3637257D01*
X54626636Y-3637257D01*
X54626636Y-6462743D01*
X48166106Y-6462743D01*
X48027633Y-6455940D01*
G37*
G04 #@! TO.C,kibuzzard-62B8370D*
G36*
X17961783Y-5502438D02*
G01*
X17730801Y-5502438D01*
X17567686Y-5470588D01*
X17421239Y-5375041D01*
X17317654Y-5231273D01*
X17283126Y-5054763D01*
X17316761Y-4877657D01*
X17417667Y-4732103D01*
X17563816Y-4634770D01*
X17733183Y-4602325D01*
X17961783Y-4602325D01*
X17961783Y-5502438D01*
G37*
G36*
X21972366Y-3644060D02*
G01*
X22109506Y-3664403D01*
X22243991Y-3698090D01*
X22374527Y-3744796D01*
X22499856Y-3804072D01*
X22618771Y-3875347D01*
X22730128Y-3957935D01*
X22832853Y-4051040D01*
X22925958Y-4153766D01*
X23008546Y-4265122D01*
X23079821Y-4384038D01*
X23139098Y-4509367D01*
X23185804Y-4639902D01*
X23219491Y-4774388D01*
X23239833Y-4911527D01*
X23246636Y-5050000D01*
X23239833Y-5188473D01*
X23219491Y-5325612D01*
X23185804Y-5460098D01*
X23139098Y-5590633D01*
X23079821Y-5715962D01*
X23008546Y-5834878D01*
X22925958Y-5946234D01*
X22832853Y-6048960D01*
X22730128Y-6142065D01*
X22618771Y-6224653D01*
X22499856Y-6295928D01*
X22374527Y-6355204D01*
X22243991Y-6401910D01*
X22109506Y-6435597D01*
X21972366Y-6455940D01*
X21833893Y-6462743D01*
X15373364Y-6462743D01*
X15373364Y-5041666D01*
X16861645Y-5041666D01*
X16877644Y-5216762D01*
X16925641Y-5378910D01*
X17005636Y-5528110D01*
X17117629Y-5664363D01*
X17252393Y-5777918D01*
X17400701Y-5859030D01*
X17562551Y-5907696D01*
X17737945Y-5923919D01*
X18173714Y-5923919D01*
X18291586Y-5909036D01*
X18354689Y-5864388D01*
X18382371Y-5716750D01*
X18573764Y-5716750D01*
X18577336Y-5800094D01*
X18599958Y-5862006D01*
X18663061Y-5910227D01*
X18785695Y-5926300D01*
X18914283Y-5912013D01*
X18973814Y-5866769D01*
X19142221Y-5642402D01*
X19290255Y-5445552D01*
X19417917Y-5276219D01*
X19525205Y-5134402D01*
X19612121Y-5020102D01*
X19678664Y-4933319D01*
X19678664Y-5716750D01*
X19682236Y-5800094D01*
X19704858Y-5862006D01*
X19767961Y-5910227D01*
X19890595Y-5926300D01*
X20009658Y-5910227D01*
X20071570Y-5862006D01*
X20094192Y-5797713D01*
X20097764Y-5714369D01*
X20097764Y-5597688D01*
X20288264Y-5597688D01*
X20354939Y-5742944D01*
X20467453Y-5833580D01*
X20604970Y-5898320D01*
X20767490Y-5937164D01*
X20955014Y-5950113D01*
X21126613Y-5933369D01*
X21286603Y-5883140D01*
X21434985Y-5799424D01*
X21571758Y-5682222D01*
X21686355Y-5541356D01*
X21768211Y-5386649D01*
X21817324Y-5218101D01*
X21833695Y-5035712D01*
X21817026Y-4854217D01*
X21767020Y-4688348D01*
X21683676Y-4538106D01*
X21566995Y-4403491D01*
X21427692Y-4292539D01*
X21276483Y-4213288D01*
X21113367Y-4165738D01*
X20938345Y-4149887D01*
X20754460Y-4170525D01*
X20577453Y-4232437D01*
X20407326Y-4335625D01*
X20343033Y-4441591D01*
X20397801Y-4576131D01*
X20486503Y-4670786D01*
X20566870Y-4702337D01*
X20712126Y-4636853D01*
X20821664Y-4587740D01*
X20950251Y-4571369D01*
X21121106Y-4603218D01*
X21271720Y-4698766D01*
X21377090Y-4845808D01*
X21412214Y-5032141D01*
X21396339Y-5162580D01*
X21348714Y-5279261D01*
X21269339Y-5382184D01*
X21116939Y-5490234D01*
X20945489Y-5526250D01*
X20821068Y-5515534D01*
X20709745Y-5483388D01*
X20709745Y-5223831D01*
X20897864Y-5223831D01*
X21002639Y-5204781D01*
X21043120Y-5148822D01*
X21052645Y-5048809D01*
X21041929Y-4947606D01*
X21002639Y-4895219D01*
X20888339Y-4873787D01*
X20469239Y-4873787D01*
X20312076Y-4940462D01*
X20288264Y-5073813D01*
X20288264Y-5597688D01*
X20097764Y-5597688D01*
X20097764Y-4385631D01*
X20075142Y-4253472D01*
X20007276Y-4197512D01*
X19890595Y-4183225D01*
X19777486Y-4196322D01*
X19719145Y-4226087D01*
X19664376Y-4288000D01*
X19506155Y-4502908D01*
X19366455Y-4692019D01*
X19245276Y-4855333D01*
X19142618Y-4992850D01*
X19058480Y-5104570D01*
X18992864Y-5190494D01*
X18992864Y-4385631D01*
X18970242Y-4253472D01*
X18902376Y-4197512D01*
X18789267Y-4183225D01*
X18679729Y-4195131D01*
X18617817Y-4223706D01*
X18588051Y-4273712D01*
X18573764Y-4395156D01*
X18573764Y-5716750D01*
X18382371Y-5716750D01*
X18383264Y-5711988D01*
X18383264Y-4388012D01*
X18379692Y-4304669D01*
X18357070Y-4242756D01*
X18293967Y-4194536D01*
X18171333Y-4178462D01*
X17730801Y-4180844D01*
X17563370Y-4196396D01*
X17406356Y-4243054D01*
X17259760Y-4320817D01*
X17123583Y-4429684D01*
X17008985Y-4561248D01*
X16927129Y-4707100D01*
X16878016Y-4867239D01*
X16861645Y-5041666D01*
X15373364Y-5041666D01*
X15373364Y-3637257D01*
X21833893Y-3637257D01*
X21972366Y-3644060D01*
G37*
G04 #@! TD*
%LPC*%
D10*
G04 #@! TO.C,REF\u002A\u002A*
X8330000Y-31390000D03*
G04 #@! TD*
G04 #@! TO.C,REF\u002A\u002A*
X21030000Y-18690000D03*
G04 #@! TD*
G04 #@! TO.C,REF\u002A\u002A*
X48970000Y-33930000D03*
G04 #@! TD*
G04 #@! TO.C,REF\u002A\u002A*
X10870000Y-28850000D03*
G04 #@! TD*
G04 #@! TO.C,REF\u002A\u002A*
X59130000Y-21230000D03*
G04 #@! TD*
G04 #@! TO.C,REF\u002A\u002A*
X26110000Y-31390000D03*
G04 #@! TD*
G04 #@! TO.C,REF\u002A\u002A*
X38810000Y-21230000D03*
G04 #@! TD*
G04 #@! TO.C,REF\u002A\u002A*
X36270000Y-33930000D03*
G04 #@! TD*
G04 #@! TO.C,REF\u002A\u002A*
X56590000Y-21230000D03*
G04 #@! TD*
G04 #@! TO.C,REF\u002A\u002A*
X41350000Y-21230000D03*
G04 #@! TD*
G04 #@! TO.C,REF\u002A\u002A*
X48970000Y-26310000D03*
G04 #@! TD*
G04 #@! TO.C,REF\u002A\u002A*
X38810000Y-13610000D03*
G04 #@! TD*
G04 #@! TO.C,REF\u002A\u002A*
X28650000Y-36470000D03*
G04 #@! TD*
G04 #@! TO.C,REF\u002A\u002A*
X54050000Y-13610000D03*
G04 #@! TD*
G04 #@! TO.C,REF\u002A\u002A*
X61670000Y-28850000D03*
G04 #@! TD*
G04 #@! TO.C,REF\u002A\u002A*
X28650000Y-28850000D03*
G04 #@! TD*
G04 #@! TO.C,REF\u002A\u002A*
X31190000Y-16150000D03*
G04 #@! TD*
G04 #@! TO.C,REF\u002A\u002A*
X23570000Y-8530000D03*
G04 #@! TD*
G04 #@! TO.C,REF\u002A\u002A*
X36270000Y-16150000D03*
G04 #@! TD*
G04 #@! TO.C,REF\u002A\u002A*
X23570000Y-36470000D03*
G04 #@! TD*
G04 #@! TO.C,REF\u002A\u002A*
X13410000Y-11070000D03*
G04 #@! TD*
G04 #@! TO.C,REF\u002A\u002A*
X28650000Y-23770000D03*
G04 #@! TD*
G04 #@! TO.C,REF\u002A\u002A*
X18490000Y-16150000D03*
G04 #@! TD*
G04 #@! TO.C,REF\u002A\u002A*
X41350000Y-28850000D03*
G04 #@! TD*
G04 #@! TO.C,REF\u002A\u002A*
X38810000Y-33930000D03*
G04 #@! TD*
G04 #@! TO.C,REF\u002A\u002A*
X31190000Y-23770000D03*
G04 #@! TD*
G04 #@! TO.C,REF\u002A\u002A*
X31190000Y-28850000D03*
G04 #@! TD*
G04 #@! TO.C,REF\u002A\u002A*
X38810000Y-8530000D03*
G04 #@! TD*
G04 #@! TO.C,REF\u002A\u002A*
X46430000Y-31390000D03*
G04 #@! TD*
G04 #@! TO.C,REF\u002A\u002A*
X48970000Y-36470000D03*
G04 #@! TD*
G04 #@! TO.C,REF\u002A\u002A*
X51510000Y-11070000D03*
G04 #@! TD*
G04 #@! TO.C,REF\u002A\u002A*
X31190000Y-8530000D03*
G04 #@! TD*
D11*
G04 #@! TO.C,REF\u002A\u002A*
X65000000Y-42400000D03*
X62600000Y-40000000D03*
X63302944Y-41697056D03*
D12*
X65000000Y-40000000D03*
D11*
X65000000Y-37600000D03*
X67400000Y-40000000D03*
X66697056Y-41697056D03*
X66697056Y-38302944D03*
X63302944Y-38302944D03*
G04 #@! TD*
D10*
G04 #@! TO.C,REF\u002A\u002A*
X33730000Y-21230000D03*
G04 #@! TD*
G04 #@! TO.C,REF\u002A\u002A*
X33730000Y-13610000D03*
G04 #@! TD*
G04 #@! TO.C,REF\u002A\u002A*
X64210000Y-31390000D03*
G04 #@! TD*
G04 #@! TO.C,REF\u002A\u002A*
X61670000Y-23770000D03*
G04 #@! TD*
G04 #@! TO.C,REF\u002A\u002A*
X56590000Y-18690000D03*
G04 #@! TD*
G04 #@! TO.C,REF\u002A\u002A*
X18490000Y-31390000D03*
G04 #@! TD*
G04 #@! TO.C,REF\u002A\u002A*
X18490000Y-23770000D03*
G04 #@! TD*
G04 #@! TO.C,J2*
G36*
G01*
X31615000Y-37320000D02*
X30765000Y-37320000D01*
G75*
G02*
X30340000Y-36895000I0J425000D01*
G01*
X30340000Y-36045000D01*
G75*
G02*
X30765000Y-35620000I425000J0D01*
G01*
X31615000Y-35620000D01*
G75*
G02*
X32040000Y-36045000I0J-425000D01*
G01*
X32040000Y-36895000D01*
G75*
G02*
X31615000Y-37320000I-425000J0D01*
G01*
G37*
G36*
G01*
X34155000Y-37320000D02*
X33305000Y-37320000D01*
G75*
G02*
X32880000Y-36895000I0J425000D01*
G01*
X32880000Y-36045000D01*
G75*
G02*
X33305000Y-35620000I425000J0D01*
G01*
X34155000Y-35620000D01*
G75*
G02*
X34580000Y-36045000I0J-425000D01*
G01*
X34580000Y-36895000D01*
G75*
G02*
X34155000Y-37320000I-425000J0D01*
G01*
G37*
G36*
G01*
X36695000Y-37320000D02*
X35845000Y-37320000D01*
G75*
G02*
X35420000Y-36895000I0J425000D01*
G01*
X35420000Y-36045000D01*
G75*
G02*
X35845000Y-35620000I425000J0D01*
G01*
X36695000Y-35620000D01*
G75*
G02*
X37120000Y-36045000I0J-425000D01*
G01*
X37120000Y-36895000D01*
G75*
G02*
X36695000Y-37320000I-425000J0D01*
G01*
G37*
G36*
G01*
X39235000Y-37320000D02*
X38385000Y-37320000D01*
G75*
G02*
X37960000Y-36895000I0J425000D01*
G01*
X37960000Y-36045000D01*
G75*
G02*
X38385000Y-35620000I425000J0D01*
G01*
X39235000Y-35620000D01*
G75*
G02*
X39660000Y-36045000I0J-425000D01*
G01*
X39660000Y-36895000D01*
G75*
G02*
X39235000Y-37320000I-425000J0D01*
G01*
G37*
G04 #@! TD*
G04 #@! TO.C,REF\u002A\u002A*
X8330000Y-33930000D03*
G04 #@! TD*
G04 #@! TO.C,REF\u002A\u002A*
X38810000Y-11070000D03*
G04 #@! TD*
G04 #@! TO.C,REF\u002A\u002A*
X23570000Y-26310000D03*
G04 #@! TD*
G04 #@! TO.C,REF\u002A\u002A*
X8330000Y-21230000D03*
G04 #@! TD*
G04 #@! TO.C,REF\u002A\u002A*
X26110000Y-8530000D03*
G04 #@! TD*
G04 #@! TO.C,REF\u002A\u002A*
X64210000Y-26310000D03*
G04 #@! TD*
G04 #@! TO.C,REF\u002A\u002A*
X43890000Y-23770000D03*
G04 #@! TD*
G04 #@! TO.C,REF\u002A\u002A*
X38810000Y-28850000D03*
G04 #@! TD*
G04 #@! TO.C,REF\u002A\u002A*
X36270000Y-13610000D03*
G04 #@! TD*
G04 #@! TO.C,REF\u002A\u002A*
X28650000Y-33930000D03*
G04 #@! TD*
G04 #@! TO.C,REF\u002A\u002A*
X31190000Y-31390000D03*
G04 #@! TD*
G04 #@! TO.C,REF\u002A\u002A*
X51510000Y-13610000D03*
G04 #@! TD*
G04 #@! TO.C,REF\u002A\u002A*
X38810000Y-18690000D03*
G04 #@! TD*
G04 #@! TO.C,REF\u002A\u002A*
X21030000Y-26310000D03*
G04 #@! TD*
G04 #@! TO.C,REF\u002A\u002A*
X10870000Y-16150000D03*
G04 #@! TD*
G04 #@! TO.C,REF\u002A\u002A*
X23570000Y-31390000D03*
G04 #@! TD*
G04 #@! TO.C,REF\u002A\u002A*
X48970000Y-13610000D03*
G04 #@! TD*
G04 #@! TO.C,REF\u002A\u002A*
X15950000Y-11070000D03*
G04 #@! TD*
G04 #@! TO.C,REF\u002A\u002A*
X56590000Y-23770000D03*
G04 #@! TD*
G04 #@! TO.C,REF\u002A\u002A*
X43890000Y-18690000D03*
G04 #@! TD*
G04 #@! TO.C,REF\u002A\u002A*
X18490000Y-13610000D03*
G04 #@! TD*
G04 #@! TO.C,REF\u002A\u002A*
X28650000Y-26310000D03*
G04 #@! TD*
G04 #@! TO.C,REF\u002A\u002A*
X61670000Y-26310000D03*
G04 #@! TD*
G04 #@! TO.C,REF\u002A\u002A*
X41350000Y-31390000D03*
G04 #@! TD*
G04 #@! TO.C,REF\u002A\u002A*
X61670000Y-18690000D03*
G04 #@! TD*
G04 #@! TO.C,REF\u002A\u002A*
X33730000Y-31390000D03*
G04 #@! TD*
G04 #@! TO.C,REF\u002A\u002A*
X56590000Y-13610000D03*
G04 #@! TD*
G04 #@! TO.C,REF\u002A\u002A*
X54050000Y-23770000D03*
G04 #@! TD*
G04 #@! TO.C,REF\u002A\u002A*
X33730000Y-11070000D03*
G04 #@! TD*
G04 #@! TO.C,REF\u002A\u002A*
X5790000Y-31390000D03*
G04 #@! TD*
G04 #@! TO.C,REF\u002A\u002A*
X8330000Y-16150000D03*
G04 #@! TD*
G04 #@! TO.C,REF\u002A\u002A*
X41350000Y-11070000D03*
G04 #@! TD*
G04 #@! TO.C,REF\u002A\u002A*
X13410000Y-18690000D03*
G04 #@! TD*
G04 #@! TO.C,REF\u002A\u002A*
X61670000Y-16150000D03*
G04 #@! TD*
G04 #@! TO.C,REF\u002A\u002A*
X31190000Y-33930000D03*
G04 #@! TD*
G04 #@! TO.C,REF\u002A\u002A*
X13410000Y-31390000D03*
G04 #@! TD*
G04 #@! TO.C,REF\u002A\u002A*
X51510000Y-21230000D03*
G04 #@! TD*
G04 #@! TO.C,REF\u002A\u002A*
X51510000Y-31390000D03*
G04 #@! TD*
G04 #@! TO.C,REF\u002A\u002A*
X21030000Y-21230000D03*
G04 #@! TD*
G04 #@! TO.C,REF\u002A\u002A*
X51510000Y-8530000D03*
G04 #@! TD*
G04 #@! TO.C,REF\u002A\u002A*
X51510000Y-16150000D03*
G04 #@! TD*
G04 #@! TO.C,REF\u002A\u002A*
X15950000Y-31390000D03*
G04 #@! TD*
G04 #@! TO.C,REF\u002A\u002A*
X18490000Y-18690000D03*
G04 #@! TD*
G04 #@! TO.C,REF\u002A\u002A*
X28650000Y-16150000D03*
G04 #@! TD*
G04 #@! TO.C,REF\u002A\u002A*
X23570000Y-16150000D03*
G04 #@! TD*
G04 #@! TO.C,REF\u002A\u002A*
X51510000Y-36470000D03*
G04 #@! TD*
G04 #@! TO.C,REF\u002A\u002A*
X10870000Y-11070000D03*
G04 #@! TD*
G04 #@! TO.C,REF\u002A\u002A*
X46430000Y-16150000D03*
G04 #@! TD*
G04 #@! TO.C,REF\u002A\u002A*
X38810000Y-16150000D03*
G04 #@! TD*
G04 #@! TO.C,REF\u002A\u002A*
X48970000Y-18690000D03*
G04 #@! TD*
G04 #@! TO.C,REF\u002A\u002A*
X43890000Y-26310000D03*
G04 #@! TD*
G04 #@! TO.C,REF\u002A\u002A*
X33730000Y-18690000D03*
G04 #@! TD*
G04 #@! TO.C,REF\u002A\u002A*
X46430000Y-8530000D03*
G04 #@! TD*
G04 #@! TO.C,REF\u002A\u002A*
X15950000Y-18690000D03*
G04 #@! TD*
D11*
G04 #@! TO.C,REF\u002A\u002A*
X59197056Y-3302944D03*
X59900000Y-5000000D03*
X55802944Y-3302944D03*
X57500000Y-7400000D03*
X57500000Y-2600000D03*
D12*
X57500000Y-5000000D03*
D11*
X55100000Y-5000000D03*
X59197056Y-6697056D03*
X55802944Y-6697056D03*
G04 #@! TD*
D10*
G04 #@! TO.C,REF\u002A\u002A*
X56590000Y-36470000D03*
G04 #@! TD*
G04 #@! TO.C,REF\u002A\u002A*
X33730000Y-8530000D03*
G04 #@! TD*
G04 #@! TO.C,REF\u002A\u002A*
X5790000Y-33930000D03*
G04 #@! TD*
G04 #@! TO.C,REF\u002A\u002A*
X36270000Y-31390000D03*
G04 #@! TD*
G04 #@! TO.C,REF\u002A\u002A*
X28650000Y-8530000D03*
G04 #@! TD*
G04 #@! TO.C,REF\u002A\u002A*
X48970000Y-28850000D03*
G04 #@! TD*
G04 #@! TO.C,REF\u002A\u002A*
X43890000Y-8530000D03*
G04 #@! TD*
G04 #@! TO.C,REF\u002A\u002A*
X54050000Y-21230000D03*
G04 #@! TD*
G04 #@! TO.C,REF\u002A\u002A*
X43890000Y-21230000D03*
G04 #@! TD*
G04 #@! TO.C,REF\u002A\u002A*
X48970000Y-8530000D03*
G04 #@! TD*
G04 #@! TO.C,REF\u002A\u002A*
X41350000Y-13610000D03*
G04 #@! TD*
G04 #@! TO.C,REF\u002A\u002A*
X43890000Y-31390000D03*
G04 #@! TD*
G04 #@! TO.C,REF\u002A\u002A*
X64210000Y-33930000D03*
G04 #@! TD*
G04 #@! TO.C,REF\u002A\u002A*
X54050000Y-18690000D03*
G04 #@! TD*
G04 #@! TO.C,REF\u002A\u002A*
X21030000Y-23770000D03*
G04 #@! TD*
G04 #@! TO.C,REF\u002A\u002A*
X21030000Y-31390000D03*
G04 #@! TD*
G04 #@! TO.C,REF\u002A\u002A*
X41350000Y-23770000D03*
G04 #@! TD*
G04 #@! TO.C,REF\u002A\u002A*
X33730000Y-28850000D03*
G04 #@! TD*
G04 #@! TO.C,REF\u002A\u002A*
X54050000Y-11070000D03*
G04 #@! TD*
G04 #@! TO.C,REF\u002A\u002A*
X28650000Y-18690000D03*
G04 #@! TD*
G04 #@! TO.C,REF\u002A\u002A*
X15950000Y-36470000D03*
G04 #@! TD*
G04 #@! TO.C,REF\u002A\u002A*
X10870000Y-33930000D03*
G04 #@! TD*
G04 #@! TO.C,REF\u002A\u002A*
X46430000Y-26310000D03*
G04 #@! TD*
G04 #@! TO.C,REF\u002A\u002A*
X61670000Y-33930000D03*
G04 #@! TD*
G04 #@! TO.C,REF\u002A\u002A*
X51510000Y-33930000D03*
G04 #@! TD*
G04 #@! TO.C,REF\u002A\u002A*
X8330000Y-26310000D03*
G04 #@! TD*
G04 #@! TO.C,REF\u002A\u002A*
X26110000Y-26310000D03*
G04 #@! TD*
G04 #@! TO.C,REF\u002A\u002A*
X8330000Y-23770000D03*
G04 #@! TD*
G04 #@! TO.C,REF\u002A\u002A*
X48970000Y-31390000D03*
G04 #@! TD*
G04 #@! TO.C,REF\u002A\u002A*
X41350000Y-8530000D03*
G04 #@! TD*
G04 #@! TO.C,REF\u002A\u002A*
X41350000Y-18690000D03*
G04 #@! TD*
G04 #@! TO.C,REF\u002A\u002A*
X26110000Y-33930000D03*
G04 #@! TD*
G04 #@! TO.C,REF\u002A\u002A*
X15950000Y-21230000D03*
G04 #@! TD*
G04 #@! TO.C,REF\u002A\u002A*
X48970000Y-16150000D03*
G04 #@! TD*
G04 #@! TO.C,REF\u002A\u002A*
X59130000Y-28850000D03*
G04 #@! TD*
G04 #@! TO.C,REF\u002A\u002A*
X13410000Y-28850000D03*
G04 #@! TD*
G04 #@! TO.C,REF\u002A\u002A*
X31190000Y-18690000D03*
G04 #@! TD*
G04 #@! TO.C,REF\u002A\u002A*
X48970000Y-23770000D03*
G04 #@! TD*
G04 #@! TO.C,REF\u002A\u002A*
X41350000Y-16150000D03*
G04 #@! TD*
G04 #@! TO.C,REF\u002A\u002A*
X46430000Y-28850000D03*
G04 #@! TD*
G04 #@! TO.C,REF\u002A\u002A*
X10870000Y-31390000D03*
G04 #@! TD*
G04 #@! TO.C,REF\u002A\u002A*
X46430000Y-33930000D03*
G04 #@! TD*
G04 #@! TO.C,REF\u002A\u002A*
X26110000Y-36470000D03*
G04 #@! TD*
G04 #@! TO.C,REF\u002A\u002A*
X18490000Y-26310000D03*
G04 #@! TD*
G04 #@! TO.C,REF\u002A\u002A*
X41350000Y-33930000D03*
G04 #@! TD*
G04 #@! TO.C,REF\u002A\u002A*
X54050000Y-33930000D03*
G04 #@! TD*
G04 #@! TO.C,REF\u002A\u002A*
X15950000Y-23770000D03*
G04 #@! TD*
G04 #@! TO.C,REF\u002A\u002A*
X46430000Y-18690000D03*
G04 #@! TD*
G04 #@! TO.C,REF\u002A\u002A*
X38810000Y-23770000D03*
G04 #@! TD*
G04 #@! TO.C,REF\u002A\u002A*
X26110000Y-21230000D03*
G04 #@! TD*
G04 #@! TO.C,REF\u002A\u002A*
X36270000Y-18690000D03*
G04 #@! TD*
D11*
G04 #@! TO.C,REF\u002A\u002A*
X5000000Y-42400000D03*
X3302944Y-41697056D03*
X7400000Y-40000000D03*
X6697056Y-41697056D03*
X3302944Y-38302944D03*
D12*
X5000000Y-40000000D03*
D11*
X2600000Y-40000000D03*
X6697056Y-38302944D03*
X5000000Y-37600000D03*
G04 #@! TD*
G04 #@! TO.C,REF\u002A\u002A*
X12500000Y-7400000D03*
X14197056Y-3302944D03*
X10100000Y-5000000D03*
X10802944Y-3302944D03*
X14900000Y-5000000D03*
D12*
X12500000Y-5000000D03*
D11*
X14197056Y-6697056D03*
X10802944Y-6697056D03*
X12500000Y-2600000D03*
G04 #@! TD*
D10*
G04 #@! TO.C,REF\u002A\u002A*
X59130000Y-33930000D03*
G04 #@! TD*
G04 #@! TO.C,REF\u002A\u002A*
X21030000Y-28850000D03*
G04 #@! TD*
G04 #@! TO.C,REF\u002A\u002A*
X36270000Y-21230000D03*
G04 #@! TD*
G04 #@! TO.C,REF\u002A\u002A*
X13410000Y-26310000D03*
G04 #@! TD*
G04 #@! TO.C,REF\u002A\u002A*
X61670000Y-21230000D03*
G04 #@! TD*
G04 #@! TO.C,REF\u002A\u002A*
X18490000Y-8530000D03*
G04 #@! TD*
G04 #@! TO.C,REF\u002A\u002A*
X33730000Y-23770000D03*
G04 #@! TD*
G04 #@! TO.C,REF\u002A\u002A*
X59130000Y-23770000D03*
G04 #@! TD*
G04 #@! TO.C,REF\u002A\u002A*
X43890000Y-28850000D03*
G04 #@! TD*
G04 #@! TO.C,REF\u002A\u002A*
X33730000Y-26310000D03*
G04 #@! TD*
G04 #@! TO.C,REF\u002A\u002A*
X13410000Y-23770000D03*
G04 #@! TD*
G04 #@! TO.C,REF\u002A\u002A*
X46430000Y-23770000D03*
G04 #@! TD*
G04 #@! TO.C,REF\u002A\u002A*
X15950000Y-33930000D03*
G04 #@! TD*
G04 #@! TO.C,REF\u002A\u002A*
X21030000Y-13610000D03*
G04 #@! TD*
G04 #@! TO.C,REF\u002A\u002A*
X21030000Y-8530000D03*
G04 #@! TD*
G04 #@! TO.C,REF\u002A\u002A*
X18490000Y-11070000D03*
G04 #@! TD*
G04 #@! TO.C,REF\u002A\u002A*
X54050000Y-28850000D03*
G04 #@! TD*
G04 #@! TO.C,REF\u002A\u002A*
X21030000Y-16150000D03*
G04 #@! TD*
G04 #@! TO.C,REF\u002A\u002A*
X21030000Y-33930000D03*
G04 #@! TD*
G04 #@! TO.C,REF\u002A\u002A*
X8330000Y-13610000D03*
G04 #@! TD*
G04 #@! TO.C,REF\u002A\u002A*
X21030000Y-11070000D03*
G04 #@! TD*
G04 #@! TO.C,REF\u002A\u002A*
X43890000Y-36470000D03*
G04 #@! TD*
G04 #@! TO.C,REF\u002A\u002A*
X21030000Y-36470000D03*
G04 #@! TD*
G04 #@! TO.C,REF\u002A\u002A*
X26110000Y-11070000D03*
G04 #@! TD*
G04 #@! TO.C,REF\u002A\u002A*
X43890000Y-16150000D03*
G04 #@! TD*
G04 #@! TO.C,REF\u002A\u002A*
X28650000Y-13610000D03*
G04 #@! TD*
G04 #@! TO.C,REF\u002A\u002A*
X33730000Y-16150000D03*
G04 #@! TD*
G04 #@! TO.C,REF\u002A\u002A*
X36270000Y-8530000D03*
G04 #@! TD*
G04 #@! TO.C,REF\u002A\u002A*
X54050000Y-16150000D03*
G04 #@! TD*
G04 #@! TO.C,REF\u002A\u002A*
X59130000Y-36470000D03*
G04 #@! TD*
G04 #@! TO.C,REF\u002A\u002A*
X46430000Y-21230000D03*
G04 #@! TD*
G04 #@! TO.C,REF\u002A\u002A*
X10870000Y-23770000D03*
G04 #@! TD*
G04 #@! TO.C,REF\u002A\u002A*
X56590000Y-33930000D03*
G04 #@! TD*
G04 #@! TO.C,REF\u002A\u002A*
X26110000Y-28850000D03*
G04 #@! TD*
G04 #@! TO.C,REF\u002A\u002A*
X5790000Y-26310000D03*
G04 #@! TD*
G04 #@! TO.C,REF\u002A\u002A*
X41350000Y-26310000D03*
G04 #@! TD*
G04 #@! TO.C,REF\u002A\u002A*
X10870000Y-26310000D03*
G04 #@! TD*
G04 #@! TO.C,REF\u002A\u002A*
X43890000Y-13610000D03*
G04 #@! TD*
G04 #@! TO.C,REF\u002A\u002A*
X5790000Y-28850000D03*
G04 #@! TD*
G04 #@! TO.C,REF\u002A\u002A*
X54050000Y-31390000D03*
G04 #@! TD*
G04 #@! TO.C,REF\u002A\u002A*
X56590000Y-26310000D03*
G04 #@! TD*
G04 #@! TO.C,REF\u002A\u002A*
X13410000Y-21230000D03*
G04 #@! TD*
G04 #@! TO.C,REF\u002A\u002A*
X46430000Y-13610000D03*
G04 #@! TD*
G04 #@! TO.C,REF\u002A\u002A*
X36270000Y-11070000D03*
G04 #@! TD*
G04 #@! TO.C,REF\u002A\u002A*
X23570000Y-11070000D03*
G04 #@! TD*
G04 #@! TO.C,REF\u002A\u002A*
X13410000Y-13610000D03*
G04 #@! TD*
G04 #@! TO.C,REF\u002A\u002A*
X10870000Y-18690000D03*
G04 #@! TD*
G04 #@! TO.C,REF\u002A\u002A*
X54050000Y-36470000D03*
G04 #@! TD*
G04 #@! TO.C,REF\u002A\u002A*
X15950000Y-13610000D03*
G04 #@! TD*
G04 #@! TO.C,REF\u002A\u002A*
X43890000Y-33930000D03*
G04 #@! TD*
G04 #@! TO.C,REF\u002A\u002A*
X51510000Y-28850000D03*
G04 #@! TD*
G04 #@! TO.C,REF\u002A\u002A*
X26110000Y-16150000D03*
G04 #@! TD*
G04 #@! TO.C,REF\u002A\u002A*
X10870000Y-36470000D03*
G04 #@! TD*
G04 #@! TO.C,REF\u002A\u002A*
X18490000Y-28850000D03*
G04 #@! TD*
G04 #@! TO.C,REF\u002A\u002A*
X59130000Y-18690000D03*
G04 #@! TD*
G04 #@! TO.C,REF\u002A\u002A*
X26110000Y-13610000D03*
G04 #@! TD*
G04 #@! TO.C,REF\u002A\u002A*
X23570000Y-28850000D03*
G04 #@! TD*
G04 #@! TO.C,REF\u002A\u002A*
X26110000Y-23770000D03*
G04 #@! TD*
G04 #@! TO.C,REF\u002A\u002A*
X48970000Y-11070000D03*
G04 #@! TD*
G04 #@! TO.C,REF\u002A\u002A*
X56590000Y-28850000D03*
G04 #@! TD*
G04 #@! TO.C,REF\u002A\u002A*
X18490000Y-21230000D03*
G04 #@! TD*
G04 #@! TO.C,REF\u002A\u002A*
X15950000Y-16150000D03*
G04 #@! TD*
G04 #@! TO.C,REF\u002A\u002A*
X23570000Y-23770000D03*
G04 #@! TD*
G04 #@! TO.C,REF\u002A\u002A*
X51510000Y-18690000D03*
G04 #@! TD*
G04 #@! TO.C,REF\u002A\u002A*
X10870000Y-13610000D03*
G04 #@! TD*
G04 #@! TO.C,REF\u002A\u002A*
X23570000Y-18690000D03*
G04 #@! TD*
G04 #@! TO.C,REF\u002A\u002A*
X28650000Y-11070000D03*
G04 #@! TD*
G04 #@! TO.C,REF\u002A\u002A*
X59130000Y-26310000D03*
G04 #@! TD*
G04 #@! TO.C,REF\u002A\u002A*
X13410000Y-16150000D03*
G04 #@! TD*
G04 #@! TO.C,REF\u002A\u002A*
X59130000Y-16150000D03*
G04 #@! TD*
G04 #@! TO.C,REF\u002A\u002A*
X15950000Y-26310000D03*
G04 #@! TD*
G04 #@! TO.C,REF\u002A\u002A*
X51510000Y-23770000D03*
G04 #@! TD*
G04 #@! TO.C,REF\u002A\u002A*
X46430000Y-36470000D03*
G04 #@! TD*
G04 #@! TO.C,REF\u002A\u002A*
X59130000Y-31390000D03*
G04 #@! TD*
G04 #@! TO.C,REF\u002A\u002A*
X61670000Y-31390000D03*
G04 #@! TD*
G04 #@! TO.C,REF\u002A\u002A*
X26110000Y-18690000D03*
G04 #@! TD*
G04 #@! TO.C,REF\u002A\u002A*
X10870000Y-21230000D03*
G04 #@! TD*
G04 #@! TO.C,REF\u002A\u002A*
X59130000Y-13610000D03*
G04 #@! TD*
G04 #@! TO.C,REF\u002A\u002A*
X51510000Y-26310000D03*
G04 #@! TD*
G04 #@! TO.C,REF\u002A\u002A*
X43890000Y-11070000D03*
G04 #@! TD*
G04 #@! TO.C,REF\u002A\u002A*
X33730000Y-33930000D03*
G04 #@! TD*
G04 #@! TO.C,REF\u002A\u002A*
X31190000Y-26310000D03*
G04 #@! TD*
G04 #@! TO.C,REF\u002A\u002A*
X31190000Y-13610000D03*
G04 #@! TD*
G04 #@! TO.C,REF\u002A\u002A*
X46430000Y-11070000D03*
G04 #@! TD*
G04 #@! TO.C,REF\u002A\u002A*
X38810000Y-31390000D03*
G04 #@! TD*
G04 #@! TO.C,REF\u002A\u002A*
X41350000Y-36470000D03*
G04 #@! TD*
G04 #@! TO.C,REF\u002A\u002A*
X38810000Y-26310000D03*
G04 #@! TD*
G04 #@! TO.C,REF\u002A\u002A*
X13410000Y-36470000D03*
G04 #@! TD*
G04 #@! TO.C,REF\u002A\u002A*
X23570000Y-21230000D03*
G04 #@! TD*
G04 #@! TO.C,REF\u002A\u002A*
X54050000Y-26310000D03*
G04 #@! TD*
G04 #@! TO.C,REF\u002A\u002A*
X31190000Y-21230000D03*
G04 #@! TD*
G04 #@! TO.C,REF\u002A\u002A*
X36270000Y-23770000D03*
G04 #@! TD*
G04 #@! TO.C,REF\u002A\u002A*
X36270000Y-28850000D03*
G04 #@! TD*
G04 #@! TO.C,REF\u002A\u002A*
X15950000Y-28850000D03*
G04 #@! TD*
G04 #@! TO.C,REF\u002A\u002A*
X13410000Y-33930000D03*
G04 #@! TD*
G04 #@! TO.C,REF\u002A\u002A*
X59130000Y-11070000D03*
G04 #@! TD*
G04 #@! TO.C,REF\u002A\u002A*
X8330000Y-18690000D03*
G04 #@! TD*
G04 #@! TO.C,REF\u002A\u002A*
X28650000Y-31390000D03*
G04 #@! TD*
G04 #@! TO.C,REF\u002A\u002A*
X64210000Y-28850000D03*
G04 #@! TD*
G04 #@! TO.C,REF\u002A\u002A*
X8330000Y-28850000D03*
G04 #@! TD*
G04 #@! TO.C,REF\u002A\u002A*
X56590000Y-11070000D03*
G04 #@! TD*
G04 #@! TO.C,REF\u002A\u002A*
X36270000Y-26310000D03*
G04 #@! TD*
G04 #@! TO.C,REF\u002A\u002A*
X18490000Y-36470000D03*
G04 #@! TD*
G04 #@! TO.C,REF\u002A\u002A*
X23570000Y-13610000D03*
G04 #@! TD*
G04 #@! TO.C,REF\u002A\u002A*
X23570000Y-33930000D03*
G04 #@! TD*
G04 #@! TO.C,REF\u002A\u002A*
X48970000Y-21230000D03*
G04 #@! TD*
G04 #@! TO.C,REF\u002A\u002A*
X56590000Y-16150000D03*
G04 #@! TD*
G04 #@! TO.C,REF\u002A\u002A*
X61670000Y-13610000D03*
G04 #@! TD*
G04 #@! TO.C,REF\u002A\u002A*
X18490000Y-33930000D03*
G04 #@! TD*
G04 #@! TO.C,REF\u002A\u002A*
X31190000Y-11070000D03*
G04 #@! TD*
G04 #@! TO.C,REF\u002A\u002A*
X56590000Y-31390000D03*
G04 #@! TD*
G04 #@! TO.C,REF\u002A\u002A*
X28650000Y-21230000D03*
G04 #@! TD*
M02*
