M48
; DRILL file {KiCad (6.0.5-0)} date Friday, 08 July 2022 at 12.27.40
; FORMAT={-:-/ absolute / inch / decimal}
; #@! TF.CreationDate,2022-07-08T12:27:40+02:00
; #@! TF.GenerationSoftware,Kicad,Pcbnew,(6.0.5-0)
; #@! TF.FileFunction,MixedPlating,1,2
FMAT,2
INCH
; #@! TA.AperFunction,Plated,PTH,ComponentDrill
T1C0.0197
; #@! TA.AperFunction,Plated,PTH,ComponentDrill
T2C0.0394
; #@! TA.AperFunction,Plated,PTH,ComponentDrill
T3C0.0400
; #@! TA.AperFunction,Plated,PTH,ComponentDrill
T4C0.1260
%
G90
G05
T1
X0.1024Y-1.5748
X0.13Y-1.508
X0.13Y-1.6416
X0.1969Y-1.4803
X0.1969Y-1.6693
X0.2637Y-1.508
X0.2637Y-1.6416
X0.2913Y-1.5748
X0.3976Y-0.1969
X0.4253Y-0.13
X0.4253Y-0.2637
X0.4921Y-0.1024
X0.4921Y-0.2913
X0.5589Y-0.13
X0.5589Y-0.2637
X0.5866Y-0.1969
X2.1693Y-0.1969
X2.197Y-0.13
X2.197Y-0.2637
X2.2638Y-0.1024
X2.2638Y-0.2913
X2.3306Y-0.13
X2.3306Y-0.2637
X2.3583Y-0.1969
X2.4646Y-1.5748
X2.4922Y-1.508
X2.4922Y-1.6416
X2.5591Y-1.4803
X2.5591Y-1.6693
X2.6259Y-1.508
X2.6259Y-1.6416
X2.6535Y-1.5748
T2
X1.228Y-1.4358
X1.328Y-1.4358
X1.428Y-1.4358
X1.528Y-1.4358
T3
X0.228Y-1.0358
X0.228Y-1.1358
X0.228Y-1.2358
X0.228Y-1.3358
X0.328Y-0.5358
X0.328Y-0.6358
X0.328Y-0.7358
X0.328Y-0.8358
X0.328Y-0.9358
X0.328Y-1.0358
X0.328Y-1.1358
X0.328Y-1.2358
X0.328Y-1.3358
X0.428Y-0.4358
X0.428Y-0.5358
X0.428Y-0.6358
X0.428Y-0.7358
X0.428Y-0.8358
X0.428Y-0.9358
X0.428Y-1.0358
X0.428Y-1.1358
X0.428Y-1.2358
X0.428Y-1.3358
X0.428Y-1.4358
X0.528Y-0.4358
X0.528Y-0.5358
X0.528Y-0.6358
X0.528Y-0.7358
X0.528Y-0.8358
X0.528Y-0.9358
X0.528Y-1.0358
X0.528Y-1.1358
X0.528Y-1.2358
X0.528Y-1.3358
X0.528Y-1.4358
X0.628Y-0.4358
X0.628Y-0.5358
X0.628Y-0.6358
X0.628Y-0.7358
X0.628Y-0.8358
X0.628Y-0.9358
X0.628Y-1.0358
X0.628Y-1.1358
X0.628Y-1.2358
X0.628Y-1.3358
X0.628Y-1.4358
X0.728Y-0.3358
X0.728Y-0.4358
X0.728Y-0.5358
X0.728Y-0.6358
X0.728Y-0.7358
X0.728Y-0.8358
X0.728Y-0.9358
X0.728Y-1.0358
X0.728Y-1.1358
X0.728Y-1.2358
X0.728Y-1.3358
X0.728Y-1.4358
X0.828Y-0.3358
X0.828Y-0.4358
X0.828Y-0.5358
X0.828Y-0.6358
X0.828Y-0.7358
X0.828Y-0.8358
X0.828Y-0.9358
X0.828Y-1.0358
X0.828Y-1.1358
X0.828Y-1.2358
X0.828Y-1.3358
X0.828Y-1.4358
X0.928Y-0.3358
X0.928Y-0.4358
X0.928Y-0.5358
X0.928Y-0.6358
X0.928Y-0.7358
X0.928Y-0.8358
X0.928Y-0.9358
X0.928Y-1.0358
X0.928Y-1.1358
X0.928Y-1.2358
X0.928Y-1.3358
X0.928Y-1.4358
X1.028Y-0.3358
X1.028Y-0.4358
X1.028Y-0.5358
X1.028Y-0.6358
X1.028Y-0.7358
X1.028Y-0.8358
X1.028Y-0.9358
X1.028Y-1.0358
X1.028Y-1.1358
X1.028Y-1.2358
X1.028Y-1.3358
X1.028Y-1.4358
X1.128Y-0.3358
X1.128Y-0.4358
X1.128Y-0.5358
X1.128Y-0.6358
X1.128Y-0.7358
X1.128Y-0.8358
X1.128Y-0.9358
X1.128Y-1.0358
X1.128Y-1.1358
X1.128Y-1.2358
X1.128Y-1.3358
X1.128Y-1.4358
X1.228Y-0.3358
X1.228Y-0.4358
X1.228Y-0.5358
X1.228Y-0.6358
X1.228Y-0.7358
X1.228Y-0.8358
X1.228Y-0.9358
X1.228Y-1.0358
X1.228Y-1.1358
X1.228Y-1.2358
X1.228Y-1.3358
X1.328Y-0.3358
X1.328Y-0.4358
X1.328Y-0.5358
X1.328Y-0.6358
X1.328Y-0.7358
X1.328Y-0.8358
X1.328Y-0.9358
X1.328Y-1.0358
X1.328Y-1.1358
X1.328Y-1.2358
X1.328Y-1.3358
X1.428Y-0.3358
X1.428Y-0.4358
X1.428Y-0.5358
X1.428Y-0.6358
X1.428Y-0.7358
X1.428Y-0.8358
X1.428Y-0.9358
X1.428Y-1.0358
X1.428Y-1.1358
X1.428Y-1.2358
X1.428Y-1.3358
X1.528Y-0.3358
X1.528Y-0.4358
X1.528Y-0.5358
X1.528Y-0.6358
X1.528Y-0.7358
X1.528Y-0.8358
X1.528Y-0.9358
X1.528Y-1.0358
X1.528Y-1.1358
X1.528Y-1.2358
X1.528Y-1.3358
X1.628Y-0.3358
X1.628Y-0.4358
X1.628Y-0.5358
X1.628Y-0.6358
X1.628Y-0.7358
X1.628Y-0.8358
X1.628Y-0.9358
X1.628Y-1.0358
X1.628Y-1.1358
X1.628Y-1.2358
X1.628Y-1.3358
X1.628Y-1.4358
X1.728Y-0.3358
X1.728Y-0.4358
X1.728Y-0.5358
X1.728Y-0.6358
X1.728Y-0.7358
X1.728Y-0.8358
X1.728Y-0.9358
X1.728Y-1.0358
X1.728Y-1.1358
X1.728Y-1.2358
X1.728Y-1.3358
X1.728Y-1.4358
X1.828Y-0.3358
X1.828Y-0.4358
X1.828Y-0.5358
X1.828Y-0.6358
X1.828Y-0.7358
X1.828Y-0.8358
X1.828Y-0.9358
X1.828Y-1.0358
X1.828Y-1.1358
X1.828Y-1.2358
X1.828Y-1.3358
X1.828Y-1.4358
X1.928Y-0.3358
X1.928Y-0.4358
X1.928Y-0.5358
X1.928Y-0.6358
X1.928Y-0.7358
X1.928Y-0.8358
X1.928Y-0.9358
X1.928Y-1.0358
X1.928Y-1.1358
X1.928Y-1.2358
X1.928Y-1.3358
X1.928Y-1.4358
X2.028Y-0.3358
X2.028Y-0.4358
X2.028Y-0.5358
X2.028Y-0.6358
X2.028Y-0.7358
X2.028Y-0.8358
X2.028Y-0.9358
X2.028Y-1.0358
X2.028Y-1.1358
X2.028Y-1.2358
X2.028Y-1.3358
X2.028Y-1.4358
X2.128Y-0.4358
X2.128Y-0.5358
X2.128Y-0.6358
X2.128Y-0.7358
X2.128Y-0.8358
X2.128Y-0.9358
X2.128Y-1.0358
X2.128Y-1.1358
X2.128Y-1.2358
X2.128Y-1.3358
X2.128Y-1.4358
X2.228Y-0.4358
X2.228Y-0.5358
X2.228Y-0.6358
X2.228Y-0.7358
X2.228Y-0.8358
X2.228Y-0.9358
X2.228Y-1.0358
X2.228Y-1.1358
X2.228Y-1.2358
X2.228Y-1.3358
X2.228Y-1.4358
X2.328Y-0.4358
X2.328Y-0.5358
X2.328Y-0.6358
X2.328Y-0.7358
X2.328Y-0.8358
X2.328Y-0.9358
X2.328Y-1.0358
X2.328Y-1.1358
X2.328Y-1.2358
X2.328Y-1.3358
X2.328Y-1.4358
X2.428Y-0.5358
X2.428Y-0.6358
X2.428Y-0.7358
X2.428Y-0.8358
X2.428Y-0.9358
X2.428Y-1.0358
X2.428Y-1.1358
X2.428Y-1.2358
X2.428Y-1.3358
X2.528Y-1.0358
X2.528Y-1.1358
X2.528Y-1.2358
X2.528Y-1.3358
T4
X0.1969Y-1.5748
X0.4921Y-0.1969
X2.2638Y-0.1969
X2.5591Y-1.5748
T0
M30
