G04 #@! TF.GenerationSoftware,KiCad,Pcbnew,(6.0.5-0)*
G04 #@! TF.CreationDate,2022-07-08T12:27:37+02:00*
G04 #@! TF.ProjectId,add-on-template,6164642d-6f6e-42d7-9465-6d706c617465,1.0*
G04 #@! TF.SameCoordinates,PX3938700PY2aea540*
G04 #@! TF.FileFunction,Legend,Top*
G04 #@! TF.FilePolarity,Positive*
%FSLAX46Y46*%
G04 Gerber Fmt 4.6, Leading zero omitted, Abs format (unit mm)*
G04 Created by KiCad (PCBNEW (6.0.5-0)) date 2022-07-08 12:27:37*
%MOMM*%
%LPD*%
G01*
G04 APERTURE LIST*
%ADD10C,0.500000*%
%ADD11C,1.727200*%
%ADD12C,0.800000*%
%ADD13C,6.400000*%
G04 APERTURE END LIST*
D10*
X11820000Y-38975000D02*
X13700000Y-37045000D01*
X19260000Y-6245000D02*
X21140000Y-8175000D01*
X56290000Y-36885000D02*
X58170000Y-38815000D01*
X48930000Y-8040000D02*
X50810000Y-6110000D01*
G04 #@! TO.C,G\u002A\u002A\u002A*
G36*
X53709383Y-41760905D02*
G01*
X53764662Y-41761062D01*
X53807976Y-41761411D01*
X53840725Y-41762024D01*
X53864308Y-41762970D01*
X53880124Y-41764323D01*
X53889574Y-41766152D01*
X53894055Y-41768530D01*
X53894967Y-41771527D01*
X53894331Y-41773786D01*
X53888273Y-41789525D01*
X53877711Y-41817518D01*
X53862996Y-41856816D01*
X53844477Y-41906470D01*
X53822505Y-41965530D01*
X53797431Y-42033045D01*
X53769606Y-42108067D01*
X53739379Y-42189645D01*
X53707101Y-42276829D01*
X53673124Y-42368669D01*
X53637796Y-42464217D01*
X53601469Y-42562522D01*
X53564494Y-42662633D01*
X53527220Y-42763603D01*
X53489999Y-42864480D01*
X53453180Y-42964314D01*
X53417115Y-43062157D01*
X53382153Y-43157058D01*
X53348646Y-43248067D01*
X53316944Y-43334235D01*
X53287396Y-43414612D01*
X53260355Y-43488248D01*
X53236170Y-43554193D01*
X53215191Y-43611497D01*
X53197770Y-43659211D01*
X53184257Y-43696385D01*
X53175002Y-43722069D01*
X53170356Y-43735313D01*
X53169865Y-43736973D01*
X53177446Y-43738274D01*
X53198359Y-43741126D01*
X53231272Y-43745365D01*
X53274857Y-43750826D01*
X53327780Y-43757345D01*
X53388711Y-43764757D01*
X53456319Y-43772899D01*
X53529273Y-43781605D01*
X53577548Y-43787326D01*
X53654585Y-43796431D01*
X53728232Y-43805138D01*
X53796996Y-43813270D01*
X53859382Y-43820650D01*
X53913898Y-43827102D01*
X53959050Y-43832448D01*
X53993343Y-43836512D01*
X54015285Y-43839117D01*
X54021520Y-43839860D01*
X54043085Y-43843223D01*
X54057048Y-43846895D01*
X54060035Y-43849025D01*
X54054318Y-43855367D01*
X54039877Y-43866837D01*
X54027070Y-43875956D01*
X53994342Y-43898366D01*
X53870449Y-43889062D01*
X53815698Y-43884893D01*
X53754665Y-43880146D01*
X53689084Y-43874963D01*
X53620684Y-43869489D01*
X53551198Y-43863867D01*
X53482356Y-43858238D01*
X53415889Y-43852747D01*
X53353530Y-43847537D01*
X53297008Y-43842751D01*
X53248055Y-43838531D01*
X53208403Y-43835022D01*
X53179783Y-43832365D01*
X53163925Y-43830705D01*
X53162897Y-43830571D01*
X53132856Y-43826433D01*
X53107414Y-43895351D01*
X53081971Y-43964269D01*
X52814511Y-43966206D01*
X52741938Y-43966633D01*
X52682939Y-43966736D01*
X52636325Y-43966482D01*
X52600908Y-43965839D01*
X52575501Y-43964774D01*
X52558917Y-43963254D01*
X52549968Y-43961246D01*
X52547457Y-43958825D01*
X52550199Y-43948598D01*
X52557349Y-43927760D01*
X52567805Y-43899396D01*
X52579789Y-43868308D01*
X52592020Y-43836452D01*
X52601633Y-43809964D01*
X52607656Y-43791631D01*
X52609131Y-43784258D01*
X52601027Y-43782631D01*
X52579591Y-43779985D01*
X52546207Y-43776439D01*
X52502263Y-43772112D01*
X52449144Y-43767125D01*
X52388236Y-43761596D01*
X52320925Y-43755645D01*
X52248598Y-43749392D01*
X52172640Y-43742957D01*
X52094437Y-43736458D01*
X52015376Y-43730016D01*
X51936843Y-43723751D01*
X51860223Y-43717781D01*
X51786903Y-43712226D01*
X51718269Y-43707207D01*
X51705550Y-43706300D01*
X51334283Y-43683211D01*
X50964034Y-43666771D01*
X50592149Y-43656945D01*
X50215975Y-43653695D01*
X49832858Y-43656983D01*
X49440146Y-43666772D01*
X49284394Y-43672321D01*
X48889328Y-43689336D01*
X48497757Y-43709871D01*
X48108594Y-43734059D01*
X47720752Y-43762032D01*
X47333146Y-43793923D01*
X46944689Y-43829864D01*
X46554294Y-43869987D01*
X46160877Y-43914426D01*
X45763349Y-43963313D01*
X45360625Y-44016779D01*
X44951619Y-44074958D01*
X44535245Y-44137981D01*
X44110415Y-44205982D01*
X43676044Y-44279093D01*
X43231046Y-44357446D01*
X42774334Y-44441173D01*
X42405881Y-44510947D01*
X42344435Y-44522736D01*
X42295956Y-44532016D01*
X42258910Y-44539063D01*
X42231766Y-44544148D01*
X42212991Y-44547544D01*
X42201053Y-44549526D01*
X42194419Y-44550365D01*
X42191557Y-44550337D01*
X42190935Y-44549712D01*
X42190985Y-44549259D01*
X42192510Y-44541818D01*
X42196611Y-44522076D01*
X42202840Y-44492180D01*
X42210749Y-44454280D01*
X42219890Y-44410524D01*
X42222897Y-44396143D01*
X42254524Y-44244873D01*
X42501266Y-44198997D01*
X43052043Y-44101038D01*
X43614285Y-44009747D01*
X44186188Y-43925326D01*
X44765944Y-43847977D01*
X45351750Y-43777902D01*
X45941798Y-43715302D01*
X46534284Y-43660378D01*
X47127402Y-43613334D01*
X47719346Y-43574370D01*
X48308310Y-43543688D01*
X48405986Y-43539397D01*
X48457703Y-43537549D01*
X48522721Y-43535824D01*
X48599580Y-43534227D01*
X48686818Y-43532763D01*
X48782975Y-43531440D01*
X48886590Y-43530262D01*
X48996201Y-43529237D01*
X49110348Y-43528369D01*
X49227570Y-43527665D01*
X49346405Y-43527131D01*
X49465393Y-43526774D01*
X49583072Y-43526598D01*
X49697982Y-43526610D01*
X49808661Y-43526816D01*
X49913649Y-43527222D01*
X50011485Y-43527834D01*
X50100706Y-43528658D01*
X50179854Y-43529700D01*
X50247466Y-43530965D01*
X50277216Y-43531704D01*
X50809614Y-43550668D01*
X51337679Y-43578095D01*
X51858885Y-43613830D01*
X52370707Y-43657716D01*
X52475311Y-43667810D01*
X52523666Y-43672376D01*
X52567106Y-43676112D01*
X52603478Y-43678864D01*
X52630632Y-43680475D01*
X52646413Y-43680792D01*
X52649447Y-43680371D01*
X52653710Y-43672620D01*
X52662233Y-43653354D01*
X52674114Y-43624888D01*
X52688449Y-43589538D01*
X52704335Y-43549619D01*
X52720869Y-43507448D01*
X52737149Y-43465339D01*
X52752272Y-43425608D01*
X52765334Y-43390571D01*
X52775432Y-43362544D01*
X52781664Y-43343841D01*
X52783260Y-43337214D01*
X52780706Y-43329135D01*
X52773271Y-43308165D01*
X52761297Y-43275221D01*
X52745125Y-43231219D01*
X52725096Y-43177078D01*
X52701552Y-43113714D01*
X52674834Y-43042045D01*
X52645284Y-42962988D01*
X52613242Y-42877460D01*
X52579050Y-42786378D01*
X52543050Y-42690660D01*
X52509444Y-42601463D01*
X52471632Y-42501175D01*
X52434963Y-42403902D01*
X52399812Y-42310644D01*
X52366557Y-42222400D01*
X52335573Y-42140168D01*
X52307237Y-42064947D01*
X52281925Y-41997737D01*
X52260014Y-41939536D01*
X52241879Y-41891343D01*
X52227896Y-41854157D01*
X52218443Y-41828978D01*
X52214367Y-41818076D01*
X52193106Y-41760869D01*
X52456811Y-41760900D01*
X52720517Y-41760931D01*
X52889432Y-42262847D01*
X52917236Y-42345281D01*
X52943738Y-42423496D01*
X52968555Y-42496385D01*
X52991305Y-42562841D01*
X53011604Y-42621757D01*
X53029071Y-42672027D01*
X53043322Y-42712544D01*
X53053976Y-42742203D01*
X53060650Y-42759895D01*
X53062899Y-42764699D01*
X53064959Y-42760639D01*
X53069571Y-42748179D01*
X53076880Y-42726866D01*
X53087029Y-42696249D01*
X53100162Y-42655874D01*
X53116424Y-42605289D01*
X53135958Y-42544041D01*
X53158909Y-42471677D01*
X53185421Y-42387745D01*
X53215638Y-42291791D01*
X53249704Y-42183364D01*
X53287763Y-42062011D01*
X53329960Y-41927278D01*
X53357200Y-41840221D01*
X53382023Y-41760869D01*
X53640740Y-41760869D01*
X53709383Y-41760905D01*
G37*
G36*
X42918691Y-41225266D02*
G01*
X42996454Y-41225675D01*
X43071810Y-41226314D01*
X43143329Y-41227182D01*
X43209581Y-41228280D01*
X43269135Y-41229608D01*
X43320560Y-41231167D01*
X43362425Y-41232957D01*
X43393300Y-41234978D01*
X43400242Y-41235633D01*
X43485515Y-41247270D01*
X43559451Y-41263651D01*
X43625006Y-41285831D01*
X43685140Y-41314863D01*
X43742808Y-41351800D01*
X43758255Y-41363201D01*
X43823355Y-41421592D01*
X43879189Y-41490332D01*
X43925333Y-41567950D01*
X43961366Y-41652974D01*
X43986867Y-41743934D01*
X44001414Y-41839359D01*
X44004586Y-41937778D01*
X43995961Y-42037720D01*
X43977574Y-42128485D01*
X43947007Y-42217156D01*
X43903335Y-42300487D01*
X43847740Y-42376854D01*
X43781403Y-42444632D01*
X43705577Y-42502153D01*
X43666262Y-42526014D01*
X43626628Y-42546472D01*
X43585176Y-42563803D01*
X43540405Y-42578282D01*
X43490812Y-42590187D01*
X43434898Y-42599792D01*
X43371162Y-42607374D01*
X43298101Y-42613209D01*
X43214216Y-42617572D01*
X43118005Y-42620740D01*
X43052499Y-42622205D01*
X42810752Y-42626865D01*
X42810752Y-43004198D01*
X42810708Y-43089746D01*
X42810552Y-43161739D01*
X42810248Y-43221387D01*
X42809762Y-43269899D01*
X42809058Y-43308483D01*
X42808101Y-43338348D01*
X42806855Y-43360703D01*
X42805286Y-43376757D01*
X42803357Y-43387718D01*
X42801034Y-43394795D01*
X42799261Y-43397936D01*
X42795818Y-43402470D01*
X42791481Y-43406081D01*
X42784666Y-43408873D01*
X42773791Y-43410952D01*
X42757273Y-43412424D01*
X42733530Y-43413393D01*
X42700979Y-43413964D01*
X42658036Y-43414242D01*
X42603119Y-43414333D01*
X42552238Y-43414341D01*
X42487010Y-43414305D01*
X42434988Y-43414134D01*
X42394617Y-43413739D01*
X42364340Y-43413026D01*
X42342600Y-43411905D01*
X42327842Y-43410285D01*
X42318509Y-43408074D01*
X42313044Y-43405180D01*
X42309892Y-43401513D01*
X42309065Y-43400064D01*
X42307858Y-43390922D01*
X42306757Y-43368138D01*
X42305762Y-43331614D01*
X42304871Y-43281251D01*
X42304084Y-43216948D01*
X42303401Y-43138608D01*
X42302820Y-43046129D01*
X42302340Y-42939414D01*
X42301962Y-42818363D01*
X42301685Y-42682877D01*
X42301507Y-42532856D01*
X42301428Y-42368202D01*
X42301424Y-42315876D01*
X42301433Y-42168599D01*
X42301465Y-42035379D01*
X42301528Y-41918342D01*
X42810752Y-41918342D01*
X42810908Y-41978156D01*
X42811351Y-42033278D01*
X42812044Y-42081969D01*
X42812950Y-42122488D01*
X42814031Y-42153098D01*
X42815251Y-42172059D01*
X42816289Y-42177659D01*
X42825217Y-42179350D01*
X42846620Y-42180352D01*
X42878226Y-42180725D01*
X42917765Y-42180529D01*
X42962967Y-42179824D01*
X43011562Y-42178670D01*
X43061279Y-42177126D01*
X43109849Y-42175254D01*
X43155000Y-42173113D01*
X43194462Y-42170763D01*
X43225966Y-42168264D01*
X43242613Y-42166383D01*
X43308378Y-42151261D01*
X43364647Y-42125746D01*
X43410741Y-42090287D01*
X43445983Y-42045334D01*
X43457178Y-42024176D01*
X43466412Y-42001408D01*
X43471862Y-41978701D01*
X43474408Y-41950861D01*
X43474950Y-41919572D01*
X43471604Y-41866570D01*
X43460574Y-41823182D01*
X43440373Y-41785620D01*
X43409513Y-41750099D01*
X43407680Y-41748325D01*
X43384306Y-41728099D01*
X43358990Y-41711294D01*
X43330199Y-41697619D01*
X43296400Y-41686784D01*
X43256060Y-41678499D01*
X43207646Y-41672472D01*
X43149624Y-41668415D01*
X43080461Y-41666035D01*
X42998624Y-41665044D01*
X42967611Y-41664971D01*
X42810752Y-41664908D01*
X42810752Y-41918342D01*
X42301528Y-41918342D01*
X42301530Y-41915508D01*
X42301633Y-41808278D01*
X42301784Y-41712984D01*
X42301902Y-41664908D01*
X42301991Y-41628918D01*
X42302261Y-41555372D01*
X42302603Y-41491640D01*
X42303024Y-41437015D01*
X42303533Y-41390789D01*
X42304138Y-41352256D01*
X42304846Y-41320709D01*
X42305665Y-41295440D01*
X42306604Y-41275743D01*
X42307671Y-41260910D01*
X42308873Y-41250234D01*
X42310219Y-41243009D01*
X42311716Y-41238527D01*
X42313373Y-41236081D01*
X42313648Y-41235835D01*
X42323458Y-41233738D01*
X42346598Y-41231867D01*
X42381639Y-41230223D01*
X42427149Y-41228806D01*
X42481698Y-41227616D01*
X42543855Y-41226654D01*
X42612190Y-41225920D01*
X42685271Y-41225414D01*
X42761669Y-41225136D01*
X42839952Y-41225087D01*
X42918691Y-41225266D01*
G37*
G36*
X50708420Y-42800614D02*
G01*
X50711779Y-42779908D01*
X50733093Y-42702621D01*
X50766529Y-42632972D01*
X50812247Y-42570820D01*
X50870406Y-42516023D01*
X50941168Y-42468437D01*
X51024693Y-42427920D01*
X51121139Y-42394331D01*
X51156502Y-42384567D01*
X51204302Y-42373829D01*
X51264462Y-42363058D01*
X51334580Y-42352593D01*
X51412259Y-42342778D01*
X51495097Y-42333953D01*
X51543156Y-42329545D01*
X51582851Y-42326056D01*
X51621182Y-42322583D01*
X51653576Y-42319545D01*
X51674179Y-42317500D01*
X51712932Y-42313424D01*
X51712932Y-42282053D01*
X51706371Y-42230571D01*
X51686911Y-42185881D01*
X51654881Y-42148231D01*
X51610615Y-42117865D01*
X51554442Y-42095030D01*
X51486696Y-42079971D01*
X51432432Y-42074179D01*
X51400196Y-42071940D01*
X51370797Y-42069733D01*
X51349531Y-42067957D01*
X51346148Y-42067632D01*
X51305604Y-42067100D01*
X51254395Y-42072020D01*
X51195322Y-42081794D01*
X51131185Y-42095824D01*
X51064786Y-42113510D01*
X50998926Y-42134254D01*
X50948525Y-42152641D01*
X50915893Y-42164675D01*
X50886444Y-42174266D01*
X50864024Y-42180232D01*
X50854410Y-42181618D01*
X50834525Y-42181618D01*
X50834525Y-41797411D01*
X50851133Y-41791191D01*
X50866314Y-41786886D01*
X50893222Y-41780619D01*
X50929040Y-41772953D01*
X50970950Y-41764451D01*
X51016134Y-41755675D01*
X51061773Y-41747187D01*
X51105050Y-41739550D01*
X51133478Y-41734843D01*
X51186089Y-41728285D01*
X51249626Y-41723298D01*
X51320329Y-41719942D01*
X51394438Y-41718278D01*
X51468193Y-41718367D01*
X51537836Y-41720269D01*
X51599605Y-41724045D01*
X51628172Y-41726862D01*
X51738019Y-41743605D01*
X51835094Y-41767069D01*
X51919961Y-41797638D01*
X51993182Y-41835698D01*
X52055321Y-41881633D01*
X52106939Y-41935828D01*
X52148600Y-41998667D01*
X52180867Y-42070535D01*
X52194834Y-42114125D01*
X52197695Y-42124618D01*
X52200195Y-42135077D01*
X52202363Y-42146541D01*
X52204228Y-42160045D01*
X52205819Y-42176627D01*
X52207165Y-42197325D01*
X52208294Y-42223174D01*
X52209237Y-42255211D01*
X52210021Y-42294475D01*
X52210675Y-42342002D01*
X52211230Y-42398828D01*
X52211713Y-42465991D01*
X52212153Y-42544529D01*
X52212580Y-42635477D01*
X52213022Y-42739872D01*
X52213147Y-42770299D01*
X52215601Y-43370052D01*
X51712932Y-43370052D01*
X51712932Y-43288855D01*
X51712583Y-43256226D01*
X51711637Y-43229857D01*
X51710245Y-43212728D01*
X51708818Y-43207657D01*
X51701803Y-43212130D01*
X51686179Y-43224190D01*
X51664532Y-43241797D01*
X51647920Y-43255704D01*
X51597271Y-43293561D01*
X51537479Y-43330246D01*
X51474047Y-43362731D01*
X51412480Y-43387991D01*
X51399215Y-43392444D01*
X51375122Y-43399311D01*
X51350429Y-43404224D01*
X51321676Y-43407576D01*
X51285403Y-43409758D01*
X51238150Y-43411162D01*
X51233130Y-43411266D01*
X51190922Y-43411671D01*
X51151592Y-43411239D01*
X51118592Y-43410066D01*
X51095370Y-43408247D01*
X51089114Y-43407261D01*
X51008449Y-43382866D01*
X50934400Y-43346055D01*
X50868244Y-43297977D01*
X50811255Y-43239777D01*
X50764710Y-43172602D01*
X50729882Y-43097598D01*
X50723384Y-43078480D01*
X50712701Y-43032774D01*
X50705680Y-42977427D01*
X50702505Y-42917147D01*
X50703147Y-42871541D01*
X51208233Y-42871541D01*
X51212513Y-42919922D01*
X51223974Y-42964070D01*
X51234104Y-42986365D01*
X51257975Y-43017339D01*
X51290933Y-43040420D01*
X51334128Y-43056064D01*
X51388709Y-43064723D01*
X51438201Y-43066909D01*
X51484652Y-43065604D01*
X51522039Y-43060470D01*
X51550097Y-43052793D01*
X51606337Y-43029754D01*
X51656832Y-42999380D01*
X51681560Y-42980741D01*
X51712932Y-42955695D01*
X51712932Y-42617131D01*
X51696323Y-42617167D01*
X51683549Y-42618024D01*
X51659020Y-42620371D01*
X51625632Y-42623903D01*
X51586286Y-42628320D01*
X51560116Y-42631376D01*
X51476043Y-42643291D01*
X51405568Y-42657796D01*
X51347667Y-42675461D01*
X51301313Y-42696855D01*
X51265480Y-42722547D01*
X51239143Y-42753107D01*
X51221276Y-42789105D01*
X51211928Y-42824710D01*
X51208233Y-42871541D01*
X50703147Y-42871541D01*
X50703357Y-42856640D01*
X50708420Y-42800614D01*
G37*
G36*
X46641790Y-41241163D02*
G01*
X46758078Y-41241426D01*
X46860748Y-41241936D01*
X46950944Y-41242807D01*
X47029811Y-41244155D01*
X47098492Y-41246095D01*
X47158133Y-41248741D01*
X47209877Y-41252209D01*
X47254869Y-41256613D01*
X47294253Y-41262068D01*
X47329174Y-41268689D01*
X47360775Y-41276590D01*
X47390202Y-41285888D01*
X47418598Y-41296696D01*
X47447108Y-41309130D01*
X47476876Y-41323304D01*
X47481209Y-41325433D01*
X47552222Y-41367301D01*
X47610886Y-41416947D01*
X47657375Y-41474666D01*
X47691866Y-41540754D01*
X47714532Y-41615506D01*
X47725550Y-41699216D01*
X47726753Y-41739388D01*
X47720326Y-41825527D01*
X47700457Y-41906425D01*
X47670227Y-41977152D01*
X47643504Y-42019642D01*
X47607549Y-42064049D01*
X47566057Y-42106617D01*
X47522726Y-42143590D01*
X47481251Y-42171209D01*
X47477073Y-42173457D01*
X47455139Y-42186067D01*
X47440573Y-42196659D01*
X47436161Y-42203167D01*
X47436474Y-42203601D01*
X47446128Y-42208261D01*
X47466057Y-42215504D01*
X47492323Y-42223918D01*
X47498053Y-42225637D01*
X47579572Y-42256502D01*
X47654529Y-42298296D01*
X47719943Y-42349337D01*
X47724658Y-42353753D01*
X47752472Y-42381460D01*
X47775050Y-42407727D01*
X47792974Y-42434531D01*
X47806821Y-42463851D01*
X47817173Y-42497667D01*
X47824608Y-42537956D01*
X47829707Y-42586699D01*
X47833048Y-42645873D01*
X47835213Y-42717458D01*
X47835531Y-42732210D01*
X47836662Y-42796710D01*
X47836887Y-42848706D01*
X47835866Y-42890445D01*
X47833257Y-42924175D01*
X47828718Y-42952144D01*
X47821908Y-42976600D01*
X47812487Y-42999790D01*
X47800113Y-43023963D01*
X47788007Y-43045263D01*
X47759972Y-43085929D01*
X47722290Y-43129854D01*
X47678472Y-43173607D01*
X47632029Y-43213754D01*
X47586473Y-43246862D01*
X47573618Y-43254841D01*
X47505253Y-43290535D01*
X47430656Y-43321150D01*
X47356409Y-43344118D01*
X47328276Y-43350590D01*
X47301193Y-43355771D01*
X47273462Y-43360258D01*
X47243852Y-43364097D01*
X47211133Y-43367337D01*
X47174074Y-43370025D01*
X47131445Y-43372210D01*
X47082013Y-43373939D01*
X47024549Y-43375259D01*
X46957821Y-43376219D01*
X46880599Y-43376867D01*
X46791652Y-43377250D01*
X46689750Y-43377417D01*
X46637292Y-43377434D01*
X46154556Y-43377434D01*
X46155241Y-42986210D01*
X46693461Y-42986210D01*
X46868773Y-42986101D01*
X46933386Y-42985757D01*
X46985138Y-42984750D01*
X47025920Y-42982984D01*
X47057626Y-42980365D01*
X47082146Y-42976795D01*
X47091415Y-42974836D01*
X47158224Y-42954206D01*
X47212482Y-42926419D01*
X47254915Y-42890776D01*
X47286246Y-42846576D01*
X47307202Y-42793121D01*
X47314555Y-42759600D01*
X47319004Y-42697810D01*
X47311432Y-42639879D01*
X47292513Y-42587744D01*
X47262922Y-42543338D01*
X47228196Y-42511914D01*
X47201311Y-42494740D01*
X47173025Y-42480781D01*
X47141524Y-42469735D01*
X47104996Y-42461297D01*
X47061627Y-42455166D01*
X47009602Y-42451036D01*
X46947109Y-42448606D01*
X46872334Y-42447571D01*
X46842938Y-42447483D01*
X46693461Y-42447355D01*
X46693461Y-42986210D01*
X46155241Y-42986210D01*
X46156184Y-42447355D01*
X46156426Y-42308951D01*
X46156815Y-42087150D01*
X46693461Y-42087150D01*
X46846629Y-42084058D01*
X46899517Y-42082847D01*
X46940098Y-42081469D01*
X46970826Y-42079679D01*
X46994156Y-42077230D01*
X47012544Y-42073879D01*
X47028445Y-42069380D01*
X47041481Y-42064612D01*
X47093211Y-42037776D01*
X47132868Y-42002514D01*
X47160564Y-41958656D01*
X47176410Y-41906035D01*
X47180645Y-41854176D01*
X47176670Y-41799636D01*
X47163997Y-41754698D01*
X47141502Y-41716291D01*
X47122203Y-41694487D01*
X47102840Y-41676620D01*
X47083377Y-41662550D01*
X47061702Y-41651774D01*
X47035704Y-41643790D01*
X47003271Y-41638095D01*
X46962292Y-41634187D01*
X46910655Y-41631564D01*
X46850319Y-41629817D01*
X46693461Y-41626190D01*
X46693461Y-42087150D01*
X46156815Y-42087150D01*
X46157622Y-41626190D01*
X46158297Y-41240468D01*
X46641790Y-41241163D01*
G37*
G36*
X48567895Y-41932490D02*
G01*
X48592448Y-42051739D01*
X48614194Y-42157346D01*
X48633310Y-42250125D01*
X48649974Y-42330895D01*
X48664361Y-42400471D01*
X48676647Y-42459668D01*
X48687010Y-42509304D01*
X48695625Y-42550193D01*
X48702669Y-42583154D01*
X48708318Y-42609001D01*
X48712748Y-42628551D01*
X48716137Y-42642619D01*
X48718660Y-42652023D01*
X48720494Y-42657578D01*
X48721814Y-42660101D01*
X48722799Y-42660407D01*
X48723623Y-42659313D01*
X48724464Y-42657634D01*
X48724574Y-42657434D01*
X48726883Y-42649420D01*
X48732512Y-42628059D01*
X48741212Y-42594328D01*
X48752736Y-42549206D01*
X48766838Y-42493672D01*
X48783269Y-42428703D01*
X48801784Y-42355279D01*
X48822134Y-42274377D01*
X48844072Y-42186977D01*
X48867351Y-42094055D01*
X48891724Y-41996592D01*
X48904967Y-41943563D01*
X49081395Y-41236777D01*
X49348482Y-41236777D01*
X49418518Y-41236818D01*
X49475215Y-41236986D01*
X49519999Y-41237350D01*
X49554296Y-41237978D01*
X49579530Y-41238937D01*
X49597127Y-41240295D01*
X49608511Y-41242121D01*
X49615108Y-41244482D01*
X49618343Y-41247446D01*
X49619308Y-41249695D01*
X49621509Y-41258586D01*
X49626867Y-41280839D01*
X49635142Y-41315447D01*
X49646097Y-41361406D01*
X49659492Y-41417708D01*
X49675088Y-41483348D01*
X49692646Y-41557321D01*
X49711928Y-41638620D01*
X49732694Y-41726240D01*
X49754705Y-41819175D01*
X49777723Y-41916419D01*
X49786329Y-41952790D01*
X49809651Y-42051310D01*
X49832059Y-42145856D01*
X49853314Y-42235423D01*
X49873178Y-42319011D01*
X49891410Y-42395616D01*
X49907772Y-42464236D01*
X49922025Y-42523869D01*
X49933930Y-42573513D01*
X49943247Y-42612164D01*
X49949737Y-42638822D01*
X49953162Y-42652482D01*
X49953603Y-42654039D01*
X49957616Y-42659923D01*
X49962188Y-42652312D01*
X49962914Y-42650348D01*
X49965198Y-42641165D01*
X49970363Y-42618558D01*
X49978189Y-42583535D01*
X49988455Y-42537107D01*
X50000942Y-42480283D01*
X50015427Y-42414071D01*
X50031691Y-42339482D01*
X50049513Y-42257523D01*
X50068672Y-42169206D01*
X50088947Y-42075539D01*
X50110119Y-41977530D01*
X50119033Y-41936204D01*
X50269834Y-41236822D01*
X50541604Y-41236799D01*
X50612152Y-41236829D01*
X50669311Y-41236973D01*
X50714454Y-41237300D01*
X50748954Y-41237873D01*
X50774186Y-41238761D01*
X50791524Y-41240029D01*
X50802340Y-41241742D01*
X50808009Y-41243968D01*
X50809904Y-41246772D01*
X50809563Y-41249695D01*
X50807059Y-41259174D01*
X50801217Y-41281854D01*
X50792284Y-41316772D01*
X50780501Y-41362964D01*
X50766114Y-41419467D01*
X50749367Y-41485317D01*
X50730503Y-41559550D01*
X50709767Y-41641204D01*
X50687402Y-41729314D01*
X50663654Y-41822916D01*
X50638765Y-41921048D01*
X50612980Y-42022745D01*
X50586544Y-42127045D01*
X50559699Y-42232983D01*
X50532691Y-42339596D01*
X50505763Y-42445920D01*
X50479160Y-42550993D01*
X50453125Y-42653849D01*
X50427903Y-42753526D01*
X50403737Y-42849061D01*
X50380872Y-42939489D01*
X50359552Y-43023847D01*
X50340021Y-43101171D01*
X50322523Y-43170498D01*
X50307302Y-43230865D01*
X50294602Y-43281307D01*
X50284667Y-43320861D01*
X50277741Y-43348565D01*
X50274069Y-43363453D01*
X50273525Y-43365830D01*
X50266403Y-43366747D01*
X50246076Y-43367593D01*
X50214101Y-43368347D01*
X50172036Y-43368986D01*
X50121438Y-43369489D01*
X50063866Y-43369834D01*
X50000878Y-43369998D01*
X49976416Y-43370008D01*
X49679308Y-43369965D01*
X49509655Y-42716739D01*
X49484861Y-42621462D01*
X49461060Y-42530362D01*
X49438519Y-42444440D01*
X49417504Y-42364698D01*
X49398282Y-42292135D01*
X49381121Y-42227754D01*
X49366287Y-42172555D01*
X49354046Y-42127539D01*
X49344667Y-42093706D01*
X49338416Y-42072058D01*
X49335559Y-42063596D01*
X49335465Y-42063513D01*
X49332938Y-42070529D01*
X49327071Y-42090985D01*
X49318093Y-42123998D01*
X49306228Y-42168682D01*
X49291705Y-42224153D01*
X49274749Y-42289525D01*
X49255588Y-42363913D01*
X49234447Y-42446433D01*
X49211554Y-42536200D01*
X49187135Y-42632328D01*
X49161418Y-42733933D01*
X49134627Y-42840129D01*
X49106991Y-42950033D01*
X49078736Y-43062758D01*
X49050089Y-43177421D01*
X49047611Y-43187358D01*
X49002055Y-43370052D01*
X48408911Y-43370052D01*
X48140740Y-42312641D01*
X48109796Y-42190659D01*
X48079816Y-42072535D01*
X48051002Y-41959067D01*
X48023558Y-41851052D01*
X47997687Y-41749287D01*
X47973591Y-41654570D01*
X47951475Y-41567697D01*
X47931541Y-41489467D01*
X47913991Y-41420675D01*
X47899030Y-41362120D01*
X47886860Y-41314599D01*
X47877684Y-41278909D01*
X47871706Y-41255847D01*
X47869128Y-41246211D01*
X47869060Y-41246004D01*
X47870999Y-41243551D01*
X47879618Y-41241546D01*
X47896051Y-41239949D01*
X47921432Y-41238724D01*
X47956897Y-41237833D01*
X48003580Y-41237236D01*
X48062615Y-41236897D01*
X48135137Y-41236778D01*
X48145100Y-41236777D01*
X48424648Y-41236777D01*
X48567895Y-41932490D01*
G37*
G36*
X45312732Y-41242656D02*
G01*
X45435085Y-41266053D01*
X45554774Y-41302145D01*
X45670202Y-41350310D01*
X45779770Y-41409925D01*
X45881884Y-41480368D01*
X45974945Y-41561016D01*
X46020652Y-41608348D01*
X46042279Y-41633599D01*
X46054220Y-41652094D01*
X46057720Y-41667006D01*
X46054021Y-41681503D01*
X46051404Y-41686792D01*
X46044197Y-41695472D01*
X46027780Y-41712700D01*
X46003709Y-41736922D01*
X45973543Y-41766587D01*
X45938838Y-41800143D01*
X45911160Y-41826556D01*
X45866883Y-41868230D01*
X45831824Y-41900361D01*
X45804826Y-41923911D01*
X45784729Y-41939840D01*
X45770378Y-41949108D01*
X45760612Y-41952675D01*
X45758938Y-41952790D01*
X45745094Y-41948763D01*
X45724665Y-41936116D01*
X45696420Y-41914000D01*
X45670731Y-41891892D01*
X45583575Y-41822457D01*
X45494599Y-41766215D01*
X45404698Y-41723645D01*
X45314764Y-41695225D01*
X45296809Y-41691273D01*
X45222921Y-41681231D01*
X45143582Y-41679277D01*
X45063289Y-41685057D01*
X44986542Y-41698216D01*
X44917839Y-41718398D01*
X44908770Y-41721903D01*
X44848864Y-41751213D01*
X44787741Y-41790629D01*
X44729343Y-41837018D01*
X44677614Y-41887249D01*
X44636495Y-41938189D01*
X44636421Y-41938297D01*
X44594603Y-42007243D01*
X44564416Y-42076513D01*
X44544677Y-42149778D01*
X44534205Y-42230708D01*
X44532523Y-42261226D01*
X44533402Y-42360007D01*
X44544446Y-42449096D01*
X44566134Y-42529946D01*
X44598951Y-42604010D01*
X44643376Y-42672742D01*
X44685593Y-42722726D01*
X44754153Y-42785369D01*
X44832316Y-42837116D01*
X44919164Y-42877426D01*
X44984626Y-42898548D01*
X45030839Y-42907606D01*
X45086907Y-42913329D01*
X45148366Y-42915716D01*
X45210747Y-42914768D01*
X45269584Y-42910483D01*
X45320411Y-42902861D01*
X45338543Y-42898597D01*
X45420683Y-42870016D01*
X45502740Y-42828542D01*
X45585576Y-42773661D01*
X45670056Y-42704856D01*
X45684178Y-42692162D01*
X45706404Y-42672133D01*
X45724588Y-42657732D01*
X45740572Y-42649571D01*
X45756203Y-42648257D01*
X45773325Y-42654400D01*
X45793785Y-42668610D01*
X45819426Y-42691497D01*
X45852094Y-42723669D01*
X45887214Y-42759227D01*
X45935671Y-42808703D01*
X45974331Y-42848979D01*
X46004069Y-42881062D01*
X46025757Y-42905954D01*
X46040268Y-42924663D01*
X46048475Y-42938192D01*
X46051250Y-42947547D01*
X46051264Y-42948127D01*
X46045752Y-42959473D01*
X46030453Y-42978148D01*
X46007220Y-43002401D01*
X45977906Y-43030482D01*
X45944364Y-43060640D01*
X45908447Y-43091123D01*
X45872008Y-43120182D01*
X45857608Y-43131084D01*
X45769902Y-43192130D01*
X45685539Y-43241538D01*
X45601108Y-43280799D01*
X45513203Y-43311406D01*
X45418414Y-43334849D01*
X45372159Y-43343536D01*
X45338300Y-43348105D01*
X45294584Y-43352191D01*
X45244837Y-43355616D01*
X45192887Y-43358206D01*
X45142561Y-43359782D01*
X45097686Y-43360168D01*
X45062089Y-43359189D01*
X45051060Y-43358351D01*
X44917571Y-43339106D01*
X44793428Y-43308576D01*
X44678258Y-43266592D01*
X44571693Y-43212985D01*
X44473361Y-43147585D01*
X44382891Y-43070223D01*
X44351618Y-43038828D01*
X44274593Y-42948365D01*
X44210132Y-42851179D01*
X44158020Y-42746763D01*
X44118044Y-42634611D01*
X44089989Y-42514216D01*
X44073641Y-42385071D01*
X44073243Y-42379921D01*
X44070322Y-42250182D01*
X44081212Y-42125093D01*
X44105517Y-42005285D01*
X44142843Y-41891392D01*
X44192794Y-41784044D01*
X44254975Y-41683875D01*
X44328992Y-41591514D01*
X44414449Y-41507596D01*
X44510950Y-41432751D01*
X44618102Y-41367611D01*
X44735508Y-41312809D01*
X44742091Y-41310173D01*
X44803225Y-41289006D01*
X44873946Y-41269685D01*
X44949092Y-41253383D01*
X45023503Y-41241272D01*
X45066417Y-41236436D01*
X45189310Y-41232576D01*
X45312732Y-41242656D01*
G37*
G04 #@! TO.C,kibuzzard-62B83631*
G36*
X38676981Y-37216981D02*
G01*
X39846130Y-36983152D01*
X42022944Y-39159966D01*
X42023018Y-39160041D01*
X42088399Y-39232177D01*
X42146393Y-39310374D01*
X42196445Y-39393878D01*
X42238069Y-39481887D01*
X42270868Y-39573551D01*
X42294523Y-39667989D01*
X42308808Y-39764292D01*
X42313585Y-39861529D01*
X42308807Y-39958768D01*
X42294522Y-40055070D01*
X42270868Y-40149508D01*
X42238069Y-40241173D01*
X42196444Y-40329182D01*
X42146393Y-40412686D01*
X42088399Y-40490883D01*
X42023019Y-40563019D01*
X41950883Y-40628399D01*
X41872686Y-40686393D01*
X41789182Y-40736444D01*
X41701173Y-40778069D01*
X41609508Y-40810868D01*
X41515070Y-40834522D01*
X41418768Y-40848807D01*
X41321529Y-40853585D01*
X41224292Y-40848808D01*
X41127989Y-40834523D01*
X41033551Y-40810868D01*
X40941887Y-40778069D01*
X40853878Y-40736445D01*
X40770374Y-40686393D01*
X40692177Y-40628399D01*
X40620041Y-40563018D01*
X40619966Y-40562944D01*
X39800387Y-39743365D01*
X40560378Y-39743365D01*
X40601688Y-39801736D01*
X40924977Y-40125026D01*
X40980654Y-40162743D01*
X41015677Y-40158253D01*
X41058334Y-40124577D01*
X41092010Y-40081920D01*
X41095153Y-40042856D01*
X41058783Y-39993016D01*
X40814520Y-39748753D01*
X41259940Y-39303332D01*
X41302148Y-39252145D01*
X41302597Y-39202753D01*
X41260838Y-39144382D01*
X41208529Y-39104195D01*
X41166546Y-39098582D01*
X41134217Y-39113849D01*
X41101888Y-39143484D01*
X40602586Y-39642786D01*
X40562174Y-39693973D01*
X40560378Y-39743365D01*
X39800387Y-39743365D01*
X39136297Y-39079275D01*
X40088466Y-39079275D01*
X40092394Y-39153699D01*
X40106875Y-39227000D01*
X40129774Y-39295250D01*
X40158961Y-39354520D01*
X40193872Y-39406268D01*
X40233946Y-39451955D01*
X40280980Y-39491805D01*
X40336770Y-39526043D01*
X40420735Y-39563311D01*
X40470576Y-39575434D01*
X40521314Y-39581271D01*
X40564869Y-39561964D01*
X40595401Y-39491918D01*
X40601912Y-39422994D01*
X40585523Y-39381460D01*
X40524457Y-39356316D01*
X40496619Y-39351826D01*
X40446778Y-39330722D01*
X40387059Y-39285372D01*
X40338790Y-39217346D01*
X40312523Y-39131809D01*
X40323300Y-39029434D01*
X40348108Y-38977685D01*
X40386610Y-38930203D01*
X40434093Y-38891700D01*
X40485842Y-38866892D01*
X40586421Y-38856115D01*
X40673754Y-38882831D01*
X40741780Y-38930652D01*
X40790722Y-38994860D01*
X40811826Y-39061763D01*
X40837868Y-39127319D01*
X40879627Y-39144831D01*
X40949223Y-39141688D01*
X41017922Y-39110706D01*
X41037230Y-39044701D01*
X41028250Y-39003392D01*
X41019269Y-38969267D01*
X40979756Y-38876770D01*
X40946305Y-38823787D01*
X40907016Y-38777987D01*
X40842458Y-38724205D01*
X40767323Y-38681399D01*
X40681612Y-38649570D01*
X40609321Y-38633629D01*
X40536132Y-38628915D01*
X40460809Y-38638007D01*
X40382120Y-38663489D01*
X40304329Y-38706258D01*
X40231701Y-38767211D01*
X40170186Y-38840624D01*
X40125734Y-38920773D01*
X40098456Y-39002156D01*
X40088466Y-39079275D01*
X39136297Y-39079275D01*
X38635199Y-38578177D01*
X39488585Y-38578177D01*
X39500708Y-38646875D01*
X39536180Y-38733535D01*
X39567274Y-38780120D01*
X39605777Y-38823787D01*
X39665047Y-38872479D01*
X39732698Y-38908400D01*
X39808731Y-38931550D01*
X39872154Y-38936376D01*
X39938496Y-38923916D01*
X40003939Y-38893496D01*
X40064668Y-38844441D01*
X40112712Y-38784947D01*
X40140102Y-38723208D01*
X40148409Y-38663489D01*
X40139204Y-38610056D01*
X40118437Y-38559430D01*
X40092058Y-38508131D01*
X40062984Y-38459525D01*
X40034135Y-38416981D01*
X39997765Y-38339302D01*
X40014828Y-38276440D01*
X40072751Y-38257132D01*
X40135163Y-38291706D01*
X40171533Y-38351425D01*
X40173778Y-38377019D01*
X40175125Y-38396326D01*
X40203862Y-38460984D01*
X40246967Y-38481639D01*
X40311625Y-38478945D01*
X40382569Y-38451106D01*
X40398734Y-38379264D01*
X40393346Y-38339751D01*
X40360119Y-38249948D01*
X40323749Y-38192699D01*
X40275704Y-38137695D01*
X40206257Y-38081319D01*
X40133217Y-38047493D01*
X40056586Y-38036218D01*
X39982449Y-38044999D01*
X39916893Y-38071340D01*
X39859918Y-38115244D01*
X39812323Y-38174289D01*
X39784484Y-38236478D01*
X39774830Y-38297543D01*
X39781790Y-38353221D01*
X39799638Y-38406317D01*
X39822650Y-38459637D01*
X39848806Y-38509814D01*
X39876083Y-38553481D01*
X39912902Y-38630711D01*
X39901228Y-38688185D01*
X39854031Y-38716821D01*
X39803442Y-38711733D01*
X39749461Y-38672918D01*
X39720275Y-38615894D01*
X39713540Y-38550787D01*
X39707254Y-38477149D01*
X39688396Y-38435839D01*
X39619248Y-38409797D01*
X39556273Y-38414848D01*
X39520016Y-38431798D01*
X39491728Y-38506783D01*
X39489932Y-38524744D01*
X39488585Y-38578177D01*
X38635199Y-38578177D01*
X38443152Y-38386130D01*
X38676981Y-37216981D01*
G37*
G04 #@! TO.C,kibuzzard-62B83731*
G36*
X14520716Y-38671169D02*
G01*
X14657162Y-38691409D01*
X14790967Y-38724926D01*
X14920843Y-38771396D01*
X15045538Y-38830373D01*
X15163852Y-38901287D01*
X15274646Y-38983457D01*
X15376852Y-39076092D01*
X15469486Y-39178298D01*
X15551656Y-39289091D01*
X15622571Y-39407405D01*
X15681547Y-39532101D01*
X15728018Y-39661976D01*
X15761534Y-39795781D01*
X15781774Y-39932227D01*
X15788542Y-40070000D01*
X15781774Y-40207773D01*
X15761534Y-40344219D01*
X15728018Y-40478024D01*
X15681547Y-40607899D01*
X15622571Y-40732595D01*
X15551656Y-40850909D01*
X15469486Y-40961702D01*
X15376852Y-41063908D01*
X15274646Y-41156543D01*
X15163852Y-41238713D01*
X15045538Y-41309627D01*
X14920843Y-41368604D01*
X14790967Y-41415074D01*
X14657162Y-41448591D01*
X14520716Y-41468831D01*
X14382944Y-41475599D01*
X7891458Y-41475599D01*
X7891458Y-39372294D01*
X9379739Y-39372294D01*
X9415458Y-39486594D01*
X10072683Y-40820094D01*
X10152455Y-40904628D01*
X10265564Y-40936775D01*
X10289376Y-40936775D01*
X10400105Y-40904628D01*
X10479876Y-40820094D01*
X10855433Y-40058094D01*
X11268070Y-40058094D01*
X11283846Y-40236985D01*
X11331173Y-40402184D01*
X11402909Y-40546250D01*
X11491908Y-40661741D01*
X11595790Y-40755205D01*
X11712173Y-40833191D01*
X11833022Y-40893317D01*
X11950298Y-40933203D01*
X12065194Y-40955527D01*
X12178898Y-40962969D01*
X12294091Y-40953444D01*
X12413451Y-40924869D01*
X12574186Y-40862956D01*
X12656339Y-40812950D01*
X12731348Y-40753419D01*
X12763495Y-40670075D01*
X12711108Y-40536725D01*
X12628359Y-40436713D01*
X12551564Y-40403375D01*
X12437264Y-40451000D01*
X12394401Y-40481956D01*
X12300342Y-40520056D01*
X12161039Y-40539106D01*
X12006853Y-40512913D01*
X11858620Y-40434331D01*
X11737176Y-40284313D01*
X11701458Y-40182812D01*
X11689551Y-40068809D01*
X11690670Y-40058094D01*
X12884939Y-40058094D01*
X12900715Y-40236985D01*
X12948042Y-40402184D01*
X13019777Y-40546250D01*
X13108776Y-40661741D01*
X13212659Y-40755205D01*
X13329042Y-40833191D01*
X13449891Y-40893317D01*
X13567167Y-40933203D01*
X13682062Y-40955527D01*
X13795767Y-40962969D01*
X13910960Y-40953444D01*
X14030320Y-40924869D01*
X14191055Y-40862956D01*
X14273208Y-40812950D01*
X14348217Y-40753419D01*
X14380364Y-40670075D01*
X14327976Y-40536725D01*
X14245228Y-40436713D01*
X14168433Y-40403375D01*
X14054133Y-40451000D01*
X14011270Y-40481956D01*
X13917211Y-40520056D01*
X13777908Y-40539106D01*
X13623722Y-40512913D01*
X13475489Y-40434331D01*
X13354045Y-40284313D01*
X13318326Y-40182812D01*
X13306420Y-40068809D01*
X13318326Y-39954807D01*
X13354045Y-39853306D01*
X13473108Y-39705669D01*
X13624317Y-39625302D01*
X13777908Y-39598512D01*
X13927926Y-39618753D01*
X14044608Y-39679475D01*
X14166051Y-39731862D01*
X14244633Y-39699716D01*
X14332739Y-39603275D01*
X14382745Y-39471116D01*
X14320833Y-39358006D01*
X14254158Y-39315144D01*
X14197008Y-39281806D01*
X14021986Y-39211559D01*
X13907388Y-39185663D01*
X13794576Y-39177031D01*
X13637679Y-39191319D01*
X13481310Y-39234181D01*
X13325470Y-39305619D01*
X13208491Y-39380330D01*
X13105205Y-39471116D01*
X13017396Y-39583034D01*
X12946851Y-39721147D01*
X12900417Y-39880988D01*
X12884939Y-40058094D01*
X11690670Y-40058094D01*
X11701458Y-39954807D01*
X11737176Y-39853306D01*
X11856239Y-39705669D01*
X12007448Y-39625302D01*
X12161039Y-39598512D01*
X12311058Y-39618753D01*
X12427739Y-39679475D01*
X12549183Y-39731862D01*
X12627764Y-39699716D01*
X12715870Y-39603275D01*
X12765876Y-39471116D01*
X12703964Y-39358006D01*
X12637289Y-39315144D01*
X12580139Y-39281806D01*
X12405117Y-39211559D01*
X12290519Y-39185663D01*
X12177708Y-39177031D01*
X12020810Y-39191319D01*
X11864441Y-39234181D01*
X11708601Y-39305619D01*
X11591623Y-39380330D01*
X11488336Y-39471116D01*
X11400527Y-39583034D01*
X11329983Y-39721147D01*
X11283548Y-39880988D01*
X11268070Y-40058094D01*
X10855433Y-40058094D01*
X11137101Y-39486594D01*
X11172820Y-39372294D01*
X11137697Y-39292522D01*
X11032326Y-39219894D01*
X10891833Y-39179412D01*
X10787058Y-39243706D01*
X10753720Y-39315144D01*
X10277470Y-40358131D01*
X10251574Y-40303065D01*
X10192936Y-40175966D01*
X10115545Y-40007790D01*
X10033392Y-39829494D01*
X9951537Y-39651198D01*
X9875039Y-39483022D01*
X9815210Y-39352053D01*
X9783361Y-39285378D01*
X9744070Y-39222275D01*
X9703589Y-39188937D01*
X9640486Y-39179412D01*
X9520233Y-39219894D01*
X9414862Y-39292522D01*
X9379739Y-39372294D01*
X7891458Y-39372294D01*
X7891458Y-38664401D01*
X14382944Y-38664401D01*
X14520716Y-38671169D01*
G37*
G04 #@! TO.C,kibuzzard-62B83747*
G36*
X62038542Y-41475599D02*
G01*
X55547057Y-41475599D01*
X55409284Y-41468831D01*
X55272838Y-41448591D01*
X55139033Y-41415074D01*
X55009157Y-41368604D01*
X54884462Y-41309628D01*
X54766148Y-41238713D01*
X54655354Y-41156543D01*
X54553148Y-41063909D01*
X54460514Y-40961703D01*
X54378344Y-40850909D01*
X54307429Y-40732595D01*
X54248452Y-40607899D01*
X54201982Y-40478024D01*
X54168466Y-40344219D01*
X54148226Y-40207773D01*
X54141458Y-40070000D01*
X54148226Y-39932227D01*
X54168466Y-39795781D01*
X54201982Y-39661976D01*
X54248452Y-39532101D01*
X54307429Y-39407405D01*
X54328474Y-39372294D01*
X55547255Y-39372294D01*
X55582974Y-39486594D01*
X56240199Y-40820094D01*
X56319971Y-40904628D01*
X56433080Y-40936775D01*
X56456892Y-40936775D01*
X56567621Y-40904628D01*
X56647392Y-40820094D01*
X57022949Y-40058094D01*
X57435586Y-40058094D01*
X57451362Y-40236985D01*
X57498689Y-40402184D01*
X57570424Y-40546250D01*
X57659424Y-40661741D01*
X57763306Y-40755205D01*
X57879689Y-40833191D01*
X58000538Y-40893317D01*
X58117814Y-40933203D01*
X58232710Y-40955527D01*
X58346414Y-40962969D01*
X58461607Y-40953444D01*
X58580967Y-40924869D01*
X58741702Y-40862956D01*
X58823855Y-40812950D01*
X58898864Y-40753419D01*
X58931011Y-40670075D01*
X58878624Y-40536725D01*
X58795875Y-40436713D01*
X58719080Y-40403375D01*
X58604780Y-40451000D01*
X58561917Y-40481956D01*
X58467858Y-40520056D01*
X58328555Y-40539106D01*
X58174369Y-40512913D01*
X58026136Y-40434331D01*
X57904692Y-40284313D01*
X57868974Y-40182812D01*
X57857067Y-40068809D01*
X57858186Y-40058094D01*
X59052455Y-40058094D01*
X59068231Y-40236985D01*
X59115558Y-40402184D01*
X59187293Y-40546250D01*
X59276292Y-40661741D01*
X59380174Y-40755205D01*
X59496558Y-40833191D01*
X59617407Y-40893317D01*
X59734683Y-40933203D01*
X59849578Y-40955527D01*
X59963283Y-40962969D01*
X60078476Y-40953444D01*
X60197836Y-40924869D01*
X60358571Y-40862956D01*
X60440724Y-40812950D01*
X60515733Y-40753419D01*
X60547880Y-40670075D01*
X60495492Y-40536725D01*
X60412744Y-40436713D01*
X60335949Y-40403375D01*
X60221649Y-40451000D01*
X60178786Y-40481956D01*
X60084727Y-40520056D01*
X59945424Y-40539106D01*
X59791238Y-40512913D01*
X59643005Y-40434331D01*
X59521561Y-40284313D01*
X59485842Y-40182812D01*
X59473936Y-40068809D01*
X59485842Y-39954807D01*
X59521561Y-39853306D01*
X59640624Y-39705669D01*
X59791833Y-39625302D01*
X59945424Y-39598512D01*
X60095442Y-39618753D01*
X60212124Y-39679475D01*
X60333567Y-39731862D01*
X60412149Y-39699716D01*
X60500255Y-39603275D01*
X60550261Y-39471116D01*
X60488349Y-39358006D01*
X60421674Y-39315144D01*
X60364524Y-39281806D01*
X60189502Y-39211559D01*
X60074904Y-39185663D01*
X59962092Y-39177031D01*
X59805195Y-39191319D01*
X59648826Y-39234181D01*
X59492986Y-39305619D01*
X59376007Y-39380330D01*
X59272721Y-39471116D01*
X59184912Y-39583034D01*
X59114367Y-39721147D01*
X59067933Y-39880988D01*
X59052455Y-40058094D01*
X57858186Y-40058094D01*
X57868974Y-39954807D01*
X57904692Y-39853306D01*
X58023755Y-39705669D01*
X58174964Y-39625302D01*
X58328555Y-39598512D01*
X58478574Y-39618753D01*
X58595255Y-39679475D01*
X58716699Y-39731862D01*
X58795280Y-39699716D01*
X58883386Y-39603275D01*
X58933392Y-39471116D01*
X58871480Y-39358006D01*
X58804805Y-39315144D01*
X58747655Y-39281806D01*
X58572633Y-39211559D01*
X58458035Y-39185663D01*
X58345224Y-39177031D01*
X58188326Y-39191319D01*
X58031957Y-39234181D01*
X57876117Y-39305619D01*
X57759139Y-39380330D01*
X57655852Y-39471116D01*
X57568043Y-39583034D01*
X57497499Y-39721147D01*
X57451064Y-39880988D01*
X57435586Y-40058094D01*
X57022949Y-40058094D01*
X57304617Y-39486594D01*
X57340336Y-39372294D01*
X57305213Y-39292522D01*
X57199842Y-39219894D01*
X57059349Y-39179412D01*
X56954574Y-39243706D01*
X56921236Y-39315144D01*
X56444986Y-40358131D01*
X56419090Y-40303065D01*
X56360452Y-40175966D01*
X56283061Y-40007790D01*
X56200908Y-39829494D01*
X56119053Y-39651198D01*
X56042555Y-39483022D01*
X55982726Y-39352053D01*
X55950877Y-39285378D01*
X55911586Y-39222275D01*
X55871105Y-39188937D01*
X55808002Y-39179412D01*
X55687749Y-39219894D01*
X55582378Y-39292522D01*
X55547255Y-39372294D01*
X54328474Y-39372294D01*
X54378344Y-39289091D01*
X54460514Y-39178297D01*
X54553148Y-39076091D01*
X54655354Y-38983457D01*
X54766148Y-38901287D01*
X54884462Y-38830372D01*
X55009157Y-38771396D01*
X55139033Y-38724926D01*
X55272838Y-38691409D01*
X55409284Y-38671169D01*
X55547057Y-38664401D01*
X62038542Y-38664401D01*
X62038542Y-41475599D01*
G37*
G04 #@! TO.C,kibuzzard-62B83614*
G36*
X38111725Y-38953170D02*
G01*
X38163361Y-39029277D01*
X38181771Y-39121101D01*
X38164933Y-39214046D01*
X38110827Y-39293521D01*
X38031240Y-39347066D01*
X37937957Y-39362220D01*
X37846695Y-39343025D01*
X37773170Y-39293521D01*
X37686061Y-39206413D01*
X38025515Y-38866959D01*
X38111725Y-38953170D01*
G37*
G36*
X38639765Y-39933814D02*
G01*
X38520327Y-39814376D01*
X38702626Y-39750617D01*
X38639765Y-39933814D01*
G37*
G36*
X39734038Y-39517816D02*
G01*
X39792033Y-39596013D01*
X39842084Y-39679518D01*
X39883709Y-39767527D01*
X39916507Y-39859191D01*
X39940163Y-39953629D01*
X39954448Y-40049931D01*
X39959224Y-40147169D01*
X39954447Y-40244408D01*
X39940162Y-40340710D01*
X39916507Y-40435148D01*
X39883709Y-40526813D01*
X39842084Y-40614821D01*
X39792032Y-40698326D01*
X39734038Y-40776523D01*
X39668659Y-40848659D01*
X39596523Y-40914038D01*
X39518326Y-40972032D01*
X39434821Y-41022084D01*
X39346813Y-41063709D01*
X39255148Y-41096507D01*
X39160710Y-41120162D01*
X39064408Y-41134447D01*
X38967169Y-41139224D01*
X38869931Y-41134448D01*
X38773629Y-41120163D01*
X38679191Y-41096507D01*
X38587527Y-41063709D01*
X38499518Y-41022084D01*
X38416013Y-40972033D01*
X38337816Y-40914038D01*
X38265680Y-40848658D01*
X37212989Y-39795967D01*
X38024168Y-39795967D01*
X38036291Y-39861972D01*
X38069069Y-39925283D01*
X38106337Y-39945488D01*
X38139115Y-39945039D01*
X38179077Y-39932916D01*
X38322761Y-39882626D01*
X38571515Y-40131379D01*
X38521225Y-40275063D01*
X38508204Y-40315924D01*
X38507306Y-40349151D01*
X38527960Y-40385970D01*
X38591271Y-40418748D01*
X38657949Y-40430198D01*
X38701728Y-40412461D01*
X38732261Y-40351396D01*
X38990893Y-39607830D01*
X38996281Y-39543173D01*
X38965748Y-39489291D01*
X38910519Y-39459207D01*
X38847208Y-39462350D01*
X38102745Y-39721880D01*
X38041679Y-39752413D01*
X38024168Y-39795967D01*
X37212989Y-39795967D01*
X36611761Y-39194739D01*
X37401387Y-39194739D01*
X37408347Y-39235375D01*
X37447186Y-39285439D01*
X37611525Y-39449778D01*
X37683788Y-39509805D01*
X37763178Y-39552489D01*
X37849699Y-39577831D01*
X37943346Y-39585829D01*
X38036964Y-39576680D01*
X38123399Y-39550581D01*
X38202650Y-39507532D01*
X38274717Y-39447533D01*
X38334323Y-39375578D01*
X38376194Y-39296665D01*
X38400328Y-39210790D01*
X38406727Y-39117957D01*
X38396427Y-39025544D01*
X38370469Y-38940934D01*
X38328850Y-38864125D01*
X38271574Y-38795117D01*
X38106337Y-38628085D01*
X38054028Y-38587898D01*
X38012045Y-38582285D01*
X37980165Y-38597103D01*
X37947387Y-38627186D01*
X37448085Y-39126489D01*
X37401387Y-39194739D01*
X36611761Y-39194739D01*
X36089559Y-38672537D01*
X36942945Y-38672537D01*
X36955068Y-38741236D01*
X36990540Y-38827895D01*
X37021634Y-38874480D01*
X37060137Y-38918147D01*
X37119407Y-38966840D01*
X37187058Y-39002760D01*
X37263091Y-39025910D01*
X37326514Y-39030737D01*
X37392856Y-39018277D01*
X37458299Y-38987856D01*
X37519029Y-38938801D01*
X37567072Y-38879307D01*
X37594463Y-38817568D01*
X37602769Y-38757849D01*
X37593565Y-38704417D01*
X37572798Y-38653790D01*
X37546418Y-38602491D01*
X37517344Y-38553885D01*
X37488496Y-38511341D01*
X37452126Y-38433662D01*
X37469188Y-38370800D01*
X37527111Y-38351493D01*
X37589524Y-38386067D01*
X37625894Y-38445785D01*
X37628139Y-38471379D01*
X37629486Y-38490687D01*
X37658223Y-38555344D01*
X37701328Y-38575999D01*
X37765986Y-38573305D01*
X37836930Y-38545466D01*
X37853094Y-38473624D01*
X37847706Y-38434111D01*
X37814479Y-38344308D01*
X37778109Y-38287059D01*
X37730065Y-38232055D01*
X37660617Y-38175679D01*
X37587578Y-38141853D01*
X37510946Y-38130578D01*
X37436809Y-38139359D01*
X37371253Y-38165700D01*
X37314279Y-38209605D01*
X37266683Y-38268649D01*
X37238845Y-38330838D01*
X37229190Y-38391903D01*
X37236150Y-38447581D01*
X37253999Y-38500677D01*
X37277011Y-38553997D01*
X37303166Y-38604174D01*
X37330443Y-38647841D01*
X37367262Y-38725071D01*
X37355588Y-38782545D01*
X37308391Y-38811181D01*
X37257802Y-38806093D01*
X37203822Y-38767278D01*
X37174636Y-38710254D01*
X37167901Y-38645147D01*
X37161614Y-38571509D01*
X37142756Y-38530200D01*
X37073608Y-38504157D01*
X37010634Y-38509208D01*
X36974376Y-38526159D01*
X36946088Y-38601144D01*
X36944292Y-38619104D01*
X36942945Y-38672537D01*
X36089559Y-38672537D01*
X35897512Y-38480490D01*
X36131341Y-37311341D01*
X37300490Y-37077512D01*
X39668658Y-39445680D01*
X39734038Y-39517816D01*
G37*
G04 #@! TO.C,kibuzzard-62B83AAD*
G36*
X29236312Y-35467861D02*
G01*
X29595239Y-35707689D01*
X29835067Y-36066616D01*
X29919283Y-36490000D01*
X29835067Y-36913384D01*
X29595239Y-37272311D01*
X29236312Y-37512139D01*
X28812928Y-37596355D01*
X13267070Y-37596355D01*
X12843687Y-37512138D01*
X12484760Y-37272311D01*
X12244933Y-36913383D01*
X12163875Y-36505875D01*
X13267599Y-36505875D01*
X13391424Y-36963075D01*
X13580336Y-37053563D01*
X13899424Y-37083725D01*
X14211368Y-37037688D01*
X14378849Y-36899575D01*
X14445524Y-36724950D01*
X14454781Y-36505875D01*
X27624949Y-36505875D01*
X27748774Y-36963075D01*
X27937686Y-37053563D01*
X28256774Y-37083725D01*
X28568718Y-37037688D01*
X28736199Y-36899575D01*
X28802874Y-36724950D01*
X28812399Y-36499525D01*
X28812399Y-36474125D01*
X28704449Y-36029625D01*
X28498868Y-35929612D01*
X28174224Y-35896275D01*
X27862280Y-35943900D01*
X27694799Y-36086775D01*
X27634474Y-36258225D01*
X27624949Y-36480475D01*
X27624949Y-36505875D01*
X14454781Y-36505875D01*
X14455049Y-36499525D01*
X14455049Y-36474125D01*
X14347099Y-36029625D01*
X14141518Y-35929612D01*
X13816874Y-35896275D01*
X13504930Y-35943900D01*
X13337449Y-36086775D01*
X13277124Y-36258225D01*
X13267599Y-36480475D01*
X13267599Y-36505875D01*
X12163875Y-36505875D01*
X12160717Y-36490000D01*
X12244933Y-36066617D01*
X12484760Y-35707689D01*
X12843687Y-35467862D01*
X13267070Y-35383645D01*
X28812928Y-35383645D01*
X29236312Y-35467861D01*
G37*
G36*
X57176312Y-35417861D02*
G01*
X57535239Y-35657689D01*
X57775067Y-36016616D01*
X57859283Y-36440000D01*
X57775067Y-36863384D01*
X57535239Y-37222311D01*
X57176312Y-37462139D01*
X56752928Y-37546355D01*
X41207070Y-37546355D01*
X40783687Y-37462138D01*
X40424760Y-37222311D01*
X40184933Y-36863383D01*
X40103875Y-36455875D01*
X41207599Y-36455875D01*
X41331424Y-36913075D01*
X41520336Y-37003563D01*
X41839424Y-37033725D01*
X42151368Y-36987688D01*
X42318849Y-36849575D01*
X42385524Y-36674950D01*
X42394781Y-36455875D01*
X55564949Y-36455875D01*
X55688774Y-36913075D01*
X55877686Y-37003563D01*
X56196774Y-37033725D01*
X56508718Y-36987688D01*
X56676199Y-36849575D01*
X56742874Y-36674950D01*
X56752399Y-36449525D01*
X56752399Y-36424125D01*
X56644449Y-35979625D01*
X56438868Y-35879612D01*
X56114224Y-35846275D01*
X55802280Y-35893900D01*
X55634799Y-36036775D01*
X55574474Y-36208225D01*
X55564949Y-36430475D01*
X55564949Y-36455875D01*
X42394781Y-36455875D01*
X42395049Y-36449525D01*
X42395049Y-36424125D01*
X42287099Y-35979625D01*
X42081518Y-35879612D01*
X41756874Y-35846275D01*
X41444930Y-35893900D01*
X41277449Y-36036775D01*
X41217124Y-36208225D01*
X41207599Y-36430475D01*
X41207599Y-36455875D01*
X40103875Y-36455875D01*
X40100717Y-36440000D01*
X40184933Y-36016617D01*
X40424760Y-35657689D01*
X40783687Y-35417862D01*
X41207070Y-35333645D01*
X56752928Y-35333645D01*
X57176312Y-35417861D01*
G37*
G36*
X59716312Y-35417861D02*
G01*
X60075239Y-35657689D01*
X60315067Y-36016616D01*
X60399283Y-36440000D01*
X60315067Y-36863384D01*
X60075239Y-37222311D01*
X59716312Y-37462139D01*
X59292928Y-37546355D01*
X43747070Y-37546355D01*
X43323687Y-37462138D01*
X42964760Y-37222311D01*
X42724933Y-36863383D01*
X42643875Y-36455875D01*
X43747599Y-36455875D01*
X43871424Y-36913075D01*
X44060336Y-37003563D01*
X44379424Y-37033725D01*
X44691368Y-36987688D01*
X44858849Y-36849575D01*
X44925524Y-36674950D01*
X44934781Y-36455875D01*
X58104949Y-36455875D01*
X58228774Y-36913075D01*
X58417686Y-37003563D01*
X58736774Y-37033725D01*
X59048718Y-36987688D01*
X59216199Y-36849575D01*
X59282874Y-36674950D01*
X59292399Y-36449525D01*
X59292399Y-36424125D01*
X59184449Y-35979625D01*
X58978868Y-35879612D01*
X58654224Y-35846275D01*
X58342280Y-35893900D01*
X58174799Y-36036775D01*
X58114474Y-36208225D01*
X58104949Y-36430475D01*
X58104949Y-36455875D01*
X44934781Y-36455875D01*
X44935049Y-36449525D01*
X44935049Y-36424125D01*
X44827099Y-35979625D01*
X44621518Y-35879612D01*
X44296874Y-35846275D01*
X43984930Y-35893900D01*
X43817449Y-36036775D01*
X43757124Y-36208225D01*
X43747599Y-36430475D01*
X43747599Y-36455875D01*
X42643875Y-36455875D01*
X42640717Y-36440000D01*
X42724933Y-36016617D01*
X42964760Y-35657689D01*
X43323687Y-35417862D01*
X43747070Y-35333645D01*
X59292928Y-35333645D01*
X59716312Y-35417861D01*
G37*
G04 #@! TO.C,kibuzzard-62B8371F*
G36*
X21131524Y-4634770D02*
G01*
X21277673Y-4732103D01*
X21378579Y-4877657D01*
X21412214Y-5054763D01*
X21377686Y-5231273D01*
X21274101Y-5375041D01*
X21127655Y-5470588D01*
X20964539Y-5502438D01*
X20733558Y-5502438D01*
X20733558Y-4602325D01*
X20962158Y-4602325D01*
X21131524Y-4634770D01*
G37*
G36*
X15373364Y-3637257D02*
G01*
X21833894Y-3637257D01*
X21972367Y-3644060D01*
X22109506Y-3664403D01*
X22243991Y-3698090D01*
X22374527Y-3744796D01*
X22499856Y-3804072D01*
X22618771Y-3875347D01*
X22730128Y-3957935D01*
X22832853Y-4051040D01*
X22925958Y-4153766D01*
X23008546Y-4265122D01*
X23079821Y-4384038D01*
X23139097Y-4509367D01*
X23185804Y-4639903D01*
X23219491Y-4774388D01*
X23239833Y-4911527D01*
X23246636Y-5050000D01*
X23239833Y-5188473D01*
X23219491Y-5325612D01*
X23185804Y-5460097D01*
X23139097Y-5590633D01*
X23079821Y-5715962D01*
X23008546Y-5834878D01*
X22925958Y-5946234D01*
X22832853Y-6048960D01*
X22730128Y-6142065D01*
X22618771Y-6224653D01*
X22499856Y-6295928D01*
X22374527Y-6355204D01*
X22243991Y-6401910D01*
X22109506Y-6435597D01*
X21972367Y-6455940D01*
X21833894Y-6462743D01*
X15373364Y-6462743D01*
X15373364Y-5035712D01*
X16861645Y-5035712D01*
X16878016Y-5218101D01*
X16927130Y-5386649D01*
X17008985Y-5541356D01*
X17123583Y-5682222D01*
X17260356Y-5799424D01*
X17408737Y-5883140D01*
X17568728Y-5933369D01*
X17740326Y-5950113D01*
X17927850Y-5937164D01*
X18090370Y-5898320D01*
X18227887Y-5833580D01*
X18340401Y-5742944D01*
X18353517Y-5714369D01*
X18597576Y-5714369D01*
X18601148Y-5797713D01*
X18623770Y-5862006D01*
X18685683Y-5910227D01*
X18804745Y-5926300D01*
X18927380Y-5910227D01*
X18990483Y-5862006D01*
X19013105Y-5800094D01*
X19016676Y-5716750D01*
X19016676Y-4933319D01*
X19083219Y-5020102D01*
X19170135Y-5134402D01*
X19277423Y-5276219D01*
X19405085Y-5445552D01*
X19553119Y-5642402D01*
X19721526Y-5866769D01*
X19781058Y-5912013D01*
X19909645Y-5926300D01*
X20032280Y-5910227D01*
X20095383Y-5862006D01*
X20118005Y-5800094D01*
X20121576Y-5716750D01*
X20121576Y-5711988D01*
X20312076Y-5711988D01*
X20340651Y-5864388D01*
X20403755Y-5909036D01*
X20521626Y-5923919D01*
X20957395Y-5923919D01*
X21132789Y-5907696D01*
X21294640Y-5859030D01*
X21442947Y-5777918D01*
X21577711Y-5664363D01*
X21689704Y-5528110D01*
X21769699Y-5378910D01*
X21817696Y-5216762D01*
X21833695Y-5041666D01*
X21817324Y-4867239D01*
X21768211Y-4707100D01*
X21686355Y-4561248D01*
X21571758Y-4429684D01*
X21435580Y-4320817D01*
X21288984Y-4243054D01*
X21131971Y-4196396D01*
X20964539Y-4180844D01*
X20524008Y-4178462D01*
X20401373Y-4194536D01*
X20338270Y-4242756D01*
X20315648Y-4304669D01*
X20312076Y-4388012D01*
X20312076Y-5711988D01*
X20121576Y-5711988D01*
X20121576Y-4395156D01*
X20107289Y-4273712D01*
X20077523Y-4223706D01*
X20015611Y-4195131D01*
X19906073Y-4183225D01*
X19792964Y-4197512D01*
X19725098Y-4253472D01*
X19702476Y-4385631D01*
X19702476Y-5190494D01*
X19636860Y-5104570D01*
X19552722Y-4992850D01*
X19450064Y-4855333D01*
X19328885Y-4692019D01*
X19189185Y-4502908D01*
X19030964Y-4288000D01*
X18976195Y-4226087D01*
X18917855Y-4196322D01*
X18804745Y-4183225D01*
X18688064Y-4197512D01*
X18620198Y-4253472D01*
X18597576Y-4385631D01*
X18597576Y-5714369D01*
X18353517Y-5714369D01*
X18407076Y-5597688D01*
X18407076Y-5073813D01*
X18383264Y-4940462D01*
X18226101Y-4873787D01*
X17807001Y-4873787D01*
X17692701Y-4895219D01*
X17653411Y-4947606D01*
X17642695Y-5048809D01*
X17652220Y-5148822D01*
X17692701Y-5204781D01*
X17797476Y-5223831D01*
X17985595Y-5223831D01*
X17985595Y-5483388D01*
X17874272Y-5515534D01*
X17749851Y-5526250D01*
X17578401Y-5490234D01*
X17426001Y-5382184D01*
X17346626Y-5279261D01*
X17299001Y-5162580D01*
X17283126Y-5032141D01*
X17318250Y-4845808D01*
X17423620Y-4698766D01*
X17574234Y-4603218D01*
X17745089Y-4571369D01*
X17873676Y-4587740D01*
X17983214Y-4636853D01*
X18128470Y-4702337D01*
X18208837Y-4670786D01*
X18297539Y-4576131D01*
X18352308Y-4441591D01*
X18288014Y-4335625D01*
X18117887Y-4232437D01*
X17940881Y-4170525D01*
X17756995Y-4149887D01*
X17581973Y-4165738D01*
X17418858Y-4213288D01*
X17267648Y-4292539D01*
X17128345Y-4403491D01*
X17011664Y-4538106D01*
X16928320Y-4688348D01*
X16878314Y-4854217D01*
X16861645Y-5035712D01*
X15373364Y-5035712D01*
X15373364Y-3637257D01*
G37*
G04 #@! TO.C,G\u002A\u002A\u002A*
G36*
X23985845Y-42363639D02*
G01*
X23991320Y-42451578D01*
X23992453Y-42499662D01*
X23989640Y-42531604D01*
X23985438Y-42539516D01*
X23967715Y-42529822D01*
X23935603Y-42505211D01*
X23916752Y-42489182D01*
X23813378Y-42418891D01*
X23694056Y-42372365D01*
X23564454Y-42349816D01*
X23430242Y-42351455D01*
X23297089Y-42377495D01*
X23170664Y-42428149D01*
X23117089Y-42459280D01*
X23004697Y-42548763D01*
X22916853Y-42656545D01*
X22853066Y-42783672D01*
X22812847Y-42931189D01*
X22795707Y-43100140D01*
X22794970Y-43146943D01*
X22802383Y-43296303D01*
X22825863Y-43425502D01*
X22867267Y-43543020D01*
X22893580Y-43596879D01*
X22976525Y-43723238D01*
X23076770Y-43822722D01*
X23194228Y-43895284D01*
X23328809Y-43940874D01*
X23480424Y-43959445D01*
X23561208Y-43958653D01*
X23679495Y-43945934D01*
X23776406Y-43918573D01*
X23860428Y-43873340D01*
X23926888Y-43819511D01*
X23960036Y-43790038D01*
X23982491Y-43772490D01*
X23986831Y-43770353D01*
X23988824Y-43785595D01*
X23990596Y-43828343D01*
X23992063Y-43894136D01*
X23993139Y-43978512D01*
X23993740Y-44077008D01*
X23993837Y-44138006D01*
X23993837Y-44505659D01*
X23702113Y-44503779D01*
X23602833Y-44502473D01*
X23509282Y-44500024D01*
X23428329Y-44496702D01*
X23366841Y-44492780D01*
X23335753Y-44489304D01*
X23160286Y-44445608D01*
X22985432Y-44375674D01*
X22820963Y-44283894D01*
X22723734Y-44214189D01*
X22573548Y-44075789D01*
X22448649Y-43920972D01*
X22349263Y-43752806D01*
X22275612Y-43574360D01*
X22227920Y-43388701D01*
X22206411Y-43198898D01*
X22211310Y-43008018D01*
X22242839Y-42819129D01*
X22301223Y-42635300D01*
X22386686Y-42459598D01*
X22499451Y-42295092D01*
X22577234Y-42206247D01*
X22736707Y-42061730D01*
X22912817Y-41944267D01*
X23104280Y-41854635D01*
X23221183Y-41815900D01*
X23346449Y-41780234D01*
X26343617Y-41775472D01*
X26750948Y-41774895D01*
X27126967Y-41774511D01*
X27472328Y-41774322D01*
X27787688Y-41774331D01*
X28073704Y-41774541D01*
X28331030Y-41774954D01*
X28560325Y-41775574D01*
X28762242Y-41776402D01*
X28937439Y-41777442D01*
X29086572Y-41778696D01*
X29210296Y-41780166D01*
X29309268Y-41781857D01*
X29384145Y-41783769D01*
X29435581Y-41785907D01*
X29464233Y-41788272D01*
X29464267Y-41788277D01*
X29666050Y-41832720D01*
X29856377Y-41905996D01*
X30032634Y-42006218D01*
X30192207Y-42131496D01*
X30332481Y-42279941D01*
X30450843Y-42449665D01*
X30497419Y-42534776D01*
X30561915Y-42682690D01*
X30604535Y-42830493D01*
X30627630Y-42988350D01*
X30633589Y-43122965D01*
X30631184Y-43258308D01*
X30619784Y-43374476D01*
X30596995Y-43482008D01*
X30560420Y-43591444D01*
X30507666Y-43713323D01*
X30491862Y-43746569D01*
X30448751Y-43832086D01*
X30408724Y-43900117D01*
X30364221Y-43961601D01*
X30307685Y-44027475D01*
X30268495Y-44069781D01*
X30130652Y-44200824D01*
X29987511Y-44304917D01*
X29831855Y-44387026D01*
X29769792Y-44412771D01*
X29738936Y-44424891D01*
X29710667Y-44435910D01*
X29683405Y-44445880D01*
X29655567Y-44454853D01*
X29625573Y-44462882D01*
X29591841Y-44470020D01*
X29552791Y-44476318D01*
X29506841Y-44481828D01*
X29452409Y-44486605D01*
X29387915Y-44490698D01*
X29311777Y-44494162D01*
X29222414Y-44497049D01*
X29118245Y-44499410D01*
X28997689Y-44501298D01*
X28859164Y-44502766D01*
X28701089Y-44503866D01*
X28521884Y-44504650D01*
X28319966Y-44505171D01*
X28093754Y-44505481D01*
X27841668Y-44505632D01*
X27562126Y-44505678D01*
X27253546Y-44505669D01*
X26965622Y-44505659D01*
X24521339Y-44505659D01*
X24521339Y-42371675D01*
X24590013Y-42371675D01*
X24669119Y-42587471D01*
X24714917Y-42712482D01*
X24759941Y-42835553D01*
X24806676Y-42963489D01*
X24857607Y-43103095D01*
X24915217Y-43261175D01*
X24960940Y-43386716D01*
X24996960Y-43485548D01*
X25034530Y-43588477D01*
X25069954Y-43685391D01*
X25099538Y-43766178D01*
X25108403Y-43790335D01*
X25165646Y-43946187D01*
X25426941Y-43946187D01*
X25514284Y-43945814D01*
X25589229Y-43944781D01*
X25646484Y-43943220D01*
X25680756Y-43941260D01*
X25688236Y-43939727D01*
X25692843Y-43922259D01*
X25705704Y-43879067D01*
X25725384Y-43814709D01*
X25750446Y-43733744D01*
X25779451Y-43640729D01*
X25810964Y-43540224D01*
X25843547Y-43436787D01*
X25875763Y-43334977D01*
X25906175Y-43239350D01*
X25933347Y-43154467D01*
X25955841Y-43084884D01*
X25972220Y-43035162D01*
X25981047Y-43009857D01*
X25982075Y-43007624D01*
X25984760Y-43005987D01*
X25988115Y-43009161D01*
X25993426Y-43020945D01*
X26001974Y-43045137D01*
X26015045Y-43085536D01*
X26033922Y-43145941D01*
X26059888Y-43230150D01*
X26085884Y-43314784D01*
X26117327Y-43417015D01*
X26153413Y-43534056D01*
X26189294Y-43650190D01*
X26215367Y-43734387D01*
X26281052Y-43946187D01*
X26800170Y-43946187D01*
X26820233Y-43894236D01*
X26829734Y-43868830D01*
X26849000Y-43816645D01*
X26876834Y-43740939D01*
X26912045Y-43644968D01*
X26953438Y-43531987D01*
X26999818Y-43405252D01*
X27049994Y-43268020D01*
X27094226Y-43146943D01*
X27146532Y-43003759D01*
X27195928Y-42868627D01*
X27241240Y-42744755D01*
X27281293Y-42635352D01*
X27314911Y-42543627D01*
X27340919Y-42472787D01*
X27358142Y-42426042D01*
X27365000Y-42407641D01*
X27381844Y-42363683D01*
X27430590Y-42363683D01*
X27430590Y-43946187D01*
X27958091Y-43946187D01*
X28054001Y-43946187D01*
X28565517Y-43946187D01*
X28565517Y-43078256D01*
X28661546Y-43078256D01*
X28661788Y-43228570D01*
X28685366Y-43375710D01*
X28730832Y-43513936D01*
X28796737Y-43637507D01*
X28881632Y-43740683D01*
X28893358Y-43751725D01*
X29013524Y-43843614D01*
X29144498Y-43908166D01*
X29289998Y-43946762D01*
X29453741Y-43960779D01*
X29456675Y-43960813D01*
X29588551Y-43962172D01*
X29588551Y-43530580D01*
X29509667Y-43530580D01*
X29412957Y-43520238D01*
X29335906Y-43487102D01*
X29273274Y-43428013D01*
X29231523Y-43362739D01*
X29207905Y-43294627D01*
X29196169Y-43208657D01*
X29196297Y-43116641D01*
X29208270Y-43030392D01*
X29232072Y-42961725D01*
X29232137Y-42961603D01*
X29289715Y-42880884D01*
X29362527Y-42821433D01*
X29444798Y-42786519D01*
X29530757Y-42779409D01*
X29549649Y-42781911D01*
X29562064Y-42782306D01*
X29570621Y-42775181D01*
X29576035Y-42755671D01*
X29579019Y-42718914D01*
X29580289Y-42660046D01*
X29580558Y-42574203D01*
X29580558Y-42355690D01*
X29420709Y-42358191D01*
X29256980Y-42374641D01*
X29109935Y-42417948D01*
X28980867Y-42487107D01*
X28871068Y-42581109D01*
X28781832Y-42698947D01*
X28714451Y-42839614D01*
X28686089Y-42930509D01*
X28661546Y-43078256D01*
X28565517Y-43078256D01*
X28565517Y-42363683D01*
X28054001Y-42363683D01*
X28054001Y-43946187D01*
X27958091Y-43946187D01*
X27958091Y-42363683D01*
X27430590Y-42363683D01*
X27381844Y-42363683D01*
X26862676Y-42363683D01*
X26804831Y-42559498D01*
X26781281Y-42639322D01*
X26751430Y-42740662D01*
X26717973Y-42854357D01*
X26683608Y-42971246D01*
X26654303Y-43071014D01*
X26626059Y-43165748D01*
X26600375Y-43249116D01*
X26578720Y-43316578D01*
X26562559Y-43363598D01*
X26553359Y-43385637D01*
X26552269Y-43386716D01*
X26545565Y-43371996D01*
X26531301Y-43330436D01*
X26510697Y-43265938D01*
X26484969Y-43182404D01*
X26455337Y-43083734D01*
X26423019Y-42973832D01*
X26418741Y-42959120D01*
X26384928Y-42842718D01*
X26352786Y-42732129D01*
X26323765Y-42632336D01*
X26299313Y-42548318D01*
X26280879Y-42485057D01*
X26269934Y-42447603D01*
X26245303Y-42363683D01*
X25740878Y-42363683D01*
X25591172Y-42882946D01*
X25555570Y-43004820D01*
X25522375Y-43115384D01*
X25492667Y-43211269D01*
X25467530Y-43289106D01*
X25448044Y-43345527D01*
X25435292Y-43377162D01*
X25430722Y-43382474D01*
X25425676Y-43369817D01*
X25416368Y-43341990D01*
X25402224Y-43297077D01*
X25382665Y-43233160D01*
X25357116Y-43148325D01*
X25324998Y-43040654D01*
X25285737Y-42908231D01*
X25238754Y-42749141D01*
X25183474Y-42561466D01*
X25177334Y-42540601D01*
X25156960Y-42472490D01*
X25139655Y-42416753D01*
X25127484Y-42379905D01*
X25122792Y-42368367D01*
X25105794Y-42366792D01*
X25062247Y-42365923D01*
X24997568Y-42365781D01*
X24917170Y-42366387D01*
X24853664Y-42367282D01*
X24590013Y-42371675D01*
X24521339Y-42371675D01*
X24521339Y-42363683D01*
X23985845Y-42363639D01*
G37*
G36*
X23721295Y-42783941D02*
G01*
X23803328Y-42810622D01*
X23845382Y-42837652D01*
X23906838Y-42897745D01*
X23948015Y-42966009D01*
X23974523Y-43052546D01*
X23979805Y-43079856D01*
X23986726Y-43193060D01*
X23968457Y-43299381D01*
X23927136Y-43393418D01*
X23864905Y-43469770D01*
X23809322Y-43510214D01*
X23738031Y-43536035D01*
X23653339Y-43545336D01*
X23569573Y-43537511D01*
X23521167Y-43522413D01*
X23465405Y-43485955D01*
X23409829Y-43430314D01*
X23364202Y-43366810D01*
X23339609Y-43311919D01*
X23322432Y-43202298D01*
X23328212Y-43089754D01*
X23355469Y-42983858D01*
X23402726Y-42894181D01*
X23404516Y-42891735D01*
X23465327Y-42834655D01*
X23543954Y-42796980D01*
X23632056Y-42779735D01*
X23721295Y-42783941D01*
G37*
G04 #@! TO.C,kibuzzard-62B83A14*
G36*
X52102862Y-7527861D02*
G01*
X52461789Y-7767689D01*
X52701617Y-8126616D01*
X52785833Y-8550000D01*
X52701617Y-8973384D01*
X52461789Y-9332311D01*
X52102862Y-9572139D01*
X51679478Y-9656355D01*
X32920520Y-9656355D01*
X32497137Y-9572138D01*
X32138210Y-9332311D01*
X31898383Y-8973383D01*
X31817325Y-8565875D01*
X32921049Y-8565875D01*
X33044874Y-9023075D01*
X33233786Y-9113563D01*
X33552874Y-9143725D01*
X33864818Y-9097688D01*
X34032299Y-8959575D01*
X34098974Y-8784950D01*
X34108231Y-8565875D01*
X50491499Y-8565875D01*
X50615324Y-9023075D01*
X50804236Y-9113563D01*
X51123324Y-9143725D01*
X51435268Y-9097688D01*
X51602749Y-8959575D01*
X51669424Y-8784950D01*
X51678949Y-8559525D01*
X51678949Y-8534125D01*
X51570999Y-8089625D01*
X51365418Y-7989612D01*
X51040774Y-7956275D01*
X50728830Y-8003900D01*
X50561349Y-8146775D01*
X50501024Y-8318225D01*
X50491499Y-8540475D01*
X50491499Y-8565875D01*
X34108231Y-8565875D01*
X34108499Y-8559525D01*
X34108499Y-8534125D01*
X34000549Y-8089625D01*
X33794968Y-7989612D01*
X33470324Y-7956275D01*
X33158380Y-8003900D01*
X32990899Y-8146775D01*
X32930574Y-8318225D01*
X32921049Y-8540475D01*
X32921049Y-8565875D01*
X31817325Y-8565875D01*
X31814167Y-8550000D01*
X31898383Y-8126617D01*
X32138210Y-7767689D01*
X32497137Y-7527862D01*
X32920520Y-7443645D01*
X51679478Y-7443645D01*
X52102862Y-7527861D01*
G37*
G36*
X37422862Y-7527861D02*
G01*
X37781789Y-7767689D01*
X38021617Y-8126616D01*
X38105833Y-8550000D01*
X38021617Y-8973384D01*
X37781789Y-9332311D01*
X37422862Y-9572139D01*
X36999478Y-9656355D01*
X18240520Y-9656355D01*
X17817137Y-9572138D01*
X17458210Y-9332311D01*
X17218383Y-8973383D01*
X17137325Y-8565875D01*
X18241049Y-8565875D01*
X18364874Y-9023075D01*
X18553786Y-9113563D01*
X18872874Y-9143725D01*
X19184818Y-9097688D01*
X19352299Y-8959575D01*
X19418974Y-8784950D01*
X19428231Y-8565875D01*
X35811499Y-8565875D01*
X35935324Y-9023075D01*
X36124236Y-9113563D01*
X36443324Y-9143725D01*
X36755268Y-9097688D01*
X36922749Y-8959575D01*
X36989424Y-8784950D01*
X36998949Y-8559525D01*
X36998949Y-8534125D01*
X36890999Y-8089625D01*
X36685418Y-7989612D01*
X36360774Y-7956275D01*
X36048830Y-8003900D01*
X35881349Y-8146775D01*
X35821024Y-8318225D01*
X35811499Y-8540475D01*
X35811499Y-8565875D01*
X19428231Y-8565875D01*
X19428499Y-8559525D01*
X19428499Y-8534125D01*
X19320549Y-8089625D01*
X19114968Y-7989612D01*
X18790324Y-7956275D01*
X18478380Y-8003900D01*
X18310899Y-8146775D01*
X18250574Y-8318225D01*
X18241049Y-8540475D01*
X18241049Y-8565875D01*
X17137325Y-8565875D01*
X17134167Y-8550000D01*
X17218383Y-8126617D01*
X17458210Y-7767689D01*
X17817137Y-7527862D01*
X18240520Y-7443645D01*
X36999478Y-7443645D01*
X37422862Y-7527861D01*
G37*
G04 #@! TO.C,kibuzzard-62B8367A*
G36*
X33876750Y-37303250D02*
G01*
X34109831Y-38468657D01*
X31661738Y-40916750D01*
X31589833Y-40981920D01*
X31511886Y-41039730D01*
X31428649Y-41089620D01*
X31340922Y-41131112D01*
X31249551Y-41163804D01*
X31155415Y-41187385D01*
X31059421Y-41201625D01*
X30962495Y-41206386D01*
X30865567Y-41201624D01*
X30769573Y-41187384D01*
X30675438Y-41163805D01*
X30584066Y-41131112D01*
X30496340Y-41089620D01*
X30413102Y-41039730D01*
X30335155Y-40981920D01*
X30263250Y-40916750D01*
X30198080Y-40844845D01*
X30140270Y-40766898D01*
X30090380Y-40683660D01*
X30048888Y-40595934D01*
X30016195Y-40504562D01*
X29992616Y-40410427D01*
X29978376Y-40314433D01*
X29973614Y-40217505D01*
X29978375Y-40120579D01*
X29992615Y-40024585D01*
X30016196Y-39930449D01*
X30023162Y-39910979D01*
X30682610Y-39910979D01*
X30699447Y-39954310D01*
X30756023Y-39983944D01*
X31506772Y-40238984D01*
X31568736Y-40240780D01*
X31623516Y-40210247D01*
X31632496Y-40201267D01*
X31662131Y-40147385D01*
X31660335Y-40085421D01*
X31405296Y-39334672D01*
X31375661Y-39278096D01*
X31332331Y-39261258D01*
X31265204Y-39273606D01*
X31196954Y-39311323D01*
X31181687Y-39375083D01*
X31196056Y-39414596D01*
X31409786Y-39987536D01*
X31379253Y-39976535D01*
X31309207Y-39950717D01*
X31216598Y-39916480D01*
X31118376Y-39880222D01*
X31020267Y-39843852D01*
X30927995Y-39809278D01*
X30856041Y-39782449D01*
X30818885Y-39769316D01*
X30780270Y-39760336D01*
X30752431Y-39763030D01*
X30725041Y-39783236D01*
X30694957Y-39843852D01*
X30682610Y-39910979D01*
X30023162Y-39910979D01*
X30048888Y-39839078D01*
X30090380Y-39751351D01*
X30140270Y-39668114D01*
X30198080Y-39590167D01*
X30263250Y-39518262D01*
X30585136Y-39196376D01*
X31531917Y-39196376D01*
X31541010Y-39271698D01*
X31566491Y-39350387D01*
X31609260Y-39428179D01*
X31670213Y-39500807D01*
X31743627Y-39562321D01*
X31823776Y-39606774D01*
X31905159Y-39634051D01*
X31982277Y-39644042D01*
X32056701Y-39640113D01*
X32130002Y-39625632D01*
X32198253Y-39602733D01*
X32257522Y-39573547D01*
X32309271Y-39538635D01*
X32354958Y-39498562D01*
X32394808Y-39451527D01*
X32429045Y-39395738D01*
X32466313Y-39311772D01*
X32478436Y-39261932D01*
X32484273Y-39211193D01*
X32464966Y-39167639D01*
X32394920Y-39137106D01*
X32325997Y-39130595D01*
X32284463Y-39146985D01*
X32259318Y-39208050D01*
X32254828Y-39235889D01*
X32233724Y-39285729D01*
X32188374Y-39345448D01*
X32120349Y-39393717D01*
X32034812Y-39419984D01*
X31932437Y-39409208D01*
X31880688Y-39384400D01*
X31833205Y-39345897D01*
X31794702Y-39298414D01*
X31769894Y-39246665D01*
X31759118Y-39146086D01*
X31785834Y-39058753D01*
X31833654Y-38990728D01*
X31897863Y-38941786D01*
X31964766Y-38920682D01*
X32030321Y-38894639D01*
X32047833Y-38852881D01*
X32044690Y-38783284D01*
X32013708Y-38714585D01*
X31947703Y-38695278D01*
X31906394Y-38704258D01*
X31872269Y-38713238D01*
X31779772Y-38752751D01*
X31726789Y-38786202D01*
X31680989Y-38825491D01*
X31627208Y-38890049D01*
X31584402Y-38965184D01*
X31552572Y-39050896D01*
X31536632Y-39123186D01*
X31531917Y-39196376D01*
X30585136Y-39196376D01*
X31194895Y-38586617D01*
X32141677Y-38586617D01*
X32150769Y-38661938D01*
X32176251Y-38740628D01*
X32219019Y-38818420D01*
X32279973Y-38891047D01*
X32353386Y-38952562D01*
X32433535Y-38997014D01*
X32514919Y-39024292D01*
X32592036Y-39034282D01*
X32666461Y-39030354D01*
X32739762Y-39015873D01*
X32808012Y-38992973D01*
X32867281Y-38963787D01*
X32919030Y-38928876D01*
X32964717Y-38888802D01*
X33004567Y-38841768D01*
X33038804Y-38785978D01*
X33076072Y-38702013D01*
X33088196Y-38652172D01*
X33094033Y-38601434D01*
X33074725Y-38557880D01*
X33004679Y-38527347D01*
X32935756Y-38520836D01*
X32894222Y-38537225D01*
X32869077Y-38598291D01*
X32864587Y-38626130D01*
X32843484Y-38675970D01*
X32798133Y-38735689D01*
X32730108Y-38783957D01*
X32644571Y-38810225D01*
X32542196Y-38799449D01*
X32490447Y-38774640D01*
X32442964Y-38736138D01*
X32404462Y-38688655D01*
X32379653Y-38636906D01*
X32368877Y-38536327D01*
X32395593Y-38448994D01*
X32443413Y-38380969D01*
X32507622Y-38332026D01*
X32574525Y-38310923D01*
X32640081Y-38284880D01*
X32657592Y-38243122D01*
X32654449Y-38173525D01*
X32623467Y-38104826D01*
X32557462Y-38085518D01*
X32516153Y-38094498D01*
X32482028Y-38103479D01*
X32389532Y-38142992D01*
X32336549Y-38176443D01*
X32290749Y-38215732D01*
X32236967Y-38280290D01*
X32194162Y-38355424D01*
X32162331Y-38441136D01*
X32146392Y-38513427D01*
X32141677Y-38586617D01*
X31194895Y-38586617D01*
X32711343Y-37070169D01*
X33876750Y-37303250D01*
G37*
G04 #@! TO.C,kibuzzard-62B8370D*
G36*
X52436184Y-4634770D02*
G01*
X52582333Y-4732103D01*
X52683239Y-4877657D01*
X52716874Y-5054763D01*
X52682346Y-5231273D01*
X52578761Y-5375041D01*
X52432314Y-5470588D01*
X52269199Y-5502438D01*
X52038217Y-5502438D01*
X52038217Y-4602325D01*
X52266817Y-4602325D01*
X52436184Y-4634770D01*
G37*
G36*
X54626636Y-6462743D02*
G01*
X48166107Y-6462743D01*
X48027634Y-6455940D01*
X47890494Y-6435597D01*
X47756009Y-6401910D01*
X47625473Y-6355204D01*
X47500144Y-6295928D01*
X47381229Y-6224653D01*
X47269872Y-6142065D01*
X47167147Y-6048960D01*
X47074042Y-5946234D01*
X46991454Y-5834878D01*
X46920179Y-5715962D01*
X46860902Y-5590633D01*
X46814196Y-5460098D01*
X46780509Y-5325612D01*
X46760167Y-5188473D01*
X46753364Y-5050000D01*
X46754066Y-5035712D01*
X48166305Y-5035712D01*
X48182676Y-5218101D01*
X48231789Y-5386649D01*
X48313645Y-5541356D01*
X48428242Y-5682222D01*
X48565015Y-5799424D01*
X48713397Y-5883140D01*
X48873387Y-5933369D01*
X49044986Y-5950113D01*
X49232510Y-5937164D01*
X49395030Y-5898320D01*
X49532547Y-5833580D01*
X49645061Y-5742944D01*
X49658177Y-5714369D01*
X49902236Y-5714369D01*
X49905808Y-5797713D01*
X49928430Y-5862006D01*
X49990342Y-5910227D01*
X50109405Y-5926300D01*
X50232039Y-5910227D01*
X50295142Y-5862006D01*
X50317764Y-5800094D01*
X50321336Y-5716750D01*
X50321336Y-4933319D01*
X50387879Y-5020102D01*
X50474795Y-5134402D01*
X50582083Y-5276219D01*
X50709745Y-5445552D01*
X50857779Y-5642402D01*
X51026186Y-5866769D01*
X51085717Y-5912013D01*
X51214305Y-5926300D01*
X51336939Y-5910227D01*
X51400042Y-5862006D01*
X51422664Y-5800094D01*
X51426236Y-5716750D01*
X51426236Y-5711988D01*
X51616736Y-5711988D01*
X51645311Y-5864388D01*
X51708414Y-5909036D01*
X51826286Y-5923919D01*
X52262055Y-5923919D01*
X52437449Y-5907696D01*
X52599299Y-5859030D01*
X52747607Y-5777918D01*
X52882371Y-5664363D01*
X52994364Y-5528110D01*
X53074359Y-5378910D01*
X53122356Y-5216762D01*
X53138355Y-5041666D01*
X53121984Y-4867239D01*
X53072871Y-4707100D01*
X52991015Y-4561248D01*
X52876417Y-4429684D01*
X52740240Y-4320817D01*
X52593644Y-4243054D01*
X52436630Y-4196396D01*
X52269199Y-4180844D01*
X51828667Y-4178462D01*
X51706033Y-4194536D01*
X51642930Y-4242756D01*
X51620308Y-4304669D01*
X51616736Y-4388012D01*
X51616736Y-5711988D01*
X51426236Y-5711988D01*
X51426236Y-4395156D01*
X51411949Y-4273712D01*
X51382183Y-4223706D01*
X51320271Y-4195131D01*
X51210733Y-4183225D01*
X51097624Y-4197512D01*
X51029758Y-4253472D01*
X51007136Y-4385631D01*
X51007136Y-5190494D01*
X50941520Y-5104570D01*
X50857382Y-4992850D01*
X50754724Y-4855333D01*
X50633545Y-4692019D01*
X50493845Y-4502908D01*
X50335624Y-4288000D01*
X50280855Y-4226087D01*
X50222514Y-4196322D01*
X50109405Y-4183225D01*
X49992724Y-4197512D01*
X49924858Y-4253472D01*
X49902236Y-4385631D01*
X49902236Y-5714369D01*
X49658177Y-5714369D01*
X49711736Y-5597688D01*
X49711736Y-5073813D01*
X49687924Y-4940462D01*
X49530761Y-4873787D01*
X49111661Y-4873787D01*
X48997361Y-4895219D01*
X48958071Y-4947606D01*
X48947355Y-5048809D01*
X48956880Y-5148822D01*
X48997361Y-5204781D01*
X49102136Y-5223831D01*
X49290255Y-5223831D01*
X49290255Y-5483388D01*
X49178932Y-5515534D01*
X49054511Y-5526250D01*
X48883061Y-5490234D01*
X48730661Y-5382184D01*
X48651286Y-5279261D01*
X48603661Y-5162580D01*
X48587786Y-5032141D01*
X48622910Y-4845808D01*
X48728280Y-4698766D01*
X48878894Y-4603218D01*
X49049749Y-4571369D01*
X49178336Y-4587740D01*
X49287874Y-4636853D01*
X49433130Y-4702337D01*
X49513497Y-4670786D01*
X49602199Y-4576131D01*
X49656967Y-4441591D01*
X49592674Y-4335625D01*
X49422547Y-4232437D01*
X49245540Y-4170525D01*
X49061655Y-4149887D01*
X48886633Y-4165738D01*
X48723517Y-4213288D01*
X48572308Y-4292539D01*
X48433005Y-4403491D01*
X48316324Y-4538106D01*
X48232980Y-4688348D01*
X48182974Y-4854217D01*
X48166305Y-5035712D01*
X46754066Y-5035712D01*
X46760167Y-4911527D01*
X46780509Y-4774388D01*
X46814196Y-4639902D01*
X46860902Y-4509367D01*
X46920179Y-4384038D01*
X46991454Y-4265122D01*
X47074042Y-4153766D01*
X47167147Y-4051040D01*
X47269872Y-3957935D01*
X47381229Y-3875347D01*
X47500144Y-3804072D01*
X47625473Y-3744796D01*
X47756009Y-3698090D01*
X47890494Y-3664403D01*
X48027634Y-3644060D01*
X48166107Y-3637257D01*
X54626636Y-3637257D01*
X54626636Y-6462743D01*
G37*
G04 #@! TO.C,kibuzzard-62C5CE8E*
G36*
X48553085Y-39668530D02*
G01*
X48597535Y-39679325D01*
X48637540Y-39705360D01*
X48653415Y-39764415D01*
X48629285Y-39853315D01*
X48559435Y-39901575D01*
X48515620Y-39891415D01*
X48460375Y-39881255D01*
X48396240Y-39905385D01*
X48366395Y-39963805D01*
X48366395Y-40230505D01*
X48364490Y-40274320D01*
X48352425Y-40307975D01*
X48318135Y-40332740D01*
X48253365Y-40340995D01*
X48165735Y-40319405D01*
X48142875Y-40264795D01*
X48142875Y-39782195D01*
X48144780Y-39738380D01*
X48155575Y-39705995D01*
X48189230Y-39680277D01*
X48254635Y-39671705D01*
X48316548Y-39679007D01*
X48349885Y-39700915D01*
X48363855Y-39742825D01*
X48382270Y-39721235D01*
X48433705Y-39686945D01*
X48502920Y-39665355D01*
X48553085Y-39668530D01*
G37*
G36*
X50061845Y-39366905D02*
G01*
X50095500Y-39393575D01*
X50106930Y-39427230D01*
X50108835Y-39471045D01*
X50108835Y-40229235D01*
X50106930Y-40273050D01*
X50094865Y-40305435D01*
X50058511Y-40331153D01*
X49987550Y-40339725D01*
X49918811Y-40324168D01*
X49889125Y-40277495D01*
X49825308Y-40323215D01*
X49740535Y-40338455D01*
X49666593Y-40327378D01*
X49597166Y-40294146D01*
X49532255Y-40238760D01*
X49480044Y-40168628D01*
X49448717Y-40091158D01*
X49438353Y-40006985D01*
X49660525Y-40006985D01*
X49693545Y-40083185D01*
X49773555Y-40117475D01*
X49851660Y-40083185D01*
X49882775Y-40007620D01*
X49852930Y-39930785D01*
X49772285Y-39895225D01*
X49691005Y-39930150D01*
X49660525Y-40006985D01*
X49438353Y-40006985D01*
X49438275Y-40006350D01*
X49448788Y-39921472D01*
X49480326Y-39843790D01*
X49532890Y-39773305D01*
X49598013Y-39717566D01*
X49667228Y-39684123D01*
X49740535Y-39672975D01*
X49824038Y-39688850D01*
X49886585Y-39736475D01*
X49886585Y-39469775D01*
X49888490Y-39425960D01*
X49899920Y-39392940D01*
X49933575Y-39366905D01*
X49997710Y-39359285D01*
X50061845Y-39366905D01*
G37*
G36*
X52245610Y-39725045D02*
G01*
X52270375Y-39820295D01*
X52267200Y-39865380D01*
X52253865Y-39900305D01*
X52220369Y-39927927D01*
X52157980Y-39937135D01*
X52094163Y-39930944D01*
X52056380Y-39912370D01*
X52037806Y-39876016D01*
X52031615Y-39816485D01*
X52038283Y-39756160D01*
X52058285Y-39722505D01*
X52155440Y-39699645D01*
X52245610Y-39725045D01*
G37*
G36*
X47130685Y-39669800D02*
G01*
X47224665Y-39702185D01*
X47269115Y-39752985D01*
X47241175Y-39827915D01*
X47184025Y-39872365D01*
X47127510Y-39853315D01*
X47037975Y-39834265D01*
X46963045Y-39862205D01*
X46984635Y-39893637D01*
X47049405Y-39911735D01*
X47131955Y-39928245D01*
X47211965Y-39959995D01*
X47273560Y-40021590D01*
X47292134Y-40070961D01*
X47298325Y-40131445D01*
X47292134Y-40192564D01*
X47273560Y-40243840D01*
X47204345Y-40313055D01*
X47145572Y-40334927D01*
X47077627Y-40348051D01*
X47000510Y-40352425D01*
X46919865Y-40344523D01*
X46841337Y-40320816D01*
X46764925Y-40281305D01*
X46740795Y-40233045D01*
X46752860Y-40191453D01*
X46789055Y-40132715D01*
X46834140Y-40111125D01*
X46918595Y-40142240D01*
X47015115Y-40173355D01*
X47073217Y-40165735D01*
X47092585Y-40142875D01*
X47071312Y-40121920D01*
X47007495Y-40107315D01*
X46927802Y-40086678D01*
X46848745Y-40047625D01*
X46787785Y-39975870D01*
X46769687Y-39922371D01*
X46763655Y-39859665D01*
X46774679Y-39787427D01*
X46807749Y-39731243D01*
X46862867Y-39691111D01*
X46940033Y-39667031D01*
X47039245Y-39659005D01*
X47130685Y-39669800D01*
G37*
G36*
X44128881Y-39399766D02*
G01*
X44195080Y-39414530D01*
X44282075Y-39454535D01*
X44313825Y-39478665D01*
X44353195Y-39540895D01*
X44322715Y-39610745D01*
X44278900Y-39658370D01*
X44233815Y-39674245D01*
X44167775Y-39648845D01*
X44153170Y-39636145D01*
X44133485Y-39619635D01*
X44065540Y-39603125D01*
X43996960Y-39622810D01*
X43969655Y-39677420D01*
X44002040Y-39733935D01*
X44082685Y-39763145D01*
X44133167Y-39772829D01*
X44188095Y-39786640D01*
X44243022Y-39804261D01*
X44293505Y-39825375D01*
X44337796Y-39856649D01*
X44374150Y-39904750D01*
X44398439Y-39967774D01*
X44406535Y-40043815D01*
X44398280Y-40121444D01*
X44373515Y-40189230D01*
X44335415Y-40244951D01*
X44287155Y-40286385D01*
X44217023Y-40323779D01*
X44143786Y-40346216D01*
X44067445Y-40353695D01*
X44009342Y-40350044D01*
X43954415Y-40339090D01*
X43868055Y-40302895D01*
X43810905Y-40262890D01*
X43774075Y-40224155D01*
X43762645Y-40210185D01*
X43729625Y-40137160D01*
X43743277Y-40099536D01*
X43784235Y-40051435D01*
X43851545Y-40020955D01*
X43894090Y-40036830D01*
X43950605Y-40084455D01*
X44001405Y-40125730D01*
X44062365Y-40145415D01*
X44127982Y-40134691D01*
X44167352Y-40102517D01*
X44180475Y-40048895D01*
X44148090Y-40000000D01*
X44067445Y-39971425D01*
X44017280Y-39959836D01*
X43963305Y-39942850D01*
X43909330Y-39921419D01*
X43859165Y-39896495D01*
X43814874Y-39862046D01*
X43778520Y-39812040D01*
X43754231Y-39748381D01*
X43746135Y-39672975D01*
X43755378Y-39601643D01*
X43783106Y-39536662D01*
X43829320Y-39478030D01*
X43891479Y-39431816D01*
X43967044Y-39404088D01*
X44056015Y-39394845D01*
X44128881Y-39399766D01*
G37*
G36*
X52245610Y-40129540D02*
G01*
X52264184Y-40165894D01*
X52270375Y-40225425D01*
X52267200Y-40270510D01*
X52253865Y-40305435D01*
X52220369Y-40333058D01*
X52157980Y-40342265D01*
X52094163Y-40336074D01*
X52056380Y-40317500D01*
X52037806Y-40281146D01*
X52031615Y-40221615D01*
X52038283Y-40161290D01*
X52058285Y-40127635D01*
X52155440Y-40104775D01*
X52245610Y-40129540D01*
G37*
G36*
X48942975Y-40079375D02*
G01*
X48984885Y-40139065D01*
X49068705Y-40163195D01*
X49134428Y-40159385D01*
X49184275Y-40147955D01*
X49198245Y-40142875D01*
X49249045Y-40128905D01*
X49318895Y-40186055D01*
X49335405Y-40244475D01*
X49318498Y-40293926D01*
X49267778Y-40329248D01*
X49183243Y-40350441D01*
X49064895Y-40357505D01*
X48976154Y-40349409D01*
X48897890Y-40325120D01*
X48832961Y-40287496D01*
X48784225Y-40239395D01*
X48739775Y-40168134D01*
X48713105Y-40091511D01*
X48704215Y-40009525D01*
X48709497Y-39963805D01*
X48940435Y-39963805D01*
X49100455Y-39963805D01*
X49148715Y-39923165D01*
X49126490Y-39876175D01*
X49062990Y-39858395D01*
X48981075Y-39892050D01*
X48940435Y-39963805D01*
X48709497Y-39963805D01*
X48715716Y-39909971D01*
X48750217Y-39824669D01*
X48807720Y-39753620D01*
X48882438Y-39700351D01*
X48968587Y-39668389D01*
X49066165Y-39657735D01*
X49148556Y-39665514D01*
X49219200Y-39688850D01*
X49278096Y-39727744D01*
X49325245Y-39782195D01*
X49357630Y-39851251D01*
X49368425Y-39926340D01*
X49358741Y-39994285D01*
X49329690Y-40041910D01*
X49243965Y-40079375D01*
X48942975Y-40079375D01*
G37*
G36*
X51041297Y-39717566D02*
G01*
X51106420Y-39773305D01*
X51158984Y-39843790D01*
X51190522Y-39921472D01*
X51201035Y-40006350D01*
X51190593Y-40091158D01*
X51159266Y-40168628D01*
X51107055Y-40238760D01*
X51042849Y-40294146D01*
X50975539Y-40327378D01*
X50905125Y-40338455D01*
X50812733Y-40323215D01*
X50751455Y-40277495D01*
X50719070Y-40324168D01*
X50642235Y-40339725D01*
X50577783Y-40331153D01*
X50544445Y-40305435D01*
X50533650Y-40271780D01*
X50531745Y-40227965D01*
X50531745Y-40007620D01*
X50756535Y-40007620D01*
X50787650Y-40083185D01*
X50865755Y-40117475D01*
X50945765Y-40083185D01*
X50978785Y-40006985D01*
X50948305Y-39930150D01*
X50867025Y-39895225D01*
X50786380Y-39930785D01*
X50756535Y-40007620D01*
X50531745Y-40007620D01*
X50531745Y-39469775D01*
X50533650Y-39425960D01*
X50544445Y-39393575D01*
X50578100Y-39367857D01*
X50643505Y-39359285D01*
X50707640Y-39367857D01*
X50740025Y-39393575D01*
X50752090Y-39427230D01*
X50753995Y-39471045D01*
X50753995Y-39735205D01*
X50815590Y-39688532D01*
X50898775Y-39672975D01*
X50972082Y-39684123D01*
X51041297Y-39717566D01*
G37*
G36*
X46442274Y-39682500D02*
G01*
X46512759Y-39714885D01*
X46573790Y-39768860D01*
X46620709Y-39838357D01*
X46648861Y-39917309D01*
X46658245Y-40005715D01*
X46658245Y-40229235D01*
X46656340Y-40273050D01*
X46645545Y-40305435D01*
X46611890Y-40331153D01*
X46546485Y-40339725D01*
X46475365Y-40327978D01*
X46442345Y-40292735D01*
X46434725Y-40227965D01*
X46434725Y-40004445D01*
X46404880Y-39923165D01*
X46324870Y-39893955D01*
X46243590Y-39924435D01*
X46212475Y-40004445D01*
X46212475Y-40229235D01*
X46210570Y-40273050D01*
X46198505Y-40305435D01*
X46165802Y-40331153D01*
X46100715Y-40339725D01*
X46036262Y-40331153D01*
X46002925Y-40305435D01*
X45992130Y-40271780D01*
X45990225Y-40227965D01*
X45990225Y-39778385D01*
X45992130Y-39735840D01*
X46004195Y-39703455D01*
X46037532Y-39679642D01*
X46101985Y-39671705D01*
X46164532Y-39679007D01*
X46197235Y-39700915D01*
X46209935Y-39752985D01*
X46232795Y-39727585D01*
X46267085Y-39700915D01*
X46362335Y-39671705D01*
X46442274Y-39682500D01*
G37*
G36*
X45647607Y-39667401D02*
G01*
X45728464Y-39700209D01*
X45802265Y-39754890D01*
X45860826Y-39826504D01*
X45895963Y-39910112D01*
X45907675Y-40005715D01*
X45894022Y-40105251D01*
X45853065Y-40193040D01*
X45792581Y-40264160D01*
X45720350Y-40313690D01*
X45640816Y-40342741D01*
X45558425Y-40352425D01*
X45475875Y-40342106D01*
X45395865Y-40311150D01*
X45323316Y-40260033D01*
X45263150Y-40189230D01*
X45222669Y-40103346D01*
X45209175Y-40006985D01*
X45209411Y-40005080D01*
X45433965Y-40005080D01*
X45444125Y-40059055D01*
X45474605Y-40097790D01*
X45557155Y-40128905D01*
X45640975Y-40097155D01*
X45672407Y-40057785D01*
X45682885Y-40003175D01*
X45673042Y-39948882D01*
X45643515Y-39910465D01*
X45558425Y-39879985D01*
X45473335Y-39911735D01*
X45443807Y-39950946D01*
X45433965Y-40005080D01*
X45209411Y-40005080D01*
X45221028Y-39911312D01*
X45256588Y-39827492D01*
X45315855Y-39755525D01*
X45390362Y-39700492D01*
X45471642Y-39667472D01*
X45559695Y-39656465D01*
X45647607Y-39667401D01*
G37*
G36*
X44490990Y-39737745D02*
G01*
X44501785Y-39705995D01*
X44531947Y-39680277D01*
X44586875Y-39671705D01*
X44677680Y-39688850D01*
X44704985Y-39739015D01*
X44767056Y-39689485D01*
X44856750Y-39672975D01*
X44924554Y-39683841D01*
X44989959Y-39716437D01*
X45052965Y-39770765D01*
X45104471Y-39839486D01*
X45135374Y-39915263D01*
X45145675Y-39998095D01*
X45135444Y-40080927D01*
X45104753Y-40156704D01*
X45053600Y-40225425D01*
X44990876Y-40279753D01*
X44925471Y-40312349D01*
X44857385Y-40323215D01*
X44767532Y-40308610D01*
X44706255Y-40264795D01*
X44706255Y-40521335D01*
X44704350Y-40564515D01*
X44692920Y-40596900D01*
X44660535Y-40622935D01*
X44598305Y-40630555D01*
X44535440Y-40622935D01*
X44502420Y-40597535D01*
X44490990Y-40565785D01*
X44489085Y-40522605D01*
X44489085Y-39999365D01*
X44711335Y-39999365D01*
X44741180Y-40073660D01*
X44817380Y-40107315D01*
X44896120Y-40074295D01*
X44928505Y-39999365D01*
X44898025Y-39923800D01*
X44818650Y-39890145D01*
X44740545Y-39924435D01*
X44711335Y-39999365D01*
X44489085Y-39999365D01*
X44489085Y-39780925D01*
X44490990Y-39737745D01*
G37*
G36*
X47800257Y-39667401D02*
G01*
X47881114Y-39700209D01*
X47954915Y-39754890D01*
X48013476Y-39826504D01*
X48048613Y-39910112D01*
X48060325Y-40005715D01*
X48046673Y-40105251D01*
X48005715Y-40193040D01*
X47945231Y-40264160D01*
X47873000Y-40313690D01*
X47793466Y-40342741D01*
X47711075Y-40352425D01*
X47628525Y-40342106D01*
X47548515Y-40311150D01*
X47475966Y-40260033D01*
X47415800Y-40189230D01*
X47375319Y-40103346D01*
X47361825Y-40006985D01*
X47362061Y-40005080D01*
X47586615Y-40005080D01*
X47596775Y-40059055D01*
X47627255Y-40097790D01*
X47709805Y-40128905D01*
X47793625Y-40097155D01*
X47825057Y-40057785D01*
X47835535Y-40003175D01*
X47825692Y-39948882D01*
X47796165Y-39910465D01*
X47711075Y-39879985D01*
X47625985Y-39911735D01*
X47596457Y-39950946D01*
X47586615Y-40005080D01*
X47362061Y-40005080D01*
X47373678Y-39911312D01*
X47409238Y-39827492D01*
X47468505Y-39755525D01*
X47543012Y-39700492D01*
X47624292Y-39667472D01*
X47712345Y-39656465D01*
X47800257Y-39667401D01*
G37*
G36*
X51427095Y-39667895D02*
G01*
X51449320Y-39688850D01*
X51470275Y-39723775D01*
X51519170Y-39806960D01*
X51560445Y-39876881D01*
X51600450Y-39943556D01*
X51639185Y-40006985D01*
X51659505Y-39957614D01*
X51707765Y-39850140D01*
X51755549Y-39745524D01*
X51774440Y-39704725D01*
X51789045Y-39683135D01*
X51835400Y-39661545D01*
X51905885Y-39679325D01*
X51962083Y-39715837D01*
X51980815Y-39759335D01*
X51970655Y-39802515D01*
X51960495Y-39824105D01*
X51627755Y-40568325D01*
X51610610Y-40605155D01*
X51588385Y-40629285D01*
X51550285Y-40640715D01*
X51482975Y-40621665D01*
X51426778Y-40585470D01*
X51408045Y-40542925D01*
X51415665Y-40513318D01*
X51438525Y-40454978D01*
X51476625Y-40367903D01*
X51529965Y-40252095D01*
X51277235Y-39826645D01*
X51251835Y-39764415D01*
X51268980Y-39723775D01*
X51320415Y-39683135D01*
X51387725Y-39657735D01*
X51427095Y-39667895D01*
G37*
G04 #@! TO.C,kibuzzard-62B83AAD*
G36*
X26646312Y-35467861D02*
G01*
X27005239Y-35707689D01*
X27245067Y-36066616D01*
X27329283Y-36490000D01*
X27245067Y-36913384D01*
X27005239Y-37272311D01*
X26646312Y-37512139D01*
X26222928Y-37596355D01*
X10677070Y-37596355D01*
X10253687Y-37512138D01*
X9894760Y-37272311D01*
X9654933Y-36913383D01*
X9573875Y-36505875D01*
X10677599Y-36505875D01*
X10801424Y-36963075D01*
X10990336Y-37053563D01*
X11309424Y-37083725D01*
X11621368Y-37037688D01*
X11788849Y-36899575D01*
X11855524Y-36724950D01*
X11864781Y-36505875D01*
X25034949Y-36505875D01*
X25158774Y-36963075D01*
X25347686Y-37053563D01*
X25666774Y-37083725D01*
X25978718Y-37037688D01*
X26146199Y-36899575D01*
X26212874Y-36724950D01*
X26222399Y-36499525D01*
X26222399Y-36474125D01*
X26114449Y-36029625D01*
X25908868Y-35929612D01*
X25584224Y-35896275D01*
X25272280Y-35943900D01*
X25104799Y-36086775D01*
X25044474Y-36258225D01*
X25034949Y-36480475D01*
X25034949Y-36505875D01*
X11864781Y-36505875D01*
X11865049Y-36499525D01*
X11865049Y-36474125D01*
X11757099Y-36029625D01*
X11551518Y-35929612D01*
X11226874Y-35896275D01*
X10914930Y-35943900D01*
X10747449Y-36086775D01*
X10687124Y-36258225D01*
X10677599Y-36480475D01*
X10677599Y-36505875D01*
X9573875Y-36505875D01*
X9570717Y-36490000D01*
X9654933Y-36066617D01*
X9894760Y-35707689D01*
X10253687Y-35467862D01*
X10677070Y-35383645D01*
X26222928Y-35383645D01*
X26646312Y-35467861D01*
G37*
G04 #@! TO.C,kibuzzard-62B8368F*
G36*
X30193261Y-37002864D02*
G01*
X31363158Y-37236842D01*
X31597136Y-38406739D01*
X31035870Y-38968005D01*
X29160793Y-40843083D01*
X29160718Y-40843158D01*
X29088537Y-40908579D01*
X29010290Y-40966611D01*
X28926731Y-41016694D01*
X28838666Y-41058346D01*
X28746944Y-41091165D01*
X28652445Y-41114836D01*
X28556081Y-41129130D01*
X28458780Y-41133910D01*
X28361480Y-41129129D01*
X28265116Y-41114835D01*
X28170618Y-41091165D01*
X28078894Y-41058346D01*
X27990830Y-41016694D01*
X27907272Y-40966611D01*
X27829025Y-40908580D01*
X27756842Y-40843158D01*
X27691420Y-40770975D01*
X27633389Y-40692728D01*
X27583306Y-40609170D01*
X27541654Y-40521106D01*
X27508835Y-40429382D01*
X27485165Y-40334884D01*
X27470871Y-40238520D01*
X27466090Y-40141220D01*
X27470870Y-40043919D01*
X27485164Y-39947555D01*
X27508835Y-39853056D01*
X27528981Y-39796752D01*
X28315620Y-39796752D01*
X28322384Y-39891522D01*
X28347612Y-39979613D01*
X28391307Y-40061024D01*
X28453467Y-40135757D01*
X28528425Y-40198365D01*
X28610509Y-40243407D01*
X28699723Y-40270881D01*
X28796064Y-40280788D01*
X28891844Y-40273407D01*
X28979373Y-40249020D01*
X29058652Y-40207626D01*
X29129680Y-40149227D01*
X29195517Y-40073624D01*
X29242158Y-39997686D01*
X29269604Y-39921409D01*
X29277854Y-39844796D01*
X29248220Y-39764872D01*
X29050654Y-39567306D01*
X28991384Y-39525997D01*
X28906970Y-39560122D01*
X28748917Y-39718175D01*
X28713894Y-39769362D01*
X28718834Y-39803936D01*
X28752959Y-39846143D01*
X28794268Y-39880268D01*
X28830638Y-39886106D01*
X28877335Y-39853777D01*
X28948279Y-39782833D01*
X29046164Y-39880717D01*
X29016305Y-39934823D01*
X28973424Y-39985786D01*
X28895183Y-40036861D01*
X28796962Y-40053587D01*
X28728213Y-40044707D01*
X28666250Y-40018664D01*
X28611070Y-39975459D01*
X28554046Y-39891942D01*
X28538330Y-39796752D01*
X28559097Y-39703918D01*
X28611519Y-39627474D01*
X28666187Y-39585155D01*
X28726018Y-39562367D01*
X28805493Y-39532283D01*
X28823903Y-39490076D01*
X28821657Y-39420928D01*
X28791574Y-39349535D01*
X28727365Y-39333820D01*
X28624292Y-39359064D01*
X28534190Y-39402469D01*
X28457059Y-39464034D01*
X28397031Y-39536016D01*
X28353450Y-39615463D01*
X28326312Y-39702375D01*
X28315620Y-39796752D01*
X27528981Y-39796752D01*
X27541654Y-39761334D01*
X27583306Y-39673269D01*
X27633389Y-39589710D01*
X27691421Y-39511463D01*
X27756842Y-39439282D01*
X27756917Y-39439207D01*
X28018561Y-39177563D01*
X28821657Y-39177563D01*
X28862967Y-39235935D01*
X29364065Y-39737033D01*
X29396843Y-39767117D01*
X29429621Y-39782833D01*
X29471155Y-39777669D01*
X29522117Y-39738829D01*
X29562304Y-39686520D01*
X29567917Y-39644537D01*
X29553099Y-39612657D01*
X29523015Y-39579879D01*
X29227565Y-39284428D01*
X29285388Y-39292061D01*
X29361271Y-39302388D01*
X29455215Y-39315410D01*
X29567218Y-39331126D01*
X29697283Y-39349535D01*
X29845407Y-39370639D01*
X29884920Y-39365251D01*
X29938801Y-39322146D01*
X29978988Y-39269836D01*
X29984601Y-39227853D01*
X29969783Y-39195973D01*
X29939699Y-39163195D01*
X29441295Y-38664791D01*
X29390108Y-38624380D01*
X29360024Y-38616746D01*
X29325899Y-38629319D01*
X29280100Y-38666138D01*
X29242831Y-38714182D01*
X29238341Y-38760879D01*
X29279651Y-38819251D01*
X29583183Y-39122784D01*
X29526034Y-39115125D01*
X29452171Y-39104724D01*
X29361595Y-39091577D01*
X29254306Y-39075688D01*
X29130304Y-39057053D01*
X28989588Y-39035675D01*
X28945585Y-39032981D01*
X28912358Y-39043758D01*
X28864763Y-39081475D01*
X28826148Y-39130866D01*
X28821657Y-39177563D01*
X28018561Y-39177563D01*
X28670527Y-38525597D01*
X29465542Y-38525597D01*
X29480359Y-38557477D01*
X29510443Y-38590255D01*
X30009745Y-39089557D01*
X30077995Y-39136254D01*
X30118631Y-39129295D01*
X30168696Y-39090455D01*
X30333035Y-38926116D01*
X30393062Y-38853853D01*
X30435747Y-38774462D01*
X30461087Y-38687943D01*
X30469085Y-38594296D01*
X30459937Y-38500676D01*
X30433838Y-38414242D01*
X30390789Y-38334991D01*
X30330790Y-38262924D01*
X30258835Y-38203317D01*
X30179921Y-38161447D01*
X30094047Y-38137312D01*
X30001214Y-38130915D01*
X29908802Y-38141214D01*
X29824191Y-38167172D01*
X29747382Y-38208790D01*
X29678374Y-38266067D01*
X29511341Y-38431304D01*
X29471154Y-38483614D01*
X29465542Y-38525597D01*
X28670527Y-38525597D01*
X29631995Y-37564130D01*
X30193261Y-37002864D01*
G37*
G36*
X30097304Y-38372708D02*
G01*
X30176778Y-38426814D01*
X30230323Y-38506402D01*
X30245477Y-38599684D01*
X30226282Y-38690946D01*
X30176778Y-38764472D01*
X30089670Y-38851580D01*
X29750216Y-38512126D01*
X29836426Y-38425916D01*
X29912534Y-38374279D01*
X30004357Y-38355870D01*
X30097304Y-38372708D01*
G37*
G04 #@! TD*
%LPC*%
D11*
G04 #@! TO.C,REF\u002A\u002A*
X8330000Y-31390000D03*
G04 #@! TD*
G04 #@! TO.C,REF\u002A\u002A*
X21030000Y-18690000D03*
G04 #@! TD*
G04 #@! TO.C,REF\u002A\u002A*
X48970000Y-33930000D03*
G04 #@! TD*
G04 #@! TO.C,REF\u002A\u002A*
X10870000Y-28850000D03*
G04 #@! TD*
G04 #@! TO.C,REF\u002A\u002A*
X59130000Y-21230000D03*
G04 #@! TD*
G04 #@! TO.C,REF\u002A\u002A*
X26110000Y-31390000D03*
G04 #@! TD*
G04 #@! TO.C,REF\u002A\u002A*
X38810000Y-21230000D03*
G04 #@! TD*
G04 #@! TO.C,REF\u002A\u002A*
X36270000Y-33930000D03*
G04 #@! TD*
G04 #@! TO.C,REF\u002A\u002A*
X56590000Y-21230000D03*
G04 #@! TD*
G04 #@! TO.C,REF\u002A\u002A*
X41350000Y-21230000D03*
G04 #@! TD*
G04 #@! TO.C,REF\u002A\u002A*
X48970000Y-26310000D03*
G04 #@! TD*
G04 #@! TO.C,REF\u002A\u002A*
X38810000Y-13610000D03*
G04 #@! TD*
G04 #@! TO.C,REF\u002A\u002A*
X28650000Y-36470000D03*
G04 #@! TD*
G04 #@! TO.C,REF\u002A\u002A*
X54050000Y-13610000D03*
G04 #@! TD*
G04 #@! TO.C,REF\u002A\u002A*
X61670000Y-28850000D03*
G04 #@! TD*
G04 #@! TO.C,REF\u002A\u002A*
X28650000Y-28850000D03*
G04 #@! TD*
G04 #@! TO.C,REF\u002A\u002A*
X31190000Y-16150000D03*
G04 #@! TD*
G04 #@! TO.C,REF\u002A\u002A*
X23570000Y-8530000D03*
G04 #@! TD*
G04 #@! TO.C,REF\u002A\u002A*
X36270000Y-16150000D03*
G04 #@! TD*
G04 #@! TO.C,REF\u002A\u002A*
X23570000Y-36470000D03*
G04 #@! TD*
G04 #@! TO.C,REF\u002A\u002A*
X13410000Y-11070000D03*
G04 #@! TD*
G04 #@! TO.C,REF\u002A\u002A*
X28650000Y-23770000D03*
G04 #@! TD*
G04 #@! TO.C,REF\u002A\u002A*
X18490000Y-16150000D03*
G04 #@! TD*
G04 #@! TO.C,REF\u002A\u002A*
X41350000Y-28850000D03*
G04 #@! TD*
G04 #@! TO.C,REF\u002A\u002A*
X38810000Y-33930000D03*
G04 #@! TD*
G04 #@! TO.C,REF\u002A\u002A*
X31190000Y-23770000D03*
G04 #@! TD*
G04 #@! TO.C,REF\u002A\u002A*
X31190000Y-28850000D03*
G04 #@! TD*
G04 #@! TO.C,REF\u002A\u002A*
X38810000Y-8530000D03*
G04 #@! TD*
G04 #@! TO.C,REF\u002A\u002A*
X46430000Y-31390000D03*
G04 #@! TD*
G04 #@! TO.C,REF\u002A\u002A*
X48970000Y-36470000D03*
G04 #@! TD*
G04 #@! TO.C,REF\u002A\u002A*
X51510000Y-11070000D03*
G04 #@! TD*
G04 #@! TO.C,REF\u002A\u002A*
X31190000Y-8530000D03*
G04 #@! TD*
D12*
G04 #@! TO.C,REF\u002A\u002A*
X65000000Y-42400000D03*
X62600000Y-40000000D03*
X63302944Y-41697056D03*
D13*
X65000000Y-40000000D03*
D12*
X65000000Y-37600000D03*
X67400000Y-40000000D03*
X66697056Y-41697056D03*
X66697056Y-38302944D03*
X63302944Y-38302944D03*
G04 #@! TD*
D11*
G04 #@! TO.C,REF\u002A\u002A*
X33730000Y-21230000D03*
G04 #@! TD*
G04 #@! TO.C,REF\u002A\u002A*
X33730000Y-13610000D03*
G04 #@! TD*
G04 #@! TO.C,REF\u002A\u002A*
X64210000Y-31390000D03*
G04 #@! TD*
G04 #@! TO.C,REF\u002A\u002A*
X61670000Y-23770000D03*
G04 #@! TD*
G04 #@! TO.C,REF\u002A\u002A*
X56590000Y-18690000D03*
G04 #@! TD*
G04 #@! TO.C,REF\u002A\u002A*
X18490000Y-31390000D03*
G04 #@! TD*
G04 #@! TO.C,REF\u002A\u002A*
X18490000Y-23770000D03*
G04 #@! TD*
G04 #@! TO.C,J2*
G36*
G01*
X31615000Y-37320000D02*
X30765000Y-37320000D01*
G75*
G02*
X30340000Y-36895000I0J425000D01*
G01*
X30340000Y-36045000D01*
G75*
G02*
X30765000Y-35620000I425000J0D01*
G01*
X31615000Y-35620000D01*
G75*
G02*
X32040000Y-36045000I0J-425000D01*
G01*
X32040000Y-36895000D01*
G75*
G02*
X31615000Y-37320000I-425000J0D01*
G01*
G37*
G36*
G01*
X34155000Y-37320000D02*
X33305000Y-37320000D01*
G75*
G02*
X32880000Y-36895000I0J425000D01*
G01*
X32880000Y-36045000D01*
G75*
G02*
X33305000Y-35620000I425000J0D01*
G01*
X34155000Y-35620000D01*
G75*
G02*
X34580000Y-36045000I0J-425000D01*
G01*
X34580000Y-36895000D01*
G75*
G02*
X34155000Y-37320000I-425000J0D01*
G01*
G37*
G36*
G01*
X36695000Y-37320000D02*
X35845000Y-37320000D01*
G75*
G02*
X35420000Y-36895000I0J425000D01*
G01*
X35420000Y-36045000D01*
G75*
G02*
X35845000Y-35620000I425000J0D01*
G01*
X36695000Y-35620000D01*
G75*
G02*
X37120000Y-36045000I0J-425000D01*
G01*
X37120000Y-36895000D01*
G75*
G02*
X36695000Y-37320000I-425000J0D01*
G01*
G37*
G36*
G01*
X39235000Y-37320000D02*
X38385000Y-37320000D01*
G75*
G02*
X37960000Y-36895000I0J425000D01*
G01*
X37960000Y-36045000D01*
G75*
G02*
X38385000Y-35620000I425000J0D01*
G01*
X39235000Y-35620000D01*
G75*
G02*
X39660000Y-36045000I0J-425000D01*
G01*
X39660000Y-36895000D01*
G75*
G02*
X39235000Y-37320000I-425000J0D01*
G01*
G37*
G04 #@! TD*
G04 #@! TO.C,REF\u002A\u002A*
X8330000Y-33930000D03*
G04 #@! TD*
G04 #@! TO.C,REF\u002A\u002A*
X38810000Y-11070000D03*
G04 #@! TD*
G04 #@! TO.C,REF\u002A\u002A*
X23570000Y-26310000D03*
G04 #@! TD*
G04 #@! TO.C,REF\u002A\u002A*
X8330000Y-21230000D03*
G04 #@! TD*
G04 #@! TO.C,REF\u002A\u002A*
X26110000Y-8530000D03*
G04 #@! TD*
G04 #@! TO.C,REF\u002A\u002A*
X64210000Y-26310000D03*
G04 #@! TD*
G04 #@! TO.C,REF\u002A\u002A*
X43890000Y-23770000D03*
G04 #@! TD*
G04 #@! TO.C,REF\u002A\u002A*
X38810000Y-28850000D03*
G04 #@! TD*
G04 #@! TO.C,REF\u002A\u002A*
X36270000Y-13610000D03*
G04 #@! TD*
G04 #@! TO.C,REF\u002A\u002A*
X28650000Y-33930000D03*
G04 #@! TD*
G04 #@! TO.C,REF\u002A\u002A*
X31190000Y-31390000D03*
G04 #@! TD*
G04 #@! TO.C,REF\u002A\u002A*
X51510000Y-13610000D03*
G04 #@! TD*
G04 #@! TO.C,REF\u002A\u002A*
X38810000Y-18690000D03*
G04 #@! TD*
G04 #@! TO.C,REF\u002A\u002A*
X21030000Y-26310000D03*
G04 #@! TD*
G04 #@! TO.C,REF\u002A\u002A*
X10870000Y-16150000D03*
G04 #@! TD*
G04 #@! TO.C,REF\u002A\u002A*
X23570000Y-31390000D03*
G04 #@! TD*
G04 #@! TO.C,REF\u002A\u002A*
X48970000Y-13610000D03*
G04 #@! TD*
G04 #@! TO.C,REF\u002A\u002A*
X15950000Y-11070000D03*
G04 #@! TD*
G04 #@! TO.C,REF\u002A\u002A*
X56590000Y-23770000D03*
G04 #@! TD*
G04 #@! TO.C,REF\u002A\u002A*
X43890000Y-18690000D03*
G04 #@! TD*
G04 #@! TO.C,REF\u002A\u002A*
X18490000Y-13610000D03*
G04 #@! TD*
G04 #@! TO.C,REF\u002A\u002A*
X28650000Y-26310000D03*
G04 #@! TD*
G04 #@! TO.C,REF\u002A\u002A*
X61670000Y-26310000D03*
G04 #@! TD*
G04 #@! TO.C,REF\u002A\u002A*
X41350000Y-31390000D03*
G04 #@! TD*
G04 #@! TO.C,REF\u002A\u002A*
X61670000Y-18690000D03*
G04 #@! TD*
G04 #@! TO.C,REF\u002A\u002A*
X33730000Y-31390000D03*
G04 #@! TD*
G04 #@! TO.C,REF\u002A\u002A*
X56590000Y-13610000D03*
G04 #@! TD*
G04 #@! TO.C,REF\u002A\u002A*
X54050000Y-23770000D03*
G04 #@! TD*
G04 #@! TO.C,REF\u002A\u002A*
X33730000Y-11070000D03*
G04 #@! TD*
G04 #@! TO.C,REF\u002A\u002A*
X5790000Y-31390000D03*
G04 #@! TD*
G04 #@! TO.C,REF\u002A\u002A*
X8330000Y-16150000D03*
G04 #@! TD*
G04 #@! TO.C,REF\u002A\u002A*
X41350000Y-11070000D03*
G04 #@! TD*
G04 #@! TO.C,REF\u002A\u002A*
X13410000Y-18690000D03*
G04 #@! TD*
G04 #@! TO.C,REF\u002A\u002A*
X61670000Y-16150000D03*
G04 #@! TD*
G04 #@! TO.C,REF\u002A\u002A*
X31190000Y-33930000D03*
G04 #@! TD*
G04 #@! TO.C,REF\u002A\u002A*
X13410000Y-31390000D03*
G04 #@! TD*
G04 #@! TO.C,REF\u002A\u002A*
X51510000Y-21230000D03*
G04 #@! TD*
G04 #@! TO.C,REF\u002A\u002A*
X51510000Y-31390000D03*
G04 #@! TD*
G04 #@! TO.C,REF\u002A\u002A*
X21030000Y-21230000D03*
G04 #@! TD*
G04 #@! TO.C,REF\u002A\u002A*
X51510000Y-8530000D03*
G04 #@! TD*
G04 #@! TO.C,REF\u002A\u002A*
X51510000Y-16150000D03*
G04 #@! TD*
G04 #@! TO.C,REF\u002A\u002A*
X15950000Y-31390000D03*
G04 #@! TD*
G04 #@! TO.C,REF\u002A\u002A*
X18490000Y-18690000D03*
G04 #@! TD*
G04 #@! TO.C,REF\u002A\u002A*
X28650000Y-16150000D03*
G04 #@! TD*
G04 #@! TO.C,REF\u002A\u002A*
X23570000Y-16150000D03*
G04 #@! TD*
G04 #@! TO.C,REF\u002A\u002A*
X51510000Y-36470000D03*
G04 #@! TD*
G04 #@! TO.C,REF\u002A\u002A*
X10870000Y-11070000D03*
G04 #@! TD*
G04 #@! TO.C,REF\u002A\u002A*
X46430000Y-16150000D03*
G04 #@! TD*
G04 #@! TO.C,REF\u002A\u002A*
X38810000Y-16150000D03*
G04 #@! TD*
G04 #@! TO.C,REF\u002A\u002A*
X48970000Y-18690000D03*
G04 #@! TD*
G04 #@! TO.C,REF\u002A\u002A*
X43890000Y-26310000D03*
G04 #@! TD*
G04 #@! TO.C,REF\u002A\u002A*
X33730000Y-18690000D03*
G04 #@! TD*
G04 #@! TO.C,REF\u002A\u002A*
X46430000Y-8530000D03*
G04 #@! TD*
G04 #@! TO.C,REF\u002A\u002A*
X15950000Y-18690000D03*
G04 #@! TD*
D12*
G04 #@! TO.C,REF\u002A\u002A*
X59197056Y-3302944D03*
X59900000Y-5000000D03*
X55802944Y-3302944D03*
X57500000Y-7400000D03*
X57500000Y-2600000D03*
D13*
X57500000Y-5000000D03*
D12*
X55100000Y-5000000D03*
X59197056Y-6697056D03*
X55802944Y-6697056D03*
G04 #@! TD*
D11*
G04 #@! TO.C,REF\u002A\u002A*
X56590000Y-36470000D03*
G04 #@! TD*
G04 #@! TO.C,REF\u002A\u002A*
X33730000Y-8530000D03*
G04 #@! TD*
G04 #@! TO.C,REF\u002A\u002A*
X5790000Y-33930000D03*
G04 #@! TD*
G04 #@! TO.C,REF\u002A\u002A*
X36270000Y-31390000D03*
G04 #@! TD*
G04 #@! TO.C,REF\u002A\u002A*
X28650000Y-8530000D03*
G04 #@! TD*
G04 #@! TO.C,REF\u002A\u002A*
X48970000Y-28850000D03*
G04 #@! TD*
G04 #@! TO.C,REF\u002A\u002A*
X43890000Y-8530000D03*
G04 #@! TD*
G04 #@! TO.C,REF\u002A\u002A*
X54050000Y-21230000D03*
G04 #@! TD*
G04 #@! TO.C,REF\u002A\u002A*
X43890000Y-21230000D03*
G04 #@! TD*
G04 #@! TO.C,REF\u002A\u002A*
X48970000Y-8530000D03*
G04 #@! TD*
G04 #@! TO.C,REF\u002A\u002A*
X41350000Y-13610000D03*
G04 #@! TD*
G04 #@! TO.C,REF\u002A\u002A*
X43890000Y-31390000D03*
G04 #@! TD*
G04 #@! TO.C,REF\u002A\u002A*
X64210000Y-33930000D03*
G04 #@! TD*
G04 #@! TO.C,REF\u002A\u002A*
X54050000Y-18690000D03*
G04 #@! TD*
G04 #@! TO.C,REF\u002A\u002A*
X21030000Y-23770000D03*
G04 #@! TD*
G04 #@! TO.C,REF\u002A\u002A*
X21030000Y-31390000D03*
G04 #@! TD*
G04 #@! TO.C,REF\u002A\u002A*
X41350000Y-23770000D03*
G04 #@! TD*
G04 #@! TO.C,REF\u002A\u002A*
X33730000Y-28850000D03*
G04 #@! TD*
G04 #@! TO.C,REF\u002A\u002A*
X54050000Y-11070000D03*
G04 #@! TD*
G04 #@! TO.C,REF\u002A\u002A*
X28650000Y-18690000D03*
G04 #@! TD*
G04 #@! TO.C,REF\u002A\u002A*
X15950000Y-36470000D03*
G04 #@! TD*
G04 #@! TO.C,REF\u002A\u002A*
X10870000Y-33930000D03*
G04 #@! TD*
G04 #@! TO.C,REF\u002A\u002A*
X46430000Y-26310000D03*
G04 #@! TD*
G04 #@! TO.C,REF\u002A\u002A*
X61670000Y-33930000D03*
G04 #@! TD*
G04 #@! TO.C,REF\u002A\u002A*
X51510000Y-33930000D03*
G04 #@! TD*
G04 #@! TO.C,REF\u002A\u002A*
X8330000Y-26310000D03*
G04 #@! TD*
G04 #@! TO.C,REF\u002A\u002A*
X26110000Y-26310000D03*
G04 #@! TD*
G04 #@! TO.C,REF\u002A\u002A*
X8330000Y-23770000D03*
G04 #@! TD*
G04 #@! TO.C,REF\u002A\u002A*
X48970000Y-31390000D03*
G04 #@! TD*
G04 #@! TO.C,REF\u002A\u002A*
X41350000Y-8530000D03*
G04 #@! TD*
G04 #@! TO.C,REF\u002A\u002A*
X41350000Y-18690000D03*
G04 #@! TD*
G04 #@! TO.C,REF\u002A\u002A*
X26110000Y-33930000D03*
G04 #@! TD*
G04 #@! TO.C,REF\u002A\u002A*
X15950000Y-21230000D03*
G04 #@! TD*
G04 #@! TO.C,REF\u002A\u002A*
X48970000Y-16150000D03*
G04 #@! TD*
G04 #@! TO.C,REF\u002A\u002A*
X59130000Y-28850000D03*
G04 #@! TD*
G04 #@! TO.C,REF\u002A\u002A*
X13410000Y-28850000D03*
G04 #@! TD*
G04 #@! TO.C,REF\u002A\u002A*
X31190000Y-18690000D03*
G04 #@! TD*
G04 #@! TO.C,REF\u002A\u002A*
X48970000Y-23770000D03*
G04 #@! TD*
G04 #@! TO.C,REF\u002A\u002A*
X41350000Y-16150000D03*
G04 #@! TD*
G04 #@! TO.C,REF\u002A\u002A*
X46430000Y-28850000D03*
G04 #@! TD*
G04 #@! TO.C,REF\u002A\u002A*
X10870000Y-31390000D03*
G04 #@! TD*
G04 #@! TO.C,REF\u002A\u002A*
X46430000Y-33930000D03*
G04 #@! TD*
G04 #@! TO.C,REF\u002A\u002A*
X26110000Y-36470000D03*
G04 #@! TD*
G04 #@! TO.C,REF\u002A\u002A*
X18490000Y-26310000D03*
G04 #@! TD*
G04 #@! TO.C,REF\u002A\u002A*
X41350000Y-33930000D03*
G04 #@! TD*
G04 #@! TO.C,REF\u002A\u002A*
X54050000Y-33930000D03*
G04 #@! TD*
G04 #@! TO.C,REF\u002A\u002A*
X15950000Y-23770000D03*
G04 #@! TD*
G04 #@! TO.C,REF\u002A\u002A*
X46430000Y-18690000D03*
G04 #@! TD*
G04 #@! TO.C,REF\u002A\u002A*
X38810000Y-23770000D03*
G04 #@! TD*
G04 #@! TO.C,REF\u002A\u002A*
X26110000Y-21230000D03*
G04 #@! TD*
G04 #@! TO.C,REF\u002A\u002A*
X36270000Y-18690000D03*
G04 #@! TD*
D12*
G04 #@! TO.C,REF\u002A\u002A*
X5000000Y-42400000D03*
X3302944Y-41697056D03*
X7400000Y-40000000D03*
X6697056Y-41697056D03*
X3302944Y-38302944D03*
D13*
X5000000Y-40000000D03*
D12*
X2600000Y-40000000D03*
X6697056Y-38302944D03*
X5000000Y-37600000D03*
G04 #@! TD*
G04 #@! TO.C,REF\u002A\u002A*
X12500000Y-7400000D03*
X14197056Y-3302944D03*
X10100000Y-5000000D03*
X10802944Y-3302944D03*
X14900000Y-5000000D03*
D13*
X12500000Y-5000000D03*
D12*
X14197056Y-6697056D03*
X10802944Y-6697056D03*
X12500000Y-2600000D03*
G04 #@! TD*
D11*
G04 #@! TO.C,REF\u002A\u002A*
X59130000Y-33930000D03*
G04 #@! TD*
G04 #@! TO.C,J1*
G36*
G01*
X33200000Y-40810000D02*
X33200000Y-39560000D01*
G75*
G02*
X33350000Y-39410000I150000J0D01*
G01*
X33650000Y-39410000D01*
G75*
G02*
X33800000Y-39560000I0J-150000D01*
G01*
X33800000Y-40810000D01*
G75*
G02*
X33650000Y-40960000I-150000J0D01*
G01*
X33350000Y-40960000D01*
G75*
G02*
X33200000Y-40810000I0J150000D01*
G01*
G37*
G36*
G01*
X34200000Y-40810000D02*
X34200000Y-39560000D01*
G75*
G02*
X34350000Y-39410000I150000J0D01*
G01*
X34650000Y-39410000D01*
G75*
G02*
X34800000Y-39560000I0J-150000D01*
G01*
X34800000Y-40810000D01*
G75*
G02*
X34650000Y-40960000I-150000J0D01*
G01*
X34350000Y-40960000D01*
G75*
G02*
X34200000Y-40810000I0J150000D01*
G01*
G37*
G36*
G01*
X35200000Y-40810000D02*
X35200000Y-39560000D01*
G75*
G02*
X35350000Y-39410000I150000J0D01*
G01*
X35650000Y-39410000D01*
G75*
G02*
X35800000Y-39560000I0J-150000D01*
G01*
X35800000Y-40810000D01*
G75*
G02*
X35650000Y-40960000I-150000J0D01*
G01*
X35350000Y-40960000D01*
G75*
G02*
X35200000Y-40810000I0J150000D01*
G01*
G37*
G36*
G01*
X36200000Y-40810000D02*
X36200000Y-39560000D01*
G75*
G02*
X36350000Y-39410000I150000J0D01*
G01*
X36650000Y-39410000D01*
G75*
G02*
X36800000Y-39560000I0J-150000D01*
G01*
X36800000Y-40810000D01*
G75*
G02*
X36650000Y-40960000I-150000J0D01*
G01*
X36350000Y-40960000D01*
G75*
G02*
X36200000Y-40810000I0J150000D01*
G01*
G37*
G36*
G01*
X37200000Y-44710000D02*
X37200000Y-43410000D01*
G75*
G02*
X37450000Y-43160000I250000J0D01*
G01*
X38150000Y-43160000D01*
G75*
G02*
X38400000Y-43410000I0J-250000D01*
G01*
X38400000Y-44710000D01*
G75*
G02*
X38150000Y-44960000I-250000J0D01*
G01*
X37450000Y-44960000D01*
G75*
G02*
X37200000Y-44710000I0J250000D01*
G01*
G37*
G36*
G01*
X31600000Y-44710000D02*
X31600000Y-43410000D01*
G75*
G02*
X31850000Y-43160000I250000J0D01*
G01*
X32550000Y-43160000D01*
G75*
G02*
X32800000Y-43410000I0J-250000D01*
G01*
X32800000Y-44710000D01*
G75*
G02*
X32550000Y-44960000I-250000J0D01*
G01*
X31850000Y-44960000D01*
G75*
G02*
X31600000Y-44710000I0J250000D01*
G01*
G37*
G04 #@! TD*
G04 #@! TO.C,REF\u002A\u002A*
X21030000Y-28850000D03*
G04 #@! TD*
G04 #@! TO.C,REF\u002A\u002A*
X36270000Y-21230000D03*
G04 #@! TD*
G04 #@! TO.C,REF\u002A\u002A*
X13410000Y-26310000D03*
G04 #@! TD*
G04 #@! TO.C,REF\u002A\u002A*
X61670000Y-21230000D03*
G04 #@! TD*
G04 #@! TO.C,REF\u002A\u002A*
X18490000Y-8530000D03*
G04 #@! TD*
G04 #@! TO.C,REF\u002A\u002A*
X33730000Y-23770000D03*
G04 #@! TD*
G04 #@! TO.C,REF\u002A\u002A*
X59130000Y-23770000D03*
G04 #@! TD*
G04 #@! TO.C,REF\u002A\u002A*
X43890000Y-28850000D03*
G04 #@! TD*
G04 #@! TO.C,REF\u002A\u002A*
X33730000Y-26310000D03*
G04 #@! TD*
G04 #@! TO.C,REF\u002A\u002A*
X13410000Y-23770000D03*
G04 #@! TD*
G04 #@! TO.C,REF\u002A\u002A*
X46430000Y-23770000D03*
G04 #@! TD*
G04 #@! TO.C,REF\u002A\u002A*
X15950000Y-33930000D03*
G04 #@! TD*
G04 #@! TO.C,REF\u002A\u002A*
X21030000Y-13610000D03*
G04 #@! TD*
G04 #@! TO.C,REF\u002A\u002A*
X21030000Y-8530000D03*
G04 #@! TD*
G04 #@! TO.C,REF\u002A\u002A*
X18490000Y-11070000D03*
G04 #@! TD*
G04 #@! TO.C,REF\u002A\u002A*
X54050000Y-28850000D03*
G04 #@! TD*
G04 #@! TO.C,REF\u002A\u002A*
X21030000Y-16150000D03*
G04 #@! TD*
G04 #@! TO.C,REF\u002A\u002A*
X21030000Y-33930000D03*
G04 #@! TD*
G04 #@! TO.C,REF\u002A\u002A*
X8330000Y-13610000D03*
G04 #@! TD*
G04 #@! TO.C,REF\u002A\u002A*
X21030000Y-11070000D03*
G04 #@! TD*
G04 #@! TO.C,REF\u002A\u002A*
X43890000Y-36470000D03*
G04 #@! TD*
G04 #@! TO.C,REF\u002A\u002A*
X21030000Y-36470000D03*
G04 #@! TD*
G04 #@! TO.C,REF\u002A\u002A*
X26110000Y-11070000D03*
G04 #@! TD*
G04 #@! TO.C,REF\u002A\u002A*
X43890000Y-16150000D03*
G04 #@! TD*
G04 #@! TO.C,REF\u002A\u002A*
X28650000Y-13610000D03*
G04 #@! TD*
G04 #@! TO.C,REF\u002A\u002A*
X33730000Y-16150000D03*
G04 #@! TD*
G04 #@! TO.C,REF\u002A\u002A*
X36270000Y-8530000D03*
G04 #@! TD*
G04 #@! TO.C,REF\u002A\u002A*
X54050000Y-16150000D03*
G04 #@! TD*
G04 #@! TO.C,REF\u002A\u002A*
X59130000Y-36470000D03*
G04 #@! TD*
G04 #@! TO.C,REF\u002A\u002A*
X46430000Y-21230000D03*
G04 #@! TD*
G04 #@! TO.C,REF\u002A\u002A*
X10870000Y-23770000D03*
G04 #@! TD*
G04 #@! TO.C,REF\u002A\u002A*
X56590000Y-33930000D03*
G04 #@! TD*
G04 #@! TO.C,REF\u002A\u002A*
X26110000Y-28850000D03*
G04 #@! TD*
G04 #@! TO.C,REF\u002A\u002A*
X5790000Y-26310000D03*
G04 #@! TD*
G04 #@! TO.C,REF\u002A\u002A*
X41350000Y-26310000D03*
G04 #@! TD*
G04 #@! TO.C,REF\u002A\u002A*
X10870000Y-26310000D03*
G04 #@! TD*
G04 #@! TO.C,REF\u002A\u002A*
X43890000Y-13610000D03*
G04 #@! TD*
G04 #@! TO.C,REF\u002A\u002A*
X5790000Y-28850000D03*
G04 #@! TD*
G04 #@! TO.C,REF\u002A\u002A*
X54050000Y-31390000D03*
G04 #@! TD*
G04 #@! TO.C,REF\u002A\u002A*
X56590000Y-26310000D03*
G04 #@! TD*
G04 #@! TO.C,REF\u002A\u002A*
X13410000Y-21230000D03*
G04 #@! TD*
G04 #@! TO.C,REF\u002A\u002A*
X46430000Y-13610000D03*
G04 #@! TD*
G04 #@! TO.C,REF\u002A\u002A*
X36270000Y-11070000D03*
G04 #@! TD*
G04 #@! TO.C,REF\u002A\u002A*
X23570000Y-11070000D03*
G04 #@! TD*
G04 #@! TO.C,REF\u002A\u002A*
X13410000Y-13610000D03*
G04 #@! TD*
G04 #@! TO.C,REF\u002A\u002A*
X10870000Y-18690000D03*
G04 #@! TD*
G04 #@! TO.C,REF\u002A\u002A*
X54050000Y-36470000D03*
G04 #@! TD*
G04 #@! TO.C,REF\u002A\u002A*
X15950000Y-13610000D03*
G04 #@! TD*
G04 #@! TO.C,REF\u002A\u002A*
X43890000Y-33930000D03*
G04 #@! TD*
G04 #@! TO.C,REF\u002A\u002A*
X51510000Y-28850000D03*
G04 #@! TD*
G04 #@! TO.C,REF\u002A\u002A*
X26110000Y-16150000D03*
G04 #@! TD*
G04 #@! TO.C,REF\u002A\u002A*
X10870000Y-36470000D03*
G04 #@! TD*
G04 #@! TO.C,REF\u002A\u002A*
X18490000Y-28850000D03*
G04 #@! TD*
G04 #@! TO.C,REF\u002A\u002A*
X59130000Y-18690000D03*
G04 #@! TD*
G04 #@! TO.C,REF\u002A\u002A*
X26110000Y-13610000D03*
G04 #@! TD*
G04 #@! TO.C,REF\u002A\u002A*
X23570000Y-28850000D03*
G04 #@! TD*
G04 #@! TO.C,REF\u002A\u002A*
X26110000Y-23770000D03*
G04 #@! TD*
G04 #@! TO.C,REF\u002A\u002A*
X48970000Y-11070000D03*
G04 #@! TD*
G04 #@! TO.C,REF\u002A\u002A*
X56590000Y-28850000D03*
G04 #@! TD*
G04 #@! TO.C,REF\u002A\u002A*
X18490000Y-21230000D03*
G04 #@! TD*
G04 #@! TO.C,REF\u002A\u002A*
X15950000Y-16150000D03*
G04 #@! TD*
G04 #@! TO.C,REF\u002A\u002A*
X23570000Y-23770000D03*
G04 #@! TD*
G04 #@! TO.C,REF\u002A\u002A*
X51510000Y-18690000D03*
G04 #@! TD*
G04 #@! TO.C,REF\u002A\u002A*
X10870000Y-13610000D03*
G04 #@! TD*
G04 #@! TO.C,REF\u002A\u002A*
X23570000Y-18690000D03*
G04 #@! TD*
G04 #@! TO.C,REF\u002A\u002A*
X28650000Y-11070000D03*
G04 #@! TD*
G04 #@! TO.C,REF\u002A\u002A*
X59130000Y-26310000D03*
G04 #@! TD*
G04 #@! TO.C,REF\u002A\u002A*
X13410000Y-16150000D03*
G04 #@! TD*
G04 #@! TO.C,REF\u002A\u002A*
X59130000Y-16150000D03*
G04 #@! TD*
G04 #@! TO.C,REF\u002A\u002A*
X15950000Y-26310000D03*
G04 #@! TD*
G04 #@! TO.C,REF\u002A\u002A*
X51510000Y-23770000D03*
G04 #@! TD*
G04 #@! TO.C,REF\u002A\u002A*
X46430000Y-36470000D03*
G04 #@! TD*
G04 #@! TO.C,REF\u002A\u002A*
X59130000Y-31390000D03*
G04 #@! TD*
G04 #@! TO.C,REF\u002A\u002A*
X61670000Y-31390000D03*
G04 #@! TD*
G04 #@! TO.C,REF\u002A\u002A*
X26110000Y-18690000D03*
G04 #@! TD*
G04 #@! TO.C,REF\u002A\u002A*
X10870000Y-21230000D03*
G04 #@! TD*
G04 #@! TO.C,REF\u002A\u002A*
X59130000Y-13610000D03*
G04 #@! TD*
G04 #@! TO.C,REF\u002A\u002A*
X51510000Y-26310000D03*
G04 #@! TD*
G04 #@! TO.C,REF\u002A\u002A*
X43890000Y-11070000D03*
G04 #@! TD*
G04 #@! TO.C,REF\u002A\u002A*
X33730000Y-33930000D03*
G04 #@! TD*
G04 #@! TO.C,REF\u002A\u002A*
X31190000Y-26310000D03*
G04 #@! TD*
G04 #@! TO.C,REF\u002A\u002A*
X31190000Y-13610000D03*
G04 #@! TD*
G04 #@! TO.C,REF\u002A\u002A*
X46430000Y-11070000D03*
G04 #@! TD*
G04 #@! TO.C,REF\u002A\u002A*
X38810000Y-31390000D03*
G04 #@! TD*
G04 #@! TO.C,REF\u002A\u002A*
X41350000Y-36470000D03*
G04 #@! TD*
G04 #@! TO.C,REF\u002A\u002A*
X38810000Y-26310000D03*
G04 #@! TD*
G04 #@! TO.C,REF\u002A\u002A*
X13410000Y-36470000D03*
G04 #@! TD*
G04 #@! TO.C,REF\u002A\u002A*
X23570000Y-21230000D03*
G04 #@! TD*
G04 #@! TO.C,REF\u002A\u002A*
X54050000Y-26310000D03*
G04 #@! TD*
G04 #@! TO.C,REF\u002A\u002A*
X31190000Y-21230000D03*
G04 #@! TD*
G04 #@! TO.C,REF\u002A\u002A*
X36270000Y-23770000D03*
G04 #@! TD*
G04 #@! TO.C,REF\u002A\u002A*
X36270000Y-28850000D03*
G04 #@! TD*
G04 #@! TO.C,REF\u002A\u002A*
X15950000Y-28850000D03*
G04 #@! TD*
G04 #@! TO.C,REF\u002A\u002A*
X13410000Y-33930000D03*
G04 #@! TD*
G04 #@! TO.C,REF\u002A\u002A*
X59130000Y-11070000D03*
G04 #@! TD*
G04 #@! TO.C,REF\u002A\u002A*
X8330000Y-18690000D03*
G04 #@! TD*
G04 #@! TO.C,REF\u002A\u002A*
X28650000Y-31390000D03*
G04 #@! TD*
G04 #@! TO.C,REF\u002A\u002A*
X64210000Y-28850000D03*
G04 #@! TD*
G04 #@! TO.C,REF\u002A\u002A*
X8330000Y-28850000D03*
G04 #@! TD*
G04 #@! TO.C,REF\u002A\u002A*
X56590000Y-11070000D03*
G04 #@! TD*
G04 #@! TO.C,REF\u002A\u002A*
X36270000Y-26310000D03*
G04 #@! TD*
G04 #@! TO.C,REF\u002A\u002A*
X18490000Y-36470000D03*
G04 #@! TD*
G04 #@! TO.C,REF\u002A\u002A*
X23570000Y-13610000D03*
G04 #@! TD*
G04 #@! TO.C,REF\u002A\u002A*
X23570000Y-33930000D03*
G04 #@! TD*
G04 #@! TO.C,REF\u002A\u002A*
X48970000Y-21230000D03*
G04 #@! TD*
G04 #@! TO.C,REF\u002A\u002A*
X56590000Y-16150000D03*
G04 #@! TD*
G04 #@! TO.C,REF\u002A\u002A*
X61670000Y-13610000D03*
G04 #@! TD*
G04 #@! TO.C,REF\u002A\u002A*
X18490000Y-33930000D03*
G04 #@! TD*
G04 #@! TO.C,REF\u002A\u002A*
X31190000Y-11070000D03*
G04 #@! TD*
G04 #@! TO.C,REF\u002A\u002A*
X56590000Y-31390000D03*
G04 #@! TD*
G04 #@! TO.C,REF\u002A\u002A*
X28650000Y-21230000D03*
G04 #@! TD*
M02*
