G04 #@! TF.GenerationSoftware,KiCad,Pcbnew,(6.0.5-0)*
G04 #@! TF.CreationDate,2022-07-06T20:18:42+02:00*
G04 #@! TF.ProjectId,add-on-template,6164642d-6f6e-42d7-9465-6d706c617465,1.0*
G04 #@! TF.SameCoordinates,PX3938700PY2aea540*
G04 #@! TF.FileFunction,Legend,Top*
G04 #@! TF.FilePolarity,Positive*
%FSLAX46Y46*%
G04 Gerber Fmt 4.6, Leading zero omitted, Abs format (unit mm)*
G04 Created by KiCad (PCBNEW (6.0.5-0)) date 2022-07-06 20:18:42*
%MOMM*%
%LPD*%
G01*
G04 APERTURE LIST*
%ADD10C,0.500000*%
%ADD11C,1.727200*%
%ADD12C,0.800000*%
%ADD13C,6.400000*%
G04 APERTURE END LIST*
D10*
X11820000Y-38975000D02*
X13700000Y-37045000D01*
X19260000Y-6245000D02*
X21140000Y-8175000D01*
X56290000Y-36885000D02*
X58170000Y-38815000D01*
X48930000Y-8040000D02*
X50810000Y-6110000D01*
G04 #@! TO.C,kibuzzard-62C5CE8E*
G36*
X51427095Y-39667895D02*
G01*
X51449320Y-39688850D01*
X51470275Y-39723775D01*
X51519170Y-39806960D01*
X51560445Y-39876881D01*
X51600450Y-39943556D01*
X51639185Y-40006985D01*
X51659505Y-39957614D01*
X51707765Y-39850140D01*
X51755549Y-39745524D01*
X51774440Y-39704725D01*
X51789045Y-39683135D01*
X51835400Y-39661545D01*
X51905885Y-39679325D01*
X51962083Y-39715837D01*
X51980815Y-39759335D01*
X51970655Y-39802515D01*
X51960495Y-39824105D01*
X51627755Y-40568325D01*
X51610610Y-40605155D01*
X51588385Y-40629285D01*
X51550285Y-40640715D01*
X51482975Y-40621665D01*
X51426778Y-40585470D01*
X51408045Y-40542925D01*
X51415665Y-40513318D01*
X51438525Y-40454978D01*
X51476625Y-40367903D01*
X51529965Y-40252095D01*
X51277235Y-39826645D01*
X51251835Y-39764415D01*
X51268980Y-39723775D01*
X51320415Y-39683135D01*
X51387725Y-39657735D01*
X51427095Y-39667895D01*
G37*
G36*
X50061845Y-39366905D02*
G01*
X50095500Y-39393575D01*
X50106930Y-39427230D01*
X50108835Y-39471045D01*
X50108835Y-40229235D01*
X50106930Y-40273050D01*
X50094865Y-40305435D01*
X50058511Y-40331153D01*
X49987550Y-40339725D01*
X49918811Y-40324168D01*
X49889125Y-40277495D01*
X49825308Y-40323215D01*
X49740535Y-40338455D01*
X49666593Y-40327378D01*
X49597166Y-40294146D01*
X49532255Y-40238760D01*
X49480044Y-40168628D01*
X49448717Y-40091158D01*
X49438353Y-40006985D01*
X49660525Y-40006985D01*
X49693545Y-40083185D01*
X49773555Y-40117475D01*
X49851660Y-40083185D01*
X49882775Y-40007620D01*
X49852930Y-39930785D01*
X49772285Y-39895225D01*
X49691005Y-39930150D01*
X49660525Y-40006985D01*
X49438353Y-40006985D01*
X49438275Y-40006350D01*
X49448788Y-39921472D01*
X49480326Y-39843790D01*
X49532890Y-39773305D01*
X49598013Y-39717566D01*
X49667228Y-39684123D01*
X49740535Y-39672975D01*
X49824038Y-39688850D01*
X49886585Y-39736475D01*
X49886585Y-39469775D01*
X49888490Y-39425960D01*
X49899920Y-39392940D01*
X49933575Y-39366905D01*
X49997710Y-39359285D01*
X50061845Y-39366905D01*
G37*
G36*
X51041297Y-39717566D02*
G01*
X51106420Y-39773305D01*
X51158984Y-39843790D01*
X51190522Y-39921472D01*
X51201035Y-40006350D01*
X51190593Y-40091158D01*
X51159266Y-40168628D01*
X51107055Y-40238760D01*
X51042849Y-40294146D01*
X50975539Y-40327378D01*
X50905125Y-40338455D01*
X50812733Y-40323215D01*
X50751455Y-40277495D01*
X50719070Y-40324168D01*
X50642235Y-40339725D01*
X50577783Y-40331153D01*
X50544445Y-40305435D01*
X50533650Y-40271780D01*
X50531745Y-40227965D01*
X50531745Y-40007620D01*
X50756535Y-40007620D01*
X50787650Y-40083185D01*
X50865755Y-40117475D01*
X50945765Y-40083185D01*
X50978785Y-40006985D01*
X50948305Y-39930150D01*
X50867025Y-39895225D01*
X50786380Y-39930785D01*
X50756535Y-40007620D01*
X50531745Y-40007620D01*
X50531745Y-39469775D01*
X50533650Y-39425960D01*
X50544445Y-39393575D01*
X50578100Y-39367857D01*
X50643505Y-39359285D01*
X50707640Y-39367857D01*
X50740025Y-39393575D01*
X50752090Y-39427230D01*
X50753995Y-39471045D01*
X50753995Y-39735205D01*
X50815590Y-39688532D01*
X50898775Y-39672975D01*
X50972082Y-39684123D01*
X51041297Y-39717566D01*
G37*
G36*
X44128881Y-39399766D02*
G01*
X44195080Y-39414530D01*
X44282075Y-39454535D01*
X44313825Y-39478665D01*
X44353195Y-39540895D01*
X44322715Y-39610745D01*
X44278900Y-39658370D01*
X44233815Y-39674245D01*
X44167775Y-39648845D01*
X44153170Y-39636145D01*
X44133485Y-39619635D01*
X44065540Y-39603125D01*
X43996960Y-39622810D01*
X43969655Y-39677420D01*
X44002040Y-39733935D01*
X44082685Y-39763145D01*
X44133167Y-39772829D01*
X44188095Y-39786640D01*
X44243022Y-39804261D01*
X44293505Y-39825375D01*
X44337796Y-39856649D01*
X44374150Y-39904750D01*
X44398439Y-39967774D01*
X44406535Y-40043815D01*
X44398280Y-40121444D01*
X44373515Y-40189230D01*
X44335415Y-40244951D01*
X44287155Y-40286385D01*
X44217023Y-40323779D01*
X44143786Y-40346216D01*
X44067445Y-40353695D01*
X44009342Y-40350044D01*
X43954415Y-40339090D01*
X43868055Y-40302895D01*
X43810905Y-40262890D01*
X43774075Y-40224155D01*
X43762645Y-40210185D01*
X43729625Y-40137160D01*
X43743277Y-40099536D01*
X43784235Y-40051435D01*
X43851545Y-40020955D01*
X43894090Y-40036830D01*
X43950605Y-40084455D01*
X44001405Y-40125730D01*
X44062365Y-40145415D01*
X44127982Y-40134691D01*
X44167352Y-40102517D01*
X44180475Y-40048895D01*
X44148090Y-40000000D01*
X44067445Y-39971425D01*
X44017280Y-39959836D01*
X43963305Y-39942850D01*
X43909330Y-39921419D01*
X43859165Y-39896495D01*
X43814874Y-39862046D01*
X43778520Y-39812040D01*
X43754231Y-39748381D01*
X43746135Y-39672975D01*
X43755378Y-39601643D01*
X43783106Y-39536662D01*
X43829320Y-39478030D01*
X43891479Y-39431816D01*
X43967044Y-39404088D01*
X44056015Y-39394845D01*
X44128881Y-39399766D01*
G37*
G36*
X44490990Y-39737745D02*
G01*
X44501785Y-39705995D01*
X44531947Y-39680277D01*
X44586875Y-39671705D01*
X44677680Y-39688850D01*
X44704985Y-39739015D01*
X44767056Y-39689485D01*
X44856750Y-39672975D01*
X44924554Y-39683841D01*
X44989959Y-39716437D01*
X45052965Y-39770765D01*
X45104471Y-39839486D01*
X45135374Y-39915263D01*
X45145675Y-39998095D01*
X45135444Y-40080927D01*
X45104753Y-40156704D01*
X45053600Y-40225425D01*
X44990876Y-40279753D01*
X44925471Y-40312349D01*
X44857385Y-40323215D01*
X44767532Y-40308610D01*
X44706255Y-40264795D01*
X44706255Y-40521335D01*
X44704350Y-40564515D01*
X44692920Y-40596900D01*
X44660535Y-40622935D01*
X44598305Y-40630555D01*
X44535440Y-40622935D01*
X44502420Y-40597535D01*
X44490990Y-40565785D01*
X44489085Y-40522605D01*
X44489085Y-39999365D01*
X44711335Y-39999365D01*
X44741180Y-40073660D01*
X44817380Y-40107315D01*
X44896120Y-40074295D01*
X44928505Y-39999365D01*
X44898025Y-39923800D01*
X44818650Y-39890145D01*
X44740545Y-39924435D01*
X44711335Y-39999365D01*
X44489085Y-39999365D01*
X44489085Y-39780925D01*
X44490990Y-39737745D01*
G37*
G36*
X47800257Y-39667401D02*
G01*
X47881114Y-39700209D01*
X47954915Y-39754890D01*
X48013476Y-39826504D01*
X48048613Y-39910112D01*
X48060325Y-40005715D01*
X48046673Y-40105251D01*
X48005715Y-40193040D01*
X47945231Y-40264160D01*
X47873000Y-40313690D01*
X47793466Y-40342741D01*
X47711075Y-40352425D01*
X47628525Y-40342106D01*
X47548515Y-40311150D01*
X47475966Y-40260033D01*
X47415800Y-40189230D01*
X47375319Y-40103346D01*
X47361825Y-40006985D01*
X47362061Y-40005080D01*
X47586615Y-40005080D01*
X47596775Y-40059055D01*
X47627255Y-40097790D01*
X47709805Y-40128905D01*
X47793625Y-40097155D01*
X47825057Y-40057785D01*
X47835535Y-40003175D01*
X47825692Y-39948882D01*
X47796165Y-39910465D01*
X47711075Y-39879985D01*
X47625985Y-39911735D01*
X47596457Y-39950946D01*
X47586615Y-40005080D01*
X47362061Y-40005080D01*
X47373678Y-39911312D01*
X47409238Y-39827492D01*
X47468505Y-39755525D01*
X47543012Y-39700492D01*
X47624292Y-39667472D01*
X47712345Y-39656465D01*
X47800257Y-39667401D01*
G37*
G36*
X45647607Y-39667401D02*
G01*
X45728464Y-39700209D01*
X45802265Y-39754890D01*
X45860826Y-39826504D01*
X45895963Y-39910112D01*
X45907675Y-40005715D01*
X45894022Y-40105251D01*
X45853065Y-40193040D01*
X45792581Y-40264160D01*
X45720350Y-40313690D01*
X45640816Y-40342741D01*
X45558425Y-40352425D01*
X45475875Y-40342106D01*
X45395865Y-40311150D01*
X45323316Y-40260033D01*
X45263150Y-40189230D01*
X45222669Y-40103346D01*
X45209175Y-40006985D01*
X45209411Y-40005080D01*
X45433965Y-40005080D01*
X45444125Y-40059055D01*
X45474605Y-40097790D01*
X45557155Y-40128905D01*
X45640975Y-40097155D01*
X45672407Y-40057785D01*
X45682885Y-40003175D01*
X45673042Y-39948882D01*
X45643515Y-39910465D01*
X45558425Y-39879985D01*
X45473335Y-39911735D01*
X45443807Y-39950946D01*
X45433965Y-40005080D01*
X45209411Y-40005080D01*
X45221028Y-39911312D01*
X45256588Y-39827492D01*
X45315855Y-39755525D01*
X45390362Y-39700492D01*
X45471642Y-39667472D01*
X45559695Y-39656465D01*
X45647607Y-39667401D01*
G37*
G36*
X48942975Y-40079375D02*
G01*
X48984885Y-40139065D01*
X49068705Y-40163195D01*
X49134428Y-40159385D01*
X49184275Y-40147955D01*
X49198245Y-40142875D01*
X49249045Y-40128905D01*
X49318895Y-40186055D01*
X49335405Y-40244475D01*
X49318498Y-40293926D01*
X49267778Y-40329248D01*
X49183243Y-40350441D01*
X49064895Y-40357505D01*
X48976154Y-40349409D01*
X48897890Y-40325120D01*
X48832961Y-40287496D01*
X48784225Y-40239395D01*
X48739775Y-40168134D01*
X48713105Y-40091511D01*
X48704215Y-40009525D01*
X48709497Y-39963805D01*
X48940435Y-39963805D01*
X49100455Y-39963805D01*
X49148715Y-39923165D01*
X49126490Y-39876175D01*
X49062990Y-39858395D01*
X48981075Y-39892050D01*
X48940435Y-39963805D01*
X48709497Y-39963805D01*
X48715716Y-39909971D01*
X48750217Y-39824669D01*
X48807720Y-39753620D01*
X48882438Y-39700351D01*
X48968587Y-39668389D01*
X49066165Y-39657735D01*
X49148556Y-39665514D01*
X49219200Y-39688850D01*
X49278096Y-39727744D01*
X49325245Y-39782195D01*
X49357630Y-39851251D01*
X49368425Y-39926340D01*
X49358741Y-39994285D01*
X49329690Y-40041910D01*
X49243965Y-40079375D01*
X48942975Y-40079375D01*
G37*
G36*
X46442274Y-39682500D02*
G01*
X46512759Y-39714885D01*
X46573790Y-39768860D01*
X46620709Y-39838357D01*
X46648861Y-39917309D01*
X46658245Y-40005715D01*
X46658245Y-40229235D01*
X46656340Y-40273050D01*
X46645545Y-40305435D01*
X46611890Y-40331153D01*
X46546485Y-40339725D01*
X46475365Y-40327978D01*
X46442345Y-40292735D01*
X46434725Y-40227965D01*
X46434725Y-40004445D01*
X46404880Y-39923165D01*
X46324870Y-39893955D01*
X46243590Y-39924435D01*
X46212475Y-40004445D01*
X46212475Y-40229235D01*
X46210570Y-40273050D01*
X46198505Y-40305435D01*
X46165802Y-40331153D01*
X46100715Y-40339725D01*
X46036262Y-40331153D01*
X46002925Y-40305435D01*
X45992130Y-40271780D01*
X45990225Y-40227965D01*
X45990225Y-39778385D01*
X45992130Y-39735840D01*
X46004195Y-39703455D01*
X46037532Y-39679642D01*
X46101985Y-39671705D01*
X46164532Y-39679007D01*
X46197235Y-39700915D01*
X46209935Y-39752985D01*
X46232795Y-39727585D01*
X46267085Y-39700915D01*
X46362335Y-39671705D01*
X46442274Y-39682500D01*
G37*
G36*
X47130685Y-39669800D02*
G01*
X47224665Y-39702185D01*
X47269115Y-39752985D01*
X47241175Y-39827915D01*
X47184025Y-39872365D01*
X47127510Y-39853315D01*
X47037975Y-39834265D01*
X46963045Y-39862205D01*
X46984635Y-39893637D01*
X47049405Y-39911735D01*
X47131955Y-39928245D01*
X47211965Y-39959995D01*
X47273560Y-40021590D01*
X47292134Y-40070961D01*
X47298325Y-40131445D01*
X47292134Y-40192564D01*
X47273560Y-40243840D01*
X47204345Y-40313055D01*
X47145572Y-40334927D01*
X47077627Y-40348051D01*
X47000510Y-40352425D01*
X46919865Y-40344523D01*
X46841337Y-40320816D01*
X46764925Y-40281305D01*
X46740795Y-40233045D01*
X46752860Y-40191453D01*
X46789055Y-40132715D01*
X46834140Y-40111125D01*
X46918595Y-40142240D01*
X47015115Y-40173355D01*
X47073217Y-40165735D01*
X47092585Y-40142875D01*
X47071312Y-40121920D01*
X47007495Y-40107315D01*
X46927802Y-40086678D01*
X46848745Y-40047625D01*
X46787785Y-39975870D01*
X46769687Y-39922371D01*
X46763655Y-39859665D01*
X46774679Y-39787427D01*
X46807749Y-39731243D01*
X46862867Y-39691111D01*
X46940033Y-39667031D01*
X47039245Y-39659005D01*
X47130685Y-39669800D01*
G37*
G36*
X48553085Y-39668530D02*
G01*
X48597535Y-39679325D01*
X48637540Y-39705360D01*
X48653415Y-39764415D01*
X48629285Y-39853315D01*
X48559435Y-39901575D01*
X48515620Y-39891415D01*
X48460375Y-39881255D01*
X48396240Y-39905385D01*
X48366395Y-39963805D01*
X48366395Y-40230505D01*
X48364490Y-40274320D01*
X48352425Y-40307975D01*
X48318135Y-40332740D01*
X48253365Y-40340995D01*
X48165735Y-40319405D01*
X48142875Y-40264795D01*
X48142875Y-39782195D01*
X48144780Y-39738380D01*
X48155575Y-39705995D01*
X48189230Y-39680277D01*
X48254635Y-39671705D01*
X48316548Y-39679007D01*
X48349885Y-39700915D01*
X48363855Y-39742825D01*
X48382270Y-39721235D01*
X48433705Y-39686945D01*
X48502920Y-39665355D01*
X48553085Y-39668530D01*
G37*
G36*
X52245610Y-39725045D02*
G01*
X52270375Y-39820295D01*
X52267200Y-39865380D01*
X52253865Y-39900305D01*
X52220369Y-39927927D01*
X52157980Y-39937135D01*
X52094163Y-39930944D01*
X52056380Y-39912370D01*
X52037806Y-39876016D01*
X52031615Y-39816485D01*
X52038283Y-39756160D01*
X52058285Y-39722505D01*
X52155440Y-39699645D01*
X52245610Y-39725045D01*
G37*
G36*
X52245610Y-40129540D02*
G01*
X52264184Y-40165894D01*
X52270375Y-40225425D01*
X52267200Y-40270510D01*
X52253865Y-40305435D01*
X52220369Y-40333058D01*
X52157980Y-40342265D01*
X52094163Y-40336074D01*
X52056380Y-40317500D01*
X52037806Y-40281146D01*
X52031615Y-40221615D01*
X52038283Y-40161290D01*
X52058285Y-40127635D01*
X52155440Y-40104775D01*
X52245610Y-40129540D01*
G37*
G04 #@! TO.C,G\u002A\u002A\u002A*
G36*
X53788449Y-43886903D02*
G01*
X53736756Y-43882870D01*
X53860935Y-43882870D01*
X53868472Y-43883929D01*
X53887461Y-43884393D01*
X53890497Y-43884400D01*
X53910776Y-43884022D01*
X53919806Y-43883025D01*
X53915931Y-43881614D01*
X53914487Y-43881422D01*
X53888603Y-43880201D01*
X53866507Y-43881422D01*
X53860935Y-43882870D01*
X53736756Y-43882870D01*
X53720593Y-43881609D01*
X53644546Y-43875540D01*
X53764593Y-43875540D01*
X53771723Y-43876639D01*
X53790520Y-43877093D01*
X53790845Y-43877093D01*
X53810454Y-43876708D01*
X53819079Y-43875627D01*
X53814968Y-43874106D01*
X53792523Y-43872822D01*
X53770678Y-43874031D01*
X53764593Y-43875540D01*
X53644546Y-43875540D01*
X53643280Y-43875439D01*
X53561759Y-43868818D01*
X53553760Y-43868158D01*
X53668633Y-43868158D01*
X53675763Y-43869257D01*
X53694559Y-43869711D01*
X53694885Y-43869712D01*
X53714494Y-43869327D01*
X53723119Y-43868245D01*
X53719007Y-43866725D01*
X53696563Y-43865440D01*
X53674718Y-43866649D01*
X53668633Y-43868158D01*
X53553760Y-43868158D01*
X53481277Y-43862177D01*
X53466557Y-43860940D01*
X53577736Y-43860940D01*
X53586120Y-43862053D01*
X53602615Y-43862406D01*
X53620839Y-43861948D01*
X53627669Y-43860756D01*
X53622915Y-43859330D01*
X53599071Y-43858095D01*
X53582316Y-43859330D01*
X53577736Y-43860940D01*
X53466557Y-43860940D01*
X53407083Y-43855942D01*
X53379213Y-43853558D01*
X53489158Y-43853558D01*
X53497541Y-43854671D01*
X53514036Y-43855024D01*
X53532260Y-43854566D01*
X53539090Y-43853375D01*
X53534336Y-43851949D01*
X53510492Y-43850713D01*
X53493737Y-43851949D01*
X53489158Y-43853558D01*
X53379213Y-43853558D01*
X53374502Y-43853155D01*
X53319714Y-43848481D01*
X53292135Y-43846176D01*
X53400579Y-43846176D01*
X53408962Y-43847290D01*
X53425457Y-43847642D01*
X53443681Y-43847185D01*
X53447159Y-43846578D01*
X53987988Y-43846578D01*
X53996861Y-43847801D01*
X54004911Y-43847993D01*
X54020103Y-43847399D01*
X54024024Y-43845726D01*
X54021606Y-43844783D01*
X54003879Y-43843408D01*
X53992079Y-43844634D01*
X53987988Y-43846578D01*
X53447159Y-43846578D01*
X53450511Y-43845993D01*
X53445757Y-43844567D01*
X53421913Y-43843332D01*
X53405158Y-43844567D01*
X53400579Y-43846176D01*
X53292135Y-43846176D01*
X53269163Y-43844256D01*
X53224881Y-43840643D01*
X53201452Y-43838795D01*
X53312000Y-43838795D01*
X53320383Y-43839908D01*
X53336879Y-43840261D01*
X53355102Y-43839803D01*
X53358577Y-43839197D01*
X53928936Y-43839197D01*
X53937808Y-43840420D01*
X53945858Y-43840611D01*
X53961050Y-43840017D01*
X53964971Y-43838344D01*
X53962553Y-43837401D01*
X53944827Y-43836026D01*
X53933027Y-43837252D01*
X53928936Y-43839197D01*
X53358577Y-43839197D01*
X53361932Y-43838612D01*
X53357178Y-43837186D01*
X53333335Y-43835950D01*
X53316579Y-43837186D01*
X53312000Y-43838795D01*
X53201452Y-43838795D01*
X53188900Y-43837805D01*
X53163253Y-43835905D01*
X53149970Y-43835106D01*
X53149160Y-43835091D01*
X53140858Y-43837325D01*
X53133061Y-43845639D01*
X53124298Y-43862455D01*
X53113103Y-43890195D01*
X53108859Y-43901525D01*
X53084240Y-43967960D01*
X52811165Y-43967960D01*
X52737841Y-43967862D01*
X52678133Y-43967544D01*
X52630894Y-43966967D01*
X52594978Y-43966090D01*
X52569237Y-43964875D01*
X52552525Y-43963282D01*
X52543696Y-43961272D01*
X52541604Y-43958806D01*
X52541630Y-43958733D01*
X52545610Y-43948485D01*
X52553746Y-43927621D01*
X52564815Y-43899275D01*
X52576385Y-43869672D01*
X52588431Y-43838122D01*
X52590825Y-43831486D01*
X53230361Y-43831486D01*
X53238339Y-43832648D01*
X53251990Y-43832980D01*
X53269496Y-43832511D01*
X53272880Y-43831815D01*
X53869883Y-43831815D01*
X53878755Y-43833038D01*
X53886806Y-43833230D01*
X53901998Y-43832636D01*
X53905919Y-43830963D01*
X53903500Y-43830019D01*
X53885774Y-43828645D01*
X53873974Y-43829871D01*
X53869883Y-43831815D01*
X53272880Y-43831815D01*
X53275895Y-43831195D01*
X53272391Y-43829895D01*
X53252140Y-43828566D01*
X53235483Y-43829794D01*
X53230361Y-43831486D01*
X52590825Y-43831486D01*
X52593515Y-43824032D01*
X53142224Y-43824032D01*
X53150607Y-43825145D01*
X53167102Y-43825498D01*
X53185326Y-43825040D01*
X53188804Y-43824433D01*
X53803449Y-43824433D01*
X53812321Y-43825657D01*
X53820372Y-43825848D01*
X53835564Y-43825254D01*
X53839485Y-43823581D01*
X53837066Y-43822638D01*
X53819340Y-43821263D01*
X53807540Y-43822489D01*
X53803449Y-43824433D01*
X53188804Y-43824433D01*
X53192156Y-43823848D01*
X53187402Y-43822423D01*
X53163558Y-43821187D01*
X53146803Y-43822423D01*
X53142224Y-43824032D01*
X52593515Y-43824032D01*
X52596033Y-43817052D01*
X53744396Y-43817052D01*
X53753269Y-43818275D01*
X53761319Y-43818467D01*
X53776511Y-43817872D01*
X53780432Y-43816200D01*
X53778014Y-43815256D01*
X53760287Y-43813881D01*
X53748487Y-43815107D01*
X53744396Y-43817052D01*
X52596033Y-43817052D01*
X52597855Y-43812002D01*
X52598615Y-43809670D01*
X53685344Y-43809670D01*
X53694216Y-43810894D01*
X53702267Y-43811085D01*
X53717458Y-43810491D01*
X53721379Y-43808818D01*
X53718961Y-43807875D01*
X53701235Y-43806500D01*
X53689435Y-43807726D01*
X53685344Y-43809670D01*
X52598615Y-43809670D01*
X52601056Y-43802181D01*
X53619417Y-43802181D01*
X53628691Y-43803339D01*
X53639523Y-43803554D01*
X53655488Y-43802979D01*
X53659871Y-43801506D01*
X53656132Y-43800355D01*
X53634622Y-43799134D01*
X53622915Y-43800355D01*
X53619417Y-43802181D01*
X52601056Y-43802181D01*
X52603427Y-43794907D01*
X53559857Y-43794907D01*
X53568729Y-43796130D01*
X53576780Y-43796322D01*
X53591972Y-43795728D01*
X53595893Y-43794055D01*
X53593474Y-43793112D01*
X53575748Y-43791737D01*
X53563948Y-43792963D01*
X53559857Y-43794907D01*
X52603427Y-43794907D01*
X52603685Y-43794114D01*
X52604981Y-43787418D01*
X53493930Y-43787418D01*
X53503204Y-43788576D01*
X53514036Y-43788791D01*
X53530002Y-43788215D01*
X53534384Y-43786743D01*
X53530645Y-43785592D01*
X53509135Y-43784371D01*
X53497428Y-43785592D01*
X53493930Y-43787418D01*
X52604981Y-43787418D01*
X52605005Y-43787294D01*
X52596547Y-43785499D01*
X52574649Y-43782752D01*
X52549960Y-43780144D01*
X53434370Y-43780144D01*
X53443242Y-43781367D01*
X53451293Y-43781559D01*
X53466485Y-43780965D01*
X53470406Y-43779292D01*
X53467988Y-43778348D01*
X53450261Y-43776974D01*
X53438461Y-43778199D01*
X53434370Y-43780144D01*
X52549960Y-43780144D01*
X52540597Y-43779155D01*
X52495675Y-43774813D01*
X52473249Y-43772762D01*
X52570726Y-43772762D01*
X52579598Y-43773986D01*
X52587649Y-43774177D01*
X52602841Y-43773583D01*
X52605016Y-43772655D01*
X53368443Y-43772655D01*
X53377717Y-43773813D01*
X53388550Y-43774028D01*
X53404515Y-43773452D01*
X53408897Y-43771980D01*
X53405158Y-43770829D01*
X53383648Y-43769608D01*
X53371941Y-43770829D01*
X53368443Y-43772655D01*
X52605016Y-43772655D01*
X52606762Y-43771910D01*
X52604343Y-43770967D01*
X52586617Y-43769592D01*
X52574817Y-43770818D01*
X52570726Y-43772762D01*
X52473249Y-43772762D01*
X52441169Y-43769828D01*
X52386869Y-43765051D01*
X52492203Y-43765051D01*
X52500182Y-43766214D01*
X52513833Y-43766546D01*
X52531339Y-43766077D01*
X52535248Y-43765273D01*
X53302009Y-43765273D01*
X53311283Y-43766431D01*
X53322115Y-43766647D01*
X53338081Y-43766071D01*
X53342463Y-43764598D01*
X53338724Y-43763448D01*
X53317214Y-43762226D01*
X53305507Y-43763448D01*
X53302009Y-43765273D01*
X52535248Y-43765273D01*
X52537737Y-43764761D01*
X52534234Y-43763461D01*
X52513983Y-43762132D01*
X52497326Y-43763360D01*
X52492203Y-43765051D01*
X52386869Y-43765051D01*
X52378366Y-43764303D01*
X52308549Y-43758343D01*
X52300471Y-43757670D01*
X52411006Y-43757670D01*
X52418984Y-43758832D01*
X52432636Y-43759164D01*
X52450141Y-43758695D01*
X52454050Y-43757891D01*
X53235575Y-43757891D01*
X53244849Y-43759050D01*
X53255681Y-43759265D01*
X53271646Y-43758689D01*
X53276029Y-43757217D01*
X53272290Y-43756066D01*
X53250780Y-43754845D01*
X53239073Y-43756066D01*
X53235575Y-43757891D01*
X52454050Y-43757891D01*
X52456540Y-43757379D01*
X52453036Y-43756079D01*
X52432786Y-43754750D01*
X52416129Y-43755979D01*
X52411006Y-43757670D01*
X52300471Y-43757670D01*
X52233005Y-43752049D01*
X52210528Y-43750216D01*
X52322869Y-43750216D01*
X52331252Y-43751329D01*
X52347747Y-43751682D01*
X52365971Y-43751224D01*
X52369446Y-43750618D01*
X53176015Y-43750618D01*
X53184887Y-43751841D01*
X53192938Y-43752032D01*
X53208130Y-43751438D01*
X53212051Y-43749765D01*
X53209632Y-43748822D01*
X53191906Y-43747447D01*
X53180106Y-43748673D01*
X53176015Y-43750618D01*
X52369446Y-43750618D01*
X52372801Y-43750033D01*
X52368047Y-43748607D01*
X52344204Y-43747371D01*
X52327448Y-43748607D01*
X52322869Y-43750216D01*
X52210528Y-43750216D01*
X52153019Y-43745526D01*
X52119362Y-43742834D01*
X52234290Y-43742834D01*
X52242673Y-43743947D01*
X52259169Y-43744300D01*
X52277392Y-43743843D01*
X52284222Y-43742651D01*
X52279468Y-43741225D01*
X52255625Y-43739990D01*
X52238869Y-43741225D01*
X52234290Y-43742834D01*
X52119362Y-43742834D01*
X52069876Y-43738876D01*
X52026267Y-43735453D01*
X52153092Y-43735453D01*
X52161476Y-43736566D01*
X52177971Y-43736919D01*
X52196195Y-43736461D01*
X52203025Y-43735269D01*
X52198271Y-43733844D01*
X52174427Y-43732608D01*
X52157672Y-43733844D01*
X52153092Y-43735453D01*
X52026267Y-43735453D01*
X51984862Y-43732203D01*
X51929098Y-43727908D01*
X52059450Y-43727908D01*
X52066579Y-43729007D01*
X52085376Y-43729461D01*
X52085702Y-43729462D01*
X52105311Y-43729077D01*
X52113935Y-43727995D01*
X52109824Y-43726475D01*
X52087379Y-43725190D01*
X52065534Y-43726399D01*
X52059450Y-43727908D01*
X51929098Y-43727908D01*
X51899262Y-43725610D01*
X51831928Y-43720527D01*
X51970871Y-43720527D01*
X51978000Y-43721626D01*
X51996797Y-43722080D01*
X51997123Y-43722080D01*
X52016732Y-43721695D01*
X52025356Y-43720614D01*
X52021245Y-43719093D01*
X51998801Y-43717809D01*
X51976956Y-43719018D01*
X51970871Y-43720527D01*
X51831928Y-43720527D01*
X51814362Y-43719201D01*
X51732368Y-43713145D01*
X51874910Y-43713145D01*
X51882040Y-43714244D01*
X51900836Y-43714698D01*
X51901162Y-43714699D01*
X51920771Y-43714314D01*
X51929396Y-43713232D01*
X51925284Y-43711712D01*
X51902840Y-43710427D01*
X51880995Y-43711636D01*
X51874910Y-43713145D01*
X51732368Y-43713145D01*
X51731447Y-43713077D01*
X51651802Y-43707344D01*
X51628420Y-43705712D01*
X51771950Y-43705712D01*
X51779486Y-43706771D01*
X51798475Y-43707236D01*
X51801511Y-43707242D01*
X51821790Y-43706864D01*
X51830820Y-43705867D01*
X51826945Y-43704456D01*
X51825501Y-43704265D01*
X51799617Y-43703043D01*
X51777521Y-43704265D01*
X51771950Y-43705712D01*
X51628420Y-43705712D01*
X51576713Y-43702103D01*
X51521228Y-43698382D01*
X51675608Y-43698382D01*
X51682737Y-43699481D01*
X51701534Y-43699935D01*
X51701860Y-43699936D01*
X51721469Y-43699550D01*
X51730093Y-43698469D01*
X51725982Y-43696949D01*
X51703538Y-43695664D01*
X51681693Y-43696873D01*
X51675608Y-43698382D01*
X51521228Y-43698382D01*
X51507465Y-43697459D01*
X51445344Y-43693514D01*
X51413978Y-43691639D01*
X51401896Y-43690949D01*
X51565265Y-43690949D01*
X51572802Y-43692008D01*
X51591791Y-43692472D01*
X51594827Y-43692479D01*
X51615106Y-43692101D01*
X51619961Y-43691565D01*
X52615015Y-43691565D01*
X52623888Y-43692788D01*
X52631938Y-43692980D01*
X52647130Y-43692386D01*
X52651051Y-43690713D01*
X52648633Y-43689770D01*
X52630906Y-43688395D01*
X52619106Y-43689621D01*
X52615015Y-43691565D01*
X51619961Y-43691565D01*
X51624136Y-43691104D01*
X51620261Y-43689693D01*
X51618817Y-43689501D01*
X51592933Y-43688280D01*
X51570837Y-43689501D01*
X51565265Y-43690949D01*
X51401896Y-43690949D01*
X51316846Y-43686092D01*
X51267300Y-43683403D01*
X51442548Y-43683403D01*
X51449278Y-43684408D01*
X51467689Y-43684936D01*
X51476722Y-43684978D01*
X51498901Y-43684657D01*
X51506414Y-43684076D01*
X52541707Y-43684076D01*
X52550981Y-43685234D01*
X52561813Y-43685449D01*
X52577778Y-43684873D01*
X52582161Y-43683401D01*
X52578422Y-43682250D01*
X52556912Y-43681029D01*
X52545205Y-43682250D01*
X52541707Y-43684076D01*
X51506414Y-43684076D01*
X51509944Y-43683803D01*
X51508311Y-43682576D01*
X51504403Y-43682082D01*
X51476685Y-43680888D01*
X51449041Y-43682082D01*
X51442548Y-43683403D01*
X51267300Y-43683403D01*
X51227870Y-43681263D01*
X51145153Y-43677102D01*
X51118342Y-43675891D01*
X51312507Y-43675891D01*
X51318466Y-43676845D01*
X51336294Y-43677405D01*
X51351235Y-43677499D01*
X51375188Y-43677221D01*
X51388099Y-43676476D01*
X51388101Y-43676472D01*
X52462677Y-43676472D01*
X52470655Y-43677635D01*
X52484307Y-43677967D01*
X52501812Y-43677498D01*
X52508211Y-43676182D01*
X52504707Y-43674882D01*
X52484457Y-43673553D01*
X52467800Y-43674781D01*
X52462677Y-43676472D01*
X51388101Y-43676472D01*
X51388521Y-43675393D01*
X51382607Y-43674673D01*
X51353210Y-43673512D01*
X51322968Y-43674419D01*
X51319863Y-43674673D01*
X51312507Y-43675891D01*
X51118342Y-43675891D01*
X51066802Y-43673563D01*
X50990921Y-43670597D01*
X50923977Y-43668427D01*
X51167512Y-43668427D01*
X51172336Y-43669359D01*
X51189309Y-43669941D01*
X51207294Y-43670076D01*
X51232350Y-43669830D01*
X51242994Y-43669313D01*
X52386693Y-43669313D01*
X52395968Y-43670471D01*
X52406800Y-43670686D01*
X52422765Y-43670110D01*
X52427148Y-43668638D01*
X52423409Y-43667487D01*
X52401899Y-43666266D01*
X52390192Y-43667487D01*
X52386693Y-43669313D01*
X51242994Y-43669313D01*
X51246658Y-43669135D01*
X51248710Y-43668108D01*
X51242579Y-43667303D01*
X51214712Y-43666150D01*
X51183869Y-43666762D01*
X51176145Y-43667262D01*
X51167512Y-43668427D01*
X50923977Y-43668427D01*
X50915617Y-43668156D01*
X50838993Y-43666193D01*
X50759155Y-43664659D01*
X50674208Y-43663506D01*
X50582258Y-43662687D01*
X50481409Y-43662153D01*
X50369767Y-43661856D01*
X50245437Y-43661750D01*
X50232926Y-43661748D01*
X50106259Y-43661812D01*
X49992065Y-43662070D01*
X49888057Y-43662574D01*
X49791944Y-43663375D01*
X49701438Y-43664526D01*
X49614251Y-43666079D01*
X49528093Y-43668086D01*
X49440675Y-43670600D01*
X49349710Y-43673671D01*
X49252907Y-43677353D01*
X49147978Y-43681697D01*
X49032635Y-43686756D01*
X48930078Y-43691410D01*
X48446789Y-43716608D01*
X47963672Y-43747914D01*
X47479449Y-43785474D01*
X46992845Y-43829436D01*
X46502583Y-43879950D01*
X46007388Y-43937162D01*
X45505983Y-44001220D01*
X44997093Y-44072272D01*
X44479440Y-44150466D01*
X43951749Y-44235951D01*
X43412745Y-44328873D01*
X43382824Y-44334188D01*
X43317826Y-44345819D01*
X43245502Y-44358876D01*
X43167209Y-44373107D01*
X43084305Y-44388259D01*
X42998149Y-44404079D01*
X42910097Y-44420313D01*
X42821508Y-44436708D01*
X42733738Y-44453011D01*
X42648146Y-44468969D01*
X42566089Y-44484328D01*
X42488924Y-44498837D01*
X42418010Y-44512240D01*
X42354704Y-44524286D01*
X42300364Y-44534721D01*
X42256347Y-44543292D01*
X42224011Y-44549745D01*
X42204713Y-44553828D01*
X42203618Y-44554081D01*
X42194123Y-44552952D01*
X42191464Y-44541217D01*
X42191556Y-44537495D01*
X42192985Y-44526522D01*
X42195533Y-44529868D01*
X42195788Y-44530805D01*
X42203823Y-44540416D01*
X42221758Y-44542268D01*
X42250949Y-44536478D01*
X42253443Y-44535791D01*
X42263804Y-44532448D01*
X42261279Y-44531542D01*
X42245063Y-44532903D01*
X42241468Y-44533285D01*
X42220338Y-44534779D01*
X42209350Y-44532290D01*
X42205711Y-44526765D01*
X42283888Y-44526765D01*
X42294042Y-44527794D01*
X42304521Y-44526634D01*
X42303269Y-44524071D01*
X42288156Y-44523096D01*
X42284815Y-44524071D01*
X42283888Y-44526765D01*
X42205711Y-44526765D01*
X42204090Y-44524304D01*
X42202815Y-44520043D01*
X42202681Y-44519383D01*
X42320796Y-44519383D01*
X42330950Y-44520412D01*
X42341429Y-44519252D01*
X42340177Y-44516689D01*
X42325064Y-44515714D01*
X42321723Y-44516689D01*
X42320796Y-44519383D01*
X42202681Y-44519383D01*
X42201179Y-44512002D01*
X42357704Y-44512002D01*
X42367858Y-44513031D01*
X42378337Y-44511871D01*
X42377085Y-44509307D01*
X42361972Y-44508333D01*
X42358631Y-44509307D01*
X42357704Y-44512002D01*
X42201179Y-44512002D01*
X42199561Y-44504049D01*
X42396360Y-44504049D01*
X42406164Y-44505327D01*
X42408457Y-44505376D01*
X42421063Y-44504578D01*
X42422173Y-44502267D01*
X42421515Y-44501973D01*
X42406861Y-44500512D01*
X42399370Y-44501699D01*
X42396360Y-44504049D01*
X42199561Y-44504049D01*
X42199040Y-44501489D01*
X42198932Y-44490351D01*
X42202137Y-44489268D01*
X42206084Y-44495742D01*
X42210461Y-44503463D01*
X42210992Y-44498484D01*
X42210819Y-44497239D01*
X42438901Y-44497239D01*
X42449055Y-44498267D01*
X42459534Y-44497107D01*
X42458282Y-44494544D01*
X42443170Y-44493569D01*
X42439828Y-44494544D01*
X42438901Y-44497239D01*
X42210819Y-44497239D01*
X42209794Y-44489857D01*
X42475809Y-44489857D01*
X42485963Y-44490886D01*
X42496442Y-44489726D01*
X42495190Y-44487163D01*
X42480077Y-44486188D01*
X42476736Y-44487163D01*
X42475809Y-44489857D01*
X42209794Y-44489857D01*
X42209586Y-44488361D01*
X42209380Y-44482475D01*
X42512717Y-44482475D01*
X42522871Y-44483504D01*
X42533350Y-44482344D01*
X42532098Y-44479781D01*
X42516985Y-44478806D01*
X42513644Y-44479781D01*
X42512717Y-44482475D01*
X42209380Y-44482475D01*
X42209128Y-44475283D01*
X42549660Y-44475283D01*
X42559779Y-44475542D01*
X42580990Y-44473648D01*
X42600378Y-44469907D01*
X42614152Y-44466074D01*
X42614187Y-44464530D01*
X42604068Y-44464272D01*
X42582857Y-44466165D01*
X42563470Y-44469907D01*
X42549695Y-44473739D01*
X42549660Y-44475283D01*
X42209128Y-44475283D01*
X42208984Y-44471164D01*
X42210031Y-44458219D01*
X42213428Y-44458219D01*
X42214785Y-44467793D01*
X42217305Y-44467907D01*
X42218656Y-44460331D01*
X42630822Y-44460331D01*
X42640976Y-44461360D01*
X42651455Y-44460200D01*
X42650203Y-44457636D01*
X42635091Y-44456661D01*
X42631749Y-44457636D01*
X42630822Y-44460331D01*
X42218656Y-44460331D01*
X42219067Y-44458028D01*
X42217887Y-44453759D01*
X42216938Y-44452949D01*
X42667730Y-44452949D01*
X42677884Y-44453978D01*
X42688363Y-44452818D01*
X42687111Y-44450255D01*
X42671998Y-44449280D01*
X42668657Y-44450255D01*
X42667730Y-44452949D01*
X42216938Y-44452949D01*
X42214610Y-44450963D01*
X42213428Y-44458219D01*
X42210031Y-44458219D01*
X42210858Y-44447986D01*
X42211284Y-44444996D01*
X42706386Y-44444996D01*
X42716190Y-44446274D01*
X42718483Y-44446323D01*
X42731089Y-44445525D01*
X42732199Y-44443214D01*
X42731541Y-44442920D01*
X42716887Y-44441460D01*
X42709396Y-44442647D01*
X42706386Y-44444996D01*
X42211284Y-44444996D01*
X42212255Y-44438186D01*
X42748927Y-44438186D01*
X42759081Y-44439215D01*
X42769560Y-44438055D01*
X42768308Y-44435492D01*
X42753196Y-44434517D01*
X42749854Y-44435492D01*
X42748927Y-44438186D01*
X42212255Y-44438186D01*
X42214559Y-44422020D01*
X42214694Y-44421311D01*
X42220809Y-44421311D01*
X42222166Y-44430885D01*
X42224686Y-44431000D01*
X42224687Y-44430994D01*
X42785870Y-44430994D01*
X42795989Y-44431252D01*
X42817201Y-44429359D01*
X42836588Y-44425617D01*
X42850363Y-44421785D01*
X42850398Y-44420241D01*
X42840279Y-44419982D01*
X42819067Y-44421876D01*
X42799680Y-44425617D01*
X42785905Y-44429449D01*
X42785870Y-44430994D01*
X42224687Y-44430994D01*
X42226448Y-44421120D01*
X42225269Y-44416852D01*
X42224318Y-44416041D01*
X42867032Y-44416041D01*
X42877187Y-44417070D01*
X42887666Y-44415910D01*
X42886414Y-44413347D01*
X42871301Y-44412372D01*
X42867960Y-44413347D01*
X42867032Y-44416041D01*
X42224318Y-44416041D01*
X42221991Y-44414056D01*
X42220809Y-44421311D01*
X42214694Y-44421311D01*
X42217220Y-44408088D01*
X42905689Y-44408088D01*
X42915493Y-44409366D01*
X42917785Y-44409415D01*
X42930392Y-44408617D01*
X42931502Y-44406306D01*
X42930843Y-44406012D01*
X42916190Y-44404552D01*
X42908699Y-44405739D01*
X42905689Y-44408088D01*
X42217220Y-44408088D01*
X42218521Y-44401278D01*
X42948230Y-44401278D01*
X42958384Y-44402307D01*
X42968863Y-44401147D01*
X42967611Y-44398584D01*
X42952498Y-44397609D01*
X42949157Y-44398584D01*
X42948230Y-44401278D01*
X42218521Y-44401278D01*
X42219443Y-44396456D01*
X42221354Y-44388709D01*
X42228773Y-44388709D01*
X42229934Y-44399188D01*
X42232497Y-44397936D01*
X42232758Y-44393896D01*
X42985138Y-44393896D01*
X42995292Y-44394925D01*
X43005771Y-44393765D01*
X43004519Y-44391202D01*
X42989406Y-44390227D01*
X42986065Y-44391202D01*
X42985138Y-44393896D01*
X42232758Y-44393896D01*
X42233271Y-44385944D01*
X43023794Y-44385944D01*
X43033598Y-44387222D01*
X43035890Y-44387270D01*
X43048497Y-44386472D01*
X43049607Y-44384162D01*
X43048949Y-44383867D01*
X43034295Y-44382407D01*
X43026804Y-44383594D01*
X43023794Y-44385944D01*
X42233271Y-44385944D01*
X42233472Y-44382824D01*
X42232497Y-44379482D01*
X42231482Y-44379133D01*
X43066335Y-44379133D01*
X43076489Y-44380162D01*
X43086968Y-44379002D01*
X43085716Y-44376439D01*
X43070603Y-44375464D01*
X43067262Y-44376439D01*
X43066335Y-44379133D01*
X42231482Y-44379133D01*
X42229802Y-44378555D01*
X42228773Y-44388709D01*
X42221354Y-44388709D01*
X42224862Y-44374487D01*
X42226018Y-44371181D01*
X43104991Y-44371181D01*
X43114795Y-44372458D01*
X43117088Y-44372507D01*
X43129694Y-44371709D01*
X43130804Y-44369399D01*
X43130146Y-44369104D01*
X43115492Y-44367644D01*
X43108001Y-44368831D01*
X43104991Y-44371181D01*
X42226018Y-44371181D01*
X42228399Y-44364370D01*
X43147532Y-44364370D01*
X43157686Y-44365399D01*
X43168166Y-44364239D01*
X43166913Y-44361676D01*
X43151801Y-44360701D01*
X43148459Y-44361676D01*
X43147532Y-44364370D01*
X42228399Y-44364370D01*
X42230170Y-44359303D01*
X42234720Y-44354096D01*
X42236408Y-44355993D01*
X42240051Y-44361940D01*
X42240101Y-44356417D01*
X43186188Y-44356417D01*
X43195993Y-44357695D01*
X43198285Y-44357744D01*
X43210892Y-44356946D01*
X43212001Y-44354635D01*
X43211343Y-44354341D01*
X43196690Y-44352881D01*
X43189199Y-44354068D01*
X43186188Y-44356417D01*
X42240101Y-44356417D01*
X42240120Y-44354348D01*
X42239472Y-44349607D01*
X43228729Y-44349607D01*
X43238884Y-44350636D01*
X43249363Y-44349476D01*
X43248111Y-44346913D01*
X43232998Y-44345938D01*
X43229657Y-44346913D01*
X43228729Y-44349607D01*
X42239472Y-44349607D01*
X42239037Y-44346422D01*
X42238901Y-44341654D01*
X43267386Y-44341654D01*
X43277190Y-44342932D01*
X43279482Y-44342981D01*
X43292089Y-44342183D01*
X43293199Y-44339872D01*
X43292541Y-44339578D01*
X43277887Y-44338118D01*
X43270396Y-44339305D01*
X43267386Y-44341654D01*
X42238901Y-44341654D01*
X42238691Y-44334273D01*
X43311675Y-44334273D01*
X43321480Y-44335551D01*
X43323772Y-44335599D01*
X43336378Y-44334801D01*
X43337488Y-44332491D01*
X43336830Y-44332196D01*
X43322176Y-44330736D01*
X43314685Y-44331923D01*
X43311675Y-44334273D01*
X42238691Y-44334273D01*
X42238433Y-44325218D01*
X42239089Y-44317969D01*
X42242954Y-44317969D01*
X42244311Y-44327543D01*
X42246831Y-44327658D01*
X42246866Y-44327462D01*
X43354216Y-44327462D01*
X43364371Y-44328491D01*
X43374850Y-44327331D01*
X43373598Y-44324768D01*
X43358485Y-44323793D01*
X43355144Y-44324768D01*
X43354216Y-44327462D01*
X42246866Y-44327462D01*
X42248284Y-44319509D01*
X43392873Y-44319509D01*
X43402677Y-44320787D01*
X43404969Y-44320836D01*
X43417576Y-44320038D01*
X43418686Y-44317727D01*
X43418027Y-44317433D01*
X43403374Y-44315973D01*
X43395883Y-44317160D01*
X43392873Y-44319509D01*
X42248284Y-44319509D01*
X42248593Y-44317778D01*
X42247414Y-44313510D01*
X42246463Y-44312699D01*
X43435414Y-44312699D01*
X43445568Y-44313728D01*
X43456047Y-44312568D01*
X43454795Y-44310005D01*
X43439682Y-44309030D01*
X43436341Y-44310005D01*
X43435414Y-44312699D01*
X42246463Y-44312699D01*
X42244136Y-44310714D01*
X42242954Y-44317969D01*
X42239089Y-44317969D01*
X42240285Y-44304746D01*
X43474070Y-44304746D01*
X43483874Y-44306024D01*
X43486167Y-44306073D01*
X43498773Y-44305275D01*
X43499883Y-44302964D01*
X43499225Y-44302670D01*
X43484571Y-44301210D01*
X43477080Y-44302397D01*
X43474070Y-44304746D01*
X42240285Y-44304746D01*
X42240920Y-44297726D01*
X42240980Y-44297365D01*
X43518359Y-44297365D01*
X43528164Y-44298643D01*
X43530456Y-44298691D01*
X43543062Y-44297894D01*
X43544172Y-44295583D01*
X43543514Y-44295289D01*
X43528860Y-44293828D01*
X43521369Y-44295015D01*
X43518359Y-44297365D01*
X42240980Y-44297365D01*
X42243436Y-44282682D01*
X42243762Y-44281061D01*
X42250335Y-44281061D01*
X42251693Y-44290635D01*
X42254212Y-44290750D01*
X42254349Y-44289983D01*
X43562649Y-44289983D01*
X43572453Y-44291261D01*
X43574745Y-44291310D01*
X43587352Y-44290512D01*
X43588462Y-44288201D01*
X43587804Y-44287907D01*
X43573150Y-44286447D01*
X43565659Y-44287634D01*
X43562649Y-44289983D01*
X42254349Y-44289983D01*
X42255564Y-44283173D01*
X43605190Y-44283173D01*
X43615344Y-44284202D01*
X43625823Y-44283042D01*
X43624571Y-44280479D01*
X43609458Y-44279504D01*
X43606117Y-44280479D01*
X43605190Y-44283173D01*
X42255564Y-44283173D01*
X42255975Y-44280870D01*
X42254795Y-44276602D01*
X42253175Y-44275220D01*
X43643846Y-44275220D01*
X43653650Y-44276498D01*
X43655943Y-44276547D01*
X43668549Y-44275749D01*
X43669659Y-44273438D01*
X43669001Y-44273144D01*
X43654347Y-44271684D01*
X43646856Y-44272870D01*
X43643846Y-44275220D01*
X42253175Y-44275220D01*
X42251517Y-44273806D01*
X42250335Y-44281061D01*
X42243762Y-44281061D01*
X42246417Y-44267838D01*
X43688136Y-44267838D01*
X43697940Y-44269116D01*
X43700232Y-44269165D01*
X43712839Y-44268367D01*
X43713949Y-44266056D01*
X43713290Y-44265762D01*
X43698637Y-44264302D01*
X43691146Y-44265489D01*
X43688136Y-44267838D01*
X42246417Y-44267838D01*
X42247899Y-44260457D01*
X43732425Y-44260457D01*
X43742229Y-44261735D01*
X43744522Y-44261784D01*
X43757128Y-44260986D01*
X43758238Y-44258675D01*
X43757580Y-44258381D01*
X43742926Y-44256920D01*
X43735435Y-44258107D01*
X43732425Y-44260457D01*
X42247899Y-44260457D01*
X42249381Y-44253075D01*
X43776714Y-44253075D01*
X43786519Y-44254353D01*
X43788811Y-44254402D01*
X43801418Y-44253604D01*
X43802527Y-44251293D01*
X43801869Y-44250999D01*
X43787216Y-44249539D01*
X43779725Y-44250726D01*
X43776714Y-44253075D01*
X42249381Y-44253075D01*
X42249512Y-44252425D01*
X42262966Y-44252425D01*
X42271360Y-44252549D01*
X42282970Y-44250997D01*
X42302273Y-44247553D01*
X42309489Y-44245694D01*
X43821004Y-44245694D01*
X43830808Y-44246972D01*
X43833101Y-44247020D01*
X43845707Y-44246223D01*
X43846817Y-44243912D01*
X43846159Y-44243618D01*
X43831505Y-44242157D01*
X43824014Y-44243344D01*
X43821004Y-44245694D01*
X42309489Y-44245694D01*
X42314233Y-44244472D01*
X42315572Y-44243789D01*
X42313566Y-44241396D01*
X42302256Y-44241535D01*
X42286778Y-44243665D01*
X42272267Y-44247240D01*
X42268207Y-44248804D01*
X42262966Y-44252425D01*
X42249512Y-44252425D01*
X42251450Y-44242775D01*
X42270536Y-44238883D01*
X42328177Y-44238883D01*
X42338332Y-44239912D01*
X42347628Y-44238883D01*
X43863545Y-44238883D01*
X43873699Y-44239912D01*
X43884178Y-44238752D01*
X43882926Y-44236189D01*
X43867814Y-44235214D01*
X43864472Y-44236189D01*
X43863545Y-44238883D01*
X42347628Y-44238883D01*
X42348811Y-44238752D01*
X42347559Y-44236189D01*
X42332446Y-44235214D01*
X42329105Y-44236189D01*
X42328177Y-44238883D01*
X42270536Y-44238883D01*
X42293045Y-44234293D01*
X42307348Y-44231502D01*
X42365085Y-44231502D01*
X42375239Y-44232531D01*
X42385719Y-44231371D01*
X42385504Y-44230931D01*
X43902201Y-44230931D01*
X43912006Y-44232209D01*
X43914298Y-44232257D01*
X43926904Y-44231459D01*
X43928014Y-44229149D01*
X43927356Y-44228854D01*
X43912702Y-44227394D01*
X43905211Y-44228581D01*
X43902201Y-44230931D01*
X42385504Y-44230931D01*
X42384466Y-44228808D01*
X42369354Y-44227833D01*
X42366013Y-44228808D01*
X42365085Y-44231502D01*
X42307348Y-44231502D01*
X42310059Y-44230973D01*
X42339597Y-44225374D01*
X42345283Y-44224309D01*
X42402028Y-44224309D01*
X42412147Y-44224568D01*
X42423559Y-44223549D01*
X43946491Y-44223549D01*
X43956295Y-44224827D01*
X43958587Y-44224876D01*
X43971194Y-44224078D01*
X43972304Y-44221767D01*
X43971646Y-44221473D01*
X43956992Y-44220013D01*
X43949501Y-44221199D01*
X43946491Y-44223549D01*
X42423559Y-44223549D01*
X42433359Y-44222674D01*
X42452746Y-44218933D01*
X42462689Y-44216167D01*
X43990780Y-44216167D01*
X44000585Y-44217445D01*
X44002877Y-44217494D01*
X44015483Y-44216696D01*
X44016593Y-44214385D01*
X44015935Y-44214091D01*
X44001281Y-44212631D01*
X43993790Y-44213818D01*
X43990780Y-44216167D01*
X42462689Y-44216167D01*
X42466521Y-44215101D01*
X42466556Y-44213557D01*
X42456437Y-44213298D01*
X42435225Y-44215192D01*
X42415838Y-44218933D01*
X42402063Y-44222765D01*
X42402028Y-44224309D01*
X42345283Y-44224309D01*
X42379662Y-44217870D01*
X42421056Y-44210170D01*
X44041757Y-44210170D01*
X44043475Y-44210270D01*
X44059991Y-44209102D01*
X44085402Y-44205679D01*
X44113600Y-44200853D01*
X44135845Y-44196174D01*
X44148188Y-44192606D01*
X44148536Y-44190789D01*
X44146818Y-44190688D01*
X44130302Y-44191857D01*
X44104891Y-44195279D01*
X44076693Y-44200105D01*
X44054448Y-44204784D01*
X44042105Y-44208353D01*
X44041757Y-44210170D01*
X42421056Y-44210170D01*
X42424410Y-44209546D01*
X42483226Y-44209546D01*
X42493345Y-44209805D01*
X42514556Y-44207911D01*
X42533943Y-44204170D01*
X42547718Y-44200338D01*
X42547753Y-44198794D01*
X42537634Y-44198535D01*
X42516422Y-44200429D01*
X42497035Y-44204170D01*
X42483261Y-44208002D01*
X42483226Y-44209546D01*
X42424410Y-44209546D01*
X42428254Y-44208831D01*
X42483375Y-44198629D01*
X42505272Y-44194594D01*
X42564388Y-44194594D01*
X42574542Y-44195623D01*
X42585021Y-44194463D01*
X42583769Y-44191900D01*
X42568656Y-44190925D01*
X42565315Y-44191900D01*
X42564388Y-44194594D01*
X42505272Y-44194594D01*
X42543025Y-44187637D01*
X42548451Y-44186641D01*
X42603044Y-44186641D01*
X42612848Y-44187919D01*
X42615141Y-44187968D01*
X42627747Y-44187170D01*
X42628001Y-44186641D01*
X44175319Y-44186641D01*
X44185124Y-44187919D01*
X44187416Y-44187968D01*
X44200023Y-44187170D01*
X44201132Y-44184859D01*
X44200474Y-44184565D01*
X44185821Y-44183105D01*
X44178330Y-44184291D01*
X44175319Y-44186641D01*
X42628001Y-44186641D01*
X42628857Y-44184859D01*
X42628199Y-44184565D01*
X42613545Y-44183105D01*
X42606054Y-44184291D01*
X42603044Y-44186641D01*
X42548451Y-44186641D01*
X42585549Y-44179831D01*
X42645585Y-44179831D01*
X42655739Y-44180860D01*
X42666218Y-44179700D01*
X42666003Y-44179260D01*
X44219609Y-44179260D01*
X44229413Y-44180538D01*
X44231706Y-44180586D01*
X44244312Y-44179788D01*
X44245422Y-44177478D01*
X44244764Y-44177183D01*
X44230110Y-44175723D01*
X44222619Y-44176910D01*
X44219609Y-44179260D01*
X42666003Y-44179260D01*
X42664966Y-44177137D01*
X42649854Y-44176162D01*
X42646512Y-44177137D01*
X42645585Y-44179831D01*
X42585549Y-44179831D01*
X42592996Y-44178464D01*
X42630529Y-44171878D01*
X42684241Y-44171878D01*
X42694046Y-44173156D01*
X42696338Y-44173205D01*
X42708944Y-44172407D01*
X42709198Y-44171878D01*
X44263898Y-44171878D01*
X44273703Y-44173156D01*
X44275995Y-44173205D01*
X44288601Y-44172407D01*
X44289711Y-44170096D01*
X44289053Y-44169802D01*
X44274400Y-44168342D01*
X44266909Y-44169528D01*
X44263898Y-44171878D01*
X42709198Y-44171878D01*
X42710054Y-44170096D01*
X42709396Y-44169802D01*
X42694742Y-44168342D01*
X42687252Y-44169528D01*
X42684241Y-44171878D01*
X42630529Y-44171878D01*
X42669339Y-44165068D01*
X42726782Y-44165068D01*
X42736937Y-44166097D01*
X42747416Y-44164937D01*
X42747201Y-44164496D01*
X44308188Y-44164496D01*
X44317992Y-44165774D01*
X44320285Y-44165823D01*
X44332891Y-44165025D01*
X44334001Y-44162714D01*
X44333343Y-44162420D01*
X44318689Y-44160960D01*
X44311198Y-44162147D01*
X44308188Y-44164496D01*
X42747201Y-44164496D01*
X42746164Y-44162373D01*
X42731051Y-44161398D01*
X42727710Y-44162373D01*
X42726782Y-44165068D01*
X42669339Y-44165068D01*
X42714663Y-44157115D01*
X42765439Y-44157115D01*
X42775243Y-44158393D01*
X42777535Y-44158441D01*
X42790142Y-44157644D01*
X42790484Y-44156932D01*
X44353050Y-44156932D01*
X44363256Y-44158097D01*
X44368265Y-44158168D01*
X44381694Y-44157398D01*
X44383277Y-44155482D01*
X44381183Y-44154792D01*
X44362461Y-44153644D01*
X44355347Y-44154792D01*
X44353050Y-44156932D01*
X42790484Y-44156932D01*
X42791252Y-44155333D01*
X42790594Y-44155039D01*
X42775940Y-44153578D01*
X42768449Y-44154765D01*
X42765439Y-44157115D01*
X42714663Y-44157115D01*
X42756733Y-44149733D01*
X42809728Y-44149733D01*
X42819532Y-44151011D01*
X42821825Y-44151060D01*
X42834431Y-44150262D01*
X42834685Y-44149733D01*
X44404148Y-44149733D01*
X44413953Y-44151011D01*
X44416245Y-44151060D01*
X44428851Y-44150262D01*
X44429961Y-44147951D01*
X44429303Y-44147657D01*
X44414649Y-44146197D01*
X44407159Y-44147384D01*
X44404148Y-44149733D01*
X42834685Y-44149733D01*
X42835541Y-44147951D01*
X42834883Y-44147657D01*
X42820229Y-44146197D01*
X42812738Y-44147384D01*
X42809728Y-44149733D01*
X42756733Y-44149733D01*
X42794466Y-44143112D01*
X42852304Y-44143112D01*
X42862423Y-44143371D01*
X42873835Y-44142352D01*
X44448438Y-44142352D01*
X44458242Y-44143630D01*
X44460534Y-44143678D01*
X44473141Y-44142880D01*
X44474251Y-44140570D01*
X44473593Y-44140276D01*
X44458939Y-44138815D01*
X44451448Y-44140002D01*
X44448438Y-44142352D01*
X42873835Y-44142352D01*
X42883635Y-44141477D01*
X42903022Y-44137736D01*
X42913623Y-44134787D01*
X44493300Y-44134787D01*
X44503506Y-44135952D01*
X44508515Y-44136023D01*
X44521944Y-44135254D01*
X44523527Y-44133338D01*
X44521432Y-44132647D01*
X44502711Y-44131499D01*
X44495597Y-44132647D01*
X44493300Y-44134787D01*
X42913623Y-44134787D01*
X42916797Y-44133904D01*
X42916832Y-44132359D01*
X42906713Y-44132101D01*
X42885501Y-44133994D01*
X42866114Y-44137736D01*
X42852339Y-44141568D01*
X42852304Y-44143112D01*
X42794466Y-44143112D01*
X42882931Y-44127589D01*
X42935215Y-44127589D01*
X42945019Y-44128867D01*
X42947312Y-44128915D01*
X42959918Y-44128117D01*
X42960172Y-44127589D01*
X44544398Y-44127589D01*
X44554203Y-44128867D01*
X44556495Y-44128915D01*
X44569101Y-44128117D01*
X44570211Y-44125807D01*
X44569553Y-44125512D01*
X44554899Y-44124052D01*
X44547408Y-44125239D01*
X44544398Y-44127589D01*
X42960172Y-44127589D01*
X42961028Y-44125807D01*
X42960370Y-44125512D01*
X42945716Y-44124052D01*
X42938225Y-44125239D01*
X42935215Y-44127589D01*
X42882931Y-44127589D01*
X42925001Y-44120207D01*
X42979504Y-44120207D01*
X42989309Y-44121485D01*
X42991601Y-44121534D01*
X43004207Y-44120736D01*
X43004549Y-44120024D01*
X44589260Y-44120024D01*
X44599467Y-44121189D01*
X44604475Y-44121260D01*
X44617905Y-44120491D01*
X44619487Y-44118574D01*
X44617393Y-44117884D01*
X44598672Y-44116736D01*
X44591557Y-44117884D01*
X44589260Y-44120024D01*
X43004549Y-44120024D01*
X43005317Y-44118425D01*
X43004659Y-44118131D01*
X42990005Y-44116671D01*
X42982515Y-44117857D01*
X42979504Y-44120207D01*
X42925001Y-44120207D01*
X42967071Y-44112825D01*
X43023794Y-44112825D01*
X43033598Y-44114103D01*
X43035890Y-44114152D01*
X43048497Y-44113354D01*
X43048751Y-44112825D01*
X44640359Y-44112825D01*
X44650163Y-44114103D01*
X44652455Y-44114152D01*
X44665062Y-44113354D01*
X44666172Y-44111043D01*
X44665514Y-44110749D01*
X44650860Y-44109289D01*
X44643369Y-44110476D01*
X44640359Y-44112825D01*
X43048751Y-44112825D01*
X43049607Y-44111043D01*
X43048949Y-44110749D01*
X43034295Y-44109289D01*
X43026804Y-44110476D01*
X43023794Y-44112825D01*
X42967071Y-44112825D01*
X43009135Y-44105444D01*
X43068083Y-44105444D01*
X43077888Y-44106722D01*
X43080180Y-44106770D01*
X43092786Y-44105973D01*
X43093128Y-44105261D01*
X44685221Y-44105261D01*
X44695427Y-44106426D01*
X44700436Y-44106497D01*
X44713865Y-44105727D01*
X44715448Y-44103811D01*
X44713353Y-44103121D01*
X44694632Y-44101973D01*
X44687518Y-44103121D01*
X44685221Y-44105261D01*
X43093128Y-44105261D01*
X43093896Y-44103662D01*
X43093238Y-44103368D01*
X43078584Y-44101907D01*
X43071093Y-44103094D01*
X43068083Y-44105444D01*
X43009135Y-44105444D01*
X43046868Y-44098823D01*
X43110659Y-44098823D01*
X43120779Y-44099081D01*
X43132197Y-44098062D01*
X44736319Y-44098062D01*
X44746124Y-44099340D01*
X44748416Y-44099389D01*
X44761022Y-44098591D01*
X44762132Y-44096280D01*
X44761474Y-44095986D01*
X44746820Y-44094526D01*
X44739329Y-44095713D01*
X44736319Y-44098062D01*
X43132197Y-44098062D01*
X43141990Y-44097188D01*
X43161377Y-44093446D01*
X43171974Y-44090498D01*
X44781181Y-44090498D01*
X44791388Y-44091662D01*
X44796396Y-44091734D01*
X44809826Y-44090964D01*
X44811408Y-44089048D01*
X44809314Y-44088358D01*
X44790593Y-44087210D01*
X44783478Y-44088358D01*
X44781181Y-44090498D01*
X43171974Y-44090498D01*
X43175152Y-44089614D01*
X43175187Y-44088070D01*
X43165068Y-44087811D01*
X43143856Y-44089705D01*
X43124469Y-44093446D01*
X43110694Y-44097279D01*
X43110659Y-44098823D01*
X43046868Y-44098823D01*
X43130917Y-44084075D01*
X43136890Y-44083116D01*
X43194142Y-44083116D01*
X43204349Y-44084281D01*
X43209357Y-44084352D01*
X43222787Y-44083583D01*
X43223173Y-44083116D01*
X44832852Y-44083116D01*
X44843059Y-44084281D01*
X44848067Y-44084352D01*
X44861497Y-44083583D01*
X44863079Y-44081667D01*
X44860985Y-44080976D01*
X44842264Y-44079828D01*
X44835149Y-44080976D01*
X44832852Y-44083116D01*
X43223173Y-44083116D01*
X43224370Y-44081667D01*
X43222275Y-44080976D01*
X43203554Y-44079828D01*
X43196440Y-44080976D01*
X43194142Y-44083116D01*
X43136890Y-44083116D01*
X43181730Y-44075917D01*
X43245241Y-44075917D01*
X43255045Y-44077195D01*
X43257338Y-44077244D01*
X43269944Y-44076446D01*
X43270286Y-44075734D01*
X44884523Y-44075734D01*
X44894730Y-44076899D01*
X44899738Y-44076971D01*
X44913168Y-44076201D01*
X44914750Y-44074285D01*
X44912656Y-44073595D01*
X44893935Y-44072447D01*
X44886820Y-44073595D01*
X44884523Y-44075734D01*
X43270286Y-44075734D01*
X43271054Y-44074136D01*
X43270396Y-44073841D01*
X43255742Y-44072381D01*
X43248251Y-44073568D01*
X43245241Y-44075917D01*
X43181730Y-44075917D01*
X43227704Y-44068536D01*
X43289530Y-44068536D01*
X43299335Y-44069814D01*
X43301627Y-44069863D01*
X43314234Y-44069065D01*
X43314488Y-44068536D01*
X44935622Y-44068536D01*
X44945426Y-44069814D01*
X44947718Y-44069863D01*
X44960325Y-44069065D01*
X44961435Y-44066754D01*
X44960777Y-44066460D01*
X44946123Y-44065000D01*
X44938632Y-44066186D01*
X44935622Y-44068536D01*
X43314488Y-44068536D01*
X43315343Y-44066754D01*
X43314685Y-44066460D01*
X43300032Y-44065000D01*
X43292541Y-44066186D01*
X43289530Y-44068536D01*
X43227704Y-44068536D01*
X43273684Y-44061154D01*
X43333820Y-44061154D01*
X43343624Y-44062432D01*
X43345917Y-44062481D01*
X43358523Y-44061683D01*
X43358865Y-44060971D01*
X44980484Y-44060971D01*
X44990690Y-44062136D01*
X44995699Y-44062207D01*
X45009128Y-44061438D01*
X45010711Y-44059522D01*
X45008616Y-44058832D01*
X44989895Y-44057684D01*
X44982781Y-44058832D01*
X44980484Y-44060971D01*
X43358865Y-44060971D01*
X43359633Y-44059372D01*
X43358975Y-44059078D01*
X43344321Y-44057618D01*
X43336830Y-44058805D01*
X43333820Y-44061154D01*
X43273684Y-44061154D01*
X43319658Y-44053773D01*
X43378109Y-44053773D01*
X43387914Y-44055051D01*
X43390206Y-44055099D01*
X43402812Y-44054302D01*
X43403154Y-44053590D01*
X45032155Y-44053590D01*
X45042361Y-44054755D01*
X45047370Y-44054826D01*
X45060799Y-44054056D01*
X45062382Y-44052140D01*
X45060287Y-44051450D01*
X45041566Y-44050302D01*
X45034452Y-44051450D01*
X45032155Y-44053590D01*
X43403154Y-44053590D01*
X43403922Y-44051991D01*
X43403264Y-44051697D01*
X43388610Y-44050236D01*
X43381120Y-44051423D01*
X43378109Y-44053773D01*
X43319658Y-44053773D01*
X43365638Y-44046391D01*
X43422399Y-44046391D01*
X43432203Y-44047669D01*
X43434496Y-44047718D01*
X43447102Y-44046920D01*
X43447444Y-44046208D01*
X45083826Y-44046208D01*
X45094032Y-44047373D01*
X45099041Y-44047444D01*
X45112470Y-44046675D01*
X45114053Y-44044759D01*
X45111958Y-44044069D01*
X45093237Y-44042921D01*
X45086123Y-44044069D01*
X45083826Y-44046208D01*
X43447444Y-44046208D01*
X43448212Y-44044609D01*
X43447554Y-44044315D01*
X43432900Y-44042855D01*
X43425409Y-44044042D01*
X43422399Y-44046391D01*
X43365638Y-44046391D01*
X43412752Y-44038827D01*
X43467261Y-44038827D01*
X43477467Y-44039991D01*
X43482476Y-44040063D01*
X43495905Y-44039293D01*
X43496290Y-44038827D01*
X45135497Y-44038827D01*
X45145703Y-44039991D01*
X45150712Y-44040063D01*
X45164141Y-44039293D01*
X45165724Y-44037377D01*
X45163629Y-44036687D01*
X45144908Y-44035539D01*
X45137794Y-44036687D01*
X45135497Y-44038827D01*
X43496290Y-44038827D01*
X43497488Y-44037377D01*
X43495393Y-44036687D01*
X43476672Y-44035539D01*
X43469558Y-44036687D01*
X43467261Y-44038827D01*
X43412752Y-44038827D01*
X43457592Y-44031628D01*
X43518359Y-44031628D01*
X43528164Y-44032906D01*
X43530456Y-44032955D01*
X43543062Y-44032157D01*
X43543404Y-44031445D01*
X45187168Y-44031445D01*
X45197374Y-44032610D01*
X45202383Y-44032681D01*
X45215812Y-44031912D01*
X45217395Y-44029996D01*
X45215301Y-44029305D01*
X45196579Y-44028157D01*
X45189465Y-44029305D01*
X45187168Y-44031445D01*
X43543404Y-44031445D01*
X43544172Y-44029846D01*
X43543514Y-44029552D01*
X43528860Y-44028092D01*
X43521369Y-44029278D01*
X43518359Y-44031628D01*
X43457592Y-44031628D01*
X43503572Y-44024246D01*
X43562649Y-44024246D01*
X43572453Y-44025524D01*
X43574745Y-44025573D01*
X43587352Y-44024775D01*
X43587851Y-44023736D01*
X45240822Y-44023736D01*
X45249694Y-44024959D01*
X45257745Y-44025151D01*
X45272936Y-44024556D01*
X45276858Y-44022884D01*
X45274439Y-44021940D01*
X45256713Y-44020566D01*
X45244913Y-44021791D01*
X45240822Y-44023736D01*
X43587851Y-44023736D01*
X43588462Y-44022464D01*
X43587804Y-44022170D01*
X43573150Y-44020710D01*
X43565659Y-44021897D01*
X43562649Y-44024246D01*
X43503572Y-44024246D01*
X43550686Y-44016682D01*
X43607511Y-44016682D01*
X43617717Y-44017847D01*
X43622726Y-44017918D01*
X43636155Y-44017148D01*
X43636540Y-44016682D01*
X45297891Y-44016682D01*
X45308098Y-44017847D01*
X45313106Y-44017918D01*
X45326536Y-44017148D01*
X45328118Y-44015232D01*
X45326024Y-44014542D01*
X45307303Y-44013394D01*
X45300189Y-44014542D01*
X45297891Y-44016682D01*
X43636540Y-44016682D01*
X43637738Y-44015232D01*
X43635643Y-44014542D01*
X43616922Y-44013394D01*
X43609808Y-44014542D01*
X43607511Y-44016682D01*
X43550686Y-44016682D01*
X43595526Y-44009483D01*
X43658609Y-44009483D01*
X43668414Y-44010761D01*
X43670706Y-44010810D01*
X43683312Y-44010012D01*
X43683654Y-44009300D01*
X45349562Y-44009300D01*
X45359769Y-44010465D01*
X45364777Y-44010536D01*
X45378207Y-44009767D01*
X45379790Y-44007851D01*
X45377695Y-44007161D01*
X45358974Y-44006013D01*
X45351860Y-44007161D01*
X45349562Y-44009300D01*
X43683654Y-44009300D01*
X43684422Y-44007701D01*
X43683764Y-44007407D01*
X43669110Y-44005947D01*
X43661619Y-44007134D01*
X43658609Y-44009483D01*
X43595526Y-44009483D01*
X43642640Y-44001919D01*
X43703471Y-44001919D01*
X43713678Y-44003083D01*
X43718686Y-44003155D01*
X43732116Y-44002385D01*
X43732501Y-44001919D01*
X45401233Y-44001919D01*
X45411440Y-44003083D01*
X45416448Y-44003155D01*
X45429878Y-44002385D01*
X45431461Y-44000469D01*
X45429366Y-43999779D01*
X45410645Y-43998631D01*
X45403531Y-43999779D01*
X45401233Y-44001919D01*
X43732501Y-44001919D01*
X43733698Y-44000469D01*
X43731604Y-43999779D01*
X43712883Y-43998631D01*
X43705768Y-43999779D01*
X43703471Y-44001919D01*
X43642640Y-44001919D01*
X43680217Y-43995886D01*
X43689436Y-43994537D01*
X43755142Y-43994537D01*
X43765349Y-43995702D01*
X43770357Y-43995773D01*
X43783787Y-43995004D01*
X43784443Y-43994210D01*
X45454887Y-43994210D01*
X45463760Y-43995433D01*
X45471810Y-43995624D01*
X45487002Y-43995030D01*
X45490923Y-43993357D01*
X45488505Y-43992414D01*
X45470778Y-43991039D01*
X45458979Y-43992265D01*
X45454887Y-43994210D01*
X43784443Y-43994210D01*
X43785369Y-43993088D01*
X43783275Y-43992398D01*
X43764554Y-43991250D01*
X43757439Y-43992398D01*
X43755142Y-43994537D01*
X43689436Y-43994537D01*
X43738624Y-43987339D01*
X43806241Y-43987339D01*
X43816045Y-43988617D01*
X43818337Y-43988665D01*
X43830944Y-43987867D01*
X43831286Y-43987156D01*
X45511957Y-43987156D01*
X45522164Y-43988320D01*
X45527172Y-43988392D01*
X45540601Y-43987622D01*
X45542184Y-43985706D01*
X45540090Y-43985016D01*
X45521368Y-43983868D01*
X45514254Y-43985016D01*
X45511957Y-43987156D01*
X43831286Y-43987156D01*
X43832054Y-43985557D01*
X43831396Y-43985262D01*
X43816742Y-43983802D01*
X43809251Y-43984989D01*
X43806241Y-43987339D01*
X43738624Y-43987339D01*
X43790320Y-43979774D01*
X43851103Y-43979774D01*
X43861309Y-43980939D01*
X43866318Y-43981010D01*
X43879747Y-43980241D01*
X43880403Y-43979447D01*
X45565611Y-43979447D01*
X45574483Y-43980670D01*
X45582534Y-43980861D01*
X45597726Y-43980267D01*
X45601647Y-43978594D01*
X45599228Y-43977651D01*
X45581502Y-43976276D01*
X45569702Y-43977502D01*
X45565611Y-43979447D01*
X43880403Y-43979447D01*
X43881330Y-43978324D01*
X43879235Y-43977634D01*
X43860514Y-43976486D01*
X43853400Y-43977634D01*
X43851103Y-43979774D01*
X43790320Y-43979774D01*
X43840766Y-43972392D01*
X43902774Y-43972392D01*
X43912980Y-43973557D01*
X43917989Y-43973629D01*
X43931418Y-43972859D01*
X43932074Y-43972065D01*
X45624664Y-43972065D01*
X45633536Y-43973288D01*
X45641586Y-43973480D01*
X45656778Y-43972885D01*
X45660699Y-43971213D01*
X45658281Y-43970269D01*
X45640555Y-43968894D01*
X45628755Y-43970120D01*
X45624664Y-43972065D01*
X43932074Y-43972065D01*
X43933001Y-43970943D01*
X43930906Y-43970253D01*
X43912185Y-43969105D01*
X43905071Y-43970253D01*
X43902774Y-43972392D01*
X43840766Y-43972392D01*
X43891205Y-43965011D01*
X43954445Y-43965011D01*
X43964651Y-43966176D01*
X43969660Y-43966247D01*
X43983089Y-43965477D01*
X43983474Y-43965011D01*
X45681733Y-43965011D01*
X45691940Y-43966176D01*
X45696948Y-43966247D01*
X45710378Y-43965477D01*
X45711960Y-43963561D01*
X45709866Y-43962871D01*
X45691145Y-43961723D01*
X45684031Y-43962871D01*
X45681733Y-43965011D01*
X43983474Y-43965011D01*
X43984672Y-43963561D01*
X43982577Y-43962871D01*
X43963856Y-43961723D01*
X43956742Y-43962871D01*
X43954445Y-43965011D01*
X43891205Y-43965011D01*
X43941651Y-43957629D01*
X44006116Y-43957629D01*
X44016322Y-43958794D01*
X44021331Y-43958865D01*
X44034760Y-43958096D01*
X44035416Y-43957302D01*
X45735387Y-43957302D01*
X45744260Y-43958525D01*
X45752310Y-43958716D01*
X45767502Y-43958122D01*
X45771423Y-43956450D01*
X45769005Y-43955506D01*
X45751278Y-43954131D01*
X45739478Y-43955357D01*
X45735387Y-43957302D01*
X44035416Y-43957302D01*
X44036343Y-43956180D01*
X44034248Y-43955490D01*
X44015527Y-43954342D01*
X44008413Y-43955490D01*
X44006116Y-43957629D01*
X43941651Y-43957629D01*
X43990839Y-43950431D01*
X44057214Y-43950431D01*
X44067019Y-43951709D01*
X44069311Y-43951757D01*
X44081917Y-43950960D01*
X44082417Y-43949920D01*
X45794440Y-43949920D01*
X45803312Y-43951143D01*
X45811363Y-43951335D01*
X45826555Y-43950741D01*
X45830476Y-43949068D01*
X45828057Y-43948125D01*
X45810331Y-43946750D01*
X45798531Y-43947976D01*
X45794440Y-43949920D01*
X44082417Y-43949920D01*
X44083027Y-43948649D01*
X44082369Y-43948355D01*
X44067715Y-43946894D01*
X44060224Y-43948081D01*
X44057214Y-43950431D01*
X43990839Y-43950431D01*
X44042535Y-43942866D01*
X44102076Y-43942866D01*
X44112283Y-43944031D01*
X44117291Y-43944102D01*
X44130721Y-43943333D01*
X44131377Y-43942539D01*
X45853493Y-43942539D01*
X45862365Y-43943762D01*
X45870415Y-43943953D01*
X45885607Y-43943359D01*
X45889528Y-43941686D01*
X45887110Y-43940743D01*
X45869384Y-43939368D01*
X45857584Y-43940594D01*
X45853493Y-43942539D01*
X44131377Y-43942539D01*
X44132303Y-43941417D01*
X44130209Y-43940727D01*
X44111488Y-43939579D01*
X44104373Y-43940727D01*
X44102076Y-43942866D01*
X44042535Y-43942866D01*
X44095215Y-43935157D01*
X44155730Y-43935157D01*
X44164602Y-43936380D01*
X44172653Y-43936572D01*
X44187845Y-43935978D01*
X44189769Y-43935157D01*
X45912545Y-43935157D01*
X45921417Y-43936380D01*
X45929468Y-43936572D01*
X45944660Y-43935978D01*
X45948581Y-43934305D01*
X45946163Y-43933362D01*
X45928436Y-43931987D01*
X45916636Y-43933213D01*
X45912545Y-43935157D01*
X44189769Y-43935157D01*
X44191766Y-43934305D01*
X44189348Y-43933362D01*
X44171621Y-43931987D01*
X44159821Y-43933213D01*
X44155730Y-43935157D01*
X44095215Y-43935157D01*
X44143419Y-43928103D01*
X44212800Y-43928103D01*
X44223007Y-43929268D01*
X44228015Y-43929339D01*
X44241444Y-43928570D01*
X44242100Y-43927775D01*
X45971598Y-43927775D01*
X45980470Y-43928999D01*
X45988520Y-43929190D01*
X46003712Y-43928596D01*
X46007633Y-43926923D01*
X46005215Y-43925980D01*
X45987489Y-43924605D01*
X45975689Y-43925831D01*
X45971598Y-43927775D01*
X44242100Y-43927775D01*
X44243027Y-43926653D01*
X44240933Y-43925963D01*
X44222211Y-43924815D01*
X44215097Y-43925963D01*
X44212800Y-43928103D01*
X44143419Y-43928103D01*
X44193865Y-43920721D01*
X44264471Y-43920721D01*
X44274678Y-43921886D01*
X44279686Y-43921958D01*
X44293115Y-43921188D01*
X44293771Y-43920394D01*
X46038032Y-43920394D01*
X46046904Y-43921617D01*
X46054955Y-43921809D01*
X46070147Y-43921214D01*
X46074068Y-43919542D01*
X46071649Y-43918598D01*
X46053923Y-43917223D01*
X46042123Y-43918449D01*
X46038032Y-43920394D01*
X44293771Y-43920394D01*
X44294698Y-43919272D01*
X44292604Y-43918582D01*
X44273882Y-43917434D01*
X44266768Y-43918582D01*
X44264471Y-43920721D01*
X44193865Y-43920721D01*
X44238762Y-43914151D01*
X44244876Y-43913340D01*
X44316142Y-43913340D01*
X44326349Y-43914505D01*
X44331357Y-43914576D01*
X44344786Y-43913806D01*
X44345442Y-43913012D01*
X46097084Y-43913012D01*
X46105957Y-43914236D01*
X46114007Y-43914427D01*
X46129199Y-43913833D01*
X46133120Y-43912160D01*
X46130702Y-43911217D01*
X46112976Y-43909842D01*
X46101176Y-43911068D01*
X46097084Y-43913012D01*
X44345442Y-43913012D01*
X44346369Y-43911890D01*
X44344275Y-43911200D01*
X44325553Y-43910052D01*
X44318439Y-43911200D01*
X44316142Y-43913340D01*
X44244876Y-43913340D01*
X44302992Y-43905631D01*
X44369796Y-43905631D01*
X44378668Y-43906854D01*
X44386719Y-43907045D01*
X44401911Y-43906451D01*
X44403834Y-43905631D01*
X46156137Y-43905631D01*
X46165009Y-43906854D01*
X46173060Y-43907045D01*
X46188252Y-43906451D01*
X46192173Y-43904779D01*
X46189754Y-43903835D01*
X46172028Y-43902460D01*
X46160228Y-43903686D01*
X46156137Y-43905631D01*
X44403834Y-43905631D01*
X44405832Y-43904779D01*
X44403413Y-43903835D01*
X44385687Y-43902460D01*
X44373887Y-43903686D01*
X44369796Y-43905631D01*
X44302992Y-43905631D01*
X44356171Y-43898577D01*
X44426865Y-43898577D01*
X44437072Y-43899741D01*
X44442081Y-43899813D01*
X44455510Y-43899043D01*
X44456166Y-43898249D01*
X46222571Y-43898249D01*
X46231443Y-43899472D01*
X46239494Y-43899664D01*
X46254686Y-43899070D01*
X46258607Y-43897397D01*
X46256189Y-43896454D01*
X46238462Y-43895079D01*
X46226662Y-43896305D01*
X46222571Y-43898249D01*
X44456166Y-43898249D01*
X44457093Y-43897127D01*
X44454998Y-43896437D01*
X44436277Y-43895289D01*
X44429163Y-43896437D01*
X44426865Y-43898577D01*
X44356171Y-43898577D01*
X44411822Y-43891195D01*
X44478536Y-43891195D01*
X44488743Y-43892360D01*
X44493752Y-43892431D01*
X44507181Y-43891662D01*
X44507837Y-43890868D01*
X46289005Y-43890868D01*
X46297878Y-43892091D01*
X46305928Y-43892282D01*
X46321120Y-43891688D01*
X46325041Y-43890015D01*
X46322623Y-43889072D01*
X46304896Y-43887697D01*
X46293097Y-43888923D01*
X46289005Y-43890868D01*
X44507837Y-43890868D01*
X44508764Y-43889746D01*
X44506669Y-43889055D01*
X44487948Y-43887908D01*
X44480834Y-43889055D01*
X44478536Y-43891195D01*
X44411822Y-43891195D01*
X44467473Y-43883813D01*
X44537589Y-43883813D01*
X44547796Y-43884978D01*
X44552804Y-43885050D01*
X44566234Y-43884280D01*
X44566979Y-43883378D01*
X46348565Y-43883378D01*
X46357839Y-43884536D01*
X46368672Y-43884752D01*
X46384637Y-43884176D01*
X46389020Y-43882704D01*
X46385280Y-43881553D01*
X46363770Y-43880332D01*
X46352063Y-43881553D01*
X46348565Y-43883378D01*
X44566979Y-43883378D01*
X44567816Y-43882364D01*
X44565722Y-43881674D01*
X44547001Y-43880526D01*
X44539886Y-43881674D01*
X44537589Y-43883813D01*
X44467473Y-43883813D01*
X44525589Y-43876104D01*
X44591243Y-43876104D01*
X44600115Y-43877328D01*
X44608166Y-43877519D01*
X44623358Y-43876925D01*
X44625533Y-43875997D01*
X46414999Y-43875997D01*
X46424273Y-43877155D01*
X46435106Y-43877370D01*
X46451071Y-43876794D01*
X46455454Y-43875322D01*
X46451714Y-43874171D01*
X46430205Y-43872950D01*
X46418497Y-43874171D01*
X46414999Y-43875997D01*
X44625533Y-43875997D01*
X44627279Y-43875252D01*
X44624861Y-43874309D01*
X44607134Y-43872934D01*
X44595334Y-43874160D01*
X44591243Y-43876104D01*
X44525589Y-43876104D01*
X44578768Y-43869050D01*
X44648313Y-43869050D01*
X44658519Y-43870215D01*
X44663528Y-43870287D01*
X44676957Y-43869517D01*
X44677702Y-43868615D01*
X46481433Y-43868615D01*
X46490707Y-43869773D01*
X46501540Y-43869989D01*
X46517505Y-43869413D01*
X46521888Y-43867941D01*
X46518149Y-43866790D01*
X46496639Y-43865568D01*
X46484931Y-43866790D01*
X46481433Y-43868615D01*
X44677702Y-43868615D01*
X44678540Y-43867601D01*
X44676446Y-43866911D01*
X44657724Y-43865763D01*
X44650610Y-43866911D01*
X44648313Y-43869050D01*
X44578768Y-43869050D01*
X44636885Y-43861341D01*
X44701967Y-43861341D01*
X44710839Y-43862565D01*
X44718890Y-43862756D01*
X44734081Y-43862162D01*
X44736257Y-43861234D01*
X46547868Y-43861234D01*
X46557142Y-43862392D01*
X46567974Y-43862607D01*
X46583939Y-43862031D01*
X46588322Y-43860559D01*
X46584583Y-43859408D01*
X46563073Y-43858187D01*
X46551366Y-43859408D01*
X46547868Y-43861234D01*
X44736257Y-43861234D01*
X44738003Y-43860489D01*
X44735584Y-43859546D01*
X44717858Y-43858171D01*
X44706058Y-43859397D01*
X44701967Y-43861341D01*
X44636885Y-43861341D01*
X44692529Y-43853960D01*
X44761019Y-43853960D01*
X44769892Y-43855183D01*
X44777942Y-43855374D01*
X44793134Y-43854780D01*
X44795309Y-43853852D01*
X46621683Y-43853852D01*
X46630957Y-43855010D01*
X46641790Y-43855225D01*
X46657755Y-43854650D01*
X46662138Y-43853177D01*
X46658398Y-43852027D01*
X46636889Y-43850805D01*
X46625181Y-43852027D01*
X46621683Y-43853852D01*
X44795309Y-43853852D01*
X44797055Y-43853107D01*
X44794637Y-43852164D01*
X44776910Y-43850789D01*
X44765110Y-43852015D01*
X44761019Y-43853960D01*
X44692529Y-43853960D01*
X44748180Y-43846578D01*
X44820072Y-43846578D01*
X44828944Y-43847801D01*
X44836995Y-43847993D01*
X44852187Y-43847399D01*
X44854364Y-43846470D01*
X46688117Y-43846470D01*
X46697392Y-43847629D01*
X46708224Y-43847844D01*
X46724189Y-43847268D01*
X46728572Y-43845796D01*
X46724833Y-43844645D01*
X46703323Y-43843424D01*
X46691616Y-43844645D01*
X46688117Y-43846470D01*
X44854364Y-43846470D01*
X44856108Y-43845726D01*
X44853689Y-43844783D01*
X44835963Y-43843408D01*
X44824163Y-43844634D01*
X44820072Y-43846578D01*
X44748180Y-43846578D01*
X44803823Y-43839197D01*
X44879125Y-43839197D01*
X44887997Y-43840420D01*
X44896047Y-43840611D01*
X44911239Y-43840017D01*
X44913414Y-43839089D01*
X46761933Y-43839089D01*
X46771207Y-43840247D01*
X46782040Y-43840462D01*
X46798005Y-43839886D01*
X46802388Y-43838414D01*
X46798648Y-43837263D01*
X46777139Y-43836042D01*
X46765431Y-43837263D01*
X46761933Y-43839089D01*
X44913414Y-43839089D01*
X44915160Y-43838344D01*
X44912742Y-43837401D01*
X44895016Y-43836026D01*
X44883216Y-43837252D01*
X44879125Y-43839197D01*
X44803823Y-43839197D01*
X44804419Y-43839118D01*
X44865635Y-43831815D01*
X44938177Y-43831815D01*
X44947049Y-43833038D01*
X44955100Y-43833230D01*
X44970292Y-43832636D01*
X44972469Y-43831707D01*
X46835749Y-43831707D01*
X46845023Y-43832865D01*
X46855856Y-43833081D01*
X46871821Y-43832505D01*
X46876203Y-43831033D01*
X46872464Y-43829882D01*
X46850954Y-43828661D01*
X46839247Y-43829882D01*
X46835749Y-43831707D01*
X44972469Y-43831707D01*
X44974213Y-43830963D01*
X44971795Y-43830019D01*
X44954068Y-43828645D01*
X44942268Y-43829871D01*
X44938177Y-43831815D01*
X44865635Y-43831815D01*
X44927513Y-43824433D01*
X45004611Y-43824433D01*
X45013484Y-43825657D01*
X45021534Y-43825848D01*
X45036726Y-43825254D01*
X45039421Y-43824104D01*
X46904351Y-43824104D01*
X46912329Y-43825266D01*
X46925981Y-43825598D01*
X46943486Y-43825129D01*
X46949885Y-43823814D01*
X46946381Y-43822514D01*
X46926131Y-43821184D01*
X46909473Y-43822413D01*
X46904351Y-43824104D01*
X45039421Y-43824104D01*
X45040647Y-43823581D01*
X45038229Y-43822638D01*
X45020502Y-43821263D01*
X45008702Y-43822489D01*
X45004611Y-43824433D01*
X44927513Y-43824433D01*
X44989382Y-43817052D01*
X45063664Y-43817052D01*
X45072536Y-43818275D01*
X45080587Y-43818467D01*
X45095779Y-43817872D01*
X45097955Y-43816944D01*
X46983380Y-43816944D01*
X46992655Y-43818102D01*
X47003487Y-43818318D01*
X47019452Y-43817742D01*
X47023835Y-43816270D01*
X47020096Y-43815119D01*
X46998586Y-43813897D01*
X46986879Y-43815119D01*
X46983380Y-43816944D01*
X45097955Y-43816944D01*
X45099700Y-43816200D01*
X45097281Y-43815256D01*
X45079555Y-43813881D01*
X45067755Y-43815107D01*
X45063664Y-43817052D01*
X44989382Y-43817052D01*
X45051260Y-43809670D01*
X45122717Y-43809670D01*
X45131589Y-43810894D01*
X45139639Y-43811085D01*
X45154831Y-43810491D01*
X45157526Y-43809341D01*
X47059364Y-43809341D01*
X47067342Y-43810503D01*
X47080994Y-43810835D01*
X47098499Y-43810366D01*
X47104898Y-43809050D01*
X47101394Y-43807750D01*
X47081144Y-43806421D01*
X47064487Y-43807650D01*
X47059364Y-43809341D01*
X45157526Y-43809341D01*
X45158752Y-43808818D01*
X45156334Y-43807875D01*
X45138608Y-43806500D01*
X45126808Y-43807726D01*
X45122717Y-43809670D01*
X45051260Y-43809670D01*
X45113129Y-43802289D01*
X45189151Y-43802289D01*
X45198023Y-43803512D01*
X45206074Y-43803703D01*
X45221265Y-43803109D01*
X45223960Y-43801959D01*
X47140561Y-43801959D01*
X47148540Y-43803122D01*
X47162191Y-43803454D01*
X47179697Y-43802985D01*
X47186095Y-43801669D01*
X47182592Y-43800369D01*
X47162341Y-43799040D01*
X47145684Y-43800268D01*
X47140561Y-43801959D01*
X45223960Y-43801959D01*
X45225186Y-43801436D01*
X45222768Y-43800493D01*
X45205042Y-43799118D01*
X45193242Y-43800344D01*
X45189151Y-43802289D01*
X45113129Y-43802289D01*
X45175912Y-43794799D01*
X45248710Y-43794799D01*
X45257984Y-43795958D01*
X45268817Y-43796173D01*
X45284782Y-43795597D01*
X45287816Y-43794578D01*
X47221759Y-43794578D01*
X47229737Y-43795740D01*
X47243388Y-43796072D01*
X47260894Y-43795603D01*
X47267293Y-43794287D01*
X47263789Y-43792987D01*
X47243538Y-43791658D01*
X47226881Y-43792886D01*
X47221759Y-43794578D01*
X45287816Y-43794578D01*
X45289165Y-43794125D01*
X45285425Y-43792974D01*
X45263916Y-43791753D01*
X45252208Y-43792974D01*
X45248710Y-43794799D01*
X45175912Y-43794799D01*
X45237781Y-43787418D01*
X45315145Y-43787418D01*
X45324419Y-43788576D01*
X45335251Y-43788791D01*
X45351216Y-43788215D01*
X45354250Y-43787196D01*
X47302956Y-43787196D01*
X47310934Y-43788358D01*
X47324586Y-43788691D01*
X47342091Y-43788221D01*
X47348490Y-43786906D01*
X47344986Y-43785606D01*
X47324736Y-43784276D01*
X47308079Y-43785505D01*
X47302956Y-43787196D01*
X45354250Y-43787196D01*
X45355599Y-43786743D01*
X45351860Y-43785592D01*
X45330350Y-43784371D01*
X45318643Y-43785592D01*
X45315145Y-43787418D01*
X45237781Y-43787418D01*
X45298753Y-43780144D01*
X45381072Y-43780144D01*
X45389944Y-43781367D01*
X45397994Y-43781559D01*
X45413186Y-43780965D01*
X45416052Y-43779742D01*
X47384595Y-43779742D01*
X47392978Y-43780855D01*
X47409474Y-43781208D01*
X47427697Y-43780750D01*
X47434527Y-43779559D01*
X47429773Y-43778133D01*
X47405930Y-43776897D01*
X47389174Y-43778133D01*
X47384595Y-43779742D01*
X45416052Y-43779742D01*
X45417107Y-43779292D01*
X45414689Y-43778348D01*
X45396963Y-43776974D01*
X45385163Y-43778199D01*
X45381072Y-43780144D01*
X45298753Y-43780144D01*
X45360631Y-43772762D01*
X45447506Y-43772762D01*
X45456378Y-43773986D01*
X45464429Y-43774177D01*
X45479621Y-43773583D01*
X45482485Y-43772361D01*
X47473174Y-43772361D01*
X47481557Y-43773474D01*
X47498053Y-43773827D01*
X47516276Y-43773369D01*
X47523106Y-43772177D01*
X47518352Y-43770752D01*
X47494509Y-43769516D01*
X47477753Y-43770752D01*
X47473174Y-43772361D01*
X45482485Y-43772361D01*
X45483542Y-43771910D01*
X45481123Y-43770967D01*
X45463397Y-43769592D01*
X45451597Y-43770818D01*
X45447506Y-43772762D01*
X45360631Y-43772762D01*
X45375057Y-43771041D01*
X45429399Y-43765273D01*
X45514447Y-43765273D01*
X45523721Y-43766431D01*
X45534554Y-43766647D01*
X45550519Y-43766071D01*
X45553768Y-43764979D01*
X47561753Y-43764979D01*
X47570136Y-43766092D01*
X47586632Y-43766445D01*
X47604855Y-43765987D01*
X47611685Y-43764796D01*
X47606931Y-43763370D01*
X47583088Y-43762134D01*
X47566332Y-43763370D01*
X47561753Y-43764979D01*
X45553768Y-43764979D01*
X45554902Y-43764598D01*
X45551162Y-43763448D01*
X45529652Y-43762226D01*
X45517945Y-43763448D01*
X45514447Y-43765273D01*
X45429399Y-43765273D01*
X45498947Y-43757891D01*
X45580881Y-43757891D01*
X45590155Y-43759050D01*
X45600988Y-43759265D01*
X45616953Y-43758689D01*
X45620687Y-43757435D01*
X47652649Y-43757435D01*
X47659779Y-43758534D01*
X47678575Y-43758987D01*
X47678901Y-43758988D01*
X47698510Y-43758603D01*
X47707135Y-43757521D01*
X47703024Y-43756001D01*
X47680579Y-43754717D01*
X47658734Y-43755926D01*
X47652649Y-43757435D01*
X45620687Y-43757435D01*
X45621336Y-43757217D01*
X45617596Y-43756066D01*
X45596087Y-43754845D01*
X45584379Y-43756066D01*
X45580881Y-43757891D01*
X45498947Y-43757891D01*
X45568486Y-43750510D01*
X45647315Y-43750510D01*
X45656590Y-43751668D01*
X45667422Y-43751883D01*
X45683387Y-43751308D01*
X45687121Y-43750053D01*
X47748610Y-43750053D01*
X47755739Y-43751152D01*
X47774536Y-43751606D01*
X47774862Y-43751607D01*
X47794471Y-43751221D01*
X47803096Y-43750140D01*
X47798984Y-43748620D01*
X47776540Y-43747335D01*
X47754695Y-43748544D01*
X47748610Y-43750053D01*
X45687121Y-43750053D01*
X45687770Y-43749835D01*
X45684031Y-43748684D01*
X45662521Y-43747463D01*
X45650813Y-43748684D01*
X45647315Y-43750510D01*
X45568486Y-43750510D01*
X45638034Y-43743128D01*
X45721131Y-43743128D01*
X45730405Y-43744287D01*
X45741238Y-43744502D01*
X45757203Y-43743926D01*
X45760937Y-43742672D01*
X47844570Y-43742672D01*
X47851700Y-43743770D01*
X47870496Y-43744224D01*
X47870822Y-43744225D01*
X47890431Y-43743840D01*
X47899056Y-43742758D01*
X47894944Y-43741238D01*
X47872500Y-43739953D01*
X47850655Y-43741163D01*
X47844570Y-43742672D01*
X45760937Y-43742672D01*
X45761586Y-43742454D01*
X45757846Y-43741303D01*
X45736336Y-43740082D01*
X45724629Y-43741303D01*
X45721131Y-43743128D01*
X45638034Y-43743128D01*
X45709664Y-43735525D01*
X45789733Y-43735525D01*
X45797711Y-43736687D01*
X45811363Y-43737019D01*
X45828868Y-43736550D01*
X45834999Y-43735290D01*
X47947912Y-43735290D01*
X47955042Y-43736389D01*
X47973838Y-43736843D01*
X47974164Y-43736843D01*
X47993773Y-43736458D01*
X48002398Y-43735377D01*
X47998287Y-43733856D01*
X47975842Y-43732572D01*
X47953997Y-43733781D01*
X47947912Y-43735290D01*
X45834999Y-43735290D01*
X45835267Y-43735235D01*
X45831764Y-43733935D01*
X45811513Y-43732605D01*
X45794856Y-43733834D01*
X45789733Y-43735525D01*
X45709664Y-43735525D01*
X45779203Y-43728144D01*
X45863549Y-43728144D01*
X45871527Y-43729306D01*
X45885178Y-43729638D01*
X45902684Y-43729169D01*
X45909064Y-43727857D01*
X48051636Y-43727857D01*
X48059172Y-43728915D01*
X48078161Y-43729380D01*
X48081197Y-43729387D01*
X48101477Y-43729009D01*
X48110506Y-43728012D01*
X48106631Y-43726601D01*
X48105187Y-43726409D01*
X48079304Y-43725188D01*
X48057207Y-43726409D01*
X48051636Y-43727857D01*
X45909064Y-43727857D01*
X45909083Y-43727853D01*
X45905579Y-43726553D01*
X45885329Y-43725224D01*
X45868671Y-43726452D01*
X45863549Y-43728144D01*
X45779203Y-43728144D01*
X45848751Y-43720762D01*
X45937365Y-43720762D01*
X45945343Y-43721924D01*
X45958994Y-43722256D01*
X45976500Y-43721787D01*
X45982899Y-43720472D01*
X45982791Y-43720432D01*
X48155297Y-43720432D01*
X48163232Y-43721457D01*
X48182452Y-43721933D01*
X48188230Y-43721945D01*
X48209179Y-43721576D01*
X48218640Y-43720650D01*
X48215160Y-43719348D01*
X48212055Y-43718981D01*
X48185988Y-43717799D01*
X48161233Y-43718938D01*
X48160384Y-43719040D01*
X48155297Y-43720432D01*
X45982791Y-43720432D01*
X45979395Y-43719171D01*
X45959144Y-43717842D01*
X45942487Y-43719071D01*
X45937365Y-43720762D01*
X45848751Y-43720762D01*
X45918299Y-43713380D01*
X46011180Y-43713380D01*
X46019159Y-43714543D01*
X46032810Y-43714875D01*
X46050316Y-43714406D01*
X46056714Y-43713090D01*
X46056609Y-43713051D01*
X48273402Y-43713051D01*
X48281337Y-43714075D01*
X48300557Y-43714551D01*
X48306335Y-43714564D01*
X48327284Y-43714195D01*
X48336746Y-43713269D01*
X48333266Y-43711967D01*
X48330161Y-43711599D01*
X48304093Y-43710418D01*
X48279338Y-43711557D01*
X48278490Y-43711658D01*
X48273402Y-43713051D01*
X46056609Y-43713051D01*
X46053211Y-43711790D01*
X46032960Y-43710461D01*
X46016303Y-43711689D01*
X46011180Y-43713380D01*
X45918299Y-43713380D01*
X45948541Y-43710170D01*
X45993379Y-43705999D01*
X46084996Y-43705999D01*
X46092974Y-43707161D01*
X46106626Y-43707493D01*
X46124131Y-43707024D01*
X46130530Y-43705708D01*
X46130096Y-43705547D01*
X48393958Y-43705547D01*
X48400687Y-43706552D01*
X48419098Y-43707080D01*
X48428131Y-43707123D01*
X48450310Y-43706802D01*
X48461353Y-43705948D01*
X48459720Y-43704721D01*
X48455812Y-43704227D01*
X48428095Y-43703033D01*
X48400450Y-43704227D01*
X48393958Y-43705547D01*
X46130096Y-43705547D01*
X46127027Y-43704408D01*
X46106776Y-43703079D01*
X46090119Y-43704308D01*
X46084996Y-43705999D01*
X45993379Y-43705999D01*
X46072735Y-43698617D01*
X46166194Y-43698617D01*
X46174172Y-43699780D01*
X46187823Y-43700112D01*
X46205329Y-43699643D01*
X46211727Y-43698327D01*
X46211021Y-43698065D01*
X48521991Y-43698065D01*
X48527548Y-43699048D01*
X48545119Y-43699612D01*
X48557309Y-43699692D01*
X48580665Y-43699412D01*
X48593209Y-43698620D01*
X48593332Y-43697462D01*
X48588875Y-43696857D01*
X48562670Y-43695662D01*
X48534010Y-43696475D01*
X48529823Y-43696808D01*
X48521991Y-43698065D01*
X46211021Y-43698065D01*
X46208224Y-43697027D01*
X46187973Y-43695698D01*
X46171316Y-43696926D01*
X46166194Y-43698617D01*
X46072735Y-43698617D01*
X46152080Y-43691236D01*
X46247391Y-43691236D01*
X46255369Y-43692398D01*
X46269020Y-43692730D01*
X46286526Y-43692261D01*
X46292925Y-43690945D01*
X46292141Y-43690654D01*
X48655140Y-43690654D01*
X48661099Y-43691608D01*
X48678927Y-43692169D01*
X48693868Y-43692262D01*
X48717821Y-43691985D01*
X48730732Y-43691239D01*
X48731154Y-43690156D01*
X48725239Y-43689436D01*
X48695843Y-43688275D01*
X48665601Y-43689182D01*
X48662496Y-43689436D01*
X48655140Y-43690654D01*
X46292141Y-43690654D01*
X46289421Y-43689645D01*
X46269170Y-43688316D01*
X46252513Y-43689544D01*
X46247391Y-43691236D01*
X46152080Y-43691236D01*
X46232210Y-43683782D01*
X46321648Y-43683782D01*
X46330031Y-43684895D01*
X46346527Y-43685248D01*
X46364750Y-43684790D01*
X46371580Y-43683598D01*
X46370139Y-43683166D01*
X48798265Y-43683166D01*
X48803486Y-43684074D01*
X48820733Y-43684650D01*
X48841499Y-43684799D01*
X48867124Y-43684555D01*
X48881784Y-43683895D01*
X48884112Y-43682927D01*
X48876562Y-43682034D01*
X48845608Y-43680907D01*
X48813074Y-43681595D01*
X48806437Y-43682034D01*
X48798265Y-43683166D01*
X46370139Y-43683166D01*
X46366826Y-43682173D01*
X46342983Y-43680937D01*
X46326228Y-43682173D01*
X46321648Y-43683782D01*
X46232210Y-43683782D01*
X46310792Y-43676472D01*
X46409785Y-43676472D01*
X46417764Y-43677635D01*
X46431415Y-43677967D01*
X46448921Y-43677498D01*
X46455319Y-43676182D01*
X46454009Y-43675696D01*
X48956193Y-43675696D01*
X48960707Y-43676562D01*
X48977379Y-43677143D01*
X49003894Y-43677347D01*
X49031103Y-43677130D01*
X49047414Y-43676539D01*
X49051525Y-43675666D01*
X49042647Y-43674636D01*
X49010234Y-43673543D01*
X48975610Y-43674064D01*
X48965141Y-43674636D01*
X48956193Y-43675696D01*
X46454009Y-43675696D01*
X46451816Y-43674882D01*
X46431565Y-43673553D01*
X46414908Y-43674781D01*
X46409785Y-43676472D01*
X46310792Y-43676472D01*
X46390912Y-43669019D01*
X46491424Y-43669019D01*
X46499808Y-43670132D01*
X46516303Y-43670485D01*
X46534527Y-43670027D01*
X46541357Y-43668835D01*
X46539373Y-43668240D01*
X49128920Y-43668240D01*
X49132751Y-43669068D01*
X49148857Y-43669648D01*
X49175994Y-43669900D01*
X49181052Y-43669905D01*
X49209770Y-43669710D01*
X49227648Y-43669175D01*
X49233442Y-43668380D01*
X49225909Y-43667403D01*
X49223496Y-43667242D01*
X49189705Y-43666182D01*
X49153152Y-43666571D01*
X49138608Y-43667242D01*
X49128920Y-43668240D01*
X46539373Y-43668240D01*
X46536602Y-43667409D01*
X46512759Y-43666174D01*
X46496004Y-43667409D01*
X46491424Y-43669019D01*
X46390912Y-43669019D01*
X46470268Y-43661637D01*
X46580003Y-43661637D01*
X46588387Y-43662750D01*
X46604882Y-43663103D01*
X46623106Y-43662645D01*
X46629936Y-43661454D01*
X46627592Y-43660751D01*
X49326724Y-43660751D01*
X49328883Y-43661528D01*
X49343585Y-43662103D01*
X49369719Y-43662412D01*
X49384045Y-43662447D01*
X49415106Y-43662284D01*
X49435597Y-43661821D01*
X49444286Y-43661121D01*
X49443063Y-43660875D01*
X50996293Y-43660875D01*
X50999736Y-43661721D01*
X51015549Y-43662308D01*
X51042537Y-43662552D01*
X51044899Y-43662554D01*
X51073094Y-43662357D01*
X51090641Y-43661800D01*
X51091247Y-43661709D01*
X52307664Y-43661709D01*
X52315642Y-43662872D01*
X52329294Y-43663204D01*
X52346799Y-43662735D01*
X52353198Y-43661419D01*
X52349694Y-43660119D01*
X52329444Y-43658790D01*
X52312786Y-43660018D01*
X52307664Y-43661709D01*
X51091247Y-43661709D01*
X51096193Y-43660966D01*
X51088400Y-43659939D01*
X51087613Y-43659882D01*
X51056727Y-43658807D01*
X51021988Y-43659144D01*
X51006416Y-43659852D01*
X50996293Y-43660875D01*
X49443063Y-43660875D01*
X49439942Y-43660247D01*
X49434178Y-43659858D01*
X49400581Y-43658850D01*
X49362423Y-43659012D01*
X49338217Y-43659834D01*
X49326724Y-43660751D01*
X46627592Y-43660751D01*
X46625181Y-43660028D01*
X46601338Y-43658792D01*
X46584583Y-43660028D01*
X46580003Y-43661637D01*
X46470268Y-43661637D01*
X46522739Y-43656756D01*
X46556112Y-43654093D01*
X46663518Y-43654093D01*
X46670648Y-43655192D01*
X46689444Y-43655645D01*
X46689770Y-43655646D01*
X46709379Y-43655261D01*
X46718004Y-43654179D01*
X46715453Y-43653236D01*
X49557403Y-43653236D01*
X49557779Y-43653932D01*
X49570898Y-43654478D01*
X49595751Y-43654831D01*
X49627637Y-43654945D01*
X49662614Y-43654817D01*
X49687107Y-43654449D01*
X49700017Y-43653887D01*
X49700200Y-43653310D01*
X50761890Y-43653310D01*
X50763808Y-43654044D01*
X50778273Y-43654603D01*
X50804177Y-43654933D01*
X50827143Y-43655000D01*
X50860028Y-43654851D01*
X50882209Y-43654438D01*
X50884037Y-43654328D01*
X52226467Y-43654328D01*
X52234445Y-43655490D01*
X52248096Y-43655822D01*
X52265602Y-43655353D01*
X52272001Y-43654037D01*
X52268497Y-43652737D01*
X52248246Y-43651408D01*
X52231589Y-43652637D01*
X52226467Y-43654328D01*
X50884037Y-43654328D01*
X50892579Y-43653814D01*
X50890028Y-43653033D01*
X50880659Y-43652453D01*
X50843115Y-43651482D01*
X50801505Y-43651612D01*
X50773627Y-43652453D01*
X50761890Y-43653310D01*
X49700200Y-43653310D01*
X49700242Y-43653176D01*
X49688886Y-43652453D01*
X49651641Y-43651528D01*
X49608991Y-43651529D01*
X49570780Y-43652436D01*
X49557403Y-43653236D01*
X46715453Y-43653236D01*
X46713892Y-43652659D01*
X46691448Y-43651375D01*
X46669603Y-43652584D01*
X46663518Y-43654093D01*
X46556112Y-43654093D01*
X46646581Y-43646874D01*
X46757161Y-43646874D01*
X46765544Y-43647987D01*
X46782040Y-43648340D01*
X46800263Y-43647882D01*
X46807093Y-43646691D01*
X46804849Y-43646018D01*
X49958543Y-43646018D01*
X49968487Y-43646299D01*
X49991006Y-43646546D01*
X50025553Y-43646752D01*
X50071582Y-43646914D01*
X50128546Y-43647026D01*
X50195897Y-43647083D01*
X50229235Y-43647089D01*
X50301055Y-43647059D01*
X50362732Y-43646971D01*
X50398059Y-43646874D01*
X52138329Y-43646874D01*
X52146713Y-43647987D01*
X52163208Y-43648340D01*
X52181432Y-43647882D01*
X52188262Y-43646691D01*
X52183507Y-43645265D01*
X52159664Y-43644029D01*
X52142909Y-43645265D01*
X52138329Y-43646874D01*
X50398059Y-43646874D01*
X50413719Y-43646831D01*
X50453469Y-43646643D01*
X50481435Y-43646414D01*
X50497070Y-43646148D01*
X50499828Y-43645850D01*
X50489161Y-43645526D01*
X50464522Y-43645180D01*
X50448837Y-43645020D01*
X50377510Y-43644518D01*
X50296702Y-43644235D01*
X50211697Y-43644171D01*
X50127777Y-43644325D01*
X50050223Y-43644698D01*
X50009634Y-43645020D01*
X49978570Y-43645374D01*
X49961722Y-43645708D01*
X49958543Y-43646018D01*
X46804849Y-43646018D01*
X46802339Y-43645265D01*
X46778496Y-43644029D01*
X46761740Y-43645265D01*
X46757161Y-43646874D01*
X46646581Y-43646874D01*
X46741136Y-43639329D01*
X46848058Y-43639329D01*
X46855187Y-43640428D01*
X46873984Y-43640882D01*
X46874310Y-43640883D01*
X46893918Y-43640498D01*
X46901937Y-43639492D01*
X52049750Y-43639492D01*
X52058134Y-43640605D01*
X52074629Y-43640958D01*
X52092853Y-43640501D01*
X52099683Y-43639309D01*
X52094929Y-43637883D01*
X52071085Y-43636648D01*
X52054330Y-43637883D01*
X52049750Y-43639492D01*
X46901937Y-43639492D01*
X46902543Y-43639416D01*
X46898432Y-43637896D01*
X46875987Y-43636611D01*
X46854142Y-43637821D01*
X46848058Y-43639329D01*
X46741136Y-43639329D01*
X46833636Y-43631948D01*
X46944018Y-43631948D01*
X46951148Y-43633047D01*
X46969944Y-43633501D01*
X46970270Y-43633501D01*
X46989879Y-43633116D01*
X46998504Y-43632035D01*
X46998269Y-43631948D01*
X51963489Y-43631948D01*
X51970619Y-43633047D01*
X51989415Y-43633501D01*
X51989741Y-43633501D01*
X52009350Y-43633116D01*
X52017975Y-43632035D01*
X52013863Y-43630514D01*
X51991419Y-43629230D01*
X51969574Y-43630439D01*
X51963489Y-43631948D01*
X46998269Y-43631948D01*
X46994392Y-43630514D01*
X46971948Y-43629230D01*
X46950103Y-43630439D01*
X46944018Y-43631948D01*
X46833636Y-43631948D01*
X46926787Y-43624515D01*
X47040360Y-43624515D01*
X47047896Y-43625573D01*
X47066885Y-43626038D01*
X47069921Y-43626044D01*
X47090201Y-43625666D01*
X47098687Y-43624729D01*
X51872593Y-43624729D01*
X51880976Y-43625842D01*
X51897471Y-43626195D01*
X51915695Y-43625737D01*
X51922525Y-43624546D01*
X51917771Y-43623120D01*
X51893927Y-43621884D01*
X51877172Y-43623120D01*
X51872593Y-43624729D01*
X47098687Y-43624729D01*
X47099230Y-43624669D01*
X47095355Y-43623259D01*
X47093911Y-43623067D01*
X47068028Y-43621846D01*
X47045931Y-43623067D01*
X47040360Y-43624515D01*
X46926787Y-43624515D01*
X47019299Y-43617133D01*
X47143702Y-43617133D01*
X47151238Y-43618192D01*
X47170227Y-43618657D01*
X47173263Y-43618663D01*
X47193543Y-43618285D01*
X47202572Y-43617288D01*
X47202146Y-43617133D01*
X51771950Y-43617133D01*
X51779486Y-43618192D01*
X51798475Y-43618657D01*
X51801511Y-43618663D01*
X51821790Y-43618285D01*
X51830820Y-43617288D01*
X51826945Y-43615877D01*
X51825501Y-43615686D01*
X51799617Y-43614464D01*
X51777521Y-43615686D01*
X51771950Y-43617133D01*
X47202146Y-43617133D01*
X47198697Y-43615877D01*
X47197253Y-43615686D01*
X47171370Y-43614464D01*
X47149273Y-43615686D01*
X47143702Y-43617133D01*
X47019299Y-43617133D01*
X47095519Y-43611051D01*
X47115124Y-43609751D01*
X47247044Y-43609751D01*
X47254580Y-43610810D01*
X47273569Y-43611275D01*
X47276605Y-43611281D01*
X47296885Y-43610903D01*
X47305914Y-43609906D01*
X47305488Y-43609751D01*
X51675989Y-43609751D01*
X51683525Y-43610810D01*
X51702514Y-43611275D01*
X51705550Y-43611281D01*
X51725830Y-43610903D01*
X51734859Y-43609906D01*
X51730984Y-43608496D01*
X51729541Y-43608304D01*
X51703657Y-43607083D01*
X51681560Y-43608304D01*
X51675989Y-43609751D01*
X47305488Y-43609751D01*
X47302039Y-43608496D01*
X47300595Y-43608304D01*
X47274712Y-43607083D01*
X47252615Y-43608304D01*
X47247044Y-43609751D01*
X47115124Y-43609751D01*
X47227085Y-43602327D01*
X47350705Y-43602327D01*
X47358640Y-43603352D01*
X47377861Y-43603827D01*
X47383638Y-43603840D01*
X47404587Y-43603471D01*
X47414049Y-43602545D01*
X47413581Y-43602370D01*
X51572647Y-43602370D01*
X51580183Y-43603429D01*
X51599172Y-43603894D01*
X51602208Y-43603900D01*
X51622488Y-43603522D01*
X51631517Y-43602525D01*
X51627642Y-43601114D01*
X51626198Y-43600923D01*
X51600315Y-43599701D01*
X51578218Y-43600923D01*
X51572647Y-43602370D01*
X47413581Y-43602370D01*
X47410569Y-43601243D01*
X47407464Y-43600875D01*
X47381396Y-43599694D01*
X47356641Y-43600833D01*
X47355793Y-43600935D01*
X47350705Y-43602327D01*
X47227085Y-43602327D01*
X47340237Y-43594824D01*
X47463879Y-43594824D01*
X47470609Y-43595829D01*
X47489020Y-43596357D01*
X47498053Y-43596399D01*
X47520232Y-43596078D01*
X47531275Y-43595224D01*
X47530905Y-43594946D01*
X51462242Y-43594946D01*
X51470178Y-43595970D01*
X51489398Y-43596446D01*
X51495176Y-43596459D01*
X51516125Y-43596090D01*
X51525586Y-43595164D01*
X51522106Y-43593861D01*
X51519001Y-43593494D01*
X51492933Y-43592313D01*
X51468179Y-43593452D01*
X51467330Y-43593553D01*
X51462242Y-43594946D01*
X47530905Y-43594946D01*
X47529642Y-43593997D01*
X47525734Y-43593504D01*
X47498016Y-43592309D01*
X47470372Y-43593504D01*
X47463879Y-43594824D01*
X47340237Y-43594824D01*
X47451564Y-43587442D01*
X47581985Y-43587442D01*
X47588714Y-43588447D01*
X47607125Y-43588975D01*
X47616158Y-43589017D01*
X47638337Y-43588697D01*
X47649380Y-43587843D01*
X47649009Y-43587564D01*
X51344137Y-43587564D01*
X51352073Y-43588589D01*
X51371293Y-43589064D01*
X51377070Y-43589077D01*
X51398019Y-43588708D01*
X51407481Y-43587782D01*
X51404001Y-43586480D01*
X51400896Y-43586112D01*
X51374828Y-43584931D01*
X51350073Y-43586070D01*
X51349225Y-43586172D01*
X51344137Y-43587564D01*
X47649009Y-43587564D01*
X47647747Y-43586616D01*
X47643839Y-43586122D01*
X47616121Y-43584928D01*
X47588477Y-43586122D01*
X47581985Y-43587442D01*
X47451564Y-43587442D01*
X47564399Y-43579960D01*
X47710018Y-43579960D01*
X47715575Y-43580943D01*
X47733146Y-43581507D01*
X47745335Y-43581587D01*
X47768691Y-43581307D01*
X47781236Y-43580515D01*
X47781284Y-43580061D01*
X51221101Y-43580061D01*
X51227831Y-43581065D01*
X51246242Y-43581594D01*
X51255274Y-43581636D01*
X51277454Y-43581315D01*
X51288497Y-43580461D01*
X51286864Y-43579234D01*
X51282955Y-43578740D01*
X51255238Y-43577546D01*
X51227593Y-43578740D01*
X51221101Y-43580061D01*
X47781284Y-43580061D01*
X47781358Y-43579357D01*
X47776902Y-43578752D01*
X47750697Y-43577557D01*
X47722037Y-43578370D01*
X47717850Y-43578703D01*
X47710018Y-43579960D01*
X47564399Y-43579960D01*
X47664747Y-43573306D01*
X47677832Y-43572549D01*
X47835785Y-43572549D01*
X47841744Y-43573503D01*
X47859572Y-43574063D01*
X47874513Y-43574157D01*
X47898467Y-43573879D01*
X47911378Y-43573134D01*
X47911594Y-43572578D01*
X51090780Y-43572578D01*
X51096336Y-43573561D01*
X51113908Y-43574126D01*
X51126097Y-43574206D01*
X51149453Y-43573925D01*
X51161997Y-43573134D01*
X51162120Y-43571976D01*
X51157664Y-43571370D01*
X51131458Y-43570176D01*
X51102798Y-43570988D01*
X51098611Y-43571322D01*
X51090780Y-43572578D01*
X47911594Y-43572578D01*
X47911799Y-43572051D01*
X47905885Y-43571331D01*
X47876488Y-43570170D01*
X47846246Y-43571077D01*
X47843141Y-43571331D01*
X47835785Y-43572549D01*
X47677832Y-43572549D01*
X47793316Y-43565868D01*
X47808232Y-43565167D01*
X47976035Y-43565167D01*
X47981994Y-43566121D01*
X47999822Y-43566682D01*
X48014763Y-43566775D01*
X48038717Y-43566498D01*
X48051628Y-43565752D01*
X48051897Y-43565061D01*
X50938921Y-43565061D01*
X50944143Y-43565969D01*
X50961390Y-43566545D01*
X50982156Y-43566693D01*
X51007781Y-43566450D01*
X51022441Y-43565790D01*
X51024768Y-43564822D01*
X51017219Y-43563929D01*
X50986265Y-43562802D01*
X50953731Y-43563490D01*
X50947094Y-43563929D01*
X50938921Y-43565061D01*
X48051897Y-43565061D01*
X48052049Y-43564669D01*
X48046135Y-43563950D01*
X48016738Y-43562788D01*
X47986496Y-43563695D01*
X47983391Y-43563950D01*
X47976035Y-43565167D01*
X47808232Y-43565167D01*
X47967055Y-43557703D01*
X48126303Y-43557703D01*
X48131127Y-43558635D01*
X48148100Y-43559217D01*
X48166085Y-43559353D01*
X48191141Y-43559107D01*
X48205449Y-43558411D01*
X48207049Y-43557610D01*
X50779242Y-43557610D01*
X50783362Y-43558498D01*
X50799750Y-43559086D01*
X50823452Y-43559277D01*
X50850116Y-43559058D01*
X50866086Y-43558439D01*
X50869942Y-43557518D01*
X50862453Y-43556557D01*
X50833031Y-43555445D01*
X50800171Y-43555902D01*
X50788637Y-43556522D01*
X50779242Y-43557610D01*
X48207049Y-43557610D01*
X48207501Y-43557384D01*
X48201370Y-43556579D01*
X48173503Y-43555427D01*
X48142660Y-43556038D01*
X48134936Y-43556538D01*
X48126303Y-43557703D01*
X47967055Y-43557703D01*
X48126090Y-43550229D01*
X48284270Y-43550229D01*
X48288390Y-43551116D01*
X48304777Y-43551704D01*
X48328480Y-43551895D01*
X48355144Y-43551677D01*
X48371114Y-43551057D01*
X48374969Y-43550136D01*
X48374571Y-43550085D01*
X50585936Y-43550085D01*
X50588727Y-43550895D01*
X50603979Y-43551477D01*
X50630541Y-43551758D01*
X50638913Y-43551773D01*
X50668570Y-43551595D01*
X50687621Y-43551089D01*
X50694780Y-43550327D01*
X50688761Y-43549383D01*
X50685337Y-43549145D01*
X50653062Y-43548105D01*
X50616564Y-43548345D01*
X50596758Y-43549119D01*
X50585936Y-43550085D01*
X48374571Y-43550085D01*
X48367481Y-43549176D01*
X48338058Y-43548063D01*
X48305198Y-43548521D01*
X48293665Y-43549141D01*
X48284270Y-43550229D01*
X48126090Y-43550229D01*
X48289616Y-43542544D01*
X48476656Y-43542544D01*
X48477975Y-43543252D01*
X48491913Y-43543801D01*
X48517399Y-43544144D01*
X48546236Y-43544239D01*
X48580411Y-43544101D01*
X48603919Y-43543717D01*
X48615688Y-43543136D01*
X48614904Y-43542586D01*
X50355903Y-43542586D01*
X50357821Y-43543321D01*
X50372286Y-43543879D01*
X50398191Y-43544209D01*
X50421156Y-43544276D01*
X50454041Y-43544127D01*
X50476223Y-43543714D01*
X50486592Y-43543091D01*
X50484042Y-43542309D01*
X50474673Y-43541729D01*
X50437128Y-43540758D01*
X50395519Y-43540889D01*
X50367640Y-43541729D01*
X50355903Y-43542586D01*
X48614904Y-43542586D01*
X48614645Y-43542404D01*
X48603443Y-43541723D01*
X48564748Y-43540778D01*
X48521639Y-43540852D01*
X48489029Y-43541723D01*
X48476656Y-43542544D01*
X48289616Y-43542544D01*
X48372772Y-43538636D01*
X48482086Y-43535564D01*
X48774141Y-43535564D01*
X48785403Y-43536052D01*
X48808643Y-43536417D01*
X48842933Y-43536634D01*
X48874716Y-43536683D01*
X48916274Y-43536588D01*
X48947208Y-43536327D01*
X48966646Y-43535926D01*
X48971489Y-43535574D01*
X50021362Y-43535574D01*
X50032333Y-43536067D01*
X50055337Y-43536434D01*
X50089465Y-43536648D01*
X50118512Y-43536693D01*
X50159673Y-43536598D01*
X50190329Y-43536332D01*
X50209569Y-43535921D01*
X50216483Y-43535394D01*
X50210162Y-43534776D01*
X50197864Y-43534320D01*
X50153003Y-43533502D01*
X50102169Y-43533376D01*
X50054136Y-43533944D01*
X50039160Y-43534320D01*
X50023334Y-43534983D01*
X50021362Y-43535574D01*
X48971489Y-43535574D01*
X48973718Y-43535412D01*
X48967554Y-43534809D01*
X48953659Y-43534314D01*
X48908616Y-43533517D01*
X48858195Y-43533367D01*
X48810532Y-43533864D01*
X48791265Y-43534324D01*
X48775785Y-43534979D01*
X48774141Y-43535564D01*
X48482086Y-43535564D01*
X48762273Y-43527690D01*
X49286300Y-43527690D01*
X49286662Y-43528033D01*
X49299969Y-43528337D01*
X49325616Y-43528595D01*
X49362997Y-43528799D01*
X49411507Y-43528943D01*
X49470539Y-43529020D01*
X49505841Y-43529031D01*
X49570198Y-43528993D01*
X49624353Y-43528883D01*
X49667701Y-43528710D01*
X49699635Y-43528479D01*
X49719550Y-43528199D01*
X49726840Y-43527876D01*
X49720899Y-43527518D01*
X49701122Y-43527131D01*
X49684844Y-43526917D01*
X49619912Y-43526362D01*
X49546069Y-43526082D01*
X49469165Y-43526076D01*
X49395050Y-43526343D01*
X49329574Y-43526885D01*
X49326838Y-43526917D01*
X49299490Y-43527316D01*
X49286300Y-43527690D01*
X48762273Y-43527690D01*
X48948306Y-43522462D01*
X49521876Y-43517381D01*
X50095442Y-43523431D01*
X50670964Y-43540649D01*
X51250400Y-43569072D01*
X51835709Y-43608735D01*
X52336675Y-43651073D01*
X52396841Y-43656553D01*
X52453795Y-43661637D01*
X52505476Y-43666150D01*
X52549827Y-43669914D01*
X52584790Y-43672755D01*
X52608306Y-43674497D01*
X52615885Y-43674934D01*
X52651503Y-43676387D01*
X52717581Y-43507099D01*
X52783658Y-43337810D01*
X52488196Y-42553447D01*
X52449425Y-42450470D01*
X52412140Y-42351339D01*
X52376668Y-42256931D01*
X52343338Y-42168121D01*
X52312476Y-42085787D01*
X52284410Y-42010804D01*
X52259469Y-41944050D01*
X52237980Y-41886400D01*
X52220269Y-41838731D01*
X52206666Y-41801919D01*
X52197498Y-41776842D01*
X52193092Y-41764374D01*
X52192734Y-41763131D01*
X52199840Y-41761804D01*
X52220055Y-41760668D01*
X52251727Y-41759751D01*
X52293203Y-41759080D01*
X52342831Y-41758682D01*
X52398958Y-41758585D01*
X52456626Y-41758794D01*
X52720517Y-41760409D01*
X52729392Y-41780938D01*
X52733190Y-41791286D01*
X52741247Y-41814439D01*
X52753159Y-41849199D01*
X52768519Y-41894364D01*
X52786922Y-41948735D01*
X52807962Y-42011112D01*
X52831233Y-42080294D01*
X52856329Y-42155081D01*
X52882845Y-42234273D01*
X52898092Y-42279886D01*
X52925017Y-42360216D01*
X52950654Y-42436185D01*
X52974613Y-42506672D01*
X52996506Y-42570555D01*
X53015941Y-42626713D01*
X53032532Y-42674026D01*
X53045887Y-42711372D01*
X53055617Y-42737629D01*
X53061333Y-42751678D01*
X53062684Y-42753773D01*
X53065643Y-42746151D01*
X53072656Y-42725584D01*
X53083355Y-42693214D01*
X53097371Y-42650184D01*
X53114338Y-42597635D01*
X53133886Y-42536708D01*
X53155650Y-42468544D01*
X53179261Y-42394287D01*
X53204351Y-42315077D01*
X53222721Y-42256901D01*
X53377991Y-41764559D01*
X53638820Y-41762619D01*
X53707775Y-41762141D01*
X53763372Y-41761880D01*
X53807015Y-41761897D01*
X53840108Y-41762251D01*
X53864056Y-41763005D01*
X53880264Y-41764216D01*
X53890134Y-41765948D01*
X53895072Y-41768259D01*
X53896482Y-41771209D01*
X53896120Y-41773691D01*
X53893179Y-41782043D01*
X53885401Y-41803441D01*
X53873078Y-41837087D01*
X53856507Y-41882184D01*
X53835981Y-41937936D01*
X53811794Y-42003544D01*
X53784240Y-42078212D01*
X53753615Y-42161144D01*
X53720211Y-42251540D01*
X53684323Y-42348606D01*
X53646246Y-42451543D01*
X53606273Y-42559555D01*
X53564700Y-42671843D01*
X53533537Y-42755980D01*
X53491043Y-42870734D01*
X53449980Y-42981700D01*
X53410639Y-43088088D01*
X53373311Y-43189110D01*
X53338286Y-43283976D01*
X53305855Y-43371897D01*
X53276308Y-43452084D01*
X53249937Y-43523749D01*
X53227031Y-43586103D01*
X53207881Y-43638355D01*
X53192778Y-43679718D01*
X53182013Y-43709402D01*
X53175875Y-43726619D01*
X53174484Y-43730869D01*
X53181409Y-43733583D01*
X53200511Y-43737380D01*
X53229278Y-43741852D01*
X53265198Y-43746592D01*
X53287053Y-43749160D01*
X53332324Y-43754304D01*
X53385660Y-43760443D01*
X53445370Y-43767375D01*
X53509766Y-43774899D01*
X53577159Y-43782815D01*
X53645859Y-43790921D01*
X53714177Y-43799018D01*
X53780424Y-43806903D01*
X53842911Y-43814377D01*
X53899948Y-43821238D01*
X53949846Y-43827285D01*
X53990916Y-43832319D01*
X54021469Y-43836137D01*
X54039816Y-43838540D01*
X54043664Y-43839110D01*
X54059979Y-43843956D01*
X54067583Y-43850360D01*
X54067654Y-43850979D01*
X54062202Y-43855444D01*
X54055647Y-43854208D01*
X54042713Y-43854071D01*
X54030956Y-43860194D01*
X54026103Y-43869004D01*
X54027074Y-43872028D01*
X54024159Y-43879554D01*
X54012221Y-43889818D01*
X54011678Y-43890177D01*
X54005305Y-43893785D01*
X53997525Y-43896389D01*
X53986572Y-43897964D01*
X53970678Y-43898484D01*
X53948078Y-43897923D01*
X53917005Y-43896255D01*
X53875692Y-43893455D01*
X53853152Y-43891781D01*
X53945858Y-43891781D01*
X53972636Y-43892962D01*
X53998084Y-43889578D01*
X54009543Y-43881226D01*
X54015882Y-43872515D01*
X54012483Y-43873957D01*
X54008572Y-43876932D01*
X53993802Y-43883728D01*
X53973059Y-43888490D01*
X53971664Y-43888669D01*
X53945858Y-43891781D01*
X53853152Y-43891781D01*
X53822372Y-43889495D01*
X53788449Y-43886903D01*
G37*
G36*
X54050383Y-43861784D02*
G01*
X54049201Y-43864618D01*
X54039422Y-43871723D01*
X54037257Y-43871999D01*
X54033255Y-43867451D01*
X54034437Y-43864618D01*
X54044216Y-43857512D01*
X54046381Y-43857236D01*
X54050383Y-43861784D01*
G37*
G36*
X42799135Y-41222014D02*
G01*
X42918644Y-41222146D01*
X43024478Y-41222594D01*
X43117725Y-41223434D01*
X43199472Y-41224739D01*
X43270807Y-41226586D01*
X43332815Y-41229050D01*
X43386585Y-41232207D01*
X43433203Y-41236132D01*
X43473756Y-41240899D01*
X43509332Y-41246586D01*
X43541017Y-41253266D01*
X43569899Y-41261016D01*
X43597065Y-41269910D01*
X43621076Y-41279009D01*
X43695159Y-41316120D01*
X43765276Y-41365639D01*
X43829227Y-41425316D01*
X43884815Y-41492901D01*
X43929840Y-41566144D01*
X43953887Y-41619552D01*
X43971609Y-41669043D01*
X43984647Y-41714217D01*
X43993614Y-41758932D01*
X43999126Y-41807045D01*
X44001796Y-41862413D01*
X44002271Y-41923263D01*
X44001810Y-41972786D01*
X44000729Y-42011021D01*
X43998688Y-42041442D01*
X43995347Y-42067520D01*
X43990369Y-42092730D01*
X43983412Y-42120543D01*
X43982746Y-42123035D01*
X43950252Y-42217367D01*
X43905797Y-42303636D01*
X43850045Y-42381068D01*
X43783660Y-42448891D01*
X43707305Y-42506331D01*
X43621645Y-42552615D01*
X43609407Y-42557965D01*
X43574192Y-42571885D01*
X43538320Y-42583618D01*
X43500131Y-42593366D01*
X43457963Y-42601333D01*
X43410155Y-42607720D01*
X43355046Y-42612731D01*
X43290973Y-42616568D01*
X43216275Y-42619435D01*
X43129292Y-42621534D01*
X43082025Y-42622338D01*
X42818134Y-42626353D01*
X42818134Y-42993410D01*
X42818078Y-43081325D01*
X42817856Y-43155668D01*
X42817381Y-43217630D01*
X42816571Y-43268403D01*
X42815340Y-43309179D01*
X42813605Y-43341148D01*
X42811280Y-43365501D01*
X42808282Y-43383431D01*
X42804527Y-43396128D01*
X42799929Y-43404783D01*
X42794405Y-43410588D01*
X42788317Y-43414497D01*
X42777219Y-43416508D01*
X42752888Y-43418260D01*
X42716851Y-43419704D01*
X42670638Y-43420794D01*
X42615775Y-43421482D01*
X42553792Y-43421723D01*
X42553700Y-43421723D01*
X42490448Y-43421671D01*
X42440278Y-43421448D01*
X42401507Y-43420956D01*
X42372455Y-43420094D01*
X42351441Y-43418763D01*
X42336782Y-43416864D01*
X42326798Y-43414297D01*
X42319807Y-43410963D01*
X42315159Y-43407613D01*
X42297733Y-43393502D01*
X42295686Y-42335439D01*
X42295473Y-42211399D01*
X42295319Y-42091268D01*
X42295224Y-41975888D01*
X42295185Y-41866101D01*
X42295202Y-41762750D01*
X42295268Y-41672283D01*
X42814443Y-41672283D01*
X42816479Y-41923260D01*
X42818514Y-42174237D01*
X42972055Y-42174237D01*
X43024768Y-42173819D01*
X43078544Y-42172659D01*
X43129408Y-42170893D01*
X43173385Y-42168659D01*
X43206010Y-42166144D01*
X43243767Y-42161350D01*
X43280487Y-42154979D01*
X43310965Y-42148012D01*
X43324637Y-42143753D01*
X43371244Y-42119027D01*
X43412546Y-42083077D01*
X43444772Y-42039357D01*
X43450690Y-42028188D01*
X43461086Y-42005035D01*
X43467326Y-41984221D01*
X43470420Y-41960450D01*
X43471379Y-41928426D01*
X43471403Y-41919572D01*
X43470782Y-41884940D01*
X43468248Y-41859758D01*
X43462797Y-41838739D01*
X43453424Y-41816598D01*
X43450808Y-41811199D01*
X43419654Y-41763853D01*
X43377670Y-41726442D01*
X43325071Y-41699108D01*
X43262072Y-41681990D01*
X43249727Y-41680016D01*
X43228022Y-41677957D01*
X43194248Y-41676104D01*
X43151101Y-41674542D01*
X43101276Y-41673355D01*
X43047466Y-41672627D01*
X43006364Y-41672433D01*
X42814443Y-41672283D01*
X42295268Y-41672283D01*
X42295272Y-41666677D01*
X42295395Y-41578723D01*
X42295568Y-41499732D01*
X42295791Y-41430546D01*
X42296062Y-41372006D01*
X42296379Y-41324956D01*
X42296741Y-41290237D01*
X42297147Y-41268691D01*
X42297542Y-41261283D01*
X42299285Y-41253522D01*
X42301178Y-41246856D01*
X42304280Y-41241201D01*
X42309651Y-41236474D01*
X42318351Y-41232593D01*
X42331440Y-41229473D01*
X42349978Y-41227033D01*
X42375025Y-41225190D01*
X42407640Y-41223860D01*
X42448884Y-41222960D01*
X42499816Y-41222407D01*
X42561496Y-41222119D01*
X42634985Y-41222013D01*
X42721341Y-41222005D01*
X42799135Y-41222014D01*
G37*
G36*
X50708059Y-42785092D02*
G01*
X50726709Y-42711842D01*
X50754395Y-42647517D01*
X50791888Y-42590220D01*
X50827143Y-42550481D01*
X50873900Y-42508371D01*
X50924548Y-42473070D01*
X50983174Y-42441977D01*
X51028226Y-42422497D01*
X51073233Y-42405566D01*
X51119781Y-42390702D01*
X51169663Y-42377575D01*
X51224672Y-42365857D01*
X51286598Y-42355219D01*
X51357234Y-42345331D01*
X51438373Y-42335864D01*
X51531806Y-42326490D01*
X51570408Y-42322928D01*
X51709241Y-42310371D01*
X51711585Y-42290198D01*
X51709616Y-42255648D01*
X51697891Y-42217530D01*
X51678494Y-42181093D01*
X51658358Y-42156182D01*
X51628883Y-42132019D01*
X51592670Y-42112697D01*
X51547369Y-42097293D01*
X51490631Y-42084887D01*
X51466168Y-42080857D01*
X51369106Y-42072105D01*
X51269556Y-42075479D01*
X51166260Y-42091160D01*
X51057960Y-42119326D01*
X50961432Y-42153065D01*
X50927305Y-42165769D01*
X50895885Y-42176570D01*
X50871079Y-42184176D01*
X50858515Y-42187109D01*
X50834525Y-42190615D01*
X50834525Y-41790964D01*
X50862205Y-41783601D01*
X50894063Y-41775970D01*
X50936641Y-41766963D01*
X50986044Y-41757302D01*
X51038379Y-41747710D01*
X51089753Y-41738909D01*
X51136271Y-41731621D01*
X51161359Y-41728127D01*
X51280849Y-41716326D01*
X51400377Y-41711628D01*
X51517464Y-41713879D01*
X51629632Y-41722925D01*
X51734402Y-41738613D01*
X51829296Y-41760790D01*
X51864544Y-41771646D01*
X51948013Y-41806326D01*
X52020825Y-41851161D01*
X52082845Y-41906016D01*
X52133940Y-41970752D01*
X52173975Y-42045233D01*
X52197876Y-42111493D01*
X52200220Y-42120417D01*
X52202275Y-42130845D01*
X52204067Y-42143777D01*
X52205618Y-42160215D01*
X52206952Y-42181159D01*
X52208091Y-42207609D01*
X52209060Y-42240565D01*
X52209880Y-42281029D01*
X52210577Y-42330001D01*
X52211172Y-42388481D01*
X52211690Y-42457469D01*
X52212153Y-42537967D01*
X52212584Y-42630975D01*
X52213008Y-42737493D01*
X52213116Y-42766608D01*
X52215366Y-43377434D01*
X51712932Y-43377434D01*
X51712932Y-43296236D01*
X51712458Y-43263608D01*
X51711173Y-43237240D01*
X51709283Y-43220110D01*
X51707343Y-43215039D01*
X51699299Y-43219441D01*
X51683374Y-43231026D01*
X51662892Y-43247366D01*
X51661209Y-43248763D01*
X51576547Y-43311544D01*
X51490634Y-43360193D01*
X51403994Y-43394424D01*
X51387278Y-43399334D01*
X51342667Y-43408625D01*
X51288970Y-43415069D01*
X51231218Y-43418459D01*
X51174441Y-43418591D01*
X51123670Y-43415258D01*
X51096570Y-43411197D01*
X51023070Y-43392086D01*
X50959031Y-43364955D01*
X50900412Y-43327753D01*
X50852494Y-43287302D01*
X50796221Y-43224808D01*
X50752080Y-43154386D01*
X50720438Y-43077028D01*
X50701661Y-42993724D01*
X50696117Y-42905465D01*
X50697584Y-42871265D01*
X51211026Y-42871265D01*
X51215757Y-42927529D01*
X51230065Y-42972966D01*
X51254297Y-43008268D01*
X51288799Y-43034130D01*
X51293533Y-43036575D01*
X51343722Y-43054779D01*
X51401323Y-43064628D01*
X51461293Y-43065694D01*
X51518591Y-43057550D01*
X51524316Y-43056125D01*
X51563470Y-43043033D01*
X51605575Y-43024249D01*
X51645568Y-43002390D01*
X51678385Y-42980071D01*
X51688942Y-42971066D01*
X51712932Y-42948554D01*
X51712932Y-42786969D01*
X51712690Y-42739683D01*
X51712013Y-42697572D01*
X51710974Y-42662801D01*
X51709645Y-42637539D01*
X51708100Y-42623953D01*
X51707396Y-42622245D01*
X51698646Y-42622043D01*
X51678150Y-42623393D01*
X51648806Y-42625981D01*
X51613514Y-42629492D01*
X51575171Y-42633612D01*
X51536676Y-42638024D01*
X51500928Y-42642414D01*
X51470825Y-42646468D01*
X51449266Y-42649870D01*
X51444441Y-42650813D01*
X51374142Y-42669532D01*
X51317331Y-42693105D01*
X51273354Y-42722150D01*
X51241558Y-42757284D01*
X51221287Y-42799126D01*
X51211889Y-42848292D01*
X51211026Y-42871265D01*
X50697584Y-42871265D01*
X50697674Y-42869164D01*
X50708059Y-42785092D01*
G37*
G36*
X46680543Y-41238679D02*
G01*
X46784189Y-41239312D01*
X46874198Y-41239958D01*
X46951696Y-41240645D01*
X47017810Y-41241404D01*
X47073666Y-41242263D01*
X47120391Y-41243252D01*
X47159110Y-41244399D01*
X47190951Y-41245735D01*
X47217039Y-41247288D01*
X47238500Y-41249088D01*
X47256462Y-41251164D01*
X47272050Y-41253545D01*
X47275386Y-41254134D01*
X47371040Y-41276624D01*
X47455170Y-41307645D01*
X47528551Y-41347563D01*
X47591959Y-41396742D01*
X47605697Y-41409882D01*
X47652930Y-41464541D01*
X47688199Y-41523388D01*
X47712229Y-41588322D01*
X47725742Y-41661242D01*
X47729510Y-41735033D01*
X47727146Y-41797973D01*
X47719155Y-41852621D01*
X47704190Y-41904818D01*
X47680901Y-41960403D01*
X47674305Y-41974118D01*
X47638527Y-42033155D01*
X47591941Y-42088790D01*
X47538291Y-42137077D01*
X47488286Y-42170314D01*
X47465458Y-42183978D01*
X47449682Y-42195383D01*
X47443634Y-42202528D01*
X47443997Y-42203451D01*
X47453849Y-42207929D01*
X47473585Y-42214504D01*
X47496712Y-42221139D01*
X47558140Y-42242630D01*
X47620008Y-42273368D01*
X47678558Y-42310930D01*
X47730034Y-42352894D01*
X47770679Y-42396837D01*
X47772157Y-42398774D01*
X47789407Y-42423583D01*
X47803175Y-42448782D01*
X47813945Y-42476552D01*
X47822198Y-42509075D01*
X47828419Y-42548532D01*
X47833091Y-42597104D01*
X47836696Y-42656972D01*
X47838512Y-42698329D01*
X47840962Y-42773410D01*
X47841428Y-42835996D01*
X47839403Y-42888279D01*
X47834384Y-42932454D01*
X47825863Y-42970713D01*
X47813336Y-43005250D01*
X47796297Y-43038257D01*
X47774241Y-43071930D01*
X47746662Y-43108460D01*
X47742891Y-43113224D01*
X47692024Y-43167849D01*
X47629818Y-43219377D01*
X47559665Y-43265643D01*
X47484959Y-43304481D01*
X47409095Y-43333726D01*
X47387329Y-43340112D01*
X47360061Y-43347371D01*
X47334605Y-43353687D01*
X47309734Y-43359133D01*
X47284217Y-43363781D01*
X47256826Y-43367706D01*
X47226332Y-43370980D01*
X47191507Y-43373677D01*
X47151121Y-43375869D01*
X47103947Y-43377631D01*
X47048754Y-43379035D01*
X46984314Y-43380154D01*
X46909398Y-43381062D01*
X46822777Y-43381831D01*
X46723224Y-43382536D01*
X46669471Y-43382879D01*
X46154606Y-43386097D01*
X46154606Y-42988241D01*
X46693461Y-42988241D01*
X46876155Y-42984186D01*
X46942296Y-42982419D01*
X46995379Y-42980289D01*
X47037108Y-42977675D01*
X47069186Y-42974458D01*
X47093317Y-42970517D01*
X47103138Y-42968183D01*
X47167670Y-42945673D01*
X47219722Y-42916055D01*
X47260077Y-42878702D01*
X47289520Y-42832987D01*
X47298446Y-42812144D01*
X47306578Y-42787819D01*
X47311162Y-42765081D01*
X47312817Y-42738725D01*
X47312158Y-42703545D01*
X47311947Y-42698329D01*
X47305667Y-42639010D01*
X47291509Y-42590846D01*
X47268213Y-42551796D01*
X47234521Y-42519820D01*
X47189172Y-42492876D01*
X47183551Y-42490194D01*
X47159815Y-42479962D01*
X47135839Y-42471863D01*
X47109544Y-42465660D01*
X47078846Y-42461115D01*
X47041664Y-42457991D01*
X46995916Y-42456052D01*
X46939520Y-42455060D01*
X46872464Y-42454779D01*
X46693461Y-42454737D01*
X46693461Y-42988241D01*
X46154606Y-42988241D01*
X46154606Y-42078276D01*
X46693461Y-42078276D01*
X46836624Y-42078276D01*
X46888949Y-42078072D01*
X46929219Y-42077318D01*
X46960138Y-42075808D01*
X46984410Y-42073334D01*
X47004738Y-42069686D01*
X47023827Y-42064657D01*
X47027328Y-42063592D01*
X47076651Y-42044072D01*
X47114260Y-42018784D01*
X47142716Y-41985711D01*
X47155849Y-41962554D01*
X47166370Y-41939247D01*
X47172713Y-41918548D01*
X47175890Y-41895182D01*
X47176915Y-41863873D01*
X47176954Y-41852640D01*
X47176423Y-41818614D01*
X47174127Y-41794112D01*
X47169011Y-41773909D01*
X47160020Y-41752784D01*
X47154599Y-41741916D01*
X47137802Y-41713259D01*
X47119339Y-41692959D01*
X47093788Y-41675097D01*
X47092928Y-41674581D01*
X47070093Y-41662076D01*
X47047027Y-41652479D01*
X47021360Y-41645426D01*
X46990719Y-41640553D01*
X46952733Y-41637498D01*
X46905030Y-41635897D01*
X46845240Y-41635387D01*
X46837038Y-41635382D01*
X46693461Y-41635382D01*
X46693461Y-42078276D01*
X46154606Y-42078276D01*
X46154606Y-41235659D01*
X46680543Y-41238679D01*
G37*
G36*
X49351746Y-41231148D02*
G01*
X49618695Y-41233086D01*
X49786827Y-41940522D01*
X49810504Y-42040063D01*
X49833245Y-42135490D01*
X49854813Y-42225830D01*
X49874975Y-42310110D01*
X49893496Y-42387354D01*
X49910141Y-42456589D01*
X49924678Y-42516842D01*
X49936870Y-42567138D01*
X49946485Y-42606502D01*
X49953286Y-42633962D01*
X49957041Y-42648543D01*
X49957714Y-42650715D01*
X49959628Y-42644060D01*
X49964427Y-42623950D01*
X49971896Y-42591365D01*
X49981819Y-42547284D01*
X49993979Y-42492685D01*
X50008160Y-42428549D01*
X50024147Y-42355852D01*
X50041721Y-42275576D01*
X50060669Y-42188699D01*
X50080772Y-42096200D01*
X50101816Y-41999057D01*
X50110681Y-41958042D01*
X50132147Y-41858781D01*
X50152821Y-41763413D01*
X50172481Y-41672955D01*
X50190904Y-41588422D01*
X50207866Y-41510830D01*
X50223144Y-41441194D01*
X50236515Y-41380531D01*
X50247757Y-41329856D01*
X50256646Y-41290185D01*
X50262959Y-41262534D01*
X50266474Y-41247918D01*
X50267025Y-41246004D01*
X50273159Y-41229395D01*
X50542770Y-41229395D01*
X50613847Y-41229460D01*
X50671507Y-41229690D01*
X50717093Y-41230141D01*
X50751951Y-41230866D01*
X50777425Y-41231920D01*
X50794859Y-41233357D01*
X50805599Y-41235233D01*
X50810989Y-41237601D01*
X50812380Y-41240316D01*
X50810607Y-41248164D01*
X50805450Y-41269362D01*
X50797152Y-41302950D01*
X50785954Y-41347967D01*
X50772099Y-41403452D01*
X50755830Y-41468445D01*
X50737389Y-41541986D01*
X50717018Y-41623113D01*
X50694959Y-41710867D01*
X50671456Y-41804286D01*
X50646749Y-41902411D01*
X50621083Y-42004279D01*
X50594698Y-42108932D01*
X50567838Y-42215408D01*
X50540744Y-42322747D01*
X50513660Y-42429987D01*
X50486827Y-42536170D01*
X50460488Y-42640333D01*
X50434885Y-42741517D01*
X50410261Y-42838760D01*
X50386858Y-42931103D01*
X50364918Y-43017584D01*
X50344684Y-43097244D01*
X50326397Y-43169121D01*
X50310302Y-43232255D01*
X50296639Y-43285685D01*
X50285651Y-43328451D01*
X50280142Y-43349753D01*
X50272956Y-43377434D01*
X49678298Y-43377434D01*
X49510872Y-42733222D01*
X49486255Y-42638403D01*
X49462728Y-42547592D01*
X49440555Y-42461817D01*
X49419998Y-42382102D01*
X49401321Y-42309474D01*
X49384786Y-42244958D01*
X49370656Y-42189582D01*
X49359194Y-42144369D01*
X49350663Y-42110347D01*
X49345327Y-42088541D01*
X49343447Y-42079978D01*
X49343446Y-42079953D01*
X49342838Y-42072504D01*
X49340896Y-42071509D01*
X49337443Y-42077614D01*
X49332302Y-42091467D01*
X49325295Y-42113711D01*
X49316246Y-42144996D01*
X49304978Y-42185965D01*
X49291313Y-42237266D01*
X49275075Y-42299546D01*
X49256087Y-42373449D01*
X49234171Y-42459624D01*
X49209151Y-42558714D01*
X49180849Y-42671369D01*
X49174554Y-42696483D01*
X49150985Y-42790531D01*
X49128327Y-42880918D01*
X49106852Y-42966556D01*
X49086835Y-43046360D01*
X49068546Y-43119242D01*
X49052261Y-43184115D01*
X49038250Y-43239892D01*
X49026787Y-43285486D01*
X49018146Y-43319810D01*
X49012598Y-43341777D01*
X49010563Y-43349753D01*
X49003325Y-43377434D01*
X48704656Y-43377434D01*
X48639876Y-43377350D01*
X48579931Y-43377111D01*
X48526374Y-43376736D01*
X48480759Y-43376242D01*
X48444639Y-43375647D01*
X48419567Y-43374971D01*
X48407098Y-43374231D01*
X48405986Y-43373928D01*
X48404203Y-43366496D01*
X48398984Y-43345546D01*
X48390532Y-43311866D01*
X48379044Y-43266246D01*
X48364722Y-43209477D01*
X48347764Y-43142348D01*
X48328371Y-43065648D01*
X48306742Y-42980169D01*
X48283077Y-42886699D01*
X48257576Y-42786028D01*
X48230439Y-42678946D01*
X48201865Y-42566242D01*
X48172054Y-42448708D01*
X48141207Y-42327132D01*
X48136559Y-42308818D01*
X48105558Y-42186610D01*
X48075566Y-42068262D01*
X48046783Y-41954570D01*
X48019409Y-41846328D01*
X47993643Y-41744331D01*
X47969686Y-41649375D01*
X47947739Y-41562255D01*
X47928000Y-41483765D01*
X47910671Y-41414701D01*
X47895951Y-41355857D01*
X47884041Y-41308029D01*
X47875140Y-41272013D01*
X47869449Y-41248602D01*
X47867167Y-41238592D01*
X47867131Y-41238304D01*
X47870623Y-41235896D01*
X47881799Y-41233924D01*
X47901710Y-41232357D01*
X47931407Y-41231160D01*
X47971942Y-41230299D01*
X48024366Y-41229742D01*
X48089730Y-41229454D01*
X48146457Y-41229395D01*
X48425782Y-41229395D01*
X48434241Y-41268148D01*
X48436951Y-41280976D01*
X48442410Y-41307174D01*
X48450393Y-41345653D01*
X48460674Y-41395323D01*
X48473029Y-41455094D01*
X48487232Y-41523876D01*
X48503058Y-41600580D01*
X48520283Y-41684115D01*
X48538681Y-41773391D01*
X48558027Y-41867319D01*
X48578096Y-41964809D01*
X48579420Y-41971243D01*
X48599364Y-42068088D01*
X48618493Y-42160848D01*
X48636593Y-42248497D01*
X48653452Y-42330010D01*
X48668857Y-42404364D01*
X48682595Y-42470532D01*
X48694454Y-42527490D01*
X48704220Y-42574213D01*
X48711681Y-42609676D01*
X48716624Y-42632854D01*
X48718835Y-42642722D01*
X48718908Y-42642967D01*
X48723250Y-42644050D01*
X48725997Y-42639276D01*
X48728372Y-42630665D01*
X48734063Y-42608734D01*
X48742819Y-42574490D01*
X48754386Y-42528937D01*
X48768509Y-42473081D01*
X48784937Y-42407927D01*
X48803415Y-42334480D01*
X48823691Y-42253747D01*
X48845510Y-42166732D01*
X48868619Y-42074441D01*
X48892765Y-41977879D01*
X48900245Y-41947942D01*
X48924719Y-41850069D01*
X48948289Y-41756013D01*
X48970696Y-41666796D01*
X48991681Y-41583439D01*
X49010986Y-41506965D01*
X49028352Y-41438394D01*
X49043519Y-41378747D01*
X49056229Y-41329048D01*
X49066223Y-41290316D01*
X49073243Y-41263573D01*
X49077029Y-41249841D01*
X49077483Y-41248446D01*
X49084796Y-41229211D01*
X49351746Y-41231148D01*
G37*
G36*
X45213256Y-41233900D02*
G01*
X45256829Y-41234723D01*
X45291983Y-41236376D01*
X45321887Y-41239093D01*
X45349711Y-41243105D01*
X45378625Y-41248644D01*
X45386922Y-41250408D01*
X45519141Y-41285712D01*
X45642459Y-41332697D01*
X45757250Y-41391561D01*
X45863890Y-41462499D01*
X45962752Y-41545709D01*
X45978710Y-41560990D01*
X46011989Y-41593524D01*
X46036666Y-41619425D01*
X46052504Y-41640851D01*
X46059268Y-41659960D01*
X46056721Y-41678910D01*
X46044627Y-41699859D01*
X46022750Y-41724964D01*
X45990853Y-41756383D01*
X45953458Y-41791774D01*
X45904532Y-41837962D01*
X45865077Y-41874925D01*
X45833894Y-41903639D01*
X45809779Y-41925078D01*
X45791532Y-41940217D01*
X45777952Y-41950030D01*
X45767837Y-41955493D01*
X45759985Y-41957580D01*
X45753196Y-41957267D01*
X45750287Y-41956632D01*
X45737098Y-41949752D01*
X45716604Y-41934990D01*
X45692043Y-41914800D01*
X45675520Y-41900010D01*
X45622635Y-41855034D01*
X45564426Y-41812383D01*
X45505196Y-41774927D01*
X45449244Y-41745533D01*
X45433671Y-41738686D01*
X45337326Y-41705933D01*
X45239318Y-41686807D01*
X45141233Y-41681380D01*
X45044655Y-41689725D01*
X44951172Y-41711912D01*
X44938409Y-41716132D01*
X44855731Y-41752079D01*
X44779213Y-41800453D01*
X44710333Y-41859681D01*
X44650572Y-41928190D01*
X44601407Y-42004405D01*
X44564320Y-42086755D01*
X44551288Y-42127831D01*
X44542297Y-42173182D01*
X44536730Y-42228439D01*
X44534580Y-42289150D01*
X44535840Y-42350863D01*
X44540502Y-42409125D01*
X44548560Y-42459483D01*
X44551851Y-42473191D01*
X44582505Y-42561085D01*
X44625187Y-42640912D01*
X44679135Y-42711983D01*
X44743588Y-42773605D01*
X44817786Y-42825087D01*
X44900967Y-42865740D01*
X44992369Y-42894871D01*
X45024029Y-42901804D01*
X45069893Y-42908069D01*
X45124737Y-42911401D01*
X45183072Y-42911800D01*
X45239410Y-42909266D01*
X45288261Y-42903799D01*
X45299539Y-42901804D01*
X45359791Y-42887558D01*
X45416050Y-42868607D01*
X45470671Y-42843656D01*
X45526009Y-42811409D01*
X45584420Y-42770574D01*
X45648258Y-42719854D01*
X45680808Y-42692233D01*
X45708508Y-42669560D01*
X45732794Y-42651971D01*
X45750925Y-42641346D01*
X45758315Y-42639059D01*
X45767804Y-42644160D01*
X45785569Y-42658457D01*
X45809926Y-42680245D01*
X45839195Y-42707820D01*
X45871692Y-42739478D01*
X45905737Y-42773514D01*
X45939647Y-42808224D01*
X45971739Y-42841903D01*
X46000333Y-42872848D01*
X46023746Y-42899353D01*
X46040297Y-42919716D01*
X46048302Y-42932230D01*
X46048639Y-42933238D01*
X46050243Y-42947761D01*
X46046311Y-42962654D01*
X46035497Y-42979767D01*
X46016454Y-43000952D01*
X45987835Y-43028059D01*
X45964632Y-43048705D01*
X45872276Y-43124956D01*
X45782841Y-43188612D01*
X45694028Y-43240891D01*
X45603538Y-43283006D01*
X45509075Y-43316176D01*
X45412758Y-43340679D01*
X45381657Y-43346633D01*
X45349684Y-43351132D01*
X45313782Y-43354423D01*
X45270894Y-43356751D01*
X45217964Y-43358359D01*
X45183929Y-43359018D01*
X45136450Y-43359644D01*
X45093047Y-43359903D01*
X45056231Y-43359806D01*
X45028513Y-43359363D01*
X45012405Y-43358584D01*
X45010462Y-43358333D01*
X44995203Y-43355695D01*
X44969726Y-43351357D01*
X44938373Y-43346056D01*
X44921883Y-43343280D01*
X44803497Y-43316145D01*
X44690536Y-43275857D01*
X44583956Y-43223211D01*
X44484710Y-43158999D01*
X44393755Y-43084015D01*
X44312045Y-42999052D01*
X44240535Y-42904905D01*
X44180181Y-42802366D01*
X44131937Y-42692229D01*
X44129189Y-42684678D01*
X44119785Y-42655295D01*
X44109037Y-42616670D01*
X44098342Y-42574068D01*
X44089995Y-42537046D01*
X44082972Y-42502271D01*
X44077823Y-42471986D01*
X44074262Y-42442709D01*
X44072002Y-42410963D01*
X44070757Y-42373267D01*
X44070241Y-42326142D01*
X44070165Y-42296033D01*
X44070354Y-42241350D01*
X44071190Y-42198168D01*
X44072912Y-42163228D01*
X44075758Y-42133274D01*
X44079970Y-42105047D01*
X44085786Y-42075290D01*
X44086725Y-42070895D01*
X44109156Y-41979786D01*
X44135558Y-41899000D01*
X44167704Y-41824262D01*
X44207366Y-41751298D01*
X44241427Y-41697676D01*
X44313674Y-41602881D01*
X44397034Y-41517503D01*
X44490968Y-41441888D01*
X44594941Y-41376385D01*
X44708415Y-41321339D01*
X44830854Y-41277098D01*
X44934331Y-41249844D01*
X44962359Y-41244057D01*
X44989094Y-41239804D01*
X45017607Y-41236863D01*
X45050972Y-41235011D01*
X45092261Y-41234027D01*
X45144547Y-41233688D01*
X45158093Y-41233678D01*
X45213256Y-41233900D01*
G37*
G04 #@! TO.C,kibuzzard-62B83631*
G36*
X38676981Y-37216981D02*
G01*
X39846130Y-36983152D01*
X42022944Y-39159966D01*
X42023018Y-39160041D01*
X42088399Y-39232177D01*
X42146393Y-39310374D01*
X42196445Y-39393878D01*
X42238069Y-39481887D01*
X42270868Y-39573551D01*
X42294523Y-39667989D01*
X42308808Y-39764292D01*
X42313585Y-39861529D01*
X42308807Y-39958768D01*
X42294522Y-40055070D01*
X42270868Y-40149508D01*
X42238069Y-40241173D01*
X42196444Y-40329182D01*
X42146393Y-40412686D01*
X42088399Y-40490883D01*
X42023019Y-40563019D01*
X41950883Y-40628399D01*
X41872686Y-40686393D01*
X41789182Y-40736444D01*
X41701173Y-40778069D01*
X41609508Y-40810868D01*
X41515070Y-40834522D01*
X41418768Y-40848807D01*
X41321529Y-40853585D01*
X41224292Y-40848808D01*
X41127989Y-40834523D01*
X41033551Y-40810868D01*
X40941887Y-40778069D01*
X40853878Y-40736445D01*
X40770374Y-40686393D01*
X40692177Y-40628399D01*
X40620041Y-40563018D01*
X40619966Y-40562944D01*
X39800387Y-39743365D01*
X40560378Y-39743365D01*
X40601688Y-39801736D01*
X40924977Y-40125026D01*
X40980654Y-40162743D01*
X41015677Y-40158253D01*
X41058334Y-40124577D01*
X41092010Y-40081920D01*
X41095153Y-40042856D01*
X41058783Y-39993016D01*
X40814520Y-39748753D01*
X41259940Y-39303332D01*
X41302148Y-39252145D01*
X41302597Y-39202753D01*
X41260838Y-39144382D01*
X41208529Y-39104195D01*
X41166546Y-39098582D01*
X41134217Y-39113849D01*
X41101888Y-39143484D01*
X40602586Y-39642786D01*
X40562174Y-39693973D01*
X40560378Y-39743365D01*
X39800387Y-39743365D01*
X39136297Y-39079275D01*
X40088466Y-39079275D01*
X40092394Y-39153699D01*
X40106875Y-39227000D01*
X40129774Y-39295250D01*
X40158961Y-39354520D01*
X40193872Y-39406268D01*
X40233946Y-39451955D01*
X40280980Y-39491805D01*
X40336770Y-39526043D01*
X40420735Y-39563311D01*
X40470576Y-39575434D01*
X40521314Y-39581271D01*
X40564869Y-39561964D01*
X40595401Y-39491918D01*
X40601912Y-39422994D01*
X40585523Y-39381460D01*
X40524457Y-39356316D01*
X40496619Y-39351826D01*
X40446778Y-39330722D01*
X40387059Y-39285372D01*
X40338790Y-39217346D01*
X40312523Y-39131809D01*
X40323300Y-39029434D01*
X40348108Y-38977685D01*
X40386610Y-38930203D01*
X40434093Y-38891700D01*
X40485842Y-38866892D01*
X40586421Y-38856115D01*
X40673754Y-38882831D01*
X40741780Y-38930652D01*
X40790722Y-38994860D01*
X40811826Y-39061763D01*
X40837868Y-39127319D01*
X40879627Y-39144831D01*
X40949223Y-39141688D01*
X41017922Y-39110706D01*
X41037230Y-39044701D01*
X41028250Y-39003392D01*
X41019269Y-38969267D01*
X40979756Y-38876770D01*
X40946305Y-38823787D01*
X40907016Y-38777987D01*
X40842458Y-38724205D01*
X40767323Y-38681399D01*
X40681612Y-38649570D01*
X40609321Y-38633629D01*
X40536132Y-38628915D01*
X40460809Y-38638007D01*
X40382120Y-38663489D01*
X40304329Y-38706258D01*
X40231701Y-38767211D01*
X40170186Y-38840624D01*
X40125734Y-38920773D01*
X40098456Y-39002156D01*
X40088466Y-39079275D01*
X39136297Y-39079275D01*
X38635199Y-38578177D01*
X39488585Y-38578177D01*
X39500708Y-38646875D01*
X39536180Y-38733535D01*
X39567274Y-38780120D01*
X39605777Y-38823787D01*
X39665047Y-38872479D01*
X39732698Y-38908400D01*
X39808731Y-38931550D01*
X39872154Y-38936376D01*
X39938496Y-38923916D01*
X40003939Y-38893496D01*
X40064668Y-38844441D01*
X40112712Y-38784947D01*
X40140102Y-38723208D01*
X40148409Y-38663489D01*
X40139204Y-38610056D01*
X40118437Y-38559430D01*
X40092058Y-38508131D01*
X40062984Y-38459525D01*
X40034135Y-38416981D01*
X39997765Y-38339302D01*
X40014828Y-38276440D01*
X40072751Y-38257132D01*
X40135163Y-38291706D01*
X40171533Y-38351425D01*
X40173778Y-38377019D01*
X40175125Y-38396326D01*
X40203862Y-38460984D01*
X40246967Y-38481639D01*
X40311625Y-38478945D01*
X40382569Y-38451106D01*
X40398734Y-38379264D01*
X40393346Y-38339751D01*
X40360119Y-38249948D01*
X40323749Y-38192699D01*
X40275704Y-38137695D01*
X40206257Y-38081319D01*
X40133217Y-38047493D01*
X40056586Y-38036218D01*
X39982449Y-38044999D01*
X39916893Y-38071340D01*
X39859918Y-38115244D01*
X39812323Y-38174289D01*
X39784484Y-38236478D01*
X39774830Y-38297543D01*
X39781790Y-38353221D01*
X39799638Y-38406317D01*
X39822650Y-38459637D01*
X39848806Y-38509814D01*
X39876083Y-38553481D01*
X39912902Y-38630711D01*
X39901228Y-38688185D01*
X39854031Y-38716821D01*
X39803442Y-38711733D01*
X39749461Y-38672918D01*
X39720275Y-38615894D01*
X39713540Y-38550787D01*
X39707254Y-38477149D01*
X39688396Y-38435839D01*
X39619248Y-38409797D01*
X39556273Y-38414848D01*
X39520016Y-38431798D01*
X39491728Y-38506783D01*
X39489932Y-38524744D01*
X39488585Y-38578177D01*
X38635199Y-38578177D01*
X38443152Y-38386130D01*
X38676981Y-37216981D01*
G37*
G04 #@! TO.C,kibuzzard-62B83731*
G36*
X14520716Y-38671169D02*
G01*
X14657162Y-38691409D01*
X14790967Y-38724926D01*
X14920843Y-38771396D01*
X15045538Y-38830373D01*
X15163852Y-38901287D01*
X15274646Y-38983457D01*
X15376852Y-39076092D01*
X15469486Y-39178298D01*
X15551656Y-39289091D01*
X15622571Y-39407405D01*
X15681547Y-39532101D01*
X15728018Y-39661976D01*
X15761534Y-39795781D01*
X15781774Y-39932227D01*
X15788542Y-40070000D01*
X15781774Y-40207773D01*
X15761534Y-40344219D01*
X15728018Y-40478024D01*
X15681547Y-40607899D01*
X15622571Y-40732595D01*
X15551656Y-40850909D01*
X15469486Y-40961702D01*
X15376852Y-41063908D01*
X15274646Y-41156543D01*
X15163852Y-41238713D01*
X15045538Y-41309627D01*
X14920843Y-41368604D01*
X14790967Y-41415074D01*
X14657162Y-41448591D01*
X14520716Y-41468831D01*
X14382944Y-41475599D01*
X7891458Y-41475599D01*
X7891458Y-39372294D01*
X9379739Y-39372294D01*
X9415458Y-39486594D01*
X10072683Y-40820094D01*
X10152455Y-40904628D01*
X10265564Y-40936775D01*
X10289376Y-40936775D01*
X10400105Y-40904628D01*
X10479876Y-40820094D01*
X10855433Y-40058094D01*
X11268070Y-40058094D01*
X11283846Y-40236985D01*
X11331173Y-40402184D01*
X11402909Y-40546250D01*
X11491908Y-40661741D01*
X11595790Y-40755205D01*
X11712173Y-40833191D01*
X11833022Y-40893317D01*
X11950298Y-40933203D01*
X12065194Y-40955527D01*
X12178898Y-40962969D01*
X12294091Y-40953444D01*
X12413451Y-40924869D01*
X12574186Y-40862956D01*
X12656339Y-40812950D01*
X12731348Y-40753419D01*
X12763495Y-40670075D01*
X12711108Y-40536725D01*
X12628359Y-40436713D01*
X12551564Y-40403375D01*
X12437264Y-40451000D01*
X12394401Y-40481956D01*
X12300342Y-40520056D01*
X12161039Y-40539106D01*
X12006853Y-40512913D01*
X11858620Y-40434331D01*
X11737176Y-40284313D01*
X11701458Y-40182812D01*
X11689551Y-40068809D01*
X11690670Y-40058094D01*
X12884939Y-40058094D01*
X12900715Y-40236985D01*
X12948042Y-40402184D01*
X13019777Y-40546250D01*
X13108776Y-40661741D01*
X13212659Y-40755205D01*
X13329042Y-40833191D01*
X13449891Y-40893317D01*
X13567167Y-40933203D01*
X13682062Y-40955527D01*
X13795767Y-40962969D01*
X13910960Y-40953444D01*
X14030320Y-40924869D01*
X14191055Y-40862956D01*
X14273208Y-40812950D01*
X14348217Y-40753419D01*
X14380364Y-40670075D01*
X14327976Y-40536725D01*
X14245228Y-40436713D01*
X14168433Y-40403375D01*
X14054133Y-40451000D01*
X14011270Y-40481956D01*
X13917211Y-40520056D01*
X13777908Y-40539106D01*
X13623722Y-40512913D01*
X13475489Y-40434331D01*
X13354045Y-40284313D01*
X13318326Y-40182812D01*
X13306420Y-40068809D01*
X13318326Y-39954807D01*
X13354045Y-39853306D01*
X13473108Y-39705669D01*
X13624317Y-39625302D01*
X13777908Y-39598512D01*
X13927926Y-39618753D01*
X14044608Y-39679475D01*
X14166051Y-39731862D01*
X14244633Y-39699716D01*
X14332739Y-39603275D01*
X14382745Y-39471116D01*
X14320833Y-39358006D01*
X14254158Y-39315144D01*
X14197008Y-39281806D01*
X14021986Y-39211559D01*
X13907388Y-39185663D01*
X13794576Y-39177031D01*
X13637679Y-39191319D01*
X13481310Y-39234181D01*
X13325470Y-39305619D01*
X13208491Y-39380330D01*
X13105205Y-39471116D01*
X13017396Y-39583034D01*
X12946851Y-39721147D01*
X12900417Y-39880988D01*
X12884939Y-40058094D01*
X11690670Y-40058094D01*
X11701458Y-39954807D01*
X11737176Y-39853306D01*
X11856239Y-39705669D01*
X12007448Y-39625302D01*
X12161039Y-39598512D01*
X12311058Y-39618753D01*
X12427739Y-39679475D01*
X12549183Y-39731862D01*
X12627764Y-39699716D01*
X12715870Y-39603275D01*
X12765876Y-39471116D01*
X12703964Y-39358006D01*
X12637289Y-39315144D01*
X12580139Y-39281806D01*
X12405117Y-39211559D01*
X12290519Y-39185663D01*
X12177708Y-39177031D01*
X12020810Y-39191319D01*
X11864441Y-39234181D01*
X11708601Y-39305619D01*
X11591623Y-39380330D01*
X11488336Y-39471116D01*
X11400527Y-39583034D01*
X11329983Y-39721147D01*
X11283548Y-39880988D01*
X11268070Y-40058094D01*
X10855433Y-40058094D01*
X11137101Y-39486594D01*
X11172820Y-39372294D01*
X11137697Y-39292522D01*
X11032326Y-39219894D01*
X10891833Y-39179412D01*
X10787058Y-39243706D01*
X10753720Y-39315144D01*
X10277470Y-40358131D01*
X10251574Y-40303065D01*
X10192936Y-40175966D01*
X10115545Y-40007790D01*
X10033392Y-39829494D01*
X9951537Y-39651198D01*
X9875039Y-39483022D01*
X9815210Y-39352053D01*
X9783361Y-39285378D01*
X9744070Y-39222275D01*
X9703589Y-39188937D01*
X9640486Y-39179412D01*
X9520233Y-39219894D01*
X9414862Y-39292522D01*
X9379739Y-39372294D01*
X7891458Y-39372294D01*
X7891458Y-38664401D01*
X14382944Y-38664401D01*
X14520716Y-38671169D01*
G37*
G04 #@! TO.C,kibuzzard-62B83747*
G36*
X62038542Y-41475599D02*
G01*
X55547057Y-41475599D01*
X55409284Y-41468831D01*
X55272838Y-41448591D01*
X55139033Y-41415074D01*
X55009157Y-41368604D01*
X54884462Y-41309628D01*
X54766148Y-41238713D01*
X54655354Y-41156543D01*
X54553148Y-41063909D01*
X54460514Y-40961703D01*
X54378344Y-40850909D01*
X54307429Y-40732595D01*
X54248452Y-40607899D01*
X54201982Y-40478024D01*
X54168466Y-40344219D01*
X54148226Y-40207773D01*
X54141458Y-40070000D01*
X54148226Y-39932227D01*
X54168466Y-39795781D01*
X54201982Y-39661976D01*
X54248452Y-39532101D01*
X54307429Y-39407405D01*
X54328474Y-39372294D01*
X55547255Y-39372294D01*
X55582974Y-39486594D01*
X56240199Y-40820094D01*
X56319971Y-40904628D01*
X56433080Y-40936775D01*
X56456892Y-40936775D01*
X56567621Y-40904628D01*
X56647392Y-40820094D01*
X57022949Y-40058094D01*
X57435586Y-40058094D01*
X57451362Y-40236985D01*
X57498689Y-40402184D01*
X57570424Y-40546250D01*
X57659424Y-40661741D01*
X57763306Y-40755205D01*
X57879689Y-40833191D01*
X58000538Y-40893317D01*
X58117814Y-40933203D01*
X58232710Y-40955527D01*
X58346414Y-40962969D01*
X58461607Y-40953444D01*
X58580967Y-40924869D01*
X58741702Y-40862956D01*
X58823855Y-40812950D01*
X58898864Y-40753419D01*
X58931011Y-40670075D01*
X58878624Y-40536725D01*
X58795875Y-40436713D01*
X58719080Y-40403375D01*
X58604780Y-40451000D01*
X58561917Y-40481956D01*
X58467858Y-40520056D01*
X58328555Y-40539106D01*
X58174369Y-40512913D01*
X58026136Y-40434331D01*
X57904692Y-40284313D01*
X57868974Y-40182812D01*
X57857067Y-40068809D01*
X57858186Y-40058094D01*
X59052455Y-40058094D01*
X59068231Y-40236985D01*
X59115558Y-40402184D01*
X59187293Y-40546250D01*
X59276292Y-40661741D01*
X59380174Y-40755205D01*
X59496558Y-40833191D01*
X59617407Y-40893317D01*
X59734683Y-40933203D01*
X59849578Y-40955527D01*
X59963283Y-40962969D01*
X60078476Y-40953444D01*
X60197836Y-40924869D01*
X60358571Y-40862956D01*
X60440724Y-40812950D01*
X60515733Y-40753419D01*
X60547880Y-40670075D01*
X60495492Y-40536725D01*
X60412744Y-40436713D01*
X60335949Y-40403375D01*
X60221649Y-40451000D01*
X60178786Y-40481956D01*
X60084727Y-40520056D01*
X59945424Y-40539106D01*
X59791238Y-40512913D01*
X59643005Y-40434331D01*
X59521561Y-40284313D01*
X59485842Y-40182812D01*
X59473936Y-40068809D01*
X59485842Y-39954807D01*
X59521561Y-39853306D01*
X59640624Y-39705669D01*
X59791833Y-39625302D01*
X59945424Y-39598512D01*
X60095442Y-39618753D01*
X60212124Y-39679475D01*
X60333567Y-39731862D01*
X60412149Y-39699716D01*
X60500255Y-39603275D01*
X60550261Y-39471116D01*
X60488349Y-39358006D01*
X60421674Y-39315144D01*
X60364524Y-39281806D01*
X60189502Y-39211559D01*
X60074904Y-39185663D01*
X59962092Y-39177031D01*
X59805195Y-39191319D01*
X59648826Y-39234181D01*
X59492986Y-39305619D01*
X59376007Y-39380330D01*
X59272721Y-39471116D01*
X59184912Y-39583034D01*
X59114367Y-39721147D01*
X59067933Y-39880988D01*
X59052455Y-40058094D01*
X57858186Y-40058094D01*
X57868974Y-39954807D01*
X57904692Y-39853306D01*
X58023755Y-39705669D01*
X58174964Y-39625302D01*
X58328555Y-39598512D01*
X58478574Y-39618753D01*
X58595255Y-39679475D01*
X58716699Y-39731862D01*
X58795280Y-39699716D01*
X58883386Y-39603275D01*
X58933392Y-39471116D01*
X58871480Y-39358006D01*
X58804805Y-39315144D01*
X58747655Y-39281806D01*
X58572633Y-39211559D01*
X58458035Y-39185663D01*
X58345224Y-39177031D01*
X58188326Y-39191319D01*
X58031957Y-39234181D01*
X57876117Y-39305619D01*
X57759139Y-39380330D01*
X57655852Y-39471116D01*
X57568043Y-39583034D01*
X57497499Y-39721147D01*
X57451064Y-39880988D01*
X57435586Y-40058094D01*
X57022949Y-40058094D01*
X57304617Y-39486594D01*
X57340336Y-39372294D01*
X57305213Y-39292522D01*
X57199842Y-39219894D01*
X57059349Y-39179412D01*
X56954574Y-39243706D01*
X56921236Y-39315144D01*
X56444986Y-40358131D01*
X56419090Y-40303065D01*
X56360452Y-40175966D01*
X56283061Y-40007790D01*
X56200908Y-39829494D01*
X56119053Y-39651198D01*
X56042555Y-39483022D01*
X55982726Y-39352053D01*
X55950877Y-39285378D01*
X55911586Y-39222275D01*
X55871105Y-39188937D01*
X55808002Y-39179412D01*
X55687749Y-39219894D01*
X55582378Y-39292522D01*
X55547255Y-39372294D01*
X54328474Y-39372294D01*
X54378344Y-39289091D01*
X54460514Y-39178297D01*
X54553148Y-39076091D01*
X54655354Y-38983457D01*
X54766148Y-38901287D01*
X54884462Y-38830372D01*
X55009157Y-38771396D01*
X55139033Y-38724926D01*
X55272838Y-38691409D01*
X55409284Y-38671169D01*
X55547057Y-38664401D01*
X62038542Y-38664401D01*
X62038542Y-41475599D01*
G37*
G04 #@! TO.C,kibuzzard-62B83614*
G36*
X38111725Y-38953170D02*
G01*
X38163361Y-39029277D01*
X38181771Y-39121101D01*
X38164933Y-39214046D01*
X38110827Y-39293521D01*
X38031240Y-39347066D01*
X37937957Y-39362220D01*
X37846695Y-39343025D01*
X37773170Y-39293521D01*
X37686061Y-39206413D01*
X38025515Y-38866959D01*
X38111725Y-38953170D01*
G37*
G36*
X38639765Y-39933814D02*
G01*
X38520327Y-39814376D01*
X38702626Y-39750617D01*
X38639765Y-39933814D01*
G37*
G36*
X39734038Y-39517816D02*
G01*
X39792033Y-39596013D01*
X39842084Y-39679518D01*
X39883709Y-39767527D01*
X39916507Y-39859191D01*
X39940163Y-39953629D01*
X39954448Y-40049931D01*
X39959224Y-40147169D01*
X39954447Y-40244408D01*
X39940162Y-40340710D01*
X39916507Y-40435148D01*
X39883709Y-40526813D01*
X39842084Y-40614821D01*
X39792032Y-40698326D01*
X39734038Y-40776523D01*
X39668659Y-40848659D01*
X39596523Y-40914038D01*
X39518326Y-40972032D01*
X39434821Y-41022084D01*
X39346813Y-41063709D01*
X39255148Y-41096507D01*
X39160710Y-41120162D01*
X39064408Y-41134447D01*
X38967169Y-41139224D01*
X38869931Y-41134448D01*
X38773629Y-41120163D01*
X38679191Y-41096507D01*
X38587527Y-41063709D01*
X38499518Y-41022084D01*
X38416013Y-40972033D01*
X38337816Y-40914038D01*
X38265680Y-40848658D01*
X37212989Y-39795967D01*
X38024168Y-39795967D01*
X38036291Y-39861972D01*
X38069069Y-39925283D01*
X38106337Y-39945488D01*
X38139115Y-39945039D01*
X38179077Y-39932916D01*
X38322761Y-39882626D01*
X38571515Y-40131379D01*
X38521225Y-40275063D01*
X38508204Y-40315924D01*
X38507306Y-40349151D01*
X38527960Y-40385970D01*
X38591271Y-40418748D01*
X38657949Y-40430198D01*
X38701728Y-40412461D01*
X38732261Y-40351396D01*
X38990893Y-39607830D01*
X38996281Y-39543173D01*
X38965748Y-39489291D01*
X38910519Y-39459207D01*
X38847208Y-39462350D01*
X38102745Y-39721880D01*
X38041679Y-39752413D01*
X38024168Y-39795967D01*
X37212989Y-39795967D01*
X36611761Y-39194739D01*
X37401387Y-39194739D01*
X37408347Y-39235375D01*
X37447186Y-39285439D01*
X37611525Y-39449778D01*
X37683788Y-39509805D01*
X37763178Y-39552489D01*
X37849699Y-39577831D01*
X37943346Y-39585829D01*
X38036964Y-39576680D01*
X38123399Y-39550581D01*
X38202650Y-39507532D01*
X38274717Y-39447533D01*
X38334323Y-39375578D01*
X38376194Y-39296665D01*
X38400328Y-39210790D01*
X38406727Y-39117957D01*
X38396427Y-39025544D01*
X38370469Y-38940934D01*
X38328850Y-38864125D01*
X38271574Y-38795117D01*
X38106337Y-38628085D01*
X38054028Y-38587898D01*
X38012045Y-38582285D01*
X37980165Y-38597103D01*
X37947387Y-38627186D01*
X37448085Y-39126489D01*
X37401387Y-39194739D01*
X36611761Y-39194739D01*
X36089559Y-38672537D01*
X36942945Y-38672537D01*
X36955068Y-38741236D01*
X36990540Y-38827895D01*
X37021634Y-38874480D01*
X37060137Y-38918147D01*
X37119407Y-38966840D01*
X37187058Y-39002760D01*
X37263091Y-39025910D01*
X37326514Y-39030737D01*
X37392856Y-39018277D01*
X37458299Y-38987856D01*
X37519029Y-38938801D01*
X37567072Y-38879307D01*
X37594463Y-38817568D01*
X37602769Y-38757849D01*
X37593565Y-38704417D01*
X37572798Y-38653790D01*
X37546418Y-38602491D01*
X37517344Y-38553885D01*
X37488496Y-38511341D01*
X37452126Y-38433662D01*
X37469188Y-38370800D01*
X37527111Y-38351493D01*
X37589524Y-38386067D01*
X37625894Y-38445785D01*
X37628139Y-38471379D01*
X37629486Y-38490687D01*
X37658223Y-38555344D01*
X37701328Y-38575999D01*
X37765986Y-38573305D01*
X37836930Y-38545466D01*
X37853094Y-38473624D01*
X37847706Y-38434111D01*
X37814479Y-38344308D01*
X37778109Y-38287059D01*
X37730065Y-38232055D01*
X37660617Y-38175679D01*
X37587578Y-38141853D01*
X37510946Y-38130578D01*
X37436809Y-38139359D01*
X37371253Y-38165700D01*
X37314279Y-38209605D01*
X37266683Y-38268649D01*
X37238845Y-38330838D01*
X37229190Y-38391903D01*
X37236150Y-38447581D01*
X37253999Y-38500677D01*
X37277011Y-38553997D01*
X37303166Y-38604174D01*
X37330443Y-38647841D01*
X37367262Y-38725071D01*
X37355588Y-38782545D01*
X37308391Y-38811181D01*
X37257802Y-38806093D01*
X37203822Y-38767278D01*
X37174636Y-38710254D01*
X37167901Y-38645147D01*
X37161614Y-38571509D01*
X37142756Y-38530200D01*
X37073608Y-38504157D01*
X37010634Y-38509208D01*
X36974376Y-38526159D01*
X36946088Y-38601144D01*
X36944292Y-38619104D01*
X36942945Y-38672537D01*
X36089559Y-38672537D01*
X35897512Y-38480490D01*
X36131341Y-37311341D01*
X37300490Y-37077512D01*
X39668658Y-39445680D01*
X39734038Y-39517816D01*
G37*
G04 #@! TO.C,kibuzzard-62B83AAD*
G36*
X29236312Y-35467861D02*
G01*
X29595239Y-35707689D01*
X29835067Y-36066616D01*
X29919283Y-36490000D01*
X29835067Y-36913384D01*
X29595239Y-37272311D01*
X29236312Y-37512139D01*
X28812928Y-37596355D01*
X13267070Y-37596355D01*
X12843687Y-37512138D01*
X12484760Y-37272311D01*
X12244933Y-36913383D01*
X12163875Y-36505875D01*
X13267599Y-36505875D01*
X13391424Y-36963075D01*
X13580336Y-37053563D01*
X13899424Y-37083725D01*
X14211368Y-37037688D01*
X14378849Y-36899575D01*
X14445524Y-36724950D01*
X14454781Y-36505875D01*
X27624949Y-36505875D01*
X27748774Y-36963075D01*
X27937686Y-37053563D01*
X28256774Y-37083725D01*
X28568718Y-37037688D01*
X28736199Y-36899575D01*
X28802874Y-36724950D01*
X28812399Y-36499525D01*
X28812399Y-36474125D01*
X28704449Y-36029625D01*
X28498868Y-35929612D01*
X28174224Y-35896275D01*
X27862280Y-35943900D01*
X27694799Y-36086775D01*
X27634474Y-36258225D01*
X27624949Y-36480475D01*
X27624949Y-36505875D01*
X14454781Y-36505875D01*
X14455049Y-36499525D01*
X14455049Y-36474125D01*
X14347099Y-36029625D01*
X14141518Y-35929612D01*
X13816874Y-35896275D01*
X13504930Y-35943900D01*
X13337449Y-36086775D01*
X13277124Y-36258225D01*
X13267599Y-36480475D01*
X13267599Y-36505875D01*
X12163875Y-36505875D01*
X12160717Y-36490000D01*
X12244933Y-36066617D01*
X12484760Y-35707689D01*
X12843687Y-35467862D01*
X13267070Y-35383645D01*
X28812928Y-35383645D01*
X29236312Y-35467861D01*
G37*
G36*
X57176312Y-35417861D02*
G01*
X57535239Y-35657689D01*
X57775067Y-36016616D01*
X57859283Y-36440000D01*
X57775067Y-36863384D01*
X57535239Y-37222311D01*
X57176312Y-37462139D01*
X56752928Y-37546355D01*
X41207070Y-37546355D01*
X40783687Y-37462138D01*
X40424760Y-37222311D01*
X40184933Y-36863383D01*
X40103875Y-36455875D01*
X41207599Y-36455875D01*
X41331424Y-36913075D01*
X41520336Y-37003563D01*
X41839424Y-37033725D01*
X42151368Y-36987688D01*
X42318849Y-36849575D01*
X42385524Y-36674950D01*
X42394781Y-36455875D01*
X55564949Y-36455875D01*
X55688774Y-36913075D01*
X55877686Y-37003563D01*
X56196774Y-37033725D01*
X56508718Y-36987688D01*
X56676199Y-36849575D01*
X56742874Y-36674950D01*
X56752399Y-36449525D01*
X56752399Y-36424125D01*
X56644449Y-35979625D01*
X56438868Y-35879612D01*
X56114224Y-35846275D01*
X55802280Y-35893900D01*
X55634799Y-36036775D01*
X55574474Y-36208225D01*
X55564949Y-36430475D01*
X55564949Y-36455875D01*
X42394781Y-36455875D01*
X42395049Y-36449525D01*
X42395049Y-36424125D01*
X42287099Y-35979625D01*
X42081518Y-35879612D01*
X41756874Y-35846275D01*
X41444930Y-35893900D01*
X41277449Y-36036775D01*
X41217124Y-36208225D01*
X41207599Y-36430475D01*
X41207599Y-36455875D01*
X40103875Y-36455875D01*
X40100717Y-36440000D01*
X40184933Y-36016617D01*
X40424760Y-35657689D01*
X40783687Y-35417862D01*
X41207070Y-35333645D01*
X56752928Y-35333645D01*
X57176312Y-35417861D01*
G37*
G36*
X59716312Y-35417861D02*
G01*
X60075239Y-35657689D01*
X60315067Y-36016616D01*
X60399283Y-36440000D01*
X60315067Y-36863384D01*
X60075239Y-37222311D01*
X59716312Y-37462139D01*
X59292928Y-37546355D01*
X43747070Y-37546355D01*
X43323687Y-37462138D01*
X42964760Y-37222311D01*
X42724933Y-36863383D01*
X42643875Y-36455875D01*
X43747599Y-36455875D01*
X43871424Y-36913075D01*
X44060336Y-37003563D01*
X44379424Y-37033725D01*
X44691368Y-36987688D01*
X44858849Y-36849575D01*
X44925524Y-36674950D01*
X44934781Y-36455875D01*
X58104949Y-36455875D01*
X58228774Y-36913075D01*
X58417686Y-37003563D01*
X58736774Y-37033725D01*
X59048718Y-36987688D01*
X59216199Y-36849575D01*
X59282874Y-36674950D01*
X59292399Y-36449525D01*
X59292399Y-36424125D01*
X59184449Y-35979625D01*
X58978868Y-35879612D01*
X58654224Y-35846275D01*
X58342280Y-35893900D01*
X58174799Y-36036775D01*
X58114474Y-36208225D01*
X58104949Y-36430475D01*
X58104949Y-36455875D01*
X44934781Y-36455875D01*
X44935049Y-36449525D01*
X44935049Y-36424125D01*
X44827099Y-35979625D01*
X44621518Y-35879612D01*
X44296874Y-35846275D01*
X43984930Y-35893900D01*
X43817449Y-36036775D01*
X43757124Y-36208225D01*
X43747599Y-36430475D01*
X43747599Y-36455875D01*
X42643875Y-36455875D01*
X42640717Y-36440000D01*
X42724933Y-36016617D01*
X42964760Y-35657689D01*
X43323687Y-35417862D01*
X43747070Y-35333645D01*
X59292928Y-35333645D01*
X59716312Y-35417861D01*
G37*
G04 #@! TO.C,kibuzzard-62B8371F*
G36*
X21131524Y-4634770D02*
G01*
X21277673Y-4732103D01*
X21378579Y-4877657D01*
X21412214Y-5054763D01*
X21377686Y-5231273D01*
X21274101Y-5375041D01*
X21127655Y-5470588D01*
X20964539Y-5502438D01*
X20733558Y-5502438D01*
X20733558Y-4602325D01*
X20962158Y-4602325D01*
X21131524Y-4634770D01*
G37*
G36*
X15373364Y-3637257D02*
G01*
X21833894Y-3637257D01*
X21972367Y-3644060D01*
X22109506Y-3664403D01*
X22243991Y-3698090D01*
X22374527Y-3744796D01*
X22499856Y-3804072D01*
X22618771Y-3875347D01*
X22730128Y-3957935D01*
X22832853Y-4051040D01*
X22925958Y-4153766D01*
X23008546Y-4265122D01*
X23079821Y-4384038D01*
X23139097Y-4509367D01*
X23185804Y-4639903D01*
X23219491Y-4774388D01*
X23239833Y-4911527D01*
X23246636Y-5050000D01*
X23239833Y-5188473D01*
X23219491Y-5325612D01*
X23185804Y-5460097D01*
X23139097Y-5590633D01*
X23079821Y-5715962D01*
X23008546Y-5834878D01*
X22925958Y-5946234D01*
X22832853Y-6048960D01*
X22730128Y-6142065D01*
X22618771Y-6224653D01*
X22499856Y-6295928D01*
X22374527Y-6355204D01*
X22243991Y-6401910D01*
X22109506Y-6435597D01*
X21972367Y-6455940D01*
X21833894Y-6462743D01*
X15373364Y-6462743D01*
X15373364Y-5035712D01*
X16861645Y-5035712D01*
X16878016Y-5218101D01*
X16927130Y-5386649D01*
X17008985Y-5541356D01*
X17123583Y-5682222D01*
X17260356Y-5799424D01*
X17408737Y-5883140D01*
X17568728Y-5933369D01*
X17740326Y-5950113D01*
X17927850Y-5937164D01*
X18090370Y-5898320D01*
X18227887Y-5833580D01*
X18340401Y-5742944D01*
X18353517Y-5714369D01*
X18597576Y-5714369D01*
X18601148Y-5797713D01*
X18623770Y-5862006D01*
X18685683Y-5910227D01*
X18804745Y-5926300D01*
X18927380Y-5910227D01*
X18990483Y-5862006D01*
X19013105Y-5800094D01*
X19016676Y-5716750D01*
X19016676Y-4933319D01*
X19083219Y-5020102D01*
X19170135Y-5134402D01*
X19277423Y-5276219D01*
X19405085Y-5445552D01*
X19553119Y-5642402D01*
X19721526Y-5866769D01*
X19781058Y-5912013D01*
X19909645Y-5926300D01*
X20032280Y-5910227D01*
X20095383Y-5862006D01*
X20118005Y-5800094D01*
X20121576Y-5716750D01*
X20121576Y-5711988D01*
X20312076Y-5711988D01*
X20340651Y-5864388D01*
X20403755Y-5909036D01*
X20521626Y-5923919D01*
X20957395Y-5923919D01*
X21132789Y-5907696D01*
X21294640Y-5859030D01*
X21442947Y-5777918D01*
X21577711Y-5664363D01*
X21689704Y-5528110D01*
X21769699Y-5378910D01*
X21817696Y-5216762D01*
X21833695Y-5041666D01*
X21817324Y-4867239D01*
X21768211Y-4707100D01*
X21686355Y-4561248D01*
X21571758Y-4429684D01*
X21435580Y-4320817D01*
X21288984Y-4243054D01*
X21131971Y-4196396D01*
X20964539Y-4180844D01*
X20524008Y-4178462D01*
X20401373Y-4194536D01*
X20338270Y-4242756D01*
X20315648Y-4304669D01*
X20312076Y-4388012D01*
X20312076Y-5711988D01*
X20121576Y-5711988D01*
X20121576Y-4395156D01*
X20107289Y-4273712D01*
X20077523Y-4223706D01*
X20015611Y-4195131D01*
X19906073Y-4183225D01*
X19792964Y-4197512D01*
X19725098Y-4253472D01*
X19702476Y-4385631D01*
X19702476Y-5190494D01*
X19636860Y-5104570D01*
X19552722Y-4992850D01*
X19450064Y-4855333D01*
X19328885Y-4692019D01*
X19189185Y-4502908D01*
X19030964Y-4288000D01*
X18976195Y-4226087D01*
X18917855Y-4196322D01*
X18804745Y-4183225D01*
X18688064Y-4197512D01*
X18620198Y-4253472D01*
X18597576Y-4385631D01*
X18597576Y-5714369D01*
X18353517Y-5714369D01*
X18407076Y-5597688D01*
X18407076Y-5073813D01*
X18383264Y-4940462D01*
X18226101Y-4873787D01*
X17807001Y-4873787D01*
X17692701Y-4895219D01*
X17653411Y-4947606D01*
X17642695Y-5048809D01*
X17652220Y-5148822D01*
X17692701Y-5204781D01*
X17797476Y-5223831D01*
X17985595Y-5223831D01*
X17985595Y-5483388D01*
X17874272Y-5515534D01*
X17749851Y-5526250D01*
X17578401Y-5490234D01*
X17426001Y-5382184D01*
X17346626Y-5279261D01*
X17299001Y-5162580D01*
X17283126Y-5032141D01*
X17318250Y-4845808D01*
X17423620Y-4698766D01*
X17574234Y-4603218D01*
X17745089Y-4571369D01*
X17873676Y-4587740D01*
X17983214Y-4636853D01*
X18128470Y-4702337D01*
X18208837Y-4670786D01*
X18297539Y-4576131D01*
X18352308Y-4441591D01*
X18288014Y-4335625D01*
X18117887Y-4232437D01*
X17940881Y-4170525D01*
X17756995Y-4149887D01*
X17581973Y-4165738D01*
X17418858Y-4213288D01*
X17267648Y-4292539D01*
X17128345Y-4403491D01*
X17011664Y-4538106D01*
X16928320Y-4688348D01*
X16878314Y-4854217D01*
X16861645Y-5035712D01*
X15373364Y-5035712D01*
X15373364Y-3637257D01*
G37*
G04 #@! TO.C,G\u002A\u002A\u002A*
G36*
X23985845Y-42363639D02*
G01*
X23991320Y-42451578D01*
X23992453Y-42499662D01*
X23989640Y-42531604D01*
X23985438Y-42539516D01*
X23967715Y-42529822D01*
X23935603Y-42505211D01*
X23916752Y-42489182D01*
X23813378Y-42418891D01*
X23694056Y-42372365D01*
X23564454Y-42349816D01*
X23430242Y-42351455D01*
X23297089Y-42377495D01*
X23170664Y-42428149D01*
X23117089Y-42459280D01*
X23004697Y-42548763D01*
X22916853Y-42656545D01*
X22853066Y-42783672D01*
X22812847Y-42931189D01*
X22795707Y-43100140D01*
X22794970Y-43146943D01*
X22802383Y-43296303D01*
X22825863Y-43425502D01*
X22867267Y-43543020D01*
X22893580Y-43596879D01*
X22976525Y-43723238D01*
X23076770Y-43822722D01*
X23194228Y-43895284D01*
X23328809Y-43940874D01*
X23480424Y-43959445D01*
X23561208Y-43958653D01*
X23679495Y-43945934D01*
X23776406Y-43918573D01*
X23860428Y-43873340D01*
X23926888Y-43819511D01*
X23960036Y-43790038D01*
X23982491Y-43772490D01*
X23986831Y-43770353D01*
X23988824Y-43785595D01*
X23990596Y-43828343D01*
X23992063Y-43894136D01*
X23993139Y-43978512D01*
X23993740Y-44077008D01*
X23993837Y-44138006D01*
X23993837Y-44505659D01*
X23702113Y-44503779D01*
X23602833Y-44502473D01*
X23509282Y-44500024D01*
X23428329Y-44496702D01*
X23366841Y-44492780D01*
X23335753Y-44489304D01*
X23160286Y-44445608D01*
X22985432Y-44375674D01*
X22820963Y-44283894D01*
X22723734Y-44214189D01*
X22573548Y-44075789D01*
X22448649Y-43920972D01*
X22349263Y-43752806D01*
X22275612Y-43574360D01*
X22227920Y-43388701D01*
X22206411Y-43198898D01*
X22211310Y-43008018D01*
X22242839Y-42819129D01*
X22301223Y-42635300D01*
X22386686Y-42459598D01*
X22499451Y-42295092D01*
X22577234Y-42206247D01*
X22736707Y-42061730D01*
X22912817Y-41944267D01*
X23104280Y-41854635D01*
X23221183Y-41815900D01*
X23346449Y-41780234D01*
X26343617Y-41775472D01*
X26750948Y-41774895D01*
X27126967Y-41774511D01*
X27472328Y-41774322D01*
X27787688Y-41774331D01*
X28073704Y-41774541D01*
X28331030Y-41774954D01*
X28560325Y-41775574D01*
X28762242Y-41776402D01*
X28937439Y-41777442D01*
X29086572Y-41778696D01*
X29210296Y-41780166D01*
X29309268Y-41781857D01*
X29384145Y-41783769D01*
X29435581Y-41785907D01*
X29464233Y-41788272D01*
X29464267Y-41788277D01*
X29666050Y-41832720D01*
X29856377Y-41905996D01*
X30032634Y-42006218D01*
X30192207Y-42131496D01*
X30332481Y-42279941D01*
X30450843Y-42449665D01*
X30497419Y-42534776D01*
X30561915Y-42682690D01*
X30604535Y-42830493D01*
X30627630Y-42988350D01*
X30633589Y-43122965D01*
X30631184Y-43258308D01*
X30619784Y-43374476D01*
X30596995Y-43482008D01*
X30560420Y-43591444D01*
X30507666Y-43713323D01*
X30491862Y-43746569D01*
X30448751Y-43832086D01*
X30408724Y-43900117D01*
X30364221Y-43961601D01*
X30307685Y-44027475D01*
X30268495Y-44069781D01*
X30130652Y-44200824D01*
X29987511Y-44304917D01*
X29831855Y-44387026D01*
X29769792Y-44412771D01*
X29738936Y-44424891D01*
X29710667Y-44435910D01*
X29683405Y-44445880D01*
X29655567Y-44454853D01*
X29625573Y-44462882D01*
X29591841Y-44470020D01*
X29552791Y-44476318D01*
X29506841Y-44481828D01*
X29452409Y-44486605D01*
X29387915Y-44490698D01*
X29311777Y-44494162D01*
X29222414Y-44497049D01*
X29118245Y-44499410D01*
X28997689Y-44501298D01*
X28859164Y-44502766D01*
X28701089Y-44503866D01*
X28521884Y-44504650D01*
X28319966Y-44505171D01*
X28093754Y-44505481D01*
X27841668Y-44505632D01*
X27562126Y-44505678D01*
X27253546Y-44505669D01*
X26965622Y-44505659D01*
X24521339Y-44505659D01*
X24521339Y-42371675D01*
X24590013Y-42371675D01*
X24669119Y-42587471D01*
X24714917Y-42712482D01*
X24759941Y-42835553D01*
X24806676Y-42963489D01*
X24857607Y-43103095D01*
X24915217Y-43261175D01*
X24960940Y-43386716D01*
X24996960Y-43485548D01*
X25034530Y-43588477D01*
X25069954Y-43685391D01*
X25099538Y-43766178D01*
X25108403Y-43790335D01*
X25165646Y-43946187D01*
X25426941Y-43946187D01*
X25514284Y-43945814D01*
X25589229Y-43944781D01*
X25646484Y-43943220D01*
X25680756Y-43941260D01*
X25688236Y-43939727D01*
X25692843Y-43922259D01*
X25705704Y-43879067D01*
X25725384Y-43814709D01*
X25750446Y-43733744D01*
X25779451Y-43640729D01*
X25810964Y-43540224D01*
X25843547Y-43436787D01*
X25875763Y-43334977D01*
X25906175Y-43239350D01*
X25933347Y-43154467D01*
X25955841Y-43084884D01*
X25972220Y-43035162D01*
X25981047Y-43009857D01*
X25982075Y-43007624D01*
X25984760Y-43005987D01*
X25988115Y-43009161D01*
X25993426Y-43020945D01*
X26001974Y-43045137D01*
X26015045Y-43085536D01*
X26033922Y-43145941D01*
X26059888Y-43230150D01*
X26085884Y-43314784D01*
X26117327Y-43417015D01*
X26153413Y-43534056D01*
X26189294Y-43650190D01*
X26215367Y-43734387D01*
X26281052Y-43946187D01*
X26800170Y-43946187D01*
X26820233Y-43894236D01*
X26829734Y-43868830D01*
X26849000Y-43816645D01*
X26876834Y-43740939D01*
X26912045Y-43644968D01*
X26953438Y-43531987D01*
X26999818Y-43405252D01*
X27049994Y-43268020D01*
X27094226Y-43146943D01*
X27146532Y-43003759D01*
X27195928Y-42868627D01*
X27241240Y-42744755D01*
X27281293Y-42635352D01*
X27314911Y-42543627D01*
X27340919Y-42472787D01*
X27358142Y-42426042D01*
X27365000Y-42407641D01*
X27381844Y-42363683D01*
X27430590Y-42363683D01*
X27430590Y-43946187D01*
X27958091Y-43946187D01*
X28054001Y-43946187D01*
X28565517Y-43946187D01*
X28565517Y-43078256D01*
X28661546Y-43078256D01*
X28661788Y-43228570D01*
X28685366Y-43375710D01*
X28730832Y-43513936D01*
X28796737Y-43637507D01*
X28881632Y-43740683D01*
X28893358Y-43751725D01*
X29013524Y-43843614D01*
X29144498Y-43908166D01*
X29289998Y-43946762D01*
X29453741Y-43960779D01*
X29456675Y-43960813D01*
X29588551Y-43962172D01*
X29588551Y-43530580D01*
X29509667Y-43530580D01*
X29412957Y-43520238D01*
X29335906Y-43487102D01*
X29273274Y-43428013D01*
X29231523Y-43362739D01*
X29207905Y-43294627D01*
X29196169Y-43208657D01*
X29196297Y-43116641D01*
X29208270Y-43030392D01*
X29232072Y-42961725D01*
X29232137Y-42961603D01*
X29289715Y-42880884D01*
X29362527Y-42821433D01*
X29444798Y-42786519D01*
X29530757Y-42779409D01*
X29549649Y-42781911D01*
X29562064Y-42782306D01*
X29570621Y-42775181D01*
X29576035Y-42755671D01*
X29579019Y-42718914D01*
X29580289Y-42660046D01*
X29580558Y-42574203D01*
X29580558Y-42355690D01*
X29420709Y-42358191D01*
X29256980Y-42374641D01*
X29109935Y-42417948D01*
X28980867Y-42487107D01*
X28871068Y-42581109D01*
X28781832Y-42698947D01*
X28714451Y-42839614D01*
X28686089Y-42930509D01*
X28661546Y-43078256D01*
X28565517Y-43078256D01*
X28565517Y-42363683D01*
X28054001Y-42363683D01*
X28054001Y-43946187D01*
X27958091Y-43946187D01*
X27958091Y-42363683D01*
X27430590Y-42363683D01*
X27381844Y-42363683D01*
X26862676Y-42363683D01*
X26804831Y-42559498D01*
X26781281Y-42639322D01*
X26751430Y-42740662D01*
X26717973Y-42854357D01*
X26683608Y-42971246D01*
X26654303Y-43071014D01*
X26626059Y-43165748D01*
X26600375Y-43249116D01*
X26578720Y-43316578D01*
X26562559Y-43363598D01*
X26553359Y-43385637D01*
X26552269Y-43386716D01*
X26545565Y-43371996D01*
X26531301Y-43330436D01*
X26510697Y-43265938D01*
X26484969Y-43182404D01*
X26455337Y-43083734D01*
X26423019Y-42973832D01*
X26418741Y-42959120D01*
X26384928Y-42842718D01*
X26352786Y-42732129D01*
X26323765Y-42632336D01*
X26299313Y-42548318D01*
X26280879Y-42485057D01*
X26269934Y-42447603D01*
X26245303Y-42363683D01*
X25740878Y-42363683D01*
X25591172Y-42882946D01*
X25555570Y-43004820D01*
X25522375Y-43115384D01*
X25492667Y-43211269D01*
X25467530Y-43289106D01*
X25448044Y-43345527D01*
X25435292Y-43377162D01*
X25430722Y-43382474D01*
X25425676Y-43369817D01*
X25416368Y-43341990D01*
X25402224Y-43297077D01*
X25382665Y-43233160D01*
X25357116Y-43148325D01*
X25324998Y-43040654D01*
X25285737Y-42908231D01*
X25238754Y-42749141D01*
X25183474Y-42561466D01*
X25177334Y-42540601D01*
X25156960Y-42472490D01*
X25139655Y-42416753D01*
X25127484Y-42379905D01*
X25122792Y-42368367D01*
X25105794Y-42366792D01*
X25062247Y-42365923D01*
X24997568Y-42365781D01*
X24917170Y-42366387D01*
X24853664Y-42367282D01*
X24590013Y-42371675D01*
X24521339Y-42371675D01*
X24521339Y-42363683D01*
X23985845Y-42363639D01*
G37*
G36*
X23721295Y-42783941D02*
G01*
X23803328Y-42810622D01*
X23845382Y-42837652D01*
X23906838Y-42897745D01*
X23948015Y-42966009D01*
X23974523Y-43052546D01*
X23979805Y-43079856D01*
X23986726Y-43193060D01*
X23968457Y-43299381D01*
X23927136Y-43393418D01*
X23864905Y-43469770D01*
X23809322Y-43510214D01*
X23738031Y-43536035D01*
X23653339Y-43545336D01*
X23569573Y-43537511D01*
X23521167Y-43522413D01*
X23465405Y-43485955D01*
X23409829Y-43430314D01*
X23364202Y-43366810D01*
X23339609Y-43311919D01*
X23322432Y-43202298D01*
X23328212Y-43089754D01*
X23355469Y-42983858D01*
X23402726Y-42894181D01*
X23404516Y-42891735D01*
X23465327Y-42834655D01*
X23543954Y-42796980D01*
X23632056Y-42779735D01*
X23721295Y-42783941D01*
G37*
G04 #@! TO.C,kibuzzard-62B83A14*
G36*
X52102862Y-7527861D02*
G01*
X52461789Y-7767689D01*
X52701617Y-8126616D01*
X52785833Y-8550000D01*
X52701617Y-8973384D01*
X52461789Y-9332311D01*
X52102862Y-9572139D01*
X51679478Y-9656355D01*
X32920520Y-9656355D01*
X32497137Y-9572138D01*
X32138210Y-9332311D01*
X31898383Y-8973383D01*
X31817325Y-8565875D01*
X32921049Y-8565875D01*
X33044874Y-9023075D01*
X33233786Y-9113563D01*
X33552874Y-9143725D01*
X33864818Y-9097688D01*
X34032299Y-8959575D01*
X34098974Y-8784950D01*
X34108231Y-8565875D01*
X50491499Y-8565875D01*
X50615324Y-9023075D01*
X50804236Y-9113563D01*
X51123324Y-9143725D01*
X51435268Y-9097688D01*
X51602749Y-8959575D01*
X51669424Y-8784950D01*
X51678949Y-8559525D01*
X51678949Y-8534125D01*
X51570999Y-8089625D01*
X51365418Y-7989612D01*
X51040774Y-7956275D01*
X50728830Y-8003900D01*
X50561349Y-8146775D01*
X50501024Y-8318225D01*
X50491499Y-8540475D01*
X50491499Y-8565875D01*
X34108231Y-8565875D01*
X34108499Y-8559525D01*
X34108499Y-8534125D01*
X34000549Y-8089625D01*
X33794968Y-7989612D01*
X33470324Y-7956275D01*
X33158380Y-8003900D01*
X32990899Y-8146775D01*
X32930574Y-8318225D01*
X32921049Y-8540475D01*
X32921049Y-8565875D01*
X31817325Y-8565875D01*
X31814167Y-8550000D01*
X31898383Y-8126617D01*
X32138210Y-7767689D01*
X32497137Y-7527862D01*
X32920520Y-7443645D01*
X51679478Y-7443645D01*
X52102862Y-7527861D01*
G37*
G36*
X37422862Y-7527861D02*
G01*
X37781789Y-7767689D01*
X38021617Y-8126616D01*
X38105833Y-8550000D01*
X38021617Y-8973384D01*
X37781789Y-9332311D01*
X37422862Y-9572139D01*
X36999478Y-9656355D01*
X18240520Y-9656355D01*
X17817137Y-9572138D01*
X17458210Y-9332311D01*
X17218383Y-8973383D01*
X17137325Y-8565875D01*
X18241049Y-8565875D01*
X18364874Y-9023075D01*
X18553786Y-9113563D01*
X18872874Y-9143725D01*
X19184818Y-9097688D01*
X19352299Y-8959575D01*
X19418974Y-8784950D01*
X19428231Y-8565875D01*
X35811499Y-8565875D01*
X35935324Y-9023075D01*
X36124236Y-9113563D01*
X36443324Y-9143725D01*
X36755268Y-9097688D01*
X36922749Y-8959575D01*
X36989424Y-8784950D01*
X36998949Y-8559525D01*
X36998949Y-8534125D01*
X36890999Y-8089625D01*
X36685418Y-7989612D01*
X36360774Y-7956275D01*
X36048830Y-8003900D01*
X35881349Y-8146775D01*
X35821024Y-8318225D01*
X35811499Y-8540475D01*
X35811499Y-8565875D01*
X19428231Y-8565875D01*
X19428499Y-8559525D01*
X19428499Y-8534125D01*
X19320549Y-8089625D01*
X19114968Y-7989612D01*
X18790324Y-7956275D01*
X18478380Y-8003900D01*
X18310899Y-8146775D01*
X18250574Y-8318225D01*
X18241049Y-8540475D01*
X18241049Y-8565875D01*
X17137325Y-8565875D01*
X17134167Y-8550000D01*
X17218383Y-8126617D01*
X17458210Y-7767689D01*
X17817137Y-7527862D01*
X18240520Y-7443645D01*
X36999478Y-7443645D01*
X37422862Y-7527861D01*
G37*
G04 #@! TO.C,kibuzzard-62B8367A*
G36*
X33876750Y-37303250D02*
G01*
X34109831Y-38468657D01*
X31661738Y-40916750D01*
X31589833Y-40981920D01*
X31511886Y-41039730D01*
X31428649Y-41089620D01*
X31340922Y-41131112D01*
X31249551Y-41163804D01*
X31155415Y-41187385D01*
X31059421Y-41201625D01*
X30962495Y-41206386D01*
X30865567Y-41201624D01*
X30769573Y-41187384D01*
X30675438Y-41163805D01*
X30584066Y-41131112D01*
X30496340Y-41089620D01*
X30413102Y-41039730D01*
X30335155Y-40981920D01*
X30263250Y-40916750D01*
X30198080Y-40844845D01*
X30140270Y-40766898D01*
X30090380Y-40683660D01*
X30048888Y-40595934D01*
X30016195Y-40504562D01*
X29992616Y-40410427D01*
X29978376Y-40314433D01*
X29973614Y-40217505D01*
X29978375Y-40120579D01*
X29992615Y-40024585D01*
X30016196Y-39930449D01*
X30023162Y-39910979D01*
X30682610Y-39910979D01*
X30699447Y-39954310D01*
X30756023Y-39983944D01*
X31506772Y-40238984D01*
X31568736Y-40240780D01*
X31623516Y-40210247D01*
X31632496Y-40201267D01*
X31662131Y-40147385D01*
X31660335Y-40085421D01*
X31405296Y-39334672D01*
X31375661Y-39278096D01*
X31332331Y-39261258D01*
X31265204Y-39273606D01*
X31196954Y-39311323D01*
X31181687Y-39375083D01*
X31196056Y-39414596D01*
X31409786Y-39987536D01*
X31379253Y-39976535D01*
X31309207Y-39950717D01*
X31216598Y-39916480D01*
X31118376Y-39880222D01*
X31020267Y-39843852D01*
X30927995Y-39809278D01*
X30856041Y-39782449D01*
X30818885Y-39769316D01*
X30780270Y-39760336D01*
X30752431Y-39763030D01*
X30725041Y-39783236D01*
X30694957Y-39843852D01*
X30682610Y-39910979D01*
X30023162Y-39910979D01*
X30048888Y-39839078D01*
X30090380Y-39751351D01*
X30140270Y-39668114D01*
X30198080Y-39590167D01*
X30263250Y-39518262D01*
X30585136Y-39196376D01*
X31531917Y-39196376D01*
X31541010Y-39271698D01*
X31566491Y-39350387D01*
X31609260Y-39428179D01*
X31670213Y-39500807D01*
X31743627Y-39562321D01*
X31823776Y-39606774D01*
X31905159Y-39634051D01*
X31982277Y-39644042D01*
X32056701Y-39640113D01*
X32130002Y-39625632D01*
X32198253Y-39602733D01*
X32257522Y-39573547D01*
X32309271Y-39538635D01*
X32354958Y-39498562D01*
X32394808Y-39451527D01*
X32429045Y-39395738D01*
X32466313Y-39311772D01*
X32478436Y-39261932D01*
X32484273Y-39211193D01*
X32464966Y-39167639D01*
X32394920Y-39137106D01*
X32325997Y-39130595D01*
X32284463Y-39146985D01*
X32259318Y-39208050D01*
X32254828Y-39235889D01*
X32233724Y-39285729D01*
X32188374Y-39345448D01*
X32120349Y-39393717D01*
X32034812Y-39419984D01*
X31932437Y-39409208D01*
X31880688Y-39384400D01*
X31833205Y-39345897D01*
X31794702Y-39298414D01*
X31769894Y-39246665D01*
X31759118Y-39146086D01*
X31785834Y-39058753D01*
X31833654Y-38990728D01*
X31897863Y-38941786D01*
X31964766Y-38920682D01*
X32030321Y-38894639D01*
X32047833Y-38852881D01*
X32044690Y-38783284D01*
X32013708Y-38714585D01*
X31947703Y-38695278D01*
X31906394Y-38704258D01*
X31872269Y-38713238D01*
X31779772Y-38752751D01*
X31726789Y-38786202D01*
X31680989Y-38825491D01*
X31627208Y-38890049D01*
X31584402Y-38965184D01*
X31552572Y-39050896D01*
X31536632Y-39123186D01*
X31531917Y-39196376D01*
X30585136Y-39196376D01*
X31194895Y-38586617D01*
X32141677Y-38586617D01*
X32150769Y-38661938D01*
X32176251Y-38740628D01*
X32219019Y-38818420D01*
X32279973Y-38891047D01*
X32353386Y-38952562D01*
X32433535Y-38997014D01*
X32514919Y-39024292D01*
X32592036Y-39034282D01*
X32666461Y-39030354D01*
X32739762Y-39015873D01*
X32808012Y-38992973D01*
X32867281Y-38963787D01*
X32919030Y-38928876D01*
X32964717Y-38888802D01*
X33004567Y-38841768D01*
X33038804Y-38785978D01*
X33076072Y-38702013D01*
X33088196Y-38652172D01*
X33094033Y-38601434D01*
X33074725Y-38557880D01*
X33004679Y-38527347D01*
X32935756Y-38520836D01*
X32894222Y-38537225D01*
X32869077Y-38598291D01*
X32864587Y-38626130D01*
X32843484Y-38675970D01*
X32798133Y-38735689D01*
X32730108Y-38783957D01*
X32644571Y-38810225D01*
X32542196Y-38799449D01*
X32490447Y-38774640D01*
X32442964Y-38736138D01*
X32404462Y-38688655D01*
X32379653Y-38636906D01*
X32368877Y-38536327D01*
X32395593Y-38448994D01*
X32443413Y-38380969D01*
X32507622Y-38332026D01*
X32574525Y-38310923D01*
X32640081Y-38284880D01*
X32657592Y-38243122D01*
X32654449Y-38173525D01*
X32623467Y-38104826D01*
X32557462Y-38085518D01*
X32516153Y-38094498D01*
X32482028Y-38103479D01*
X32389532Y-38142992D01*
X32336549Y-38176443D01*
X32290749Y-38215732D01*
X32236967Y-38280290D01*
X32194162Y-38355424D01*
X32162331Y-38441136D01*
X32146392Y-38513427D01*
X32141677Y-38586617D01*
X31194895Y-38586617D01*
X32711343Y-37070169D01*
X33876750Y-37303250D01*
G37*
G04 #@! TO.C,kibuzzard-62B8370D*
G36*
X52436184Y-4634770D02*
G01*
X52582333Y-4732103D01*
X52683239Y-4877657D01*
X52716874Y-5054763D01*
X52682346Y-5231273D01*
X52578761Y-5375041D01*
X52432314Y-5470588D01*
X52269199Y-5502438D01*
X52038217Y-5502438D01*
X52038217Y-4602325D01*
X52266817Y-4602325D01*
X52436184Y-4634770D01*
G37*
G36*
X54626636Y-6462743D02*
G01*
X48166107Y-6462743D01*
X48027634Y-6455940D01*
X47890494Y-6435597D01*
X47756009Y-6401910D01*
X47625473Y-6355204D01*
X47500144Y-6295928D01*
X47381229Y-6224653D01*
X47269872Y-6142065D01*
X47167147Y-6048960D01*
X47074042Y-5946234D01*
X46991454Y-5834878D01*
X46920179Y-5715962D01*
X46860902Y-5590633D01*
X46814196Y-5460098D01*
X46780509Y-5325612D01*
X46760167Y-5188473D01*
X46753364Y-5050000D01*
X46754066Y-5035712D01*
X48166305Y-5035712D01*
X48182676Y-5218101D01*
X48231789Y-5386649D01*
X48313645Y-5541356D01*
X48428242Y-5682222D01*
X48565015Y-5799424D01*
X48713397Y-5883140D01*
X48873387Y-5933369D01*
X49044986Y-5950113D01*
X49232510Y-5937164D01*
X49395030Y-5898320D01*
X49532547Y-5833580D01*
X49645061Y-5742944D01*
X49658177Y-5714369D01*
X49902236Y-5714369D01*
X49905808Y-5797713D01*
X49928430Y-5862006D01*
X49990342Y-5910227D01*
X50109405Y-5926300D01*
X50232039Y-5910227D01*
X50295142Y-5862006D01*
X50317764Y-5800094D01*
X50321336Y-5716750D01*
X50321336Y-4933319D01*
X50387879Y-5020102D01*
X50474795Y-5134402D01*
X50582083Y-5276219D01*
X50709745Y-5445552D01*
X50857779Y-5642402D01*
X51026186Y-5866769D01*
X51085717Y-5912013D01*
X51214305Y-5926300D01*
X51336939Y-5910227D01*
X51400042Y-5862006D01*
X51422664Y-5800094D01*
X51426236Y-5716750D01*
X51426236Y-5711988D01*
X51616736Y-5711988D01*
X51645311Y-5864388D01*
X51708414Y-5909036D01*
X51826286Y-5923919D01*
X52262055Y-5923919D01*
X52437449Y-5907696D01*
X52599299Y-5859030D01*
X52747607Y-5777918D01*
X52882371Y-5664363D01*
X52994364Y-5528110D01*
X53074359Y-5378910D01*
X53122356Y-5216762D01*
X53138355Y-5041666D01*
X53121984Y-4867239D01*
X53072871Y-4707100D01*
X52991015Y-4561248D01*
X52876417Y-4429684D01*
X52740240Y-4320817D01*
X52593644Y-4243054D01*
X52436630Y-4196396D01*
X52269199Y-4180844D01*
X51828667Y-4178462D01*
X51706033Y-4194536D01*
X51642930Y-4242756D01*
X51620308Y-4304669D01*
X51616736Y-4388012D01*
X51616736Y-5711988D01*
X51426236Y-5711988D01*
X51426236Y-4395156D01*
X51411949Y-4273712D01*
X51382183Y-4223706D01*
X51320271Y-4195131D01*
X51210733Y-4183225D01*
X51097624Y-4197512D01*
X51029758Y-4253472D01*
X51007136Y-4385631D01*
X51007136Y-5190494D01*
X50941520Y-5104570D01*
X50857382Y-4992850D01*
X50754724Y-4855333D01*
X50633545Y-4692019D01*
X50493845Y-4502908D01*
X50335624Y-4288000D01*
X50280855Y-4226087D01*
X50222514Y-4196322D01*
X50109405Y-4183225D01*
X49992724Y-4197512D01*
X49924858Y-4253472D01*
X49902236Y-4385631D01*
X49902236Y-5714369D01*
X49658177Y-5714369D01*
X49711736Y-5597688D01*
X49711736Y-5073813D01*
X49687924Y-4940462D01*
X49530761Y-4873787D01*
X49111661Y-4873787D01*
X48997361Y-4895219D01*
X48958071Y-4947606D01*
X48947355Y-5048809D01*
X48956880Y-5148822D01*
X48997361Y-5204781D01*
X49102136Y-5223831D01*
X49290255Y-5223831D01*
X49290255Y-5483388D01*
X49178932Y-5515534D01*
X49054511Y-5526250D01*
X48883061Y-5490234D01*
X48730661Y-5382184D01*
X48651286Y-5279261D01*
X48603661Y-5162580D01*
X48587786Y-5032141D01*
X48622910Y-4845808D01*
X48728280Y-4698766D01*
X48878894Y-4603218D01*
X49049749Y-4571369D01*
X49178336Y-4587740D01*
X49287874Y-4636853D01*
X49433130Y-4702337D01*
X49513497Y-4670786D01*
X49602199Y-4576131D01*
X49656967Y-4441591D01*
X49592674Y-4335625D01*
X49422547Y-4232437D01*
X49245540Y-4170525D01*
X49061655Y-4149887D01*
X48886633Y-4165738D01*
X48723517Y-4213288D01*
X48572308Y-4292539D01*
X48433005Y-4403491D01*
X48316324Y-4538106D01*
X48232980Y-4688348D01*
X48182974Y-4854217D01*
X48166305Y-5035712D01*
X46754066Y-5035712D01*
X46760167Y-4911527D01*
X46780509Y-4774388D01*
X46814196Y-4639902D01*
X46860902Y-4509367D01*
X46920179Y-4384038D01*
X46991454Y-4265122D01*
X47074042Y-4153766D01*
X47167147Y-4051040D01*
X47269872Y-3957935D01*
X47381229Y-3875347D01*
X47500144Y-3804072D01*
X47625473Y-3744796D01*
X47756009Y-3698090D01*
X47890494Y-3664403D01*
X48027634Y-3644060D01*
X48166107Y-3637257D01*
X54626636Y-3637257D01*
X54626636Y-6462743D01*
G37*
G04 #@! TO.C,kibuzzard-62B83AAD*
G36*
X26646312Y-35467861D02*
G01*
X27005239Y-35707689D01*
X27245067Y-36066616D01*
X27329283Y-36490000D01*
X27245067Y-36913384D01*
X27005239Y-37272311D01*
X26646312Y-37512139D01*
X26222928Y-37596355D01*
X10677070Y-37596355D01*
X10253687Y-37512138D01*
X9894760Y-37272311D01*
X9654933Y-36913383D01*
X9573875Y-36505875D01*
X10677599Y-36505875D01*
X10801424Y-36963075D01*
X10990336Y-37053563D01*
X11309424Y-37083725D01*
X11621368Y-37037688D01*
X11788849Y-36899575D01*
X11855524Y-36724950D01*
X11864781Y-36505875D01*
X25034949Y-36505875D01*
X25158774Y-36963075D01*
X25347686Y-37053563D01*
X25666774Y-37083725D01*
X25978718Y-37037688D01*
X26146199Y-36899575D01*
X26212874Y-36724950D01*
X26222399Y-36499525D01*
X26222399Y-36474125D01*
X26114449Y-36029625D01*
X25908868Y-35929612D01*
X25584224Y-35896275D01*
X25272280Y-35943900D01*
X25104799Y-36086775D01*
X25044474Y-36258225D01*
X25034949Y-36480475D01*
X25034949Y-36505875D01*
X11864781Y-36505875D01*
X11865049Y-36499525D01*
X11865049Y-36474125D01*
X11757099Y-36029625D01*
X11551518Y-35929612D01*
X11226874Y-35896275D01*
X10914930Y-35943900D01*
X10747449Y-36086775D01*
X10687124Y-36258225D01*
X10677599Y-36480475D01*
X10677599Y-36505875D01*
X9573875Y-36505875D01*
X9570717Y-36490000D01*
X9654933Y-36066617D01*
X9894760Y-35707689D01*
X10253687Y-35467862D01*
X10677070Y-35383645D01*
X26222928Y-35383645D01*
X26646312Y-35467861D01*
G37*
G04 #@! TO.C,kibuzzard-62B8368F*
G36*
X30193261Y-37002864D02*
G01*
X31363158Y-37236842D01*
X31597136Y-38406739D01*
X31035870Y-38968005D01*
X29160793Y-40843083D01*
X29160718Y-40843158D01*
X29088537Y-40908579D01*
X29010290Y-40966611D01*
X28926731Y-41016694D01*
X28838666Y-41058346D01*
X28746944Y-41091165D01*
X28652445Y-41114836D01*
X28556081Y-41129130D01*
X28458780Y-41133910D01*
X28361480Y-41129129D01*
X28265116Y-41114835D01*
X28170618Y-41091165D01*
X28078894Y-41058346D01*
X27990830Y-41016694D01*
X27907272Y-40966611D01*
X27829025Y-40908580D01*
X27756842Y-40843158D01*
X27691420Y-40770975D01*
X27633389Y-40692728D01*
X27583306Y-40609170D01*
X27541654Y-40521106D01*
X27508835Y-40429382D01*
X27485165Y-40334884D01*
X27470871Y-40238520D01*
X27466090Y-40141220D01*
X27470870Y-40043919D01*
X27485164Y-39947555D01*
X27508835Y-39853056D01*
X27528981Y-39796752D01*
X28315620Y-39796752D01*
X28322384Y-39891522D01*
X28347612Y-39979613D01*
X28391307Y-40061024D01*
X28453467Y-40135757D01*
X28528425Y-40198365D01*
X28610509Y-40243407D01*
X28699723Y-40270881D01*
X28796064Y-40280788D01*
X28891844Y-40273407D01*
X28979373Y-40249020D01*
X29058652Y-40207626D01*
X29129680Y-40149227D01*
X29195517Y-40073624D01*
X29242158Y-39997686D01*
X29269604Y-39921409D01*
X29277854Y-39844796D01*
X29248220Y-39764872D01*
X29050654Y-39567306D01*
X28991384Y-39525997D01*
X28906970Y-39560122D01*
X28748917Y-39718175D01*
X28713894Y-39769362D01*
X28718834Y-39803936D01*
X28752959Y-39846143D01*
X28794268Y-39880268D01*
X28830638Y-39886106D01*
X28877335Y-39853777D01*
X28948279Y-39782833D01*
X29046164Y-39880717D01*
X29016305Y-39934823D01*
X28973424Y-39985786D01*
X28895183Y-40036861D01*
X28796962Y-40053587D01*
X28728213Y-40044707D01*
X28666250Y-40018664D01*
X28611070Y-39975459D01*
X28554046Y-39891942D01*
X28538330Y-39796752D01*
X28559097Y-39703918D01*
X28611519Y-39627474D01*
X28666187Y-39585155D01*
X28726018Y-39562367D01*
X28805493Y-39532283D01*
X28823903Y-39490076D01*
X28821657Y-39420928D01*
X28791574Y-39349535D01*
X28727365Y-39333820D01*
X28624292Y-39359064D01*
X28534190Y-39402469D01*
X28457059Y-39464034D01*
X28397031Y-39536016D01*
X28353450Y-39615463D01*
X28326312Y-39702375D01*
X28315620Y-39796752D01*
X27528981Y-39796752D01*
X27541654Y-39761334D01*
X27583306Y-39673269D01*
X27633389Y-39589710D01*
X27691421Y-39511463D01*
X27756842Y-39439282D01*
X27756917Y-39439207D01*
X28018561Y-39177563D01*
X28821657Y-39177563D01*
X28862967Y-39235935D01*
X29364065Y-39737033D01*
X29396843Y-39767117D01*
X29429621Y-39782833D01*
X29471155Y-39777669D01*
X29522117Y-39738829D01*
X29562304Y-39686520D01*
X29567917Y-39644537D01*
X29553099Y-39612657D01*
X29523015Y-39579879D01*
X29227565Y-39284428D01*
X29285388Y-39292061D01*
X29361271Y-39302388D01*
X29455215Y-39315410D01*
X29567218Y-39331126D01*
X29697283Y-39349535D01*
X29845407Y-39370639D01*
X29884920Y-39365251D01*
X29938801Y-39322146D01*
X29978988Y-39269836D01*
X29984601Y-39227853D01*
X29969783Y-39195973D01*
X29939699Y-39163195D01*
X29441295Y-38664791D01*
X29390108Y-38624380D01*
X29360024Y-38616746D01*
X29325899Y-38629319D01*
X29280100Y-38666138D01*
X29242831Y-38714182D01*
X29238341Y-38760879D01*
X29279651Y-38819251D01*
X29583183Y-39122784D01*
X29526034Y-39115125D01*
X29452171Y-39104724D01*
X29361595Y-39091577D01*
X29254306Y-39075688D01*
X29130304Y-39057053D01*
X28989588Y-39035675D01*
X28945585Y-39032981D01*
X28912358Y-39043758D01*
X28864763Y-39081475D01*
X28826148Y-39130866D01*
X28821657Y-39177563D01*
X28018561Y-39177563D01*
X28670527Y-38525597D01*
X29465542Y-38525597D01*
X29480359Y-38557477D01*
X29510443Y-38590255D01*
X30009745Y-39089557D01*
X30077995Y-39136254D01*
X30118631Y-39129295D01*
X30168696Y-39090455D01*
X30333035Y-38926116D01*
X30393062Y-38853853D01*
X30435747Y-38774462D01*
X30461087Y-38687943D01*
X30469085Y-38594296D01*
X30459937Y-38500676D01*
X30433838Y-38414242D01*
X30390789Y-38334991D01*
X30330790Y-38262924D01*
X30258835Y-38203317D01*
X30179921Y-38161447D01*
X30094047Y-38137312D01*
X30001214Y-38130915D01*
X29908802Y-38141214D01*
X29824191Y-38167172D01*
X29747382Y-38208790D01*
X29678374Y-38266067D01*
X29511341Y-38431304D01*
X29471154Y-38483614D01*
X29465542Y-38525597D01*
X28670527Y-38525597D01*
X29631995Y-37564130D01*
X30193261Y-37002864D01*
G37*
G36*
X30097304Y-38372708D02*
G01*
X30176778Y-38426814D01*
X30230323Y-38506402D01*
X30245477Y-38599684D01*
X30226282Y-38690946D01*
X30176778Y-38764472D01*
X30089670Y-38851580D01*
X29750216Y-38512126D01*
X29836426Y-38425916D01*
X29912534Y-38374279D01*
X30004357Y-38355870D01*
X30097304Y-38372708D01*
G37*
G04 #@! TD*
%LPC*%
D11*
G04 #@! TO.C,REF\u002A\u002A*
X8330000Y-31390000D03*
G04 #@! TD*
G04 #@! TO.C,REF\u002A\u002A*
X21030000Y-18690000D03*
G04 #@! TD*
G04 #@! TO.C,REF\u002A\u002A*
X48970000Y-33930000D03*
G04 #@! TD*
G04 #@! TO.C,REF\u002A\u002A*
X10870000Y-28850000D03*
G04 #@! TD*
G04 #@! TO.C,REF\u002A\u002A*
X59130000Y-21230000D03*
G04 #@! TD*
G04 #@! TO.C,REF\u002A\u002A*
X26110000Y-31390000D03*
G04 #@! TD*
G04 #@! TO.C,REF\u002A\u002A*
X38810000Y-21230000D03*
G04 #@! TD*
G04 #@! TO.C,REF\u002A\u002A*
X36270000Y-33930000D03*
G04 #@! TD*
G04 #@! TO.C,REF\u002A\u002A*
X56590000Y-21230000D03*
G04 #@! TD*
G04 #@! TO.C,REF\u002A\u002A*
X41350000Y-21230000D03*
G04 #@! TD*
G04 #@! TO.C,REF\u002A\u002A*
X48970000Y-26310000D03*
G04 #@! TD*
G04 #@! TO.C,REF\u002A\u002A*
X38810000Y-13610000D03*
G04 #@! TD*
G04 #@! TO.C,REF\u002A\u002A*
X28650000Y-36470000D03*
G04 #@! TD*
G04 #@! TO.C,REF\u002A\u002A*
X54050000Y-13610000D03*
G04 #@! TD*
G04 #@! TO.C,REF\u002A\u002A*
X61670000Y-28850000D03*
G04 #@! TD*
G04 #@! TO.C,REF\u002A\u002A*
X28650000Y-28850000D03*
G04 #@! TD*
G04 #@! TO.C,REF\u002A\u002A*
X31190000Y-16150000D03*
G04 #@! TD*
G04 #@! TO.C,REF\u002A\u002A*
X23570000Y-8530000D03*
G04 #@! TD*
G04 #@! TO.C,REF\u002A\u002A*
X36270000Y-16150000D03*
G04 #@! TD*
G04 #@! TO.C,REF\u002A\u002A*
X23570000Y-36470000D03*
G04 #@! TD*
G04 #@! TO.C,REF\u002A\u002A*
X13410000Y-11070000D03*
G04 #@! TD*
G04 #@! TO.C,REF\u002A\u002A*
X28650000Y-23770000D03*
G04 #@! TD*
G04 #@! TO.C,REF\u002A\u002A*
X18490000Y-16150000D03*
G04 #@! TD*
G04 #@! TO.C,REF\u002A\u002A*
X41350000Y-28850000D03*
G04 #@! TD*
G04 #@! TO.C,REF\u002A\u002A*
X38810000Y-33930000D03*
G04 #@! TD*
G04 #@! TO.C,REF\u002A\u002A*
X31190000Y-23770000D03*
G04 #@! TD*
G04 #@! TO.C,REF\u002A\u002A*
X31190000Y-28850000D03*
G04 #@! TD*
G04 #@! TO.C,REF\u002A\u002A*
X38810000Y-8530000D03*
G04 #@! TD*
G04 #@! TO.C,REF\u002A\u002A*
X46430000Y-31390000D03*
G04 #@! TD*
G04 #@! TO.C,REF\u002A\u002A*
X48970000Y-36470000D03*
G04 #@! TD*
G04 #@! TO.C,REF\u002A\u002A*
X51510000Y-11070000D03*
G04 #@! TD*
G04 #@! TO.C,REF\u002A\u002A*
X31190000Y-8530000D03*
G04 #@! TD*
D12*
G04 #@! TO.C,REF\u002A\u002A*
X65000000Y-42400000D03*
X62600000Y-40000000D03*
X63302944Y-41697056D03*
D13*
X65000000Y-40000000D03*
D12*
X65000000Y-37600000D03*
X67400000Y-40000000D03*
X66697056Y-41697056D03*
X66697056Y-38302944D03*
X63302944Y-38302944D03*
G04 #@! TD*
D11*
G04 #@! TO.C,REF\u002A\u002A*
X33730000Y-21230000D03*
G04 #@! TD*
G04 #@! TO.C,REF\u002A\u002A*
X33730000Y-13610000D03*
G04 #@! TD*
G04 #@! TO.C,REF\u002A\u002A*
X64210000Y-31390000D03*
G04 #@! TD*
G04 #@! TO.C,REF\u002A\u002A*
X61670000Y-23770000D03*
G04 #@! TD*
G04 #@! TO.C,REF\u002A\u002A*
X56590000Y-18690000D03*
G04 #@! TD*
G04 #@! TO.C,REF\u002A\u002A*
X18490000Y-31390000D03*
G04 #@! TD*
G04 #@! TO.C,REF\u002A\u002A*
X18490000Y-23770000D03*
G04 #@! TD*
G04 #@! TO.C,J2*
G36*
G01*
X31615000Y-37320000D02*
X30765000Y-37320000D01*
G75*
G02*
X30340000Y-36895000I0J425000D01*
G01*
X30340000Y-36045000D01*
G75*
G02*
X30765000Y-35620000I425000J0D01*
G01*
X31615000Y-35620000D01*
G75*
G02*
X32040000Y-36045000I0J-425000D01*
G01*
X32040000Y-36895000D01*
G75*
G02*
X31615000Y-37320000I-425000J0D01*
G01*
G37*
G36*
G01*
X34155000Y-37320000D02*
X33305000Y-37320000D01*
G75*
G02*
X32880000Y-36895000I0J425000D01*
G01*
X32880000Y-36045000D01*
G75*
G02*
X33305000Y-35620000I425000J0D01*
G01*
X34155000Y-35620000D01*
G75*
G02*
X34580000Y-36045000I0J-425000D01*
G01*
X34580000Y-36895000D01*
G75*
G02*
X34155000Y-37320000I-425000J0D01*
G01*
G37*
G36*
G01*
X36695000Y-37320000D02*
X35845000Y-37320000D01*
G75*
G02*
X35420000Y-36895000I0J425000D01*
G01*
X35420000Y-36045000D01*
G75*
G02*
X35845000Y-35620000I425000J0D01*
G01*
X36695000Y-35620000D01*
G75*
G02*
X37120000Y-36045000I0J-425000D01*
G01*
X37120000Y-36895000D01*
G75*
G02*
X36695000Y-37320000I-425000J0D01*
G01*
G37*
G36*
G01*
X39235000Y-37320000D02*
X38385000Y-37320000D01*
G75*
G02*
X37960000Y-36895000I0J425000D01*
G01*
X37960000Y-36045000D01*
G75*
G02*
X38385000Y-35620000I425000J0D01*
G01*
X39235000Y-35620000D01*
G75*
G02*
X39660000Y-36045000I0J-425000D01*
G01*
X39660000Y-36895000D01*
G75*
G02*
X39235000Y-37320000I-425000J0D01*
G01*
G37*
G04 #@! TD*
G04 #@! TO.C,REF\u002A\u002A*
X8330000Y-33930000D03*
G04 #@! TD*
G04 #@! TO.C,REF\u002A\u002A*
X38810000Y-11070000D03*
G04 #@! TD*
G04 #@! TO.C,REF\u002A\u002A*
X23570000Y-26310000D03*
G04 #@! TD*
G04 #@! TO.C,REF\u002A\u002A*
X8330000Y-21230000D03*
G04 #@! TD*
G04 #@! TO.C,REF\u002A\u002A*
X26110000Y-8530000D03*
G04 #@! TD*
G04 #@! TO.C,REF\u002A\u002A*
X64210000Y-26310000D03*
G04 #@! TD*
G04 #@! TO.C,REF\u002A\u002A*
X43890000Y-23770000D03*
G04 #@! TD*
G04 #@! TO.C,REF\u002A\u002A*
X38810000Y-28850000D03*
G04 #@! TD*
G04 #@! TO.C,REF\u002A\u002A*
X36270000Y-13610000D03*
G04 #@! TD*
G04 #@! TO.C,REF\u002A\u002A*
X28650000Y-33930000D03*
G04 #@! TD*
G04 #@! TO.C,REF\u002A\u002A*
X31190000Y-31390000D03*
G04 #@! TD*
G04 #@! TO.C,REF\u002A\u002A*
X51510000Y-13610000D03*
G04 #@! TD*
G04 #@! TO.C,REF\u002A\u002A*
X38810000Y-18690000D03*
G04 #@! TD*
G04 #@! TO.C,REF\u002A\u002A*
X21030000Y-26310000D03*
G04 #@! TD*
G04 #@! TO.C,REF\u002A\u002A*
X10870000Y-16150000D03*
G04 #@! TD*
G04 #@! TO.C,REF\u002A\u002A*
X23570000Y-31390000D03*
G04 #@! TD*
G04 #@! TO.C,REF\u002A\u002A*
X48970000Y-13610000D03*
G04 #@! TD*
G04 #@! TO.C,REF\u002A\u002A*
X15950000Y-11070000D03*
G04 #@! TD*
G04 #@! TO.C,REF\u002A\u002A*
X56590000Y-23770000D03*
G04 #@! TD*
G04 #@! TO.C,REF\u002A\u002A*
X43890000Y-18690000D03*
G04 #@! TD*
G04 #@! TO.C,REF\u002A\u002A*
X18490000Y-13610000D03*
G04 #@! TD*
G04 #@! TO.C,REF\u002A\u002A*
X28650000Y-26310000D03*
G04 #@! TD*
G04 #@! TO.C,REF\u002A\u002A*
X61670000Y-26310000D03*
G04 #@! TD*
G04 #@! TO.C,REF\u002A\u002A*
X41350000Y-31390000D03*
G04 #@! TD*
G04 #@! TO.C,REF\u002A\u002A*
X61670000Y-18690000D03*
G04 #@! TD*
G04 #@! TO.C,REF\u002A\u002A*
X33730000Y-31390000D03*
G04 #@! TD*
G04 #@! TO.C,REF\u002A\u002A*
X56590000Y-13610000D03*
G04 #@! TD*
G04 #@! TO.C,REF\u002A\u002A*
X54050000Y-23770000D03*
G04 #@! TD*
G04 #@! TO.C,REF\u002A\u002A*
X33730000Y-11070000D03*
G04 #@! TD*
G04 #@! TO.C,REF\u002A\u002A*
X5790000Y-31390000D03*
G04 #@! TD*
G04 #@! TO.C,REF\u002A\u002A*
X8330000Y-16150000D03*
G04 #@! TD*
G04 #@! TO.C,REF\u002A\u002A*
X41350000Y-11070000D03*
G04 #@! TD*
G04 #@! TO.C,REF\u002A\u002A*
X13410000Y-18690000D03*
G04 #@! TD*
G04 #@! TO.C,REF\u002A\u002A*
X61670000Y-16150000D03*
G04 #@! TD*
G04 #@! TO.C,REF\u002A\u002A*
X31190000Y-33930000D03*
G04 #@! TD*
G04 #@! TO.C,REF\u002A\u002A*
X13410000Y-31390000D03*
G04 #@! TD*
G04 #@! TO.C,REF\u002A\u002A*
X51510000Y-21230000D03*
G04 #@! TD*
G04 #@! TO.C,REF\u002A\u002A*
X51510000Y-31390000D03*
G04 #@! TD*
G04 #@! TO.C,REF\u002A\u002A*
X21030000Y-21230000D03*
G04 #@! TD*
G04 #@! TO.C,REF\u002A\u002A*
X51510000Y-8530000D03*
G04 #@! TD*
G04 #@! TO.C,REF\u002A\u002A*
X51510000Y-16150000D03*
G04 #@! TD*
G04 #@! TO.C,REF\u002A\u002A*
X15950000Y-31390000D03*
G04 #@! TD*
G04 #@! TO.C,REF\u002A\u002A*
X18490000Y-18690000D03*
G04 #@! TD*
G04 #@! TO.C,REF\u002A\u002A*
X28650000Y-16150000D03*
G04 #@! TD*
G04 #@! TO.C,REF\u002A\u002A*
X23570000Y-16150000D03*
G04 #@! TD*
G04 #@! TO.C,REF\u002A\u002A*
X51510000Y-36470000D03*
G04 #@! TD*
G04 #@! TO.C,REF\u002A\u002A*
X10870000Y-11070000D03*
G04 #@! TD*
G04 #@! TO.C,REF\u002A\u002A*
X46430000Y-16150000D03*
G04 #@! TD*
G04 #@! TO.C,REF\u002A\u002A*
X38810000Y-16150000D03*
G04 #@! TD*
G04 #@! TO.C,REF\u002A\u002A*
X48970000Y-18690000D03*
G04 #@! TD*
G04 #@! TO.C,REF\u002A\u002A*
X43890000Y-26310000D03*
G04 #@! TD*
G04 #@! TO.C,REF\u002A\u002A*
X33730000Y-18690000D03*
G04 #@! TD*
G04 #@! TO.C,REF\u002A\u002A*
X46430000Y-8530000D03*
G04 #@! TD*
G04 #@! TO.C,REF\u002A\u002A*
X15950000Y-18690000D03*
G04 #@! TD*
D12*
G04 #@! TO.C,REF\u002A\u002A*
X59197056Y-3302944D03*
X59900000Y-5000000D03*
X55802944Y-3302944D03*
X57500000Y-7400000D03*
X57500000Y-2600000D03*
D13*
X57500000Y-5000000D03*
D12*
X55100000Y-5000000D03*
X59197056Y-6697056D03*
X55802944Y-6697056D03*
G04 #@! TD*
D11*
G04 #@! TO.C,REF\u002A\u002A*
X56590000Y-36470000D03*
G04 #@! TD*
G04 #@! TO.C,REF\u002A\u002A*
X33730000Y-8530000D03*
G04 #@! TD*
G04 #@! TO.C,REF\u002A\u002A*
X5790000Y-33930000D03*
G04 #@! TD*
G04 #@! TO.C,REF\u002A\u002A*
X36270000Y-31390000D03*
G04 #@! TD*
G04 #@! TO.C,REF\u002A\u002A*
X28650000Y-8530000D03*
G04 #@! TD*
G04 #@! TO.C,REF\u002A\u002A*
X48970000Y-28850000D03*
G04 #@! TD*
G04 #@! TO.C,REF\u002A\u002A*
X43890000Y-8530000D03*
G04 #@! TD*
G04 #@! TO.C,REF\u002A\u002A*
X54050000Y-21230000D03*
G04 #@! TD*
G04 #@! TO.C,REF\u002A\u002A*
X43890000Y-21230000D03*
G04 #@! TD*
G04 #@! TO.C,REF\u002A\u002A*
X48970000Y-8530000D03*
G04 #@! TD*
G04 #@! TO.C,REF\u002A\u002A*
X41350000Y-13610000D03*
G04 #@! TD*
G04 #@! TO.C,REF\u002A\u002A*
X43890000Y-31390000D03*
G04 #@! TD*
G04 #@! TO.C,REF\u002A\u002A*
X64210000Y-33930000D03*
G04 #@! TD*
G04 #@! TO.C,REF\u002A\u002A*
X54050000Y-18690000D03*
G04 #@! TD*
G04 #@! TO.C,REF\u002A\u002A*
X21030000Y-23770000D03*
G04 #@! TD*
G04 #@! TO.C,REF\u002A\u002A*
X21030000Y-31390000D03*
G04 #@! TD*
G04 #@! TO.C,REF\u002A\u002A*
X41350000Y-23770000D03*
G04 #@! TD*
G04 #@! TO.C,REF\u002A\u002A*
X33730000Y-28850000D03*
G04 #@! TD*
G04 #@! TO.C,REF\u002A\u002A*
X54050000Y-11070000D03*
G04 #@! TD*
G04 #@! TO.C,REF\u002A\u002A*
X28650000Y-18690000D03*
G04 #@! TD*
G04 #@! TO.C,REF\u002A\u002A*
X15950000Y-36470000D03*
G04 #@! TD*
G04 #@! TO.C,REF\u002A\u002A*
X10870000Y-33930000D03*
G04 #@! TD*
G04 #@! TO.C,REF\u002A\u002A*
X46430000Y-26310000D03*
G04 #@! TD*
G04 #@! TO.C,REF\u002A\u002A*
X61670000Y-33930000D03*
G04 #@! TD*
G04 #@! TO.C,REF\u002A\u002A*
X51510000Y-33930000D03*
G04 #@! TD*
G04 #@! TO.C,REF\u002A\u002A*
X8330000Y-26310000D03*
G04 #@! TD*
G04 #@! TO.C,REF\u002A\u002A*
X26110000Y-26310000D03*
G04 #@! TD*
G04 #@! TO.C,REF\u002A\u002A*
X8330000Y-23770000D03*
G04 #@! TD*
G04 #@! TO.C,REF\u002A\u002A*
X48970000Y-31390000D03*
G04 #@! TD*
G04 #@! TO.C,REF\u002A\u002A*
X41350000Y-8530000D03*
G04 #@! TD*
G04 #@! TO.C,REF\u002A\u002A*
X41350000Y-18690000D03*
G04 #@! TD*
G04 #@! TO.C,REF\u002A\u002A*
X26110000Y-33930000D03*
G04 #@! TD*
G04 #@! TO.C,REF\u002A\u002A*
X15950000Y-21230000D03*
G04 #@! TD*
G04 #@! TO.C,REF\u002A\u002A*
X48970000Y-16150000D03*
G04 #@! TD*
G04 #@! TO.C,REF\u002A\u002A*
X59130000Y-28850000D03*
G04 #@! TD*
G04 #@! TO.C,REF\u002A\u002A*
X13410000Y-28850000D03*
G04 #@! TD*
G04 #@! TO.C,REF\u002A\u002A*
X31190000Y-18690000D03*
G04 #@! TD*
G04 #@! TO.C,REF\u002A\u002A*
X48970000Y-23770000D03*
G04 #@! TD*
G04 #@! TO.C,REF\u002A\u002A*
X41350000Y-16150000D03*
G04 #@! TD*
G04 #@! TO.C,REF\u002A\u002A*
X46430000Y-28850000D03*
G04 #@! TD*
G04 #@! TO.C,REF\u002A\u002A*
X10870000Y-31390000D03*
G04 #@! TD*
G04 #@! TO.C,REF\u002A\u002A*
X46430000Y-33930000D03*
G04 #@! TD*
G04 #@! TO.C,REF\u002A\u002A*
X26110000Y-36470000D03*
G04 #@! TD*
G04 #@! TO.C,REF\u002A\u002A*
X18490000Y-26310000D03*
G04 #@! TD*
G04 #@! TO.C,REF\u002A\u002A*
X41350000Y-33930000D03*
G04 #@! TD*
G04 #@! TO.C,REF\u002A\u002A*
X54050000Y-33930000D03*
G04 #@! TD*
G04 #@! TO.C,REF\u002A\u002A*
X15950000Y-23770000D03*
G04 #@! TD*
G04 #@! TO.C,REF\u002A\u002A*
X46430000Y-18690000D03*
G04 #@! TD*
G04 #@! TO.C,REF\u002A\u002A*
X38810000Y-23770000D03*
G04 #@! TD*
G04 #@! TO.C,REF\u002A\u002A*
X26110000Y-21230000D03*
G04 #@! TD*
G04 #@! TO.C,REF\u002A\u002A*
X36270000Y-18690000D03*
G04 #@! TD*
D12*
G04 #@! TO.C,REF\u002A\u002A*
X5000000Y-42400000D03*
X3302944Y-41697056D03*
X7400000Y-40000000D03*
X6697056Y-41697056D03*
X3302944Y-38302944D03*
D13*
X5000000Y-40000000D03*
D12*
X2600000Y-40000000D03*
X6697056Y-38302944D03*
X5000000Y-37600000D03*
G04 #@! TD*
G04 #@! TO.C,REF\u002A\u002A*
X12500000Y-7400000D03*
X14197056Y-3302944D03*
X10100000Y-5000000D03*
X10802944Y-3302944D03*
X14900000Y-5000000D03*
D13*
X12500000Y-5000000D03*
D12*
X14197056Y-6697056D03*
X10802944Y-6697056D03*
X12500000Y-2600000D03*
G04 #@! TD*
D11*
G04 #@! TO.C,REF\u002A\u002A*
X59130000Y-33930000D03*
G04 #@! TD*
G04 #@! TO.C,J1*
G36*
G01*
X33200000Y-40810000D02*
X33200000Y-39560000D01*
G75*
G02*
X33350000Y-39410000I150000J0D01*
G01*
X33650000Y-39410000D01*
G75*
G02*
X33800000Y-39560000I0J-150000D01*
G01*
X33800000Y-40810000D01*
G75*
G02*
X33650000Y-40960000I-150000J0D01*
G01*
X33350000Y-40960000D01*
G75*
G02*
X33200000Y-40810000I0J150000D01*
G01*
G37*
G36*
G01*
X34200000Y-40810000D02*
X34200000Y-39560000D01*
G75*
G02*
X34350000Y-39410000I150000J0D01*
G01*
X34650000Y-39410000D01*
G75*
G02*
X34800000Y-39560000I0J-150000D01*
G01*
X34800000Y-40810000D01*
G75*
G02*
X34650000Y-40960000I-150000J0D01*
G01*
X34350000Y-40960000D01*
G75*
G02*
X34200000Y-40810000I0J150000D01*
G01*
G37*
G36*
G01*
X35200000Y-40810000D02*
X35200000Y-39560000D01*
G75*
G02*
X35350000Y-39410000I150000J0D01*
G01*
X35650000Y-39410000D01*
G75*
G02*
X35800000Y-39560000I0J-150000D01*
G01*
X35800000Y-40810000D01*
G75*
G02*
X35650000Y-40960000I-150000J0D01*
G01*
X35350000Y-40960000D01*
G75*
G02*
X35200000Y-40810000I0J150000D01*
G01*
G37*
G36*
G01*
X36200000Y-40810000D02*
X36200000Y-39560000D01*
G75*
G02*
X36350000Y-39410000I150000J0D01*
G01*
X36650000Y-39410000D01*
G75*
G02*
X36800000Y-39560000I0J-150000D01*
G01*
X36800000Y-40810000D01*
G75*
G02*
X36650000Y-40960000I-150000J0D01*
G01*
X36350000Y-40960000D01*
G75*
G02*
X36200000Y-40810000I0J150000D01*
G01*
G37*
G36*
G01*
X37200000Y-44710000D02*
X37200000Y-43410000D01*
G75*
G02*
X37450000Y-43160000I250000J0D01*
G01*
X38150000Y-43160000D01*
G75*
G02*
X38400000Y-43410000I0J-250000D01*
G01*
X38400000Y-44710000D01*
G75*
G02*
X38150000Y-44960000I-250000J0D01*
G01*
X37450000Y-44960000D01*
G75*
G02*
X37200000Y-44710000I0J250000D01*
G01*
G37*
G36*
G01*
X31600000Y-44710000D02*
X31600000Y-43410000D01*
G75*
G02*
X31850000Y-43160000I250000J0D01*
G01*
X32550000Y-43160000D01*
G75*
G02*
X32800000Y-43410000I0J-250000D01*
G01*
X32800000Y-44710000D01*
G75*
G02*
X32550000Y-44960000I-250000J0D01*
G01*
X31850000Y-44960000D01*
G75*
G02*
X31600000Y-44710000I0J250000D01*
G01*
G37*
G04 #@! TD*
G04 #@! TO.C,REF\u002A\u002A*
X21030000Y-28850000D03*
G04 #@! TD*
G04 #@! TO.C,REF\u002A\u002A*
X36270000Y-21230000D03*
G04 #@! TD*
G04 #@! TO.C,REF\u002A\u002A*
X13410000Y-26310000D03*
G04 #@! TD*
G04 #@! TO.C,REF\u002A\u002A*
X61670000Y-21230000D03*
G04 #@! TD*
G04 #@! TO.C,REF\u002A\u002A*
X18490000Y-8530000D03*
G04 #@! TD*
G04 #@! TO.C,REF\u002A\u002A*
X33730000Y-23770000D03*
G04 #@! TD*
G04 #@! TO.C,REF\u002A\u002A*
X59130000Y-23770000D03*
G04 #@! TD*
G04 #@! TO.C,REF\u002A\u002A*
X43890000Y-28850000D03*
G04 #@! TD*
G04 #@! TO.C,REF\u002A\u002A*
X33730000Y-26310000D03*
G04 #@! TD*
G04 #@! TO.C,REF\u002A\u002A*
X13410000Y-23770000D03*
G04 #@! TD*
G04 #@! TO.C,REF\u002A\u002A*
X46430000Y-23770000D03*
G04 #@! TD*
G04 #@! TO.C,REF\u002A\u002A*
X15950000Y-33930000D03*
G04 #@! TD*
G04 #@! TO.C,REF\u002A\u002A*
X21030000Y-13610000D03*
G04 #@! TD*
G04 #@! TO.C,REF\u002A\u002A*
X21030000Y-8530000D03*
G04 #@! TD*
G04 #@! TO.C,REF\u002A\u002A*
X18490000Y-11070000D03*
G04 #@! TD*
G04 #@! TO.C,REF\u002A\u002A*
X54050000Y-28850000D03*
G04 #@! TD*
G04 #@! TO.C,REF\u002A\u002A*
X21030000Y-16150000D03*
G04 #@! TD*
G04 #@! TO.C,REF\u002A\u002A*
X21030000Y-33930000D03*
G04 #@! TD*
G04 #@! TO.C,REF\u002A\u002A*
X8330000Y-13610000D03*
G04 #@! TD*
G04 #@! TO.C,REF\u002A\u002A*
X21030000Y-11070000D03*
G04 #@! TD*
G04 #@! TO.C,REF\u002A\u002A*
X43890000Y-36470000D03*
G04 #@! TD*
G04 #@! TO.C,REF\u002A\u002A*
X21030000Y-36470000D03*
G04 #@! TD*
G04 #@! TO.C,REF\u002A\u002A*
X26110000Y-11070000D03*
G04 #@! TD*
G04 #@! TO.C,REF\u002A\u002A*
X43890000Y-16150000D03*
G04 #@! TD*
G04 #@! TO.C,REF\u002A\u002A*
X28650000Y-13610000D03*
G04 #@! TD*
G04 #@! TO.C,REF\u002A\u002A*
X33730000Y-16150000D03*
G04 #@! TD*
G04 #@! TO.C,REF\u002A\u002A*
X36270000Y-8530000D03*
G04 #@! TD*
G04 #@! TO.C,REF\u002A\u002A*
X54050000Y-16150000D03*
G04 #@! TD*
G04 #@! TO.C,REF\u002A\u002A*
X59130000Y-36470000D03*
G04 #@! TD*
G04 #@! TO.C,REF\u002A\u002A*
X46430000Y-21230000D03*
G04 #@! TD*
G04 #@! TO.C,REF\u002A\u002A*
X10870000Y-23770000D03*
G04 #@! TD*
G04 #@! TO.C,REF\u002A\u002A*
X56590000Y-33930000D03*
G04 #@! TD*
G04 #@! TO.C,REF\u002A\u002A*
X26110000Y-28850000D03*
G04 #@! TD*
G04 #@! TO.C,REF\u002A\u002A*
X5790000Y-26310000D03*
G04 #@! TD*
G04 #@! TO.C,REF\u002A\u002A*
X41350000Y-26310000D03*
G04 #@! TD*
G04 #@! TO.C,REF\u002A\u002A*
X10870000Y-26310000D03*
G04 #@! TD*
G04 #@! TO.C,REF\u002A\u002A*
X43890000Y-13610000D03*
G04 #@! TD*
G04 #@! TO.C,REF\u002A\u002A*
X5790000Y-28850000D03*
G04 #@! TD*
G04 #@! TO.C,REF\u002A\u002A*
X54050000Y-31390000D03*
G04 #@! TD*
G04 #@! TO.C,REF\u002A\u002A*
X56590000Y-26310000D03*
G04 #@! TD*
G04 #@! TO.C,REF\u002A\u002A*
X13410000Y-21230000D03*
G04 #@! TD*
G04 #@! TO.C,REF\u002A\u002A*
X46430000Y-13610000D03*
G04 #@! TD*
G04 #@! TO.C,REF\u002A\u002A*
X36270000Y-11070000D03*
G04 #@! TD*
G04 #@! TO.C,REF\u002A\u002A*
X23570000Y-11070000D03*
G04 #@! TD*
G04 #@! TO.C,REF\u002A\u002A*
X13410000Y-13610000D03*
G04 #@! TD*
G04 #@! TO.C,REF\u002A\u002A*
X10870000Y-18690000D03*
G04 #@! TD*
G04 #@! TO.C,REF\u002A\u002A*
X54050000Y-36470000D03*
G04 #@! TD*
G04 #@! TO.C,REF\u002A\u002A*
X15950000Y-13610000D03*
G04 #@! TD*
G04 #@! TO.C,REF\u002A\u002A*
X43890000Y-33930000D03*
G04 #@! TD*
G04 #@! TO.C,REF\u002A\u002A*
X51510000Y-28850000D03*
G04 #@! TD*
G04 #@! TO.C,REF\u002A\u002A*
X26110000Y-16150000D03*
G04 #@! TD*
G04 #@! TO.C,REF\u002A\u002A*
X10870000Y-36470000D03*
G04 #@! TD*
G04 #@! TO.C,REF\u002A\u002A*
X18490000Y-28850000D03*
G04 #@! TD*
G04 #@! TO.C,REF\u002A\u002A*
X59130000Y-18690000D03*
G04 #@! TD*
G04 #@! TO.C,REF\u002A\u002A*
X26110000Y-13610000D03*
G04 #@! TD*
G04 #@! TO.C,REF\u002A\u002A*
X23570000Y-28850000D03*
G04 #@! TD*
G04 #@! TO.C,REF\u002A\u002A*
X26110000Y-23770000D03*
G04 #@! TD*
G04 #@! TO.C,REF\u002A\u002A*
X48970000Y-11070000D03*
G04 #@! TD*
G04 #@! TO.C,REF\u002A\u002A*
X56590000Y-28850000D03*
G04 #@! TD*
G04 #@! TO.C,REF\u002A\u002A*
X18490000Y-21230000D03*
G04 #@! TD*
G04 #@! TO.C,REF\u002A\u002A*
X15950000Y-16150000D03*
G04 #@! TD*
G04 #@! TO.C,REF\u002A\u002A*
X23570000Y-23770000D03*
G04 #@! TD*
G04 #@! TO.C,REF\u002A\u002A*
X51510000Y-18690000D03*
G04 #@! TD*
G04 #@! TO.C,REF\u002A\u002A*
X10870000Y-13610000D03*
G04 #@! TD*
G04 #@! TO.C,REF\u002A\u002A*
X23570000Y-18690000D03*
G04 #@! TD*
G04 #@! TO.C,REF\u002A\u002A*
X28650000Y-11070000D03*
G04 #@! TD*
G04 #@! TO.C,REF\u002A\u002A*
X59130000Y-26310000D03*
G04 #@! TD*
G04 #@! TO.C,REF\u002A\u002A*
X13410000Y-16150000D03*
G04 #@! TD*
G04 #@! TO.C,REF\u002A\u002A*
X59130000Y-16150000D03*
G04 #@! TD*
G04 #@! TO.C,REF\u002A\u002A*
X15950000Y-26310000D03*
G04 #@! TD*
G04 #@! TO.C,REF\u002A\u002A*
X51510000Y-23770000D03*
G04 #@! TD*
G04 #@! TO.C,REF\u002A\u002A*
X46430000Y-36470000D03*
G04 #@! TD*
G04 #@! TO.C,REF\u002A\u002A*
X59130000Y-31390000D03*
G04 #@! TD*
G04 #@! TO.C,REF\u002A\u002A*
X61670000Y-31390000D03*
G04 #@! TD*
G04 #@! TO.C,REF\u002A\u002A*
X26110000Y-18690000D03*
G04 #@! TD*
G04 #@! TO.C,REF\u002A\u002A*
X10870000Y-21230000D03*
G04 #@! TD*
G04 #@! TO.C,REF\u002A\u002A*
X59130000Y-13610000D03*
G04 #@! TD*
G04 #@! TO.C,REF\u002A\u002A*
X51510000Y-26310000D03*
G04 #@! TD*
G04 #@! TO.C,REF\u002A\u002A*
X43890000Y-11070000D03*
G04 #@! TD*
G04 #@! TO.C,REF\u002A\u002A*
X33730000Y-33930000D03*
G04 #@! TD*
G04 #@! TO.C,REF\u002A\u002A*
X31190000Y-26310000D03*
G04 #@! TD*
G04 #@! TO.C,REF\u002A\u002A*
X31190000Y-13610000D03*
G04 #@! TD*
G04 #@! TO.C,REF\u002A\u002A*
X46430000Y-11070000D03*
G04 #@! TD*
G04 #@! TO.C,REF\u002A\u002A*
X38810000Y-31390000D03*
G04 #@! TD*
G04 #@! TO.C,REF\u002A\u002A*
X41350000Y-36470000D03*
G04 #@! TD*
G04 #@! TO.C,REF\u002A\u002A*
X38810000Y-26310000D03*
G04 #@! TD*
G04 #@! TO.C,REF\u002A\u002A*
X13410000Y-36470000D03*
G04 #@! TD*
G04 #@! TO.C,REF\u002A\u002A*
X23570000Y-21230000D03*
G04 #@! TD*
G04 #@! TO.C,REF\u002A\u002A*
X54050000Y-26310000D03*
G04 #@! TD*
G04 #@! TO.C,REF\u002A\u002A*
X31190000Y-21230000D03*
G04 #@! TD*
G04 #@! TO.C,REF\u002A\u002A*
X36270000Y-23770000D03*
G04 #@! TD*
G04 #@! TO.C,REF\u002A\u002A*
X36270000Y-28850000D03*
G04 #@! TD*
G04 #@! TO.C,REF\u002A\u002A*
X15950000Y-28850000D03*
G04 #@! TD*
G04 #@! TO.C,REF\u002A\u002A*
X13410000Y-33930000D03*
G04 #@! TD*
G04 #@! TO.C,REF\u002A\u002A*
X59130000Y-11070000D03*
G04 #@! TD*
G04 #@! TO.C,REF\u002A\u002A*
X8330000Y-18690000D03*
G04 #@! TD*
G04 #@! TO.C,REF\u002A\u002A*
X28650000Y-31390000D03*
G04 #@! TD*
G04 #@! TO.C,REF\u002A\u002A*
X64210000Y-28850000D03*
G04 #@! TD*
G04 #@! TO.C,REF\u002A\u002A*
X8330000Y-28850000D03*
G04 #@! TD*
G04 #@! TO.C,REF\u002A\u002A*
X56590000Y-11070000D03*
G04 #@! TD*
G04 #@! TO.C,REF\u002A\u002A*
X36270000Y-26310000D03*
G04 #@! TD*
G04 #@! TO.C,REF\u002A\u002A*
X18490000Y-36470000D03*
G04 #@! TD*
G04 #@! TO.C,REF\u002A\u002A*
X23570000Y-13610000D03*
G04 #@! TD*
G04 #@! TO.C,REF\u002A\u002A*
X23570000Y-33930000D03*
G04 #@! TD*
G04 #@! TO.C,REF\u002A\u002A*
X48970000Y-21230000D03*
G04 #@! TD*
G04 #@! TO.C,REF\u002A\u002A*
X56590000Y-16150000D03*
G04 #@! TD*
G04 #@! TO.C,REF\u002A\u002A*
X61670000Y-13610000D03*
G04 #@! TD*
G04 #@! TO.C,REF\u002A\u002A*
X18490000Y-33930000D03*
G04 #@! TD*
G04 #@! TO.C,REF\u002A\u002A*
X31190000Y-11070000D03*
G04 #@! TD*
G04 #@! TO.C,REF\u002A\u002A*
X56590000Y-31390000D03*
G04 #@! TD*
G04 #@! TO.C,REF\u002A\u002A*
X28650000Y-21230000D03*
G04 #@! TD*
M02*
