G04 #@! TF.GenerationSoftware,KiCad,Pcbnew,(6.0.5-0)*
G04 #@! TF.CreationDate,2022-07-06T20:18:43+02:00*
G04 #@! TF.ProjectId,add-on-template,6164642d-6f6e-42d7-9465-6d706c617465,1.0*
G04 #@! TF.SameCoordinates,PX3938700PY2aea540*
G04 #@! TF.FileFunction,Soldermask,Top*
G04 #@! TF.FilePolarity,Negative*
%FSLAX46Y46*%
G04 Gerber Fmt 4.6, Leading zero omitted, Abs format (unit mm)*
G04 Created by KiCad (PCBNEW (6.0.5-0)) date 2022-07-06 20:18:43*
%MOMM*%
%LPD*%
G01*
G04 APERTURE LIST*
%ADD10C,1.727200*%
%ADD11C,0.800000*%
%ADD12C,6.400000*%
G04 APERTURE END LIST*
D10*
G04 #@! TO.C,REF\u002A\u002A*
X8330000Y-31390000D03*
G04 #@! TD*
G04 #@! TO.C,REF\u002A\u002A*
X21030000Y-18690000D03*
G04 #@! TD*
G04 #@! TO.C,REF\u002A\u002A*
X48970000Y-33930000D03*
G04 #@! TD*
G04 #@! TO.C,REF\u002A\u002A*
X10870000Y-28850000D03*
G04 #@! TD*
G04 #@! TO.C,REF\u002A\u002A*
X59130000Y-21230000D03*
G04 #@! TD*
G04 #@! TO.C,REF\u002A\u002A*
X26110000Y-31390000D03*
G04 #@! TD*
G04 #@! TO.C,REF\u002A\u002A*
X38810000Y-21230000D03*
G04 #@! TD*
G04 #@! TO.C,REF\u002A\u002A*
X36270000Y-33930000D03*
G04 #@! TD*
G04 #@! TO.C,REF\u002A\u002A*
X56590000Y-21230000D03*
G04 #@! TD*
G04 #@! TO.C,REF\u002A\u002A*
X41350000Y-21230000D03*
G04 #@! TD*
G04 #@! TO.C,REF\u002A\u002A*
X48970000Y-26310000D03*
G04 #@! TD*
G04 #@! TO.C,REF\u002A\u002A*
X38810000Y-13610000D03*
G04 #@! TD*
G04 #@! TO.C,REF\u002A\u002A*
X28650000Y-36470000D03*
G04 #@! TD*
G04 #@! TO.C,REF\u002A\u002A*
X54050000Y-13610000D03*
G04 #@! TD*
G04 #@! TO.C,REF\u002A\u002A*
X61670000Y-28850000D03*
G04 #@! TD*
G04 #@! TO.C,REF\u002A\u002A*
X28650000Y-28850000D03*
G04 #@! TD*
G04 #@! TO.C,REF\u002A\u002A*
X31190000Y-16150000D03*
G04 #@! TD*
G04 #@! TO.C,REF\u002A\u002A*
X23570000Y-8530000D03*
G04 #@! TD*
G04 #@! TO.C,REF\u002A\u002A*
X36270000Y-16150000D03*
G04 #@! TD*
G04 #@! TO.C,REF\u002A\u002A*
X23570000Y-36470000D03*
G04 #@! TD*
G04 #@! TO.C,REF\u002A\u002A*
X13410000Y-11070000D03*
G04 #@! TD*
G04 #@! TO.C,REF\u002A\u002A*
X28650000Y-23770000D03*
G04 #@! TD*
G04 #@! TO.C,REF\u002A\u002A*
X18490000Y-16150000D03*
G04 #@! TD*
G04 #@! TO.C,REF\u002A\u002A*
X41350000Y-28850000D03*
G04 #@! TD*
G04 #@! TO.C,REF\u002A\u002A*
X38810000Y-33930000D03*
G04 #@! TD*
G04 #@! TO.C,REF\u002A\u002A*
X31190000Y-23770000D03*
G04 #@! TD*
G04 #@! TO.C,REF\u002A\u002A*
X31190000Y-28850000D03*
G04 #@! TD*
G04 #@! TO.C,REF\u002A\u002A*
X38810000Y-8530000D03*
G04 #@! TD*
G04 #@! TO.C,REF\u002A\u002A*
X46430000Y-31390000D03*
G04 #@! TD*
G04 #@! TO.C,REF\u002A\u002A*
X48970000Y-36470000D03*
G04 #@! TD*
G04 #@! TO.C,REF\u002A\u002A*
X51510000Y-11070000D03*
G04 #@! TD*
G04 #@! TO.C,REF\u002A\u002A*
X31190000Y-8530000D03*
G04 #@! TD*
D11*
G04 #@! TO.C,REF\u002A\u002A*
X65000000Y-42400000D03*
X62600000Y-40000000D03*
X63302944Y-41697056D03*
D12*
X65000000Y-40000000D03*
D11*
X65000000Y-37600000D03*
X67400000Y-40000000D03*
X66697056Y-41697056D03*
X66697056Y-38302944D03*
X63302944Y-38302944D03*
G04 #@! TD*
D10*
G04 #@! TO.C,REF\u002A\u002A*
X33730000Y-21230000D03*
G04 #@! TD*
G04 #@! TO.C,REF\u002A\u002A*
X33730000Y-13610000D03*
G04 #@! TD*
G04 #@! TO.C,REF\u002A\u002A*
X64210000Y-31390000D03*
G04 #@! TD*
G04 #@! TO.C,REF\u002A\u002A*
X61670000Y-23770000D03*
G04 #@! TD*
G04 #@! TO.C,REF\u002A\u002A*
X56590000Y-18690000D03*
G04 #@! TD*
G04 #@! TO.C,REF\u002A\u002A*
X18490000Y-31390000D03*
G04 #@! TD*
G04 #@! TO.C,REF\u002A\u002A*
X18490000Y-23770000D03*
G04 #@! TD*
G04 #@! TO.C,J2*
G36*
G01*
X31615000Y-37320000D02*
X30765000Y-37320000D01*
G75*
G02*
X30340000Y-36895000I0J425000D01*
G01*
X30340000Y-36045000D01*
G75*
G02*
X30765000Y-35620000I425000J0D01*
G01*
X31615000Y-35620000D01*
G75*
G02*
X32040000Y-36045000I0J-425000D01*
G01*
X32040000Y-36895000D01*
G75*
G02*
X31615000Y-37320000I-425000J0D01*
G01*
G37*
G36*
G01*
X34155000Y-37320000D02*
X33305000Y-37320000D01*
G75*
G02*
X32880000Y-36895000I0J425000D01*
G01*
X32880000Y-36045000D01*
G75*
G02*
X33305000Y-35620000I425000J0D01*
G01*
X34155000Y-35620000D01*
G75*
G02*
X34580000Y-36045000I0J-425000D01*
G01*
X34580000Y-36895000D01*
G75*
G02*
X34155000Y-37320000I-425000J0D01*
G01*
G37*
G36*
G01*
X36695000Y-37320000D02*
X35845000Y-37320000D01*
G75*
G02*
X35420000Y-36895000I0J425000D01*
G01*
X35420000Y-36045000D01*
G75*
G02*
X35845000Y-35620000I425000J0D01*
G01*
X36695000Y-35620000D01*
G75*
G02*
X37120000Y-36045000I0J-425000D01*
G01*
X37120000Y-36895000D01*
G75*
G02*
X36695000Y-37320000I-425000J0D01*
G01*
G37*
G36*
G01*
X39235000Y-37320000D02*
X38385000Y-37320000D01*
G75*
G02*
X37960000Y-36895000I0J425000D01*
G01*
X37960000Y-36045000D01*
G75*
G02*
X38385000Y-35620000I425000J0D01*
G01*
X39235000Y-35620000D01*
G75*
G02*
X39660000Y-36045000I0J-425000D01*
G01*
X39660000Y-36895000D01*
G75*
G02*
X39235000Y-37320000I-425000J0D01*
G01*
G37*
G04 #@! TD*
G04 #@! TO.C,REF\u002A\u002A*
X8330000Y-33930000D03*
G04 #@! TD*
G04 #@! TO.C,REF\u002A\u002A*
X38810000Y-11070000D03*
G04 #@! TD*
G04 #@! TO.C,REF\u002A\u002A*
X23570000Y-26310000D03*
G04 #@! TD*
G04 #@! TO.C,REF\u002A\u002A*
X8330000Y-21230000D03*
G04 #@! TD*
G04 #@! TO.C,REF\u002A\u002A*
X26110000Y-8530000D03*
G04 #@! TD*
G04 #@! TO.C,REF\u002A\u002A*
X64210000Y-26310000D03*
G04 #@! TD*
G04 #@! TO.C,REF\u002A\u002A*
X43890000Y-23770000D03*
G04 #@! TD*
G04 #@! TO.C,REF\u002A\u002A*
X38810000Y-28850000D03*
G04 #@! TD*
G04 #@! TO.C,REF\u002A\u002A*
X36270000Y-13610000D03*
G04 #@! TD*
G04 #@! TO.C,REF\u002A\u002A*
X28650000Y-33930000D03*
G04 #@! TD*
G04 #@! TO.C,REF\u002A\u002A*
X31190000Y-31390000D03*
G04 #@! TD*
G04 #@! TO.C,REF\u002A\u002A*
X51510000Y-13610000D03*
G04 #@! TD*
G04 #@! TO.C,REF\u002A\u002A*
X38810000Y-18690000D03*
G04 #@! TD*
G04 #@! TO.C,REF\u002A\u002A*
X21030000Y-26310000D03*
G04 #@! TD*
G04 #@! TO.C,REF\u002A\u002A*
X10870000Y-16150000D03*
G04 #@! TD*
G04 #@! TO.C,REF\u002A\u002A*
X23570000Y-31390000D03*
G04 #@! TD*
G04 #@! TO.C,REF\u002A\u002A*
X48970000Y-13610000D03*
G04 #@! TD*
G04 #@! TO.C,REF\u002A\u002A*
X15950000Y-11070000D03*
G04 #@! TD*
G04 #@! TO.C,REF\u002A\u002A*
X56590000Y-23770000D03*
G04 #@! TD*
G04 #@! TO.C,REF\u002A\u002A*
X43890000Y-18690000D03*
G04 #@! TD*
G04 #@! TO.C,REF\u002A\u002A*
X18490000Y-13610000D03*
G04 #@! TD*
G04 #@! TO.C,REF\u002A\u002A*
X28650000Y-26310000D03*
G04 #@! TD*
G04 #@! TO.C,REF\u002A\u002A*
X61670000Y-26310000D03*
G04 #@! TD*
G04 #@! TO.C,REF\u002A\u002A*
X41350000Y-31390000D03*
G04 #@! TD*
G04 #@! TO.C,REF\u002A\u002A*
X61670000Y-18690000D03*
G04 #@! TD*
G04 #@! TO.C,REF\u002A\u002A*
X33730000Y-31390000D03*
G04 #@! TD*
G04 #@! TO.C,REF\u002A\u002A*
X56590000Y-13610000D03*
G04 #@! TD*
G04 #@! TO.C,REF\u002A\u002A*
X54050000Y-23770000D03*
G04 #@! TD*
G04 #@! TO.C,REF\u002A\u002A*
X33730000Y-11070000D03*
G04 #@! TD*
G04 #@! TO.C,REF\u002A\u002A*
X5790000Y-31390000D03*
G04 #@! TD*
G04 #@! TO.C,REF\u002A\u002A*
X8330000Y-16150000D03*
G04 #@! TD*
G04 #@! TO.C,REF\u002A\u002A*
X41350000Y-11070000D03*
G04 #@! TD*
G04 #@! TO.C,REF\u002A\u002A*
X13410000Y-18690000D03*
G04 #@! TD*
G04 #@! TO.C,REF\u002A\u002A*
X61670000Y-16150000D03*
G04 #@! TD*
G04 #@! TO.C,REF\u002A\u002A*
X31190000Y-33930000D03*
G04 #@! TD*
G04 #@! TO.C,REF\u002A\u002A*
X13410000Y-31390000D03*
G04 #@! TD*
G04 #@! TO.C,REF\u002A\u002A*
X51510000Y-21230000D03*
G04 #@! TD*
G04 #@! TO.C,REF\u002A\u002A*
X51510000Y-31390000D03*
G04 #@! TD*
G04 #@! TO.C,REF\u002A\u002A*
X21030000Y-21230000D03*
G04 #@! TD*
G04 #@! TO.C,REF\u002A\u002A*
X51510000Y-8530000D03*
G04 #@! TD*
G04 #@! TO.C,REF\u002A\u002A*
X51510000Y-16150000D03*
G04 #@! TD*
G04 #@! TO.C,REF\u002A\u002A*
X15950000Y-31390000D03*
G04 #@! TD*
G04 #@! TO.C,REF\u002A\u002A*
X18490000Y-18690000D03*
G04 #@! TD*
G04 #@! TO.C,REF\u002A\u002A*
X28650000Y-16150000D03*
G04 #@! TD*
G04 #@! TO.C,REF\u002A\u002A*
X23570000Y-16150000D03*
G04 #@! TD*
G04 #@! TO.C,REF\u002A\u002A*
X51510000Y-36470000D03*
G04 #@! TD*
G04 #@! TO.C,REF\u002A\u002A*
X10870000Y-11070000D03*
G04 #@! TD*
G04 #@! TO.C,REF\u002A\u002A*
X46430000Y-16150000D03*
G04 #@! TD*
G04 #@! TO.C,REF\u002A\u002A*
X38810000Y-16150000D03*
G04 #@! TD*
G04 #@! TO.C,REF\u002A\u002A*
X48970000Y-18690000D03*
G04 #@! TD*
G04 #@! TO.C,REF\u002A\u002A*
X43890000Y-26310000D03*
G04 #@! TD*
G04 #@! TO.C,REF\u002A\u002A*
X33730000Y-18690000D03*
G04 #@! TD*
G04 #@! TO.C,REF\u002A\u002A*
X46430000Y-8530000D03*
G04 #@! TD*
G04 #@! TO.C,REF\u002A\u002A*
X15950000Y-18690000D03*
G04 #@! TD*
D11*
G04 #@! TO.C,REF\u002A\u002A*
X59197056Y-3302944D03*
X59900000Y-5000000D03*
X55802944Y-3302944D03*
X57500000Y-7400000D03*
X57500000Y-2600000D03*
D12*
X57500000Y-5000000D03*
D11*
X55100000Y-5000000D03*
X59197056Y-6697056D03*
X55802944Y-6697056D03*
G04 #@! TD*
D10*
G04 #@! TO.C,REF\u002A\u002A*
X56590000Y-36470000D03*
G04 #@! TD*
G04 #@! TO.C,REF\u002A\u002A*
X33730000Y-8530000D03*
G04 #@! TD*
G04 #@! TO.C,REF\u002A\u002A*
X5790000Y-33930000D03*
G04 #@! TD*
G04 #@! TO.C,REF\u002A\u002A*
X36270000Y-31390000D03*
G04 #@! TD*
G04 #@! TO.C,REF\u002A\u002A*
X28650000Y-8530000D03*
G04 #@! TD*
G04 #@! TO.C,REF\u002A\u002A*
X48970000Y-28850000D03*
G04 #@! TD*
G04 #@! TO.C,REF\u002A\u002A*
X43890000Y-8530000D03*
G04 #@! TD*
G04 #@! TO.C,REF\u002A\u002A*
X54050000Y-21230000D03*
G04 #@! TD*
G04 #@! TO.C,REF\u002A\u002A*
X43890000Y-21230000D03*
G04 #@! TD*
G04 #@! TO.C,REF\u002A\u002A*
X48970000Y-8530000D03*
G04 #@! TD*
G04 #@! TO.C,REF\u002A\u002A*
X41350000Y-13610000D03*
G04 #@! TD*
G04 #@! TO.C,REF\u002A\u002A*
X43890000Y-31390000D03*
G04 #@! TD*
G04 #@! TO.C,REF\u002A\u002A*
X64210000Y-33930000D03*
G04 #@! TD*
G04 #@! TO.C,REF\u002A\u002A*
X54050000Y-18690000D03*
G04 #@! TD*
G04 #@! TO.C,REF\u002A\u002A*
X21030000Y-23770000D03*
G04 #@! TD*
G04 #@! TO.C,REF\u002A\u002A*
X21030000Y-31390000D03*
G04 #@! TD*
G04 #@! TO.C,REF\u002A\u002A*
X41350000Y-23770000D03*
G04 #@! TD*
G04 #@! TO.C,REF\u002A\u002A*
X33730000Y-28850000D03*
G04 #@! TD*
G04 #@! TO.C,REF\u002A\u002A*
X54050000Y-11070000D03*
G04 #@! TD*
G04 #@! TO.C,REF\u002A\u002A*
X28650000Y-18690000D03*
G04 #@! TD*
G04 #@! TO.C,REF\u002A\u002A*
X15950000Y-36470000D03*
G04 #@! TD*
G04 #@! TO.C,REF\u002A\u002A*
X10870000Y-33930000D03*
G04 #@! TD*
G04 #@! TO.C,REF\u002A\u002A*
X46430000Y-26310000D03*
G04 #@! TD*
G04 #@! TO.C,REF\u002A\u002A*
X61670000Y-33930000D03*
G04 #@! TD*
G04 #@! TO.C,REF\u002A\u002A*
X51510000Y-33930000D03*
G04 #@! TD*
G04 #@! TO.C,REF\u002A\u002A*
X8330000Y-26310000D03*
G04 #@! TD*
G04 #@! TO.C,REF\u002A\u002A*
X26110000Y-26310000D03*
G04 #@! TD*
G04 #@! TO.C,REF\u002A\u002A*
X8330000Y-23770000D03*
G04 #@! TD*
G04 #@! TO.C,REF\u002A\u002A*
X48970000Y-31390000D03*
G04 #@! TD*
G04 #@! TO.C,REF\u002A\u002A*
X41350000Y-8530000D03*
G04 #@! TD*
G04 #@! TO.C,REF\u002A\u002A*
X41350000Y-18690000D03*
G04 #@! TD*
G04 #@! TO.C,REF\u002A\u002A*
X26110000Y-33930000D03*
G04 #@! TD*
G04 #@! TO.C,REF\u002A\u002A*
X15950000Y-21230000D03*
G04 #@! TD*
G04 #@! TO.C,REF\u002A\u002A*
X48970000Y-16150000D03*
G04 #@! TD*
G04 #@! TO.C,REF\u002A\u002A*
X59130000Y-28850000D03*
G04 #@! TD*
G04 #@! TO.C,REF\u002A\u002A*
X13410000Y-28850000D03*
G04 #@! TD*
G04 #@! TO.C,REF\u002A\u002A*
X31190000Y-18690000D03*
G04 #@! TD*
G04 #@! TO.C,REF\u002A\u002A*
X48970000Y-23770000D03*
G04 #@! TD*
G04 #@! TO.C,REF\u002A\u002A*
X41350000Y-16150000D03*
G04 #@! TD*
G04 #@! TO.C,REF\u002A\u002A*
X46430000Y-28850000D03*
G04 #@! TD*
G04 #@! TO.C,REF\u002A\u002A*
X10870000Y-31390000D03*
G04 #@! TD*
G04 #@! TO.C,REF\u002A\u002A*
X46430000Y-33930000D03*
G04 #@! TD*
G04 #@! TO.C,REF\u002A\u002A*
X26110000Y-36470000D03*
G04 #@! TD*
G04 #@! TO.C,REF\u002A\u002A*
X18490000Y-26310000D03*
G04 #@! TD*
G04 #@! TO.C,REF\u002A\u002A*
X41350000Y-33930000D03*
G04 #@! TD*
G04 #@! TO.C,REF\u002A\u002A*
X54050000Y-33930000D03*
G04 #@! TD*
G04 #@! TO.C,REF\u002A\u002A*
X15950000Y-23770000D03*
G04 #@! TD*
G04 #@! TO.C,REF\u002A\u002A*
X46430000Y-18690000D03*
G04 #@! TD*
G04 #@! TO.C,REF\u002A\u002A*
X38810000Y-23770000D03*
G04 #@! TD*
G04 #@! TO.C,REF\u002A\u002A*
X26110000Y-21230000D03*
G04 #@! TD*
G04 #@! TO.C,REF\u002A\u002A*
X36270000Y-18690000D03*
G04 #@! TD*
D11*
G04 #@! TO.C,REF\u002A\u002A*
X5000000Y-42400000D03*
X3302944Y-41697056D03*
X7400000Y-40000000D03*
X6697056Y-41697056D03*
X3302944Y-38302944D03*
D12*
X5000000Y-40000000D03*
D11*
X2600000Y-40000000D03*
X6697056Y-38302944D03*
X5000000Y-37600000D03*
G04 #@! TD*
G04 #@! TO.C,REF\u002A\u002A*
X12500000Y-7400000D03*
X14197056Y-3302944D03*
X10100000Y-5000000D03*
X10802944Y-3302944D03*
X14900000Y-5000000D03*
D12*
X12500000Y-5000000D03*
D11*
X14197056Y-6697056D03*
X10802944Y-6697056D03*
X12500000Y-2600000D03*
G04 #@! TD*
D10*
G04 #@! TO.C,REF\u002A\u002A*
X59130000Y-33930000D03*
G04 #@! TD*
G04 #@! TO.C,J1*
G36*
G01*
X33200000Y-40810000D02*
X33200000Y-39560000D01*
G75*
G02*
X33350000Y-39410000I150000J0D01*
G01*
X33650000Y-39410000D01*
G75*
G02*
X33800000Y-39560000I0J-150000D01*
G01*
X33800000Y-40810000D01*
G75*
G02*
X33650000Y-40960000I-150000J0D01*
G01*
X33350000Y-40960000D01*
G75*
G02*
X33200000Y-40810000I0J150000D01*
G01*
G37*
G36*
G01*
X34200000Y-40810000D02*
X34200000Y-39560000D01*
G75*
G02*
X34350000Y-39410000I150000J0D01*
G01*
X34650000Y-39410000D01*
G75*
G02*
X34800000Y-39560000I0J-150000D01*
G01*
X34800000Y-40810000D01*
G75*
G02*
X34650000Y-40960000I-150000J0D01*
G01*
X34350000Y-40960000D01*
G75*
G02*
X34200000Y-40810000I0J150000D01*
G01*
G37*
G36*
G01*
X35200000Y-40810000D02*
X35200000Y-39560000D01*
G75*
G02*
X35350000Y-39410000I150000J0D01*
G01*
X35650000Y-39410000D01*
G75*
G02*
X35800000Y-39560000I0J-150000D01*
G01*
X35800000Y-40810000D01*
G75*
G02*
X35650000Y-40960000I-150000J0D01*
G01*
X35350000Y-40960000D01*
G75*
G02*
X35200000Y-40810000I0J150000D01*
G01*
G37*
G36*
G01*
X36200000Y-40810000D02*
X36200000Y-39560000D01*
G75*
G02*
X36350000Y-39410000I150000J0D01*
G01*
X36650000Y-39410000D01*
G75*
G02*
X36800000Y-39560000I0J-150000D01*
G01*
X36800000Y-40810000D01*
G75*
G02*
X36650000Y-40960000I-150000J0D01*
G01*
X36350000Y-40960000D01*
G75*
G02*
X36200000Y-40810000I0J150000D01*
G01*
G37*
G36*
G01*
X37200000Y-44710000D02*
X37200000Y-43410000D01*
G75*
G02*
X37450000Y-43160000I250000J0D01*
G01*
X38150000Y-43160000D01*
G75*
G02*
X38400000Y-43410000I0J-250000D01*
G01*
X38400000Y-44710000D01*
G75*
G02*
X38150000Y-44960000I-250000J0D01*
G01*
X37450000Y-44960000D01*
G75*
G02*
X37200000Y-44710000I0J250000D01*
G01*
G37*
G36*
G01*
X31600000Y-44710000D02*
X31600000Y-43410000D01*
G75*
G02*
X31850000Y-43160000I250000J0D01*
G01*
X32550000Y-43160000D01*
G75*
G02*
X32800000Y-43410000I0J-250000D01*
G01*
X32800000Y-44710000D01*
G75*
G02*
X32550000Y-44960000I-250000J0D01*
G01*
X31850000Y-44960000D01*
G75*
G02*
X31600000Y-44710000I0J250000D01*
G01*
G37*
G04 #@! TD*
G04 #@! TO.C,REF\u002A\u002A*
X21030000Y-28850000D03*
G04 #@! TD*
G04 #@! TO.C,REF\u002A\u002A*
X36270000Y-21230000D03*
G04 #@! TD*
G04 #@! TO.C,REF\u002A\u002A*
X13410000Y-26310000D03*
G04 #@! TD*
G04 #@! TO.C,REF\u002A\u002A*
X61670000Y-21230000D03*
G04 #@! TD*
G04 #@! TO.C,REF\u002A\u002A*
X18490000Y-8530000D03*
G04 #@! TD*
G04 #@! TO.C,REF\u002A\u002A*
X33730000Y-23770000D03*
G04 #@! TD*
G04 #@! TO.C,REF\u002A\u002A*
X59130000Y-23770000D03*
G04 #@! TD*
G04 #@! TO.C,REF\u002A\u002A*
X43890000Y-28850000D03*
G04 #@! TD*
G04 #@! TO.C,REF\u002A\u002A*
X33730000Y-26310000D03*
G04 #@! TD*
G04 #@! TO.C,REF\u002A\u002A*
X13410000Y-23770000D03*
G04 #@! TD*
G04 #@! TO.C,REF\u002A\u002A*
X46430000Y-23770000D03*
G04 #@! TD*
G04 #@! TO.C,REF\u002A\u002A*
X15950000Y-33930000D03*
G04 #@! TD*
G04 #@! TO.C,REF\u002A\u002A*
X21030000Y-13610000D03*
G04 #@! TD*
G04 #@! TO.C,REF\u002A\u002A*
X21030000Y-8530000D03*
G04 #@! TD*
G04 #@! TO.C,REF\u002A\u002A*
X18490000Y-11070000D03*
G04 #@! TD*
G04 #@! TO.C,REF\u002A\u002A*
X54050000Y-28850000D03*
G04 #@! TD*
G04 #@! TO.C,REF\u002A\u002A*
X21030000Y-16150000D03*
G04 #@! TD*
G04 #@! TO.C,REF\u002A\u002A*
X21030000Y-33930000D03*
G04 #@! TD*
G04 #@! TO.C,REF\u002A\u002A*
X8330000Y-13610000D03*
G04 #@! TD*
G04 #@! TO.C,REF\u002A\u002A*
X21030000Y-11070000D03*
G04 #@! TD*
G04 #@! TO.C,REF\u002A\u002A*
X43890000Y-36470000D03*
G04 #@! TD*
G04 #@! TO.C,REF\u002A\u002A*
X21030000Y-36470000D03*
G04 #@! TD*
G04 #@! TO.C,REF\u002A\u002A*
X26110000Y-11070000D03*
G04 #@! TD*
G04 #@! TO.C,REF\u002A\u002A*
X43890000Y-16150000D03*
G04 #@! TD*
G04 #@! TO.C,REF\u002A\u002A*
X28650000Y-13610000D03*
G04 #@! TD*
G04 #@! TO.C,REF\u002A\u002A*
X33730000Y-16150000D03*
G04 #@! TD*
G04 #@! TO.C,REF\u002A\u002A*
X36270000Y-8530000D03*
G04 #@! TD*
G04 #@! TO.C,REF\u002A\u002A*
X54050000Y-16150000D03*
G04 #@! TD*
G04 #@! TO.C,REF\u002A\u002A*
X59130000Y-36470000D03*
G04 #@! TD*
G04 #@! TO.C,REF\u002A\u002A*
X46430000Y-21230000D03*
G04 #@! TD*
G04 #@! TO.C,REF\u002A\u002A*
X10870000Y-23770000D03*
G04 #@! TD*
G04 #@! TO.C,REF\u002A\u002A*
X56590000Y-33930000D03*
G04 #@! TD*
G04 #@! TO.C,REF\u002A\u002A*
X26110000Y-28850000D03*
G04 #@! TD*
G04 #@! TO.C,REF\u002A\u002A*
X5790000Y-26310000D03*
G04 #@! TD*
G04 #@! TO.C,REF\u002A\u002A*
X41350000Y-26310000D03*
G04 #@! TD*
G04 #@! TO.C,REF\u002A\u002A*
X10870000Y-26310000D03*
G04 #@! TD*
G04 #@! TO.C,REF\u002A\u002A*
X43890000Y-13610000D03*
G04 #@! TD*
G04 #@! TO.C,REF\u002A\u002A*
X5790000Y-28850000D03*
G04 #@! TD*
G04 #@! TO.C,REF\u002A\u002A*
X54050000Y-31390000D03*
G04 #@! TD*
G04 #@! TO.C,REF\u002A\u002A*
X56590000Y-26310000D03*
G04 #@! TD*
G04 #@! TO.C,REF\u002A\u002A*
X13410000Y-21230000D03*
G04 #@! TD*
G04 #@! TO.C,REF\u002A\u002A*
X46430000Y-13610000D03*
G04 #@! TD*
G04 #@! TO.C,REF\u002A\u002A*
X36270000Y-11070000D03*
G04 #@! TD*
G04 #@! TO.C,REF\u002A\u002A*
X23570000Y-11070000D03*
G04 #@! TD*
G04 #@! TO.C,REF\u002A\u002A*
X13410000Y-13610000D03*
G04 #@! TD*
G04 #@! TO.C,REF\u002A\u002A*
X10870000Y-18690000D03*
G04 #@! TD*
G04 #@! TO.C,REF\u002A\u002A*
X54050000Y-36470000D03*
G04 #@! TD*
G04 #@! TO.C,REF\u002A\u002A*
X15950000Y-13610000D03*
G04 #@! TD*
G04 #@! TO.C,REF\u002A\u002A*
X43890000Y-33930000D03*
G04 #@! TD*
G04 #@! TO.C,REF\u002A\u002A*
X51510000Y-28850000D03*
G04 #@! TD*
G04 #@! TO.C,REF\u002A\u002A*
X26110000Y-16150000D03*
G04 #@! TD*
G04 #@! TO.C,REF\u002A\u002A*
X10870000Y-36470000D03*
G04 #@! TD*
G04 #@! TO.C,REF\u002A\u002A*
X18490000Y-28850000D03*
G04 #@! TD*
G04 #@! TO.C,REF\u002A\u002A*
X59130000Y-18690000D03*
G04 #@! TD*
G04 #@! TO.C,REF\u002A\u002A*
X26110000Y-13610000D03*
G04 #@! TD*
G04 #@! TO.C,REF\u002A\u002A*
X23570000Y-28850000D03*
G04 #@! TD*
G04 #@! TO.C,REF\u002A\u002A*
X26110000Y-23770000D03*
G04 #@! TD*
G04 #@! TO.C,REF\u002A\u002A*
X48970000Y-11070000D03*
G04 #@! TD*
G04 #@! TO.C,REF\u002A\u002A*
X56590000Y-28850000D03*
G04 #@! TD*
G04 #@! TO.C,REF\u002A\u002A*
X18490000Y-21230000D03*
G04 #@! TD*
G04 #@! TO.C,REF\u002A\u002A*
X15950000Y-16150000D03*
G04 #@! TD*
G04 #@! TO.C,REF\u002A\u002A*
X23570000Y-23770000D03*
G04 #@! TD*
G04 #@! TO.C,REF\u002A\u002A*
X51510000Y-18690000D03*
G04 #@! TD*
G04 #@! TO.C,REF\u002A\u002A*
X10870000Y-13610000D03*
G04 #@! TD*
G04 #@! TO.C,REF\u002A\u002A*
X23570000Y-18690000D03*
G04 #@! TD*
G04 #@! TO.C,REF\u002A\u002A*
X28650000Y-11070000D03*
G04 #@! TD*
G04 #@! TO.C,REF\u002A\u002A*
X59130000Y-26310000D03*
G04 #@! TD*
G04 #@! TO.C,REF\u002A\u002A*
X13410000Y-16150000D03*
G04 #@! TD*
G04 #@! TO.C,REF\u002A\u002A*
X59130000Y-16150000D03*
G04 #@! TD*
G04 #@! TO.C,REF\u002A\u002A*
X15950000Y-26310000D03*
G04 #@! TD*
G04 #@! TO.C,REF\u002A\u002A*
X51510000Y-23770000D03*
G04 #@! TD*
G04 #@! TO.C,REF\u002A\u002A*
X46430000Y-36470000D03*
G04 #@! TD*
G04 #@! TO.C,REF\u002A\u002A*
X59130000Y-31390000D03*
G04 #@! TD*
G04 #@! TO.C,REF\u002A\u002A*
X61670000Y-31390000D03*
G04 #@! TD*
G04 #@! TO.C,REF\u002A\u002A*
X26110000Y-18690000D03*
G04 #@! TD*
G04 #@! TO.C,REF\u002A\u002A*
X10870000Y-21230000D03*
G04 #@! TD*
G04 #@! TO.C,REF\u002A\u002A*
X59130000Y-13610000D03*
G04 #@! TD*
G04 #@! TO.C,REF\u002A\u002A*
X51510000Y-26310000D03*
G04 #@! TD*
G04 #@! TO.C,REF\u002A\u002A*
X43890000Y-11070000D03*
G04 #@! TD*
G04 #@! TO.C,REF\u002A\u002A*
X33730000Y-33930000D03*
G04 #@! TD*
G04 #@! TO.C,REF\u002A\u002A*
X31190000Y-26310000D03*
G04 #@! TD*
G04 #@! TO.C,REF\u002A\u002A*
X31190000Y-13610000D03*
G04 #@! TD*
G04 #@! TO.C,REF\u002A\u002A*
X46430000Y-11070000D03*
G04 #@! TD*
G04 #@! TO.C,REF\u002A\u002A*
X38810000Y-31390000D03*
G04 #@! TD*
G04 #@! TO.C,REF\u002A\u002A*
X41350000Y-36470000D03*
G04 #@! TD*
G04 #@! TO.C,REF\u002A\u002A*
X38810000Y-26310000D03*
G04 #@! TD*
G04 #@! TO.C,REF\u002A\u002A*
X13410000Y-36470000D03*
G04 #@! TD*
G04 #@! TO.C,REF\u002A\u002A*
X23570000Y-21230000D03*
G04 #@! TD*
G04 #@! TO.C,REF\u002A\u002A*
X54050000Y-26310000D03*
G04 #@! TD*
G04 #@! TO.C,REF\u002A\u002A*
X31190000Y-21230000D03*
G04 #@! TD*
G04 #@! TO.C,REF\u002A\u002A*
X36270000Y-23770000D03*
G04 #@! TD*
G04 #@! TO.C,REF\u002A\u002A*
X36270000Y-28850000D03*
G04 #@! TD*
G04 #@! TO.C,REF\u002A\u002A*
X15950000Y-28850000D03*
G04 #@! TD*
G04 #@! TO.C,REF\u002A\u002A*
X13410000Y-33930000D03*
G04 #@! TD*
G04 #@! TO.C,REF\u002A\u002A*
X59130000Y-11070000D03*
G04 #@! TD*
G04 #@! TO.C,REF\u002A\u002A*
X8330000Y-18690000D03*
G04 #@! TD*
G04 #@! TO.C,REF\u002A\u002A*
X28650000Y-31390000D03*
G04 #@! TD*
G04 #@! TO.C,REF\u002A\u002A*
X64210000Y-28850000D03*
G04 #@! TD*
G04 #@! TO.C,REF\u002A\u002A*
X8330000Y-28850000D03*
G04 #@! TD*
G04 #@! TO.C,REF\u002A\u002A*
X56590000Y-11070000D03*
G04 #@! TD*
G04 #@! TO.C,REF\u002A\u002A*
X36270000Y-26310000D03*
G04 #@! TD*
G04 #@! TO.C,REF\u002A\u002A*
X18490000Y-36470000D03*
G04 #@! TD*
G04 #@! TO.C,REF\u002A\u002A*
X23570000Y-13610000D03*
G04 #@! TD*
G04 #@! TO.C,REF\u002A\u002A*
X23570000Y-33930000D03*
G04 #@! TD*
G04 #@! TO.C,REF\u002A\u002A*
X48970000Y-21230000D03*
G04 #@! TD*
G04 #@! TO.C,REF\u002A\u002A*
X56590000Y-16150000D03*
G04 #@! TD*
G04 #@! TO.C,REF\u002A\u002A*
X61670000Y-13610000D03*
G04 #@! TD*
G04 #@! TO.C,REF\u002A\u002A*
X18490000Y-33930000D03*
G04 #@! TD*
G04 #@! TO.C,REF\u002A\u002A*
X31190000Y-11070000D03*
G04 #@! TD*
G04 #@! TO.C,REF\u002A\u002A*
X56590000Y-31390000D03*
G04 #@! TD*
G04 #@! TO.C,REF\u002A\u002A*
X28650000Y-21230000D03*
G04 #@! TD*
M02*
